%TF.GenerationSoftware,KiCad,Pcbnew,8.0.2*%
%TF.CreationDate,2024-05-29T14:57:23+02:00*%
%TF.ProjectId,LoRaKid,4c6f5261-4b69-4642-9e6b-696361645f70,rev?*%
%TF.SameCoordinates,Original*%
%TF.FileFunction,Copper,L2,Bot*%
%TF.FilePolarity,Positive*%
%FSLAX46Y46*%
G04 Gerber Fmt 4.6, Leading zero omitted, Abs format (unit mm)*
G04 Created by KiCad (PCBNEW 8.0.2) date 2024-05-29 14:57:23*
%MOMM*%
%LPD*%
G01*
G04 APERTURE LIST*
G04 Aperture macros list*
%AMRoundRect*
0 Rectangle with rounded corners*
0 $1 Rounding radius*
0 $2 $3 $4 $5 $6 $7 $8 $9 X,Y pos of 4 corners*
0 Add a 4 corners polygon primitive as box body*
4,1,4,$2,$3,$4,$5,$6,$7,$8,$9,$2,$3,0*
0 Add four circle primitives for the rounded corners*
1,1,$1+$1,$2,$3*
1,1,$1+$1,$4,$5*
1,1,$1+$1,$6,$7*
1,1,$1+$1,$8,$9*
0 Add four rect primitives between the rounded corners*
20,1,$1+$1,$2,$3,$4,$5,0*
20,1,$1+$1,$4,$5,$6,$7,0*
20,1,$1+$1,$6,$7,$8,$9,0*
20,1,$1+$1,$8,$9,$2,$3,0*%
G04 Aperture macros list end*
%TA.AperFunction,ComponentPad*%
%ADD10R,1.700000X1.700000*%
%TD*%
%TA.AperFunction,ComponentPad*%
%ADD11O,1.700000X1.700000*%
%TD*%
%TA.AperFunction,ComponentPad*%
%ADD12RoundRect,0.250000X-0.350000X-0.625000X0.350000X-0.625000X0.350000X0.625000X-0.350000X0.625000X0*%
%TD*%
%TA.AperFunction,ComponentPad*%
%ADD13O,1.200000X1.750000*%
%TD*%
%TA.AperFunction,ComponentPad*%
%ADD14O,1.050000X1.500000*%
%TD*%
%TA.AperFunction,ComponentPad*%
%ADD15R,1.050000X1.500000*%
%TD*%
%TA.AperFunction,ComponentPad*%
%ADD16C,2.000000*%
%TD*%
%TA.AperFunction,ComponentPad*%
%ADD17R,2.000000X2.000000*%
%TD*%
%TA.AperFunction,ComponentPad*%
%ADD18C,1.524000*%
%TD*%
%TA.AperFunction,ViaPad*%
%ADD19C,1.200000*%
%TD*%
%TA.AperFunction,Conductor*%
%ADD20C,0.700000*%
%TD*%
G04 APERTURE END LIST*
D10*
%TO.P,J1,1,Pin_1*%
%TO.N,GND*%
X134725000Y-121500000D03*
D11*
%TO.P,J1,2,Pin_2*%
%TO.N,Net-(BAT1-Pin_2)*%
X137265000Y-121500000D03*
%TD*%
D12*
%TO.P,BAT1,1,Pin_1*%
%TO.N,GND*%
X149000000Y-119500000D03*
D13*
%TO.P,BAT1,2,Pin_2*%
%TO.N,Net-(BAT1-Pin_2)*%
X151000000Y-119500000D03*
%TD*%
D10*
%TO.P,USB1,1,Pin_1*%
%TO.N,Net-(U1-5V)*%
X131920000Y-132500000D03*
D11*
%TO.P,USB1,2,Pin_2*%
%TO.N,unconnected-(USB1-Pin_2-Pad2)*%
X134460000Y-132500000D03*
%TO.P,USB1,3,Pin_3*%
%TO.N,unconnected-(USB1-Pin_3-Pad3)*%
X137000000Y-132500000D03*
%TO.P,USB1,4,Pin_4*%
%TO.N,GND*%
X139540000Y-132500000D03*
%TD*%
D14*
%TO.P,Q1,3,C*%
%TO.N,Net-(BZ1--)*%
X121390000Y-113000000D03*
%TO.P,Q1,2,B*%
%TO.N,Net-(Q1-B)*%
X120120000Y-113000000D03*
D15*
%TO.P,Q1,1,E*%
%TO.N,GND*%
X118850000Y-113000000D03*
%TD*%
D16*
%TO.P,BZ1,2,-*%
%TO.N,Net-(BZ1--)*%
X140300000Y-36000000D03*
D17*
%TO.P,BZ1,1,+*%
%TO.N,+3.3V*%
X132700000Y-36000000D03*
%TD*%
D18*
%TO.P,U1,1,GND*%
%TO.N,GND*%
X107819952Y-48260000D03*
%TO.P,U1,2,3V3*%
%TO.N,+3.3V*%
X110359952Y-48260000D03*
%TO.P,U1,3,3V3*%
X112899952Y-48260000D03*
%TO.P,U1,4,ADC_Ctrl*%
%TO.N,unconnected-(U1-ADC_Ctrl-Pad4)*%
X115439952Y-48260000D03*
%TO.P,U1,5,GPIO46*%
%TO.N,unconnected-(U1-GPIO46-Pad5)*%
X117979952Y-48260000D03*
%TO.P,U1,6,GPIO45*%
%TO.N,unconnected-(U1-GPIO45-Pad6)*%
X120519952Y-48260000D03*
%TO.P,U1,7,GPIO42*%
%TO.N,unconnected-(U1-GPIO42-Pad7)*%
X123059952Y-48260000D03*
%TO.P,U1,8,GPIO41*%
%TO.N,unconnected-(U1-GPIO41-Pad8)*%
X125599952Y-48260000D03*
%TO.P,U1,9,GPIO40*%
%TO.N,Net-(U1-GPIO40)*%
X128139952Y-48260000D03*
%TO.P,U1,10,GPIO39*%
%TO.N,Net-(U1-GPIO39)*%
X130679952Y-48260000D03*
%TO.P,U1,11,GPIO38*%
%TO.N,Net-(U1-GPIO38)*%
X133219952Y-48260000D03*
%TO.P,U1,12,VBAT_READ*%
%TO.N,unconnected-(U1-VBAT_READ-Pad12)*%
X135759952Y-48260000D03*
%TO.P,U1,13,GPIO2/ADC1_1*%
%TO.N,unconnected-(U1-GPIO2{slash}ADC1_1-Pad13)*%
X138299952Y-48260000D03*
%TO.P,U1,14,GPIO3/ADC1_2*%
%TO.N,unconnected-(U1-GPIO3{slash}ADC1_2-Pad14)*%
X140839952Y-48260000D03*
%TO.P,U1,15,GPIO4/ADC1_3*%
%TO.N,unconnected-(U1-GPIO4{slash}ADC1_3-Pad15)*%
X143379952Y-48260000D03*
%TO.P,U1,16,GPIO5/ADC1_4*%
%TO.N,unconnected-(U1-GPIO5{slash}ADC1_4-Pad16)*%
X145919952Y-48260000D03*
%TO.P,U1,17,GPIO6/ADC1_5*%
%TO.N,Net-(U1-GPIO6{slash}ADC1_5)*%
X148459952Y-48260000D03*
%TO.P,U1,18,GPIO7/ADC1_6*%
%TO.N,Net-(U1-GPIO7{slash}ADC1_6)*%
X150999952Y-48260000D03*
%TO.P,U1,19,GND*%
%TO.N,GND*%
X107819952Y-71120000D03*
%TO.P,U1,20,5V*%
%TO.N,Net-(U1-5V)*%
X110359952Y-71120000D03*
%TO.P,U1,21,Vextern*%
%TO.N,unconnected-(U1-Vextern-Pad21)*%
X112899952Y-71120000D03*
%TO.P,U1,22,Vextern*%
%TO.N,unconnected-(U1-Vextern-Pad22)*%
X115439952Y-71120000D03*
%TO.P,U1,23,USB_TX*%
%TO.N,unconnected-(U1-USB_TX-Pad23)*%
X117979952Y-71120000D03*
%TO.P,U1,24,USB_RX*%
%TO.N,unconnected-(U1-USB_RX-Pad24)*%
X120519952Y-71120000D03*
%TO.P,U1,25,RST*%
%TO.N,unconnected-(U1-RST-Pad25)*%
X123059952Y-71120000D03*
%TO.P,U1,26,PROG*%
%TO.N,Net-(U1-PROG)*%
X125599952Y-71120000D03*
%TO.P,U1,27,Vext_CTRL*%
%TO.N,unconnected-(U1-Vext_CTRL-Pad27)*%
X128139952Y-71120000D03*
%TO.P,U1,28,LED*%
%TO.N,unconnected-(U1-LED-Pad28)*%
X130679952Y-71120000D03*
%TO.P,U1,29,GPIO34*%
%TO.N,unconnected-(U1-GPIO34-Pad29)*%
X133219952Y-71120000D03*
%TO.P,U1,30,GPIO33*%
%TO.N,Net-(U1-GPIO33)*%
X135759952Y-71120000D03*
%TO.P,U1,31,GPIO47*%
%TO.N,Net-(U1-GPIO47)*%
X138299952Y-71120000D03*
%TO.P,U1,32,GPIO48*%
%TO.N,Net-(U1-GPIO48)*%
X140839952Y-71120000D03*
%TO.P,U1,33,GPIO26*%
%TO.N,Net-(U1-GPIO26)*%
X143379952Y-71120000D03*
%TO.P,U1,34,OLED_RST*%
%TO.N,unconnected-(U1-OLED_RST-Pad34)*%
X145919952Y-71120000D03*
%TO.P,U1,35,GPIO20*%
%TO.N,unconnected-(U1-GPIO20-Pad35)*%
X148459952Y-71120000D03*
%TO.P,U1,36,GPIO19*%
%TO.N,unconnected-(U1-GPIO19-Pad36)*%
X150999952Y-71120000D03*
%TD*%
D19*
%TO.N,Net-(U1-GPIO40)*%
X153628000Y-71094800D03*
%TO.N,Net-(U1-GPIO39)*%
X140036000Y-85860300D03*
%TO.N,Net-(U1-PROG)*%
X108729000Y-33883900D03*
%TD*%
D20*
%TO.N,Net-(BAT1-Pin_2)*%
X151000000Y-124000000D02*
X139765000Y-124000000D01*
X151000000Y-119500000D02*
X151000000Y-124000000D01*
X139765000Y-124000000D02*
X137265000Y-121500000D01*
%TO.N,Net-(U1-5V)*%
X110360000Y-107738000D02*
X110360000Y-71120000D01*
X131920000Y-129298000D02*
X110360000Y-107738000D01*
X131920000Y-131500000D02*
X131920000Y-129298000D01*
X131920000Y-131500000D02*
X131920000Y-132500000D01*
%TO.N,+3.3V*%
X124684000Y-36000000D02*
X132700000Y-36000000D01*
X112900000Y-47783700D02*
X124684000Y-36000000D01*
X112900000Y-48260000D02*
X112900000Y-47783700D01*
%TO.N,Net-(U1-GPIO40)*%
X153628000Y-70702700D02*
X153628000Y-71094800D01*
X150588000Y-67663200D02*
X153628000Y-70702700D01*
X147027000Y-67663200D02*
X150588000Y-67663200D01*
X128140000Y-48776400D02*
X147027000Y-67663200D01*
X128140000Y-48260000D02*
X128140000Y-48776400D01*
%TO.N,Net-(U1-GPIO39)*%
X141715000Y-85860300D02*
X140036000Y-85860300D01*
X155579000Y-71996300D02*
X141715000Y-85860300D01*
X155579000Y-70190000D02*
X155579000Y-71996300D01*
X149388000Y-63998700D02*
X155579000Y-70190000D01*
X145861000Y-63998700D02*
X149388000Y-63998700D01*
X130680000Y-48817400D02*
X145861000Y-63998700D01*
X130680000Y-48260000D02*
X130680000Y-48817400D01*
%TO.N,Net-(U1-PROG)*%
X105668000Y-36944900D02*
X108729000Y-33883900D01*
X105668000Y-50416600D02*
X105668000Y-36944900D01*
X125600000Y-70348700D02*
X105668000Y-50416600D01*
X125600000Y-71120000D02*
X125600000Y-70348700D01*
%TD*%
%TA.AperFunction,Conductor*%
%TO.N,GND*%
G36*
X108871693Y-48958188D02*
G01*
X108917046Y-48893417D01*
X108917047Y-48893416D01*
X108977292Y-48764219D01*
X109023464Y-48711780D01*
X109090658Y-48692627D01*
X109157539Y-48712842D01*
X109202057Y-48764218D01*
X109262418Y-48893662D01*
X109262420Y-48893666D01*
X109389122Y-49074615D01*
X109389127Y-49074621D01*
X109545330Y-49230824D01*
X109545336Y-49230829D01*
X109726285Y-49357531D01*
X109726287Y-49357532D01*
X109726290Y-49357534D01*
X109926502Y-49450894D01*
X110139884Y-49508070D01*
X110297075Y-49521822D01*
X110359950Y-49527323D01*
X110359952Y-49527323D01*
X110359954Y-49527323D01*
X110414969Y-49522509D01*
X110580020Y-49508070D01*
X110793402Y-49450894D01*
X110993614Y-49357534D01*
X111174572Y-49230826D01*
X111330778Y-49074620D01*
X111457486Y-48893662D01*
X111517570Y-48764811D01*
X111563742Y-48712371D01*
X111630935Y-48693219D01*
X111697817Y-48713435D01*
X111742334Y-48764811D01*
X111802416Y-48893658D01*
X111802420Y-48893666D01*
X111929122Y-49074615D01*
X111929127Y-49074621D01*
X112085330Y-49230824D01*
X112085336Y-49230829D01*
X112266285Y-49357531D01*
X112266287Y-49357532D01*
X112266290Y-49357534D01*
X112466502Y-49450894D01*
X112679884Y-49508070D01*
X112837075Y-49521822D01*
X112899950Y-49527323D01*
X112899952Y-49527323D01*
X112899954Y-49527323D01*
X112954969Y-49522509D01*
X113120020Y-49508070D01*
X113333402Y-49450894D01*
X113533614Y-49357534D01*
X113714572Y-49230826D01*
X113870778Y-49074620D01*
X113997486Y-48893662D01*
X114057570Y-48764811D01*
X114103742Y-48712371D01*
X114170935Y-48693219D01*
X114237817Y-48713435D01*
X114282334Y-48764811D01*
X114342416Y-48893658D01*
X114342420Y-48893666D01*
X114469122Y-49074615D01*
X114469127Y-49074621D01*
X114625330Y-49230824D01*
X114625336Y-49230829D01*
X114806285Y-49357531D01*
X114806287Y-49357532D01*
X114806290Y-49357534D01*
X115006502Y-49450894D01*
X115219884Y-49508070D01*
X115377075Y-49521822D01*
X115439950Y-49527323D01*
X115439952Y-49527323D01*
X115439954Y-49527323D01*
X115494969Y-49522509D01*
X115660020Y-49508070D01*
X115873402Y-49450894D01*
X116073614Y-49357534D01*
X116254572Y-49230826D01*
X116410778Y-49074620D01*
X116537486Y-48893662D01*
X116597570Y-48764811D01*
X116643742Y-48712371D01*
X116710935Y-48693219D01*
X116777817Y-48713435D01*
X116822334Y-48764811D01*
X116882416Y-48893658D01*
X116882420Y-48893666D01*
X117009122Y-49074615D01*
X117009127Y-49074621D01*
X117165330Y-49230824D01*
X117165336Y-49230829D01*
X117346285Y-49357531D01*
X117346287Y-49357532D01*
X117346290Y-49357534D01*
X117546502Y-49450894D01*
X117759884Y-49508070D01*
X117917075Y-49521822D01*
X117979950Y-49527323D01*
X117979952Y-49527323D01*
X117979954Y-49527323D01*
X118034969Y-49522509D01*
X118200020Y-49508070D01*
X118413402Y-49450894D01*
X118613614Y-49357534D01*
X118794572Y-49230826D01*
X118950778Y-49074620D01*
X119077486Y-48893662D01*
X119137570Y-48764811D01*
X119183742Y-48712371D01*
X119250935Y-48693219D01*
X119317817Y-48713435D01*
X119362334Y-48764811D01*
X119422416Y-48893658D01*
X119422420Y-48893666D01*
X119549122Y-49074615D01*
X119549127Y-49074621D01*
X119705330Y-49230824D01*
X119705336Y-49230829D01*
X119886285Y-49357531D01*
X119886287Y-49357532D01*
X119886290Y-49357534D01*
X120086502Y-49450894D01*
X120299884Y-49508070D01*
X120457075Y-49521822D01*
X120519950Y-49527323D01*
X120519952Y-49527323D01*
X120519954Y-49527323D01*
X120574969Y-49522509D01*
X120740020Y-49508070D01*
X120953402Y-49450894D01*
X121153614Y-49357534D01*
X121334572Y-49230826D01*
X121490778Y-49074620D01*
X121617486Y-48893662D01*
X121677570Y-48764811D01*
X121723742Y-48712371D01*
X121790935Y-48693219D01*
X121857817Y-48713435D01*
X121902334Y-48764811D01*
X121962416Y-48893658D01*
X121962420Y-48893666D01*
X122089122Y-49074615D01*
X122089127Y-49074621D01*
X122245330Y-49230824D01*
X122245336Y-49230829D01*
X122426285Y-49357531D01*
X122426287Y-49357532D01*
X122426290Y-49357534D01*
X122626502Y-49450894D01*
X122839884Y-49508070D01*
X122997075Y-49521822D01*
X123059950Y-49527323D01*
X123059952Y-49527323D01*
X123059954Y-49527323D01*
X123114969Y-49522509D01*
X123280020Y-49508070D01*
X123493402Y-49450894D01*
X123693614Y-49357534D01*
X123874572Y-49230826D01*
X124030778Y-49074620D01*
X124157486Y-48893662D01*
X124217570Y-48764811D01*
X124263742Y-48712371D01*
X124330935Y-48693219D01*
X124397817Y-48713435D01*
X124442334Y-48764811D01*
X124502416Y-48893658D01*
X124502420Y-48893666D01*
X124629122Y-49074615D01*
X124629127Y-49074621D01*
X124785330Y-49230824D01*
X124785336Y-49230829D01*
X124966285Y-49357531D01*
X124966287Y-49357532D01*
X124966290Y-49357534D01*
X125166502Y-49450894D01*
X125379884Y-49508070D01*
X125537075Y-49521822D01*
X125599950Y-49527323D01*
X125599952Y-49527323D01*
X125599954Y-49527323D01*
X125654969Y-49522509D01*
X125820020Y-49508070D01*
X126033402Y-49450894D01*
X126233614Y-49357534D01*
X126414572Y-49230826D01*
X126570778Y-49074620D01*
X126697486Y-48893662D01*
X126757570Y-48764811D01*
X126803742Y-48712371D01*
X126870935Y-48693219D01*
X126937817Y-48713435D01*
X126982334Y-48764811D01*
X127042416Y-48893658D01*
X127042420Y-48893666D01*
X127169122Y-49074615D01*
X127169127Y-49074621D01*
X127325330Y-49230824D01*
X127325336Y-49230829D01*
X127506285Y-49357531D01*
X127506287Y-49357531D01*
X127506290Y-49357534D01*
X127509062Y-49358827D01*
X127544335Y-49383525D01*
X146484841Y-68323829D01*
X146484844Y-68323831D01*
X146484845Y-68323832D01*
X146484848Y-68323835D01*
X146624130Y-68416899D01*
X146624134Y-68416901D01*
X146624141Y-68416906D01*
X146710250Y-68452572D01*
X146710251Y-68452573D01*
X146738694Y-68464354D01*
X146778918Y-68481016D01*
X146943228Y-68513699D01*
X146943232Y-68513700D01*
X146943233Y-68513700D01*
X146943238Y-68513700D01*
X150184397Y-68513700D01*
X150251436Y-68533385D01*
X150272071Y-68550012D01*
X151403887Y-69681642D01*
X151437377Y-69742962D01*
X151432398Y-69812654D01*
X151390532Y-69868591D01*
X151325069Y-69893013D01*
X151284120Y-69889105D01*
X151220025Y-69871931D01*
X151220021Y-69871930D01*
X151220020Y-69871930D01*
X151220019Y-69871929D01*
X151220014Y-69871929D01*
X150999954Y-69852677D01*
X150999950Y-69852677D01*
X150779889Y-69871929D01*
X150779881Y-69871930D01*
X150566506Y-69929104D01*
X150566500Y-69929107D01*
X150366292Y-70022465D01*
X150366290Y-70022466D01*
X150185329Y-70149175D01*
X150029127Y-70305377D01*
X149902418Y-70486338D01*
X149902417Y-70486340D01*
X149842334Y-70615189D01*
X149796161Y-70667628D01*
X149728968Y-70686780D01*
X149662087Y-70666564D01*
X149617570Y-70615189D01*
X149557603Y-70486590D01*
X149557486Y-70486339D01*
X149430778Y-70305380D01*
X149274572Y-70149174D01*
X149274568Y-70149171D01*
X149274567Y-70149170D01*
X149093618Y-70022468D01*
X149093614Y-70022466D01*
X149006671Y-69981924D01*
X148893402Y-69929106D01*
X148893399Y-69929105D01*
X148893397Y-69929104D01*
X148680022Y-69871930D01*
X148680014Y-69871929D01*
X148459954Y-69852677D01*
X148459950Y-69852677D01*
X148239889Y-69871929D01*
X148239881Y-69871930D01*
X148026506Y-69929104D01*
X148026500Y-69929107D01*
X147826292Y-70022465D01*
X147826290Y-70022466D01*
X147645329Y-70149175D01*
X147489127Y-70305377D01*
X147362418Y-70486338D01*
X147362417Y-70486340D01*
X147302334Y-70615189D01*
X147256161Y-70667628D01*
X147188968Y-70686780D01*
X147122087Y-70666564D01*
X147077570Y-70615189D01*
X147017603Y-70486590D01*
X147017486Y-70486339D01*
X146890778Y-70305380D01*
X146734572Y-70149174D01*
X146734568Y-70149171D01*
X146734567Y-70149170D01*
X146553618Y-70022468D01*
X146553614Y-70022466D01*
X146466671Y-69981924D01*
X146353402Y-69929106D01*
X146353399Y-69929105D01*
X146353397Y-69929104D01*
X146140022Y-69871930D01*
X146140014Y-69871929D01*
X145919954Y-69852677D01*
X145919950Y-69852677D01*
X145699889Y-69871929D01*
X145699881Y-69871930D01*
X145486506Y-69929104D01*
X145486500Y-69929107D01*
X145286292Y-70022465D01*
X145286290Y-70022466D01*
X145105329Y-70149175D01*
X144949127Y-70305377D01*
X144822418Y-70486338D01*
X144822417Y-70486340D01*
X144762334Y-70615189D01*
X144716161Y-70667628D01*
X144648968Y-70686780D01*
X144582087Y-70666564D01*
X144537570Y-70615189D01*
X144477603Y-70486590D01*
X144477486Y-70486339D01*
X144350778Y-70305380D01*
X144194572Y-70149174D01*
X144194568Y-70149171D01*
X144194567Y-70149170D01*
X144013618Y-70022468D01*
X144013614Y-70022466D01*
X143926671Y-69981924D01*
X143813402Y-69929106D01*
X143813399Y-69929105D01*
X143813397Y-69929104D01*
X143600022Y-69871930D01*
X143600014Y-69871929D01*
X143379954Y-69852677D01*
X143379950Y-69852677D01*
X143159889Y-69871929D01*
X143159881Y-69871930D01*
X142946506Y-69929104D01*
X142946500Y-69929107D01*
X142746292Y-70022465D01*
X142746290Y-70022466D01*
X142565329Y-70149175D01*
X142409127Y-70305377D01*
X142282418Y-70486338D01*
X142282417Y-70486340D01*
X142222334Y-70615189D01*
X142176161Y-70667628D01*
X142108968Y-70686780D01*
X142042087Y-70666564D01*
X141997570Y-70615189D01*
X141937603Y-70486590D01*
X141937486Y-70486339D01*
X141810778Y-70305380D01*
X141654572Y-70149174D01*
X141654568Y-70149171D01*
X141654567Y-70149170D01*
X141473618Y-70022468D01*
X141473614Y-70022466D01*
X141386671Y-69981924D01*
X141273402Y-69929106D01*
X141273399Y-69929105D01*
X141273397Y-69929104D01*
X141060022Y-69871930D01*
X141060014Y-69871929D01*
X140839954Y-69852677D01*
X140839950Y-69852677D01*
X140619889Y-69871929D01*
X140619881Y-69871930D01*
X140406506Y-69929104D01*
X140406500Y-69929107D01*
X140206292Y-70022465D01*
X140206290Y-70022466D01*
X140025329Y-70149175D01*
X139869127Y-70305377D01*
X139742418Y-70486338D01*
X139742417Y-70486340D01*
X139682334Y-70615189D01*
X139636161Y-70667628D01*
X139568968Y-70686780D01*
X139502087Y-70666564D01*
X139457570Y-70615189D01*
X139397603Y-70486590D01*
X139397486Y-70486339D01*
X139270778Y-70305380D01*
X139114572Y-70149174D01*
X139114568Y-70149171D01*
X139114567Y-70149170D01*
X138933618Y-70022468D01*
X138933614Y-70022466D01*
X138846671Y-69981924D01*
X138733402Y-69929106D01*
X138733399Y-69929105D01*
X138733397Y-69929104D01*
X138520022Y-69871930D01*
X138520014Y-69871929D01*
X138299954Y-69852677D01*
X138299950Y-69852677D01*
X138079889Y-69871929D01*
X138079881Y-69871930D01*
X137866506Y-69929104D01*
X137866500Y-69929107D01*
X137666292Y-70022465D01*
X137666290Y-70022466D01*
X137485329Y-70149175D01*
X137329127Y-70305377D01*
X137202418Y-70486338D01*
X137202417Y-70486340D01*
X137142334Y-70615189D01*
X137096161Y-70667628D01*
X137028968Y-70686780D01*
X136962087Y-70666564D01*
X136917570Y-70615189D01*
X136857603Y-70486590D01*
X136857486Y-70486339D01*
X136730778Y-70305380D01*
X136574572Y-70149174D01*
X136574568Y-70149171D01*
X136574567Y-70149170D01*
X136393618Y-70022468D01*
X136393614Y-70022466D01*
X136306671Y-69981924D01*
X136193402Y-69929106D01*
X136193399Y-69929105D01*
X136193397Y-69929104D01*
X135980022Y-69871930D01*
X135980014Y-69871929D01*
X135759954Y-69852677D01*
X135759950Y-69852677D01*
X135539889Y-69871929D01*
X135539881Y-69871930D01*
X135326506Y-69929104D01*
X135326500Y-69929107D01*
X135126292Y-70022465D01*
X135126290Y-70022466D01*
X134945329Y-70149175D01*
X134789127Y-70305377D01*
X134662418Y-70486338D01*
X134662417Y-70486340D01*
X134602334Y-70615189D01*
X134556161Y-70667628D01*
X134488968Y-70686780D01*
X134422087Y-70666564D01*
X134377570Y-70615189D01*
X134317603Y-70486590D01*
X134317486Y-70486339D01*
X134190778Y-70305380D01*
X134034572Y-70149174D01*
X134034568Y-70149171D01*
X134034567Y-70149170D01*
X133853618Y-70022468D01*
X133853614Y-70022466D01*
X133766671Y-69981924D01*
X133653402Y-69929106D01*
X133653399Y-69929105D01*
X133653397Y-69929104D01*
X133440022Y-69871930D01*
X133440014Y-69871929D01*
X133219954Y-69852677D01*
X133219950Y-69852677D01*
X132999889Y-69871929D01*
X132999881Y-69871930D01*
X132786506Y-69929104D01*
X132786500Y-69929107D01*
X132586292Y-70022465D01*
X132586290Y-70022466D01*
X132405329Y-70149175D01*
X132249127Y-70305377D01*
X132122418Y-70486338D01*
X132122417Y-70486340D01*
X132062334Y-70615189D01*
X132016161Y-70667628D01*
X131948968Y-70686780D01*
X131882087Y-70666564D01*
X131837570Y-70615189D01*
X131777603Y-70486590D01*
X131777486Y-70486339D01*
X131650778Y-70305380D01*
X131494572Y-70149174D01*
X131494568Y-70149171D01*
X131494567Y-70149170D01*
X131313618Y-70022468D01*
X131313614Y-70022466D01*
X131226671Y-69981924D01*
X131113402Y-69929106D01*
X131113399Y-69929105D01*
X131113397Y-69929104D01*
X130900022Y-69871930D01*
X130900014Y-69871929D01*
X130679954Y-69852677D01*
X130679950Y-69852677D01*
X130459889Y-69871929D01*
X130459881Y-69871930D01*
X130246506Y-69929104D01*
X130246500Y-69929107D01*
X130046292Y-70022465D01*
X130046290Y-70022466D01*
X129865329Y-70149175D01*
X129709127Y-70305377D01*
X129582418Y-70486338D01*
X129582417Y-70486340D01*
X129522334Y-70615189D01*
X129476161Y-70667628D01*
X129408968Y-70686780D01*
X129342087Y-70666564D01*
X129297570Y-70615189D01*
X129237603Y-70486590D01*
X129237486Y-70486339D01*
X129110778Y-70305380D01*
X128954572Y-70149174D01*
X128954568Y-70149171D01*
X128954567Y-70149170D01*
X128773618Y-70022468D01*
X128773614Y-70022466D01*
X128686671Y-69981924D01*
X128573402Y-69929106D01*
X128573399Y-69929105D01*
X128573397Y-69929104D01*
X128360022Y-69871930D01*
X128360014Y-69871929D01*
X128139954Y-69852677D01*
X128139950Y-69852677D01*
X127919889Y-69871929D01*
X127919881Y-69871930D01*
X127706506Y-69929104D01*
X127706500Y-69929107D01*
X127506292Y-70022465D01*
X127506290Y-70022466D01*
X127325329Y-70149175D01*
X127169127Y-70305377D01*
X127042418Y-70486338D01*
X127042417Y-70486340D01*
X126982334Y-70615189D01*
X126936161Y-70667628D01*
X126868968Y-70686780D01*
X126802087Y-70666564D01*
X126757570Y-70615189D01*
X126697603Y-70486590D01*
X126697486Y-70486339D01*
X126570778Y-70305380D01*
X126457273Y-70191875D01*
X126423790Y-70130555D01*
X126423352Y-70128451D01*
X126417816Y-70100618D01*
X126353703Y-69945837D01*
X126334936Y-69917751D01*
X126260628Y-69806539D01*
X119602320Y-63148198D01*
X106554819Y-50100631D01*
X106521334Y-50039308D01*
X106518500Y-50012950D01*
X106518500Y-48994842D01*
X106538185Y-48927803D01*
X106590989Y-48882048D01*
X106660147Y-48872104D01*
X106723703Y-48901129D01*
X106744075Y-48923719D01*
X106768210Y-48958187D01*
X106768211Y-48958188D01*
X107438952Y-48287447D01*
X107438952Y-48310160D01*
X107464916Y-48407061D01*
X107515076Y-48493940D01*
X107586012Y-48564876D01*
X107672891Y-48615036D01*
X107769792Y-48641000D01*
X107792505Y-48641000D01*
X107121762Y-49311740D01*
X107186542Y-49357099D01*
X107186544Y-49357100D01*
X107386667Y-49450419D01*
X107386681Y-49450424D01*
X107599965Y-49507573D01*
X107599975Y-49507575D01*
X107819951Y-49526821D01*
X107819953Y-49526821D01*
X108039928Y-49507575D01*
X108039938Y-49507573D01*
X108253222Y-49450424D01*
X108253236Y-49450419D01*
X108453359Y-49357100D01*
X108453369Y-49357094D01*
X108518140Y-49311741D01*
X107847400Y-48641000D01*
X107870112Y-48641000D01*
X107967013Y-48615036D01*
X108053892Y-48564876D01*
X108124828Y-48493940D01*
X108174988Y-48407061D01*
X108200952Y-48310160D01*
X108200952Y-48287447D01*
X108871693Y-48958188D01*
G37*
%TD.AperFunction*%
%TA.AperFunction,Conductor*%
G36*
X169402539Y-25920185D02*
G01*
X169448294Y-25972989D01*
X169459500Y-26024500D01*
X169459500Y-144660517D01*
X169439815Y-144727556D01*
X169387011Y-144773311D01*
X169336398Y-144784514D01*
X153455054Y-144899497D01*
X153454156Y-144899500D01*
X101584500Y-144899500D01*
X101517461Y-144879815D01*
X101471706Y-144827011D01*
X101460500Y-144775500D01*
X101460500Y-139405513D01*
X103799500Y-139405513D01*
X103799500Y-139594486D01*
X103829059Y-139781118D01*
X103887454Y-139960836D01*
X103973240Y-140129199D01*
X104084310Y-140282073D01*
X104217927Y-140415690D01*
X104370801Y-140526760D01*
X104450347Y-140567290D01*
X104539163Y-140612545D01*
X104539165Y-140612545D01*
X104539168Y-140612547D01*
X104635497Y-140643846D01*
X104718881Y-140670940D01*
X104905514Y-140700500D01*
X104905519Y-140700500D01*
X105094486Y-140700500D01*
X105281118Y-140670940D01*
X105460832Y-140612547D01*
X105629199Y-140526760D01*
X105782073Y-140415690D01*
X105915690Y-140282073D01*
X106026760Y-140129199D01*
X106112547Y-139960832D01*
X106170940Y-139781118D01*
X106200500Y-139594486D01*
X106200500Y-139405513D01*
X164299500Y-139405513D01*
X164299500Y-139594486D01*
X164329059Y-139781118D01*
X164387454Y-139960836D01*
X164473240Y-140129199D01*
X164584310Y-140282073D01*
X164717927Y-140415690D01*
X164870801Y-140526760D01*
X164950347Y-140567290D01*
X165039163Y-140612545D01*
X165039165Y-140612545D01*
X165039168Y-140612547D01*
X165135497Y-140643846D01*
X165218881Y-140670940D01*
X165405514Y-140700500D01*
X165405519Y-140700500D01*
X165594486Y-140700500D01*
X165781118Y-140670940D01*
X165960832Y-140612547D01*
X166129199Y-140526760D01*
X166282073Y-140415690D01*
X166415690Y-140282073D01*
X166526760Y-140129199D01*
X166612547Y-139960832D01*
X166670940Y-139781118D01*
X166700500Y-139594486D01*
X166700500Y-139405513D01*
X166670940Y-139218881D01*
X166612545Y-139039163D01*
X166526759Y-138870800D01*
X166415690Y-138717927D01*
X166282073Y-138584310D01*
X166129199Y-138473240D01*
X165960836Y-138387454D01*
X165781118Y-138329059D01*
X165594486Y-138299500D01*
X165594481Y-138299500D01*
X165405519Y-138299500D01*
X165405514Y-138299500D01*
X165218881Y-138329059D01*
X165039163Y-138387454D01*
X164870800Y-138473240D01*
X164783579Y-138536610D01*
X164717927Y-138584310D01*
X164717925Y-138584312D01*
X164717924Y-138584312D01*
X164584312Y-138717924D01*
X164584312Y-138717925D01*
X164584310Y-138717927D01*
X164536610Y-138783579D01*
X164473240Y-138870800D01*
X164387454Y-139039163D01*
X164329059Y-139218881D01*
X164299500Y-139405513D01*
X106200500Y-139405513D01*
X106170940Y-139218881D01*
X106112545Y-139039163D01*
X106026759Y-138870800D01*
X105915690Y-138717927D01*
X105782073Y-138584310D01*
X105629199Y-138473240D01*
X105460836Y-138387454D01*
X105281118Y-138329059D01*
X105094486Y-138299500D01*
X105094481Y-138299500D01*
X104905519Y-138299500D01*
X104905514Y-138299500D01*
X104718881Y-138329059D01*
X104539163Y-138387454D01*
X104370800Y-138473240D01*
X104283579Y-138536610D01*
X104217927Y-138584310D01*
X104217925Y-138584312D01*
X104217924Y-138584312D01*
X104084312Y-138717924D01*
X104084312Y-138717925D01*
X104084310Y-138717927D01*
X104036610Y-138783579D01*
X103973240Y-138870800D01*
X103887454Y-139039163D01*
X103829059Y-139218881D01*
X103799500Y-139405513D01*
X101460500Y-139405513D01*
X101460500Y-36861128D01*
X104817500Y-36861128D01*
X104817500Y-50500371D01*
X104850182Y-50664674D01*
X104850184Y-50664682D01*
X104883182Y-50744346D01*
X104883182Y-50744347D01*
X104914296Y-50819464D01*
X105007371Y-50958759D01*
X105007374Y-50958763D01*
X123950176Y-69901661D01*
X123983661Y-69962984D01*
X123978677Y-70032676D01*
X123936805Y-70088609D01*
X123871341Y-70113026D01*
X123803068Y-70098174D01*
X123791382Y-70090923D01*
X123693614Y-70022466D01*
X123493402Y-69929106D01*
X123493399Y-69929105D01*
X123493397Y-69929104D01*
X123280022Y-69871930D01*
X123280014Y-69871929D01*
X123059954Y-69852677D01*
X123059950Y-69852677D01*
X122839889Y-69871929D01*
X122839881Y-69871930D01*
X122626506Y-69929104D01*
X122626500Y-69929107D01*
X122426292Y-70022465D01*
X122426290Y-70022466D01*
X122245329Y-70149175D01*
X122089127Y-70305377D01*
X121962418Y-70486338D01*
X121962417Y-70486340D01*
X121902334Y-70615189D01*
X121856161Y-70667628D01*
X121788968Y-70686780D01*
X121722087Y-70666564D01*
X121677570Y-70615189D01*
X121617603Y-70486590D01*
X121617486Y-70486339D01*
X121490778Y-70305380D01*
X121334572Y-70149174D01*
X121334568Y-70149171D01*
X121334567Y-70149170D01*
X121153618Y-70022468D01*
X121153614Y-70022466D01*
X121066671Y-69981924D01*
X120953402Y-69929106D01*
X120953399Y-69929105D01*
X120953397Y-69929104D01*
X120740022Y-69871930D01*
X120740014Y-69871929D01*
X120519954Y-69852677D01*
X120519950Y-69852677D01*
X120299889Y-69871929D01*
X120299881Y-69871930D01*
X120086506Y-69929104D01*
X120086500Y-69929107D01*
X119886292Y-70022465D01*
X119886290Y-70022466D01*
X119705329Y-70149175D01*
X119549127Y-70305377D01*
X119422418Y-70486338D01*
X119422417Y-70486340D01*
X119362334Y-70615189D01*
X119316161Y-70667628D01*
X119248968Y-70686780D01*
X119182087Y-70666564D01*
X119137570Y-70615189D01*
X119077603Y-70486590D01*
X119077486Y-70486339D01*
X118950778Y-70305380D01*
X118794572Y-70149174D01*
X118794568Y-70149171D01*
X118794567Y-70149170D01*
X118613618Y-70022468D01*
X118613614Y-70022466D01*
X118526671Y-69981924D01*
X118413402Y-69929106D01*
X118413399Y-69929105D01*
X118413397Y-69929104D01*
X118200022Y-69871930D01*
X118200014Y-69871929D01*
X117979954Y-69852677D01*
X117979950Y-69852677D01*
X117759889Y-69871929D01*
X117759881Y-69871930D01*
X117546506Y-69929104D01*
X117546500Y-69929107D01*
X117346292Y-70022465D01*
X117346290Y-70022466D01*
X117165329Y-70149175D01*
X117009127Y-70305377D01*
X116882418Y-70486338D01*
X116882417Y-70486340D01*
X116822334Y-70615189D01*
X116776161Y-70667628D01*
X116708968Y-70686780D01*
X116642087Y-70666564D01*
X116597570Y-70615189D01*
X116537603Y-70486590D01*
X116537486Y-70486339D01*
X116410778Y-70305380D01*
X116254572Y-70149174D01*
X116254568Y-70149171D01*
X116254567Y-70149170D01*
X116073618Y-70022468D01*
X116073614Y-70022466D01*
X115986671Y-69981924D01*
X115873402Y-69929106D01*
X115873399Y-69929105D01*
X115873397Y-69929104D01*
X115660022Y-69871930D01*
X115660014Y-69871929D01*
X115439954Y-69852677D01*
X115439950Y-69852677D01*
X115219889Y-69871929D01*
X115219881Y-69871930D01*
X115006506Y-69929104D01*
X115006500Y-69929107D01*
X114806292Y-70022465D01*
X114806290Y-70022466D01*
X114625329Y-70149175D01*
X114469127Y-70305377D01*
X114342418Y-70486338D01*
X114342417Y-70486340D01*
X114282334Y-70615189D01*
X114236161Y-70667628D01*
X114168968Y-70686780D01*
X114102087Y-70666564D01*
X114057570Y-70615189D01*
X113997603Y-70486590D01*
X113997486Y-70486339D01*
X113870778Y-70305380D01*
X113714572Y-70149174D01*
X113714568Y-70149171D01*
X113714567Y-70149170D01*
X113533618Y-70022468D01*
X113533614Y-70022466D01*
X113446671Y-69981924D01*
X113333402Y-69929106D01*
X113333399Y-69929105D01*
X113333397Y-69929104D01*
X113120022Y-69871930D01*
X113120014Y-69871929D01*
X112899954Y-69852677D01*
X112899950Y-69852677D01*
X112679889Y-69871929D01*
X112679881Y-69871930D01*
X112466506Y-69929104D01*
X112466500Y-69929107D01*
X112266292Y-70022465D01*
X112266290Y-70022466D01*
X112085329Y-70149175D01*
X111929127Y-70305377D01*
X111802418Y-70486338D01*
X111802417Y-70486340D01*
X111742334Y-70615189D01*
X111696161Y-70667628D01*
X111628968Y-70686780D01*
X111562087Y-70666564D01*
X111517570Y-70615189D01*
X111457603Y-70486590D01*
X111457486Y-70486339D01*
X111330778Y-70305380D01*
X111174572Y-70149174D01*
X111174568Y-70149171D01*
X111174567Y-70149170D01*
X110993618Y-70022468D01*
X110993614Y-70022466D01*
X110906671Y-69981924D01*
X110793402Y-69929106D01*
X110793399Y-69929105D01*
X110793397Y-69929104D01*
X110580022Y-69871930D01*
X110580014Y-69871929D01*
X110359954Y-69852677D01*
X110359950Y-69852677D01*
X110139889Y-69871929D01*
X110139881Y-69871930D01*
X109926506Y-69929104D01*
X109926500Y-69929107D01*
X109726292Y-70022465D01*
X109726290Y-70022466D01*
X109545329Y-70149175D01*
X109389127Y-70305377D01*
X109262419Y-70486337D01*
X109202057Y-70615782D01*
X109155884Y-70668221D01*
X109088690Y-70687372D01*
X109021809Y-70667156D01*
X108977293Y-70615780D01*
X108917050Y-70486589D01*
X108917049Y-70486587D01*
X108871693Y-70421811D01*
X108871692Y-70421810D01*
X108200952Y-71092551D01*
X108200952Y-71069840D01*
X108174988Y-70972939D01*
X108124828Y-70886060D01*
X108053892Y-70815124D01*
X107967013Y-70764964D01*
X107870112Y-70739000D01*
X107847400Y-70739000D01*
X108518140Y-70068259D01*
X108518139Y-70068258D01*
X108453363Y-70022901D01*
X108453357Y-70022898D01*
X108253236Y-69929580D01*
X108253222Y-69929575D01*
X108039938Y-69872426D01*
X108039928Y-69872424D01*
X107819953Y-69853179D01*
X107819951Y-69853179D01*
X107599975Y-69872424D01*
X107599965Y-69872426D01*
X107386681Y-69929575D01*
X107386672Y-69929579D01*
X107186542Y-70022901D01*
X107121763Y-70068258D01*
X107792505Y-70739000D01*
X107769792Y-70739000D01*
X107672891Y-70764964D01*
X107586012Y-70815124D01*
X107515076Y-70886060D01*
X107464916Y-70972939D01*
X107438952Y-71069840D01*
X107438952Y-71092553D01*
X106768210Y-70421811D01*
X106722853Y-70486590D01*
X106629531Y-70686720D01*
X106629527Y-70686729D01*
X106572378Y-70900013D01*
X106572376Y-70900023D01*
X106553131Y-71119999D01*
X106553131Y-71120000D01*
X106572376Y-71339976D01*
X106572378Y-71339986D01*
X106629527Y-71553270D01*
X106629532Y-71553284D01*
X106722850Y-71753405D01*
X106722853Y-71753411D01*
X106768210Y-71818187D01*
X106768211Y-71818188D01*
X107438952Y-71147447D01*
X107438952Y-71170160D01*
X107464916Y-71267061D01*
X107515076Y-71353940D01*
X107586012Y-71424876D01*
X107672891Y-71475036D01*
X107769792Y-71501000D01*
X107792505Y-71501000D01*
X107121762Y-72171740D01*
X107186542Y-72217099D01*
X107186544Y-72217100D01*
X107386667Y-72310419D01*
X107386681Y-72310424D01*
X107599965Y-72367573D01*
X107599975Y-72367575D01*
X107819951Y-72386821D01*
X107819953Y-72386821D01*
X108039928Y-72367575D01*
X108039938Y-72367573D01*
X108253222Y-72310424D01*
X108253236Y-72310419D01*
X108453359Y-72217100D01*
X108453369Y-72217094D01*
X108518140Y-72171741D01*
X107847400Y-71501000D01*
X107870112Y-71501000D01*
X107967013Y-71475036D01*
X108053892Y-71424876D01*
X108124828Y-71353940D01*
X108174988Y-71267061D01*
X108200952Y-71170160D01*
X108200952Y-71147447D01*
X108871693Y-71818188D01*
X108917046Y-71753417D01*
X108917047Y-71753416D01*
X108977292Y-71624219D01*
X109023464Y-71571780D01*
X109090658Y-71552627D01*
X109157539Y-71572842D01*
X109202057Y-71624218D01*
X109262418Y-71753662D01*
X109262420Y-71753666D01*
X109389122Y-71934615D01*
X109389127Y-71934621D01*
X109473181Y-72018675D01*
X109506666Y-72079998D01*
X109509500Y-72106356D01*
X109509500Y-107821771D01*
X109542181Y-107986073D01*
X109542184Y-107986082D01*
X109606296Y-108140863D01*
X109606297Y-108140866D01*
X109699372Y-108280161D01*
X109699375Y-108280165D01*
X131033181Y-129613969D01*
X131066666Y-129675292D01*
X131069500Y-129701650D01*
X131069500Y-131033023D01*
X131049815Y-131100062D01*
X130997011Y-131145817D01*
X130969865Y-131153266D01*
X130970068Y-131154124D01*
X130962520Y-131155907D01*
X130827671Y-131206202D01*
X130827664Y-131206206D01*
X130712455Y-131292452D01*
X130712452Y-131292455D01*
X130626206Y-131407664D01*
X130626202Y-131407671D01*
X130575908Y-131542517D01*
X130569501Y-131602116D01*
X130569500Y-131602135D01*
X130569500Y-133397870D01*
X130569501Y-133397876D01*
X130575908Y-133457483D01*
X130626202Y-133592328D01*
X130626206Y-133592335D01*
X130712452Y-133707544D01*
X130712455Y-133707547D01*
X130827664Y-133793793D01*
X130827671Y-133793797D01*
X130962517Y-133844091D01*
X130962516Y-133844091D01*
X130969444Y-133844835D01*
X131022127Y-133850500D01*
X132817872Y-133850499D01*
X132877483Y-133844091D01*
X133012331Y-133793796D01*
X133127546Y-133707546D01*
X133213796Y-133592331D01*
X133262810Y-133460916D01*
X133304681Y-133404984D01*
X133370145Y-133380566D01*
X133438418Y-133395417D01*
X133466673Y-133416569D01*
X133588599Y-133538495D01*
X133685384Y-133606265D01*
X133782165Y-133674032D01*
X133782167Y-133674033D01*
X133782170Y-133674035D01*
X133996337Y-133773903D01*
X134224592Y-133835063D01*
X134401034Y-133850500D01*
X134459999Y-133855659D01*
X134460000Y-133855659D01*
X134460001Y-133855659D01*
X134518966Y-133850500D01*
X134695408Y-133835063D01*
X134923663Y-133773903D01*
X135137830Y-133674035D01*
X135331401Y-133538495D01*
X135498495Y-133371401D01*
X135628425Y-133185842D01*
X135683002Y-133142217D01*
X135752500Y-133135023D01*
X135814855Y-133166546D01*
X135831575Y-133185842D01*
X135961281Y-133371082D01*
X135961505Y-133371401D01*
X136128599Y-133538495D01*
X136225384Y-133606265D01*
X136322165Y-133674032D01*
X136322167Y-133674033D01*
X136322170Y-133674035D01*
X136536337Y-133773903D01*
X136764592Y-133835063D01*
X136941034Y-133850500D01*
X136999999Y-133855659D01*
X137000000Y-133855659D01*
X137000001Y-133855659D01*
X137058966Y-133850500D01*
X137235408Y-133835063D01*
X137463663Y-133773903D01*
X137677830Y-133674035D01*
X137871401Y-133538495D01*
X138038495Y-133371401D01*
X138168730Y-133185405D01*
X138223307Y-133141781D01*
X138292805Y-133134587D01*
X138355160Y-133166110D01*
X138371879Y-133185405D01*
X138501890Y-133371078D01*
X138668917Y-133538105D01*
X138862421Y-133673600D01*
X139076507Y-133773429D01*
X139076516Y-133773433D01*
X139290000Y-133830634D01*
X139290000Y-132933012D01*
X139347007Y-132965925D01*
X139474174Y-133000000D01*
X139605826Y-133000000D01*
X139732993Y-132965925D01*
X139790000Y-132933012D01*
X139790000Y-133830633D01*
X140003483Y-133773433D01*
X140003492Y-133773429D01*
X140217578Y-133673600D01*
X140411082Y-133538105D01*
X140578105Y-133371082D01*
X140713600Y-133177578D01*
X140813429Y-132963492D01*
X140813432Y-132963486D01*
X140870636Y-132750000D01*
X139973012Y-132750000D01*
X140005925Y-132692993D01*
X140040000Y-132565826D01*
X140040000Y-132434174D01*
X140005925Y-132307007D01*
X139973012Y-132250000D01*
X140870636Y-132250000D01*
X140870635Y-132249999D01*
X140813432Y-132036513D01*
X140813429Y-132036507D01*
X140713600Y-131822422D01*
X140713599Y-131822420D01*
X140578113Y-131628926D01*
X140578108Y-131628920D01*
X140411082Y-131461894D01*
X140217578Y-131326399D01*
X140003492Y-131226570D01*
X140003486Y-131226567D01*
X139790000Y-131169364D01*
X139790000Y-132066988D01*
X139732993Y-132034075D01*
X139605826Y-132000000D01*
X139474174Y-132000000D01*
X139347007Y-132034075D01*
X139290000Y-132066988D01*
X139290000Y-131169364D01*
X139289999Y-131169364D01*
X139076513Y-131226567D01*
X139076507Y-131226570D01*
X138862422Y-131326399D01*
X138862420Y-131326400D01*
X138668926Y-131461886D01*
X138668920Y-131461891D01*
X138501891Y-131628920D01*
X138501890Y-131628922D01*
X138371880Y-131814595D01*
X138317303Y-131858219D01*
X138247804Y-131865412D01*
X138185450Y-131833890D01*
X138168730Y-131814594D01*
X138038494Y-131628597D01*
X137871402Y-131461506D01*
X137871395Y-131461501D01*
X137677834Y-131325967D01*
X137677830Y-131325965D01*
X137677828Y-131325964D01*
X137463663Y-131226097D01*
X137463659Y-131226096D01*
X137463655Y-131226094D01*
X137235413Y-131164938D01*
X137235403Y-131164936D01*
X137000001Y-131144341D01*
X136999999Y-131144341D01*
X136764596Y-131164936D01*
X136764586Y-131164938D01*
X136536344Y-131226094D01*
X136536335Y-131226098D01*
X136322171Y-131325964D01*
X136322169Y-131325965D01*
X136128597Y-131461505D01*
X135961505Y-131628597D01*
X135831575Y-131814158D01*
X135776998Y-131857783D01*
X135707500Y-131864977D01*
X135645145Y-131833454D01*
X135628425Y-131814158D01*
X135498494Y-131628597D01*
X135331402Y-131461506D01*
X135331395Y-131461501D01*
X135137834Y-131325967D01*
X135137830Y-131325965D01*
X135137828Y-131325964D01*
X134923663Y-131226097D01*
X134923659Y-131226096D01*
X134923655Y-131226094D01*
X134695413Y-131164938D01*
X134695403Y-131164936D01*
X134460001Y-131144341D01*
X134459999Y-131144341D01*
X134224596Y-131164936D01*
X134224586Y-131164938D01*
X133996344Y-131226094D01*
X133996335Y-131226098D01*
X133782171Y-131325964D01*
X133782169Y-131325965D01*
X133588600Y-131461503D01*
X133466673Y-131583430D01*
X133405350Y-131616914D01*
X133335658Y-131611930D01*
X133279725Y-131570058D01*
X133262810Y-131539081D01*
X133213797Y-131407671D01*
X133213793Y-131407664D01*
X133127547Y-131292455D01*
X133127544Y-131292452D01*
X133012335Y-131206206D01*
X133012328Y-131206202D01*
X132877482Y-131155908D01*
X132869938Y-131154126D01*
X132870474Y-131151853D01*
X132816688Y-131129571D01*
X132776843Y-131072177D01*
X132770500Y-131033024D01*
X132770500Y-129214232D01*
X132770499Y-129214228D01*
X132737817Y-129049925D01*
X132737816Y-129049918D01*
X132673703Y-128895137D01*
X132580626Y-128755838D01*
X132462162Y-128637374D01*
X125390614Y-121565826D01*
X124426943Y-120602155D01*
X133375000Y-120602155D01*
X133375000Y-121250000D01*
X134291988Y-121250000D01*
X134259075Y-121307007D01*
X134225000Y-121434174D01*
X134225000Y-121565826D01*
X134259075Y-121692993D01*
X134291988Y-121750000D01*
X133375000Y-121750000D01*
X133375000Y-122397844D01*
X133381401Y-122457372D01*
X133381403Y-122457379D01*
X133431645Y-122592086D01*
X133431649Y-122592093D01*
X133517809Y-122707187D01*
X133517812Y-122707190D01*
X133632906Y-122793350D01*
X133632913Y-122793354D01*
X133767620Y-122843596D01*
X133767627Y-122843598D01*
X133827155Y-122849999D01*
X133827172Y-122850000D01*
X134475000Y-122850000D01*
X134475000Y-121933012D01*
X134532007Y-121965925D01*
X134659174Y-122000000D01*
X134790826Y-122000000D01*
X134917993Y-121965925D01*
X134975000Y-121933012D01*
X134975000Y-122850000D01*
X135622828Y-122850000D01*
X135622844Y-122849999D01*
X135682372Y-122843598D01*
X135682379Y-122843596D01*
X135817086Y-122793354D01*
X135817093Y-122793350D01*
X135932187Y-122707190D01*
X135932190Y-122707187D01*
X136018350Y-122592093D01*
X136018354Y-122592086D01*
X136067422Y-122460529D01*
X136109293Y-122404595D01*
X136174757Y-122380178D01*
X136243030Y-122395030D01*
X136271285Y-122416181D01*
X136393599Y-122538495D01*
X136470135Y-122592086D01*
X136587165Y-122674032D01*
X136587167Y-122674033D01*
X136587170Y-122674035D01*
X136801337Y-122773903D01*
X137029592Y-122835063D01*
X137265000Y-122855659D01*
X137347970Y-122848399D01*
X137416467Y-122862165D01*
X137446457Y-122884246D01*
X139222834Y-124660624D01*
X139222837Y-124660626D01*
X139222838Y-124660627D01*
X139362137Y-124753704D01*
X139362139Y-124753705D01*
X139362143Y-124753707D01*
X139444222Y-124787703D01*
X139471584Y-124799037D01*
X139516918Y-124817816D01*
X139681228Y-124850499D01*
X139681232Y-124850500D01*
X139681233Y-124850500D01*
X151083768Y-124850500D01*
X151083769Y-124850499D01*
X151248082Y-124817816D01*
X151402863Y-124753703D01*
X151542162Y-124660626D01*
X151660626Y-124542162D01*
X151753703Y-124402863D01*
X151817816Y-124248082D01*
X151850500Y-124083767D01*
X151850500Y-120516959D01*
X151870185Y-120449920D01*
X151874173Y-120444085D01*
X151941232Y-120351788D01*
X152019873Y-120197445D01*
X152073402Y-120032701D01*
X152100500Y-119861611D01*
X152100500Y-119138389D01*
X152073402Y-118967299D01*
X152019873Y-118802555D01*
X151941232Y-118648212D01*
X151839414Y-118508072D01*
X151716928Y-118385586D01*
X151576788Y-118283768D01*
X151422445Y-118205127D01*
X151257701Y-118151598D01*
X151257699Y-118151597D01*
X151257698Y-118151597D01*
X151126271Y-118130781D01*
X151086611Y-118124500D01*
X150913389Y-118124500D01*
X150873728Y-118130781D01*
X150742302Y-118151597D01*
X150577552Y-118205128D01*
X150423211Y-118283768D01*
X150283073Y-118385585D01*
X150175166Y-118493492D01*
X150113843Y-118526976D01*
X150044151Y-118521992D01*
X149988218Y-118480120D01*
X149981946Y-118470906D01*
X149942317Y-118406656D01*
X149818345Y-118282684D01*
X149669124Y-118190643D01*
X149669119Y-118190641D01*
X149502697Y-118135494D01*
X149502690Y-118135493D01*
X149399986Y-118125000D01*
X149250000Y-118125000D01*
X149250000Y-119219670D01*
X149230255Y-119199925D01*
X149144745Y-119150556D01*
X149049370Y-119125000D01*
X148950630Y-119125000D01*
X148855255Y-119150556D01*
X148769745Y-119199925D01*
X148750000Y-119219670D01*
X148750000Y-118125000D01*
X148600027Y-118125000D01*
X148600012Y-118125001D01*
X148497302Y-118135494D01*
X148330880Y-118190641D01*
X148330875Y-118190643D01*
X148181654Y-118282684D01*
X148057684Y-118406654D01*
X147965643Y-118555875D01*
X147965641Y-118555880D01*
X147910494Y-118722302D01*
X147910493Y-118722309D01*
X147900000Y-118825013D01*
X147900000Y-119250000D01*
X148719670Y-119250000D01*
X148699925Y-119269745D01*
X148650556Y-119355255D01*
X148625000Y-119450630D01*
X148625000Y-119549370D01*
X148650556Y-119644745D01*
X148699925Y-119730255D01*
X148719670Y-119750000D01*
X147900001Y-119750000D01*
X147900001Y-120174986D01*
X147910494Y-120277697D01*
X147965641Y-120444119D01*
X147965643Y-120444124D01*
X148057684Y-120593345D01*
X148181654Y-120717315D01*
X148330875Y-120809356D01*
X148330880Y-120809358D01*
X148497302Y-120864505D01*
X148497309Y-120864506D01*
X148600019Y-120874999D01*
X148749999Y-120874999D01*
X148750000Y-120874998D01*
X148750000Y-119780330D01*
X148769745Y-119800075D01*
X148855255Y-119849444D01*
X148950630Y-119875000D01*
X149049370Y-119875000D01*
X149144745Y-119849444D01*
X149230255Y-119800075D01*
X149250000Y-119780330D01*
X149250000Y-120874999D01*
X149399972Y-120874999D01*
X149399986Y-120874998D01*
X149502697Y-120864505D01*
X149669119Y-120809358D01*
X149669124Y-120809356D01*
X149818345Y-120717315D01*
X149937819Y-120597842D01*
X149999142Y-120564357D01*
X150068834Y-120569341D01*
X150124767Y-120611213D01*
X150149184Y-120676677D01*
X150149500Y-120685523D01*
X150149500Y-123025500D01*
X150129815Y-123092539D01*
X150077011Y-123138294D01*
X150025500Y-123149500D01*
X140168651Y-123149500D01*
X140101612Y-123129815D01*
X140080970Y-123113181D01*
X138649246Y-121681457D01*
X138615761Y-121620134D01*
X138613399Y-121582973D01*
X138620659Y-121500000D01*
X138600063Y-121264592D01*
X138538903Y-121036337D01*
X138439035Y-120822171D01*
X138430064Y-120809358D01*
X138303494Y-120628597D01*
X138136402Y-120461506D01*
X138136395Y-120461501D01*
X138111505Y-120444073D01*
X138059854Y-120407906D01*
X137942834Y-120325967D01*
X137942830Y-120325965D01*
X137839319Y-120277697D01*
X137728663Y-120226097D01*
X137728659Y-120226096D01*
X137728655Y-120226094D01*
X137500413Y-120164938D01*
X137500403Y-120164936D01*
X137265001Y-120144341D01*
X137264999Y-120144341D01*
X137029596Y-120164936D01*
X137029586Y-120164938D01*
X136801344Y-120226094D01*
X136801335Y-120226098D01*
X136587171Y-120325964D01*
X136587169Y-120325965D01*
X136393600Y-120461503D01*
X136271284Y-120583819D01*
X136209961Y-120617303D01*
X136140269Y-120612319D01*
X136084336Y-120570447D01*
X136067421Y-120539470D01*
X136018354Y-120407913D01*
X136018350Y-120407906D01*
X135932190Y-120292812D01*
X135932187Y-120292809D01*
X135817093Y-120206649D01*
X135817086Y-120206645D01*
X135682379Y-120156403D01*
X135682372Y-120156401D01*
X135622844Y-120150000D01*
X134975000Y-120150000D01*
X134975000Y-121066988D01*
X134917993Y-121034075D01*
X134790826Y-121000000D01*
X134659174Y-121000000D01*
X134532007Y-121034075D01*
X134475000Y-121066988D01*
X134475000Y-120150000D01*
X133827155Y-120150000D01*
X133767627Y-120156401D01*
X133767620Y-120156403D01*
X133632913Y-120206645D01*
X133632906Y-120206649D01*
X133517812Y-120292809D01*
X133517809Y-120292812D01*
X133431649Y-120407906D01*
X133431645Y-120407913D01*
X133381403Y-120542620D01*
X133381401Y-120542627D01*
X133375000Y-120602155D01*
X124426943Y-120602155D01*
X118286470Y-114461681D01*
X118252985Y-114400358D01*
X118257969Y-114330666D01*
X118299841Y-114274733D01*
X118365305Y-114250316D01*
X118374151Y-114250000D01*
X118600000Y-114250000D01*
X118600000Y-113280330D01*
X118619745Y-113300075D01*
X118705255Y-113349444D01*
X118800630Y-113375000D01*
X118899370Y-113375000D01*
X118994745Y-113349444D01*
X119080255Y-113300075D01*
X119094500Y-113285830D01*
X119094500Y-113326002D01*
X119097617Y-113341671D01*
X119100000Y-113365865D01*
X119100000Y-114250000D01*
X119422828Y-114250000D01*
X119422844Y-114249999D01*
X119482372Y-114243598D01*
X119482376Y-114243597D01*
X119617089Y-114193352D01*
X119617896Y-114192748D01*
X119618845Y-114192393D01*
X119624876Y-114189101D01*
X119625349Y-114189967D01*
X119683360Y-114168329D01*
X119739661Y-114177451D01*
X119820873Y-114211091D01*
X119984293Y-114243597D01*
X120018992Y-114250499D01*
X120018996Y-114250500D01*
X120018997Y-114250500D01*
X120221004Y-114250500D01*
X120221005Y-114250499D01*
X120419127Y-114211091D01*
X120605756Y-114133786D01*
X120686110Y-114080094D01*
X120752786Y-114059217D01*
X120820166Y-114077701D01*
X120823865Y-114080078D01*
X120904244Y-114133786D01*
X121090873Y-114211091D01*
X121254293Y-114243597D01*
X121288992Y-114250499D01*
X121288996Y-114250500D01*
X121288997Y-114250500D01*
X121491004Y-114250500D01*
X121491005Y-114250499D01*
X121689127Y-114211091D01*
X121875756Y-114133786D01*
X122043718Y-114021558D01*
X122186558Y-113878718D01*
X122298786Y-113710756D01*
X122376091Y-113524127D01*
X122415500Y-113326003D01*
X122415500Y-112673997D01*
X122376091Y-112475873D01*
X122298786Y-112289244D01*
X122298784Y-112289241D01*
X122298782Y-112289237D01*
X122186558Y-112121281D01*
X122043718Y-111978441D01*
X121875762Y-111866217D01*
X121875752Y-111866212D01*
X121689127Y-111788909D01*
X121689119Y-111788907D01*
X121491007Y-111749500D01*
X121491003Y-111749500D01*
X121288997Y-111749500D01*
X121288992Y-111749500D01*
X121090880Y-111788907D01*
X121090872Y-111788909D01*
X120904244Y-111866213D01*
X120823891Y-111919904D01*
X120757213Y-111940782D01*
X120689833Y-111922297D01*
X120686109Y-111919904D01*
X120605755Y-111866213D01*
X120419127Y-111788909D01*
X120419119Y-111788907D01*
X120221007Y-111749500D01*
X120221003Y-111749500D01*
X120018997Y-111749500D01*
X120018992Y-111749500D01*
X119820880Y-111788907D01*
X119820868Y-111788910D01*
X119739661Y-111822547D01*
X119670191Y-111830016D01*
X119625140Y-111810405D01*
X119624872Y-111810897D01*
X119619374Y-111807894D01*
X119617895Y-111807251D01*
X119617086Y-111806645D01*
X119482379Y-111756403D01*
X119482372Y-111756401D01*
X119422844Y-111750000D01*
X119100000Y-111750000D01*
X119100000Y-112634134D01*
X119097617Y-112658326D01*
X119094500Y-112673995D01*
X119094500Y-112714170D01*
X119080255Y-112699925D01*
X118994745Y-112650556D01*
X118899370Y-112625000D01*
X118800630Y-112625000D01*
X118705255Y-112650556D01*
X118619745Y-112699925D01*
X118600000Y-112719670D01*
X118600000Y-111750000D01*
X118277155Y-111750000D01*
X118217627Y-111756401D01*
X118217620Y-111756403D01*
X118082913Y-111806645D01*
X118082906Y-111806649D01*
X117967812Y-111892809D01*
X117967809Y-111892812D01*
X117881649Y-112007906D01*
X117881645Y-112007913D01*
X117831403Y-112142620D01*
X117831401Y-112142627D01*
X117825000Y-112202155D01*
X117825000Y-112750000D01*
X118569670Y-112750000D01*
X118549925Y-112769745D01*
X118500556Y-112855255D01*
X118475000Y-112950630D01*
X118475000Y-113049370D01*
X118500556Y-113144745D01*
X118549925Y-113230255D01*
X118569670Y-113250000D01*
X117825000Y-113250000D01*
X117825000Y-113700849D01*
X117805315Y-113767888D01*
X117752511Y-113813643D01*
X117683353Y-113823587D01*
X117619797Y-113794562D01*
X117613319Y-113788530D01*
X111246819Y-107422030D01*
X111213334Y-107360707D01*
X111210500Y-107334349D01*
X111210500Y-72106260D01*
X111230185Y-72039221D01*
X111246819Y-72018579D01*
X111288618Y-71976780D01*
X111330778Y-71934620D01*
X111457486Y-71753662D01*
X111517570Y-71624811D01*
X111563742Y-71572371D01*
X111630935Y-71553219D01*
X111697817Y-71573435D01*
X111742334Y-71624811D01*
X111802416Y-71753658D01*
X111802420Y-71753666D01*
X111929122Y-71934615D01*
X111929127Y-71934621D01*
X112085330Y-72090824D01*
X112085336Y-72090829D01*
X112266285Y-72217531D01*
X112266287Y-72217532D01*
X112266290Y-72217534D01*
X112466502Y-72310894D01*
X112679884Y-72368070D01*
X112837075Y-72381822D01*
X112899950Y-72387323D01*
X112899952Y-72387323D01*
X112899954Y-72387323D01*
X112954969Y-72382509D01*
X113120020Y-72368070D01*
X113333402Y-72310894D01*
X113533614Y-72217534D01*
X113714572Y-72090826D01*
X113870778Y-71934620D01*
X113997486Y-71753662D01*
X114057570Y-71624811D01*
X114103742Y-71572371D01*
X114170935Y-71553219D01*
X114237817Y-71573435D01*
X114282334Y-71624811D01*
X114342416Y-71753658D01*
X114342420Y-71753666D01*
X114469122Y-71934615D01*
X114469127Y-71934621D01*
X114625330Y-72090824D01*
X114625336Y-72090829D01*
X114806285Y-72217531D01*
X114806287Y-72217532D01*
X114806290Y-72217534D01*
X115006502Y-72310894D01*
X115219884Y-72368070D01*
X115377075Y-72381822D01*
X115439950Y-72387323D01*
X115439952Y-72387323D01*
X115439954Y-72387323D01*
X115494969Y-72382509D01*
X115660020Y-72368070D01*
X115873402Y-72310894D01*
X116073614Y-72217534D01*
X116254572Y-72090826D01*
X116410778Y-71934620D01*
X116537486Y-71753662D01*
X116597570Y-71624811D01*
X116643742Y-71572371D01*
X116710935Y-71553219D01*
X116777817Y-71573435D01*
X116822334Y-71624811D01*
X116882416Y-71753658D01*
X116882420Y-71753666D01*
X117009122Y-71934615D01*
X117009127Y-71934621D01*
X117165330Y-72090824D01*
X117165336Y-72090829D01*
X117346285Y-72217531D01*
X117346287Y-72217532D01*
X117346290Y-72217534D01*
X117546502Y-72310894D01*
X117759884Y-72368070D01*
X117917075Y-72381822D01*
X117979950Y-72387323D01*
X117979952Y-72387323D01*
X117979954Y-72387323D01*
X118034969Y-72382509D01*
X118200020Y-72368070D01*
X118413402Y-72310894D01*
X118613614Y-72217534D01*
X118794572Y-72090826D01*
X118950778Y-71934620D01*
X119077486Y-71753662D01*
X119137570Y-71624811D01*
X119183742Y-71572371D01*
X119250935Y-71553219D01*
X119317817Y-71573435D01*
X119362334Y-71624811D01*
X119422416Y-71753658D01*
X119422420Y-71753666D01*
X119549122Y-71934615D01*
X119549127Y-71934621D01*
X119705330Y-72090824D01*
X119705336Y-72090829D01*
X119886285Y-72217531D01*
X119886287Y-72217532D01*
X119886290Y-72217534D01*
X120086502Y-72310894D01*
X120299884Y-72368070D01*
X120457075Y-72381822D01*
X120519950Y-72387323D01*
X120519952Y-72387323D01*
X120519954Y-72387323D01*
X120574969Y-72382509D01*
X120740020Y-72368070D01*
X120953402Y-72310894D01*
X121153614Y-72217534D01*
X121334572Y-72090826D01*
X121490778Y-71934620D01*
X121617486Y-71753662D01*
X121677570Y-71624811D01*
X121723742Y-71572371D01*
X121790935Y-71553219D01*
X121857817Y-71573435D01*
X121902334Y-71624811D01*
X121962416Y-71753658D01*
X121962420Y-71753666D01*
X122089122Y-71934615D01*
X122089127Y-71934621D01*
X122245330Y-72090824D01*
X122245336Y-72090829D01*
X122426285Y-72217531D01*
X122426287Y-72217532D01*
X122426290Y-72217534D01*
X122626502Y-72310894D01*
X122839884Y-72368070D01*
X122997075Y-72381822D01*
X123059950Y-72387323D01*
X123059952Y-72387323D01*
X123059954Y-72387323D01*
X123114969Y-72382509D01*
X123280020Y-72368070D01*
X123493402Y-72310894D01*
X123693614Y-72217534D01*
X123874572Y-72090826D01*
X124030778Y-71934620D01*
X124157486Y-71753662D01*
X124217570Y-71624811D01*
X124263742Y-71572371D01*
X124330935Y-71553219D01*
X124397817Y-71573435D01*
X124442334Y-71624811D01*
X124502416Y-71753658D01*
X124502420Y-71753666D01*
X124629122Y-71934615D01*
X124629127Y-71934621D01*
X124785330Y-72090824D01*
X124785336Y-72090829D01*
X124966285Y-72217531D01*
X124966287Y-72217532D01*
X124966290Y-72217534D01*
X125166502Y-72310894D01*
X125379884Y-72368070D01*
X125537075Y-72381822D01*
X125599950Y-72387323D01*
X125599952Y-72387323D01*
X125599954Y-72387323D01*
X125654969Y-72382509D01*
X125820020Y-72368070D01*
X126033402Y-72310894D01*
X126233614Y-72217534D01*
X126414572Y-72090826D01*
X126570778Y-71934620D01*
X126697486Y-71753662D01*
X126757570Y-71624811D01*
X126803742Y-71572371D01*
X126870935Y-71553219D01*
X126937817Y-71573435D01*
X126982334Y-71624811D01*
X127042416Y-71753658D01*
X127042420Y-71753666D01*
X127169122Y-71934615D01*
X127169127Y-71934621D01*
X127325330Y-72090824D01*
X127325336Y-72090829D01*
X127506285Y-72217531D01*
X127506287Y-72217532D01*
X127506290Y-72217534D01*
X127706502Y-72310894D01*
X127919884Y-72368070D01*
X128077075Y-72381822D01*
X128139950Y-72387323D01*
X128139952Y-72387323D01*
X128139954Y-72387323D01*
X128194969Y-72382509D01*
X128360020Y-72368070D01*
X128573402Y-72310894D01*
X128773614Y-72217534D01*
X128954572Y-72090826D01*
X129110778Y-71934620D01*
X129237486Y-71753662D01*
X129297570Y-71624811D01*
X129343742Y-71572371D01*
X129410935Y-71553219D01*
X129477817Y-71573435D01*
X129522334Y-71624811D01*
X129582416Y-71753658D01*
X129582420Y-71753666D01*
X129709122Y-71934615D01*
X129709127Y-71934621D01*
X129865330Y-72090824D01*
X129865336Y-72090829D01*
X130046285Y-72217531D01*
X130046287Y-72217532D01*
X130046290Y-72217534D01*
X130246502Y-72310894D01*
X130459884Y-72368070D01*
X130617075Y-72381822D01*
X130679950Y-72387323D01*
X130679952Y-72387323D01*
X130679954Y-72387323D01*
X130734969Y-72382509D01*
X130900020Y-72368070D01*
X131113402Y-72310894D01*
X131313614Y-72217534D01*
X131494572Y-72090826D01*
X131650778Y-71934620D01*
X131777486Y-71753662D01*
X131837570Y-71624811D01*
X131883742Y-71572371D01*
X131950935Y-71553219D01*
X132017817Y-71573435D01*
X132062334Y-71624811D01*
X132122416Y-71753658D01*
X132122420Y-71753666D01*
X132249122Y-71934615D01*
X132249127Y-71934621D01*
X132405330Y-72090824D01*
X132405336Y-72090829D01*
X132586285Y-72217531D01*
X132586287Y-72217532D01*
X132586290Y-72217534D01*
X132786502Y-72310894D01*
X132999884Y-72368070D01*
X133157075Y-72381822D01*
X133219950Y-72387323D01*
X133219952Y-72387323D01*
X133219954Y-72387323D01*
X133274969Y-72382509D01*
X133440020Y-72368070D01*
X133653402Y-72310894D01*
X133853614Y-72217534D01*
X134034572Y-72090826D01*
X134190778Y-71934620D01*
X134317486Y-71753662D01*
X134377570Y-71624811D01*
X134423742Y-71572371D01*
X134490935Y-71553219D01*
X134557817Y-71573435D01*
X134602334Y-71624811D01*
X134662416Y-71753658D01*
X134662420Y-71753666D01*
X134789122Y-71934615D01*
X134789127Y-71934621D01*
X134945330Y-72090824D01*
X134945336Y-72090829D01*
X135126285Y-72217531D01*
X135126287Y-72217532D01*
X135126290Y-72217534D01*
X135326502Y-72310894D01*
X135539884Y-72368070D01*
X135697075Y-72381822D01*
X135759950Y-72387323D01*
X135759952Y-72387323D01*
X135759954Y-72387323D01*
X135814969Y-72382509D01*
X135980020Y-72368070D01*
X136193402Y-72310894D01*
X136393614Y-72217534D01*
X136574572Y-72090826D01*
X136730778Y-71934620D01*
X136857486Y-71753662D01*
X136917570Y-71624811D01*
X136963742Y-71572371D01*
X137030935Y-71553219D01*
X137097817Y-71573435D01*
X137142334Y-71624811D01*
X137202416Y-71753658D01*
X137202420Y-71753666D01*
X137329122Y-71934615D01*
X137329127Y-71934621D01*
X137485330Y-72090824D01*
X137485336Y-72090829D01*
X137666285Y-72217531D01*
X137666287Y-72217532D01*
X137666290Y-72217534D01*
X137866502Y-72310894D01*
X138079884Y-72368070D01*
X138237075Y-72381822D01*
X138299950Y-72387323D01*
X138299952Y-72387323D01*
X138299954Y-72387323D01*
X138354969Y-72382509D01*
X138520020Y-72368070D01*
X138733402Y-72310894D01*
X138933614Y-72217534D01*
X139114572Y-72090826D01*
X139270778Y-71934620D01*
X139397486Y-71753662D01*
X139457570Y-71624811D01*
X139503742Y-71572371D01*
X139570935Y-71553219D01*
X139637817Y-71573435D01*
X139682334Y-71624811D01*
X139742416Y-71753658D01*
X139742420Y-71753666D01*
X139869122Y-71934615D01*
X139869127Y-71934621D01*
X140025330Y-72090824D01*
X140025336Y-72090829D01*
X140206285Y-72217531D01*
X140206287Y-72217532D01*
X140206290Y-72217534D01*
X140406502Y-72310894D01*
X140619884Y-72368070D01*
X140777075Y-72381822D01*
X140839950Y-72387323D01*
X140839952Y-72387323D01*
X140839954Y-72387323D01*
X140894969Y-72382509D01*
X141060020Y-72368070D01*
X141273402Y-72310894D01*
X141473614Y-72217534D01*
X141654572Y-72090826D01*
X141810778Y-71934620D01*
X141937486Y-71753662D01*
X141997570Y-71624811D01*
X142043742Y-71572371D01*
X142110935Y-71553219D01*
X142177817Y-71573435D01*
X142222334Y-71624811D01*
X142282416Y-71753658D01*
X142282420Y-71753666D01*
X142409122Y-71934615D01*
X142409127Y-71934621D01*
X142565330Y-72090824D01*
X142565336Y-72090829D01*
X142746285Y-72217531D01*
X142746287Y-72217532D01*
X142746290Y-72217534D01*
X142946502Y-72310894D01*
X143159884Y-72368070D01*
X143317075Y-72381822D01*
X143379950Y-72387323D01*
X143379952Y-72387323D01*
X143379954Y-72387323D01*
X143434969Y-72382509D01*
X143600020Y-72368070D01*
X143813402Y-72310894D01*
X144013614Y-72217534D01*
X144194572Y-72090826D01*
X144350778Y-71934620D01*
X144477486Y-71753662D01*
X144537570Y-71624811D01*
X144583742Y-71572371D01*
X144650935Y-71553219D01*
X144717817Y-71573435D01*
X144762334Y-71624811D01*
X144822416Y-71753658D01*
X144822420Y-71753666D01*
X144949122Y-71934615D01*
X144949127Y-71934621D01*
X145105330Y-72090824D01*
X145105336Y-72090829D01*
X145286285Y-72217531D01*
X145286287Y-72217532D01*
X145286290Y-72217534D01*
X145486502Y-72310894D01*
X145699884Y-72368070D01*
X145857075Y-72381822D01*
X145919950Y-72387323D01*
X145919952Y-72387323D01*
X145919954Y-72387323D01*
X145974969Y-72382509D01*
X146140020Y-72368070D01*
X146353402Y-72310894D01*
X146553614Y-72217534D01*
X146734572Y-72090826D01*
X146890778Y-71934620D01*
X147017486Y-71753662D01*
X147077570Y-71624811D01*
X147123742Y-71572371D01*
X147190935Y-71553219D01*
X147257817Y-71573435D01*
X147302334Y-71624811D01*
X147362416Y-71753658D01*
X147362420Y-71753666D01*
X147489122Y-71934615D01*
X147489127Y-71934621D01*
X147645330Y-72090824D01*
X147645336Y-72090829D01*
X147826285Y-72217531D01*
X147826287Y-72217532D01*
X147826290Y-72217534D01*
X148026502Y-72310894D01*
X148239884Y-72368070D01*
X148397075Y-72381822D01*
X148459950Y-72387323D01*
X148459952Y-72387323D01*
X148459954Y-72387323D01*
X148514969Y-72382509D01*
X148680020Y-72368070D01*
X148893402Y-72310894D01*
X149093614Y-72217534D01*
X149274572Y-72090826D01*
X149430778Y-71934620D01*
X149557486Y-71753662D01*
X149617570Y-71624811D01*
X149663742Y-71572371D01*
X149730935Y-71553219D01*
X149797817Y-71573435D01*
X149842334Y-71624811D01*
X149902416Y-71753658D01*
X149902420Y-71753666D01*
X150029122Y-71934615D01*
X150029127Y-71934621D01*
X150185330Y-72090824D01*
X150185336Y-72090829D01*
X150366285Y-72217531D01*
X150366287Y-72217532D01*
X150366290Y-72217534D01*
X150566502Y-72310894D01*
X150779884Y-72368070D01*
X150937075Y-72381822D01*
X150999950Y-72387323D01*
X150999952Y-72387323D01*
X150999954Y-72387323D01*
X151054969Y-72382509D01*
X151220020Y-72368070D01*
X151433402Y-72310894D01*
X151633614Y-72217534D01*
X151814572Y-72090826D01*
X151970778Y-71934620D01*
X152097486Y-71753662D01*
X152190846Y-71553450D01*
X152248022Y-71340068D01*
X152267275Y-71120000D01*
X152265070Y-71094800D01*
X152248022Y-70899937D01*
X152248022Y-70899932D01*
X152230784Y-70835599D01*
X152232447Y-70765750D01*
X152271610Y-70707887D01*
X152335838Y-70680383D01*
X152404740Y-70691969D01*
X152438228Y-70715814D01*
X152488173Y-70765750D01*
X152506803Y-70784377D01*
X152540292Y-70845698D01*
X152540891Y-70885894D01*
X152542132Y-70886009D01*
X152522785Y-71094799D01*
X152522785Y-71094800D01*
X152541602Y-71297882D01*
X152597417Y-71494047D01*
X152597422Y-71494060D01*
X152688327Y-71676621D01*
X152811237Y-71839381D01*
X152961958Y-71976780D01*
X152961960Y-71976782D01*
X153029465Y-72018579D01*
X153135363Y-72084148D01*
X153325544Y-72157824D01*
X153526024Y-72195300D01*
X153526026Y-72195300D01*
X153729974Y-72195300D01*
X153729976Y-72195300D01*
X153886422Y-72166055D01*
X153955934Y-72173086D01*
X154010612Y-72216583D01*
X154033095Y-72282737D01*
X154016242Y-72350544D01*
X153996885Y-72375625D01*
X141399030Y-84973481D01*
X141337707Y-85006966D01*
X141311349Y-85009800D01*
X140784612Y-85009800D01*
X140717573Y-84990115D01*
X140706652Y-84981723D01*
X140706615Y-84981773D01*
X140702039Y-84978317D01*
X140528642Y-84870955D01*
X140528635Y-84870951D01*
X140433546Y-84834114D01*
X140338456Y-84797276D01*
X140137976Y-84759800D01*
X139934024Y-84759800D01*
X139733544Y-84797276D01*
X139733541Y-84797276D01*
X139733541Y-84797277D01*
X139543364Y-84870951D01*
X139543357Y-84870955D01*
X139369960Y-84978317D01*
X139369958Y-84978319D01*
X139219237Y-85115718D01*
X139096327Y-85278478D01*
X139005422Y-85461039D01*
X139005417Y-85461052D01*
X138949602Y-85657217D01*
X138930785Y-85860299D01*
X138930785Y-85860300D01*
X138949602Y-86063382D01*
X139005417Y-86259547D01*
X139005422Y-86259560D01*
X139096327Y-86442121D01*
X139219237Y-86604881D01*
X139369958Y-86742280D01*
X139369960Y-86742282D01*
X139469141Y-86803692D01*
X139543363Y-86849648D01*
X139733544Y-86923324D01*
X139934024Y-86960800D01*
X139934026Y-86960800D01*
X140137974Y-86960800D01*
X140137976Y-86960800D01*
X140338456Y-86923324D01*
X140528637Y-86849648D01*
X140702041Y-86742281D01*
X140702044Y-86742278D01*
X140706615Y-86738827D01*
X140707517Y-86740021D01*
X140763880Y-86712545D01*
X140784612Y-86710800D01*
X141798768Y-86710800D01*
X141798769Y-86710799D01*
X141853538Y-86699905D01*
X141963074Y-86678118D01*
X141963078Y-86678116D01*
X141963082Y-86678116D01*
X142008415Y-86659337D01*
X142117863Y-86614004D01*
X142257162Y-86520927D01*
X156239627Y-72538462D01*
X156332704Y-72399163D01*
X156396816Y-72244381D01*
X156402157Y-72217533D01*
X156429499Y-72080071D01*
X156429500Y-72080068D01*
X156429500Y-70128384D01*
X156429501Y-70106254D01*
X156429500Y-70106248D01*
X156429500Y-70106233D01*
X156404773Y-69981923D01*
X156396821Y-69941938D01*
X156396819Y-69941933D01*
X156396816Y-69941918D01*
X156359653Y-69852200D01*
X156332713Y-69787155D01*
X156332712Y-69787153D01*
X156332709Y-69787146D01*
X156289200Y-69722031D01*
X156289198Y-69722028D01*
X156239640Y-69647856D01*
X156239639Y-69647854D01*
X156239635Y-69647850D01*
X156239628Y-69647842D01*
X156239626Y-69647838D01*
X156177781Y-69585993D01*
X153327878Y-66735952D01*
X150053613Y-63461528D01*
X150053587Y-63461499D01*
X149992035Y-63399947D01*
X149930178Y-63338087D01*
X149930177Y-63338086D01*
X149930174Y-63338083D01*
X149930164Y-63338076D01*
X149930162Y-63338074D01*
X149869902Y-63297809D01*
X149869900Y-63297808D01*
X149869900Y-63297807D01*
X149790875Y-63245002D01*
X149790863Y-63244997D01*
X149720881Y-63216009D01*
X149636101Y-63180890D01*
X149636102Y-63180890D01*
X149636087Y-63180884D01*
X149549201Y-63163602D01*
X149549199Y-63163601D01*
X149549199Y-63163602D01*
X149471787Y-63148202D01*
X149471767Y-63148200D01*
X149388021Y-63148200D01*
X149304254Y-63148198D01*
X149304253Y-63148198D01*
X149298152Y-63148198D01*
X149298112Y-63148200D01*
X146264657Y-63148200D01*
X146197618Y-63128515D01*
X146176975Y-63111880D01*
X132744566Y-49679206D01*
X132711082Y-49617883D01*
X132716067Y-49548191D01*
X132757939Y-49492258D01*
X132823403Y-49467842D01*
X132864340Y-49471750D01*
X132999884Y-49508070D01*
X133157075Y-49521822D01*
X133219950Y-49527323D01*
X133219952Y-49527323D01*
X133219954Y-49527323D01*
X133274969Y-49522509D01*
X133440020Y-49508070D01*
X133653402Y-49450894D01*
X133853614Y-49357534D01*
X134034572Y-49230826D01*
X134190778Y-49074620D01*
X134317486Y-48893662D01*
X134377570Y-48764811D01*
X134423742Y-48712371D01*
X134490935Y-48693219D01*
X134557817Y-48713435D01*
X134602334Y-48764811D01*
X134662416Y-48893658D01*
X134662420Y-48893666D01*
X134789122Y-49074615D01*
X134789127Y-49074621D01*
X134945330Y-49230824D01*
X134945336Y-49230829D01*
X135126285Y-49357531D01*
X135126287Y-49357532D01*
X135126290Y-49357534D01*
X135326502Y-49450894D01*
X135539884Y-49508070D01*
X135697075Y-49521822D01*
X135759950Y-49527323D01*
X135759952Y-49527323D01*
X135759954Y-49527323D01*
X135814969Y-49522509D01*
X135980020Y-49508070D01*
X136193402Y-49450894D01*
X136393614Y-49357534D01*
X136574572Y-49230826D01*
X136730778Y-49074620D01*
X136857486Y-48893662D01*
X136917570Y-48764811D01*
X136963742Y-48712371D01*
X137030935Y-48693219D01*
X137097817Y-48713435D01*
X137142334Y-48764811D01*
X137202416Y-48893658D01*
X137202420Y-48893666D01*
X137329122Y-49074615D01*
X137329127Y-49074621D01*
X137485330Y-49230824D01*
X137485336Y-49230829D01*
X137666285Y-49357531D01*
X137666287Y-49357532D01*
X137666290Y-49357534D01*
X137866502Y-49450894D01*
X138079884Y-49508070D01*
X138237075Y-49521822D01*
X138299950Y-49527323D01*
X138299952Y-49527323D01*
X138299954Y-49527323D01*
X138354969Y-49522509D01*
X138520020Y-49508070D01*
X138733402Y-49450894D01*
X138933614Y-49357534D01*
X139114572Y-49230826D01*
X139270778Y-49074620D01*
X139397486Y-48893662D01*
X139457570Y-48764811D01*
X139503742Y-48712371D01*
X139570935Y-48693219D01*
X139637817Y-48713435D01*
X139682334Y-48764811D01*
X139742416Y-48893658D01*
X139742420Y-48893666D01*
X139869122Y-49074615D01*
X139869127Y-49074621D01*
X140025330Y-49230824D01*
X140025336Y-49230829D01*
X140206285Y-49357531D01*
X140206287Y-49357532D01*
X140206290Y-49357534D01*
X140406502Y-49450894D01*
X140619884Y-49508070D01*
X140777075Y-49521822D01*
X140839950Y-49527323D01*
X140839952Y-49527323D01*
X140839954Y-49527323D01*
X140894969Y-49522509D01*
X141060020Y-49508070D01*
X141273402Y-49450894D01*
X141473614Y-49357534D01*
X141654572Y-49230826D01*
X141810778Y-49074620D01*
X141937486Y-48893662D01*
X141997570Y-48764811D01*
X142043742Y-48712371D01*
X142110935Y-48693219D01*
X142177817Y-48713435D01*
X142222334Y-48764811D01*
X142282416Y-48893658D01*
X142282420Y-48893666D01*
X142409122Y-49074615D01*
X142409127Y-49074621D01*
X142565330Y-49230824D01*
X142565336Y-49230829D01*
X142746285Y-49357531D01*
X142746287Y-49357532D01*
X142746290Y-49357534D01*
X142946502Y-49450894D01*
X143159884Y-49508070D01*
X143317075Y-49521822D01*
X143379950Y-49527323D01*
X143379952Y-49527323D01*
X143379954Y-49527323D01*
X143434969Y-49522509D01*
X143600020Y-49508070D01*
X143813402Y-49450894D01*
X144013614Y-49357534D01*
X144194572Y-49230826D01*
X144350778Y-49074620D01*
X144477486Y-48893662D01*
X144537570Y-48764811D01*
X144583742Y-48712371D01*
X144650935Y-48693219D01*
X144717817Y-48713435D01*
X144762334Y-48764811D01*
X144822416Y-48893658D01*
X144822420Y-48893666D01*
X144949122Y-49074615D01*
X144949127Y-49074621D01*
X145105330Y-49230824D01*
X145105336Y-49230829D01*
X145286285Y-49357531D01*
X145286287Y-49357532D01*
X145286290Y-49357534D01*
X145486502Y-49450894D01*
X145699884Y-49508070D01*
X145857075Y-49521822D01*
X145919950Y-49527323D01*
X145919952Y-49527323D01*
X145919954Y-49527323D01*
X145974969Y-49522509D01*
X146140020Y-49508070D01*
X146353402Y-49450894D01*
X146553614Y-49357534D01*
X146734572Y-49230826D01*
X146890778Y-49074620D01*
X147017486Y-48893662D01*
X147077570Y-48764811D01*
X147123742Y-48712371D01*
X147190935Y-48693219D01*
X147257817Y-48713435D01*
X147302334Y-48764811D01*
X147362416Y-48893658D01*
X147362420Y-48893666D01*
X147489122Y-49074615D01*
X147489127Y-49074621D01*
X147645330Y-49230824D01*
X147645336Y-49230829D01*
X147826285Y-49357531D01*
X147826287Y-49357532D01*
X147826290Y-49357534D01*
X148026502Y-49450894D01*
X148239884Y-49508070D01*
X148397075Y-49521822D01*
X148459950Y-49527323D01*
X148459952Y-49527323D01*
X148459954Y-49527323D01*
X148514969Y-49522509D01*
X148680020Y-49508070D01*
X148893402Y-49450894D01*
X149093614Y-49357534D01*
X149274572Y-49230826D01*
X149430778Y-49074620D01*
X149557486Y-48893662D01*
X149617570Y-48764811D01*
X149663742Y-48712371D01*
X149730935Y-48693219D01*
X149797817Y-48713435D01*
X149842334Y-48764811D01*
X149902416Y-48893658D01*
X149902420Y-48893666D01*
X150029122Y-49074615D01*
X150029127Y-49074621D01*
X150185330Y-49230824D01*
X150185336Y-49230829D01*
X150366285Y-49357531D01*
X150366287Y-49357532D01*
X150366290Y-49357534D01*
X150566502Y-49450894D01*
X150779884Y-49508070D01*
X150937075Y-49521822D01*
X150999950Y-49527323D01*
X150999952Y-49527323D01*
X150999954Y-49527323D01*
X151054969Y-49522509D01*
X151220020Y-49508070D01*
X151433402Y-49450894D01*
X151633614Y-49357534D01*
X151814572Y-49230826D01*
X151970778Y-49074620D01*
X152097486Y-48893662D01*
X152190846Y-48693450D01*
X152248022Y-48480068D01*
X152267275Y-48260000D01*
X152248022Y-48039932D01*
X152190846Y-47826550D01*
X152097486Y-47626339D01*
X151970778Y-47445380D01*
X151814572Y-47289174D01*
X151814568Y-47289171D01*
X151814567Y-47289170D01*
X151633618Y-47162468D01*
X151633614Y-47162466D01*
X151535886Y-47116895D01*
X151433402Y-47069106D01*
X151433399Y-47069105D01*
X151433397Y-47069104D01*
X151220022Y-47011930D01*
X151220014Y-47011929D01*
X150999954Y-46992677D01*
X150999950Y-46992677D01*
X150779889Y-47011929D01*
X150779881Y-47011930D01*
X150566506Y-47069104D01*
X150566500Y-47069107D01*
X150366292Y-47162465D01*
X150366290Y-47162466D01*
X150185329Y-47289175D01*
X150029127Y-47445377D01*
X149902418Y-47626338D01*
X149902417Y-47626340D01*
X149842334Y-47755189D01*
X149796161Y-47807628D01*
X149728968Y-47826780D01*
X149662087Y-47806564D01*
X149617570Y-47755189D01*
X149599011Y-47715390D01*
X149557486Y-47626339D01*
X149430778Y-47445380D01*
X149274572Y-47289174D01*
X149274568Y-47289171D01*
X149274567Y-47289170D01*
X149093618Y-47162468D01*
X149093614Y-47162466D01*
X148995886Y-47116895D01*
X148893402Y-47069106D01*
X148893399Y-47069105D01*
X148893397Y-47069104D01*
X148680022Y-47011930D01*
X148680014Y-47011929D01*
X148459954Y-46992677D01*
X148459950Y-46992677D01*
X148239889Y-47011929D01*
X148239881Y-47011930D01*
X148026506Y-47069104D01*
X148026500Y-47069107D01*
X147826292Y-47162465D01*
X147826290Y-47162466D01*
X147645329Y-47289175D01*
X147489127Y-47445377D01*
X147362418Y-47626338D01*
X147362417Y-47626340D01*
X147302334Y-47755189D01*
X147256161Y-47807628D01*
X147188968Y-47826780D01*
X147122087Y-47806564D01*
X147077570Y-47755189D01*
X147059011Y-47715390D01*
X147017486Y-47626339D01*
X146890778Y-47445380D01*
X146734572Y-47289174D01*
X146734568Y-47289171D01*
X146734567Y-47289170D01*
X146553618Y-47162468D01*
X146553614Y-47162466D01*
X146455886Y-47116895D01*
X146353402Y-47069106D01*
X146353399Y-47069105D01*
X146353397Y-47069104D01*
X146140022Y-47011930D01*
X146140014Y-47011929D01*
X145919954Y-46992677D01*
X145919950Y-46992677D01*
X145699889Y-47011929D01*
X145699881Y-47011930D01*
X145486506Y-47069104D01*
X145486500Y-47069107D01*
X145286292Y-47162465D01*
X145286290Y-47162466D01*
X145105329Y-47289175D01*
X144949127Y-47445377D01*
X144822418Y-47626338D01*
X144822417Y-47626340D01*
X144762334Y-47755189D01*
X144716161Y-47807628D01*
X144648968Y-47826780D01*
X144582087Y-47806564D01*
X144537570Y-47755189D01*
X144519011Y-47715390D01*
X144477486Y-47626339D01*
X144350778Y-47445380D01*
X144194572Y-47289174D01*
X144194568Y-47289171D01*
X144194567Y-47289170D01*
X144013618Y-47162468D01*
X144013614Y-47162466D01*
X143915886Y-47116895D01*
X143813402Y-47069106D01*
X143813399Y-47069105D01*
X143813397Y-47069104D01*
X143600022Y-47011930D01*
X143600014Y-47011929D01*
X143379954Y-46992677D01*
X143379950Y-46992677D01*
X143159889Y-47011929D01*
X143159881Y-47011930D01*
X142946506Y-47069104D01*
X142946500Y-47069107D01*
X142746292Y-47162465D01*
X142746290Y-47162466D01*
X142565329Y-47289175D01*
X142409127Y-47445377D01*
X142282418Y-47626338D01*
X142282417Y-47626340D01*
X142222334Y-47755189D01*
X142176161Y-47807628D01*
X142108968Y-47826780D01*
X142042087Y-47806564D01*
X141997570Y-47755189D01*
X141979011Y-47715390D01*
X141937486Y-47626339D01*
X141810778Y-47445380D01*
X141654572Y-47289174D01*
X141654568Y-47289171D01*
X141654567Y-47289170D01*
X141473618Y-47162468D01*
X141473614Y-47162466D01*
X141375886Y-47116895D01*
X141273402Y-47069106D01*
X141273399Y-47069105D01*
X141273397Y-47069104D01*
X141060022Y-47011930D01*
X141060014Y-47011929D01*
X140839954Y-46992677D01*
X140839950Y-46992677D01*
X140619889Y-47011929D01*
X140619881Y-47011930D01*
X140406506Y-47069104D01*
X140406500Y-47069107D01*
X140206292Y-47162465D01*
X140206290Y-47162466D01*
X140025329Y-47289175D01*
X139869127Y-47445377D01*
X139742418Y-47626338D01*
X139742417Y-47626340D01*
X139682334Y-47755189D01*
X139636161Y-47807628D01*
X139568968Y-47826780D01*
X139502087Y-47806564D01*
X139457570Y-47755189D01*
X139439011Y-47715390D01*
X139397486Y-47626339D01*
X139270778Y-47445380D01*
X139114572Y-47289174D01*
X139114568Y-47289171D01*
X139114567Y-47289170D01*
X138933618Y-47162468D01*
X138933614Y-47162466D01*
X138835886Y-47116895D01*
X138733402Y-47069106D01*
X138733399Y-47069105D01*
X138733397Y-47069104D01*
X138520022Y-47011930D01*
X138520014Y-47011929D01*
X138299954Y-46992677D01*
X138299950Y-46992677D01*
X138079889Y-47011929D01*
X138079881Y-47011930D01*
X137866506Y-47069104D01*
X137866500Y-47069107D01*
X137666292Y-47162465D01*
X137666290Y-47162466D01*
X137485329Y-47289175D01*
X137329127Y-47445377D01*
X137202418Y-47626338D01*
X137202417Y-47626340D01*
X137142334Y-47755189D01*
X137096161Y-47807628D01*
X137028968Y-47826780D01*
X136962087Y-47806564D01*
X136917570Y-47755189D01*
X136899011Y-47715390D01*
X136857486Y-47626339D01*
X136730778Y-47445380D01*
X136574572Y-47289174D01*
X136574568Y-47289171D01*
X136574567Y-47289170D01*
X136393618Y-47162468D01*
X136393614Y-47162466D01*
X136295886Y-47116895D01*
X136193402Y-47069106D01*
X136193399Y-47069105D01*
X136193397Y-47069104D01*
X135980022Y-47011930D01*
X135980014Y-47011929D01*
X135759954Y-46992677D01*
X135759950Y-46992677D01*
X135539889Y-47011929D01*
X135539881Y-47011930D01*
X135326506Y-47069104D01*
X135326500Y-47069107D01*
X135126292Y-47162465D01*
X135126290Y-47162466D01*
X134945329Y-47289175D01*
X134789127Y-47445377D01*
X134662418Y-47626338D01*
X134662417Y-47626340D01*
X134602334Y-47755189D01*
X134556161Y-47807628D01*
X134488968Y-47826780D01*
X134422087Y-47806564D01*
X134377570Y-47755189D01*
X134359011Y-47715390D01*
X134317486Y-47626339D01*
X134190778Y-47445380D01*
X134034572Y-47289174D01*
X134034568Y-47289171D01*
X134034567Y-47289170D01*
X133853618Y-47162468D01*
X133853614Y-47162466D01*
X133755886Y-47116895D01*
X133653402Y-47069106D01*
X133653399Y-47069105D01*
X133653397Y-47069104D01*
X133440022Y-47011930D01*
X133440014Y-47011929D01*
X133219954Y-46992677D01*
X133219950Y-46992677D01*
X132999889Y-47011929D01*
X132999881Y-47011930D01*
X132786506Y-47069104D01*
X132786500Y-47069107D01*
X132586292Y-47162465D01*
X132586290Y-47162466D01*
X132405329Y-47289175D01*
X132249127Y-47445377D01*
X132122418Y-47626338D01*
X132122417Y-47626340D01*
X132062334Y-47755189D01*
X132016161Y-47807628D01*
X131948968Y-47826780D01*
X131882087Y-47806564D01*
X131837570Y-47755189D01*
X131819011Y-47715390D01*
X131777486Y-47626339D01*
X131650778Y-47445380D01*
X131494572Y-47289174D01*
X131494568Y-47289171D01*
X131494567Y-47289170D01*
X131313618Y-47162468D01*
X131313614Y-47162466D01*
X131215886Y-47116895D01*
X131113402Y-47069106D01*
X131113399Y-47069105D01*
X131113397Y-47069104D01*
X130900022Y-47011930D01*
X130900014Y-47011929D01*
X130679954Y-46992677D01*
X130679950Y-46992677D01*
X130459889Y-47011929D01*
X130459881Y-47011930D01*
X130246506Y-47069104D01*
X130246500Y-47069107D01*
X130046292Y-47162465D01*
X130046290Y-47162466D01*
X129865329Y-47289175D01*
X129709127Y-47445377D01*
X129582418Y-47626338D01*
X129582417Y-47626340D01*
X129522334Y-47755189D01*
X129476161Y-47807628D01*
X129408968Y-47826780D01*
X129342087Y-47806564D01*
X129297570Y-47755189D01*
X129279011Y-47715390D01*
X129237486Y-47626339D01*
X129110778Y-47445380D01*
X128954572Y-47289174D01*
X128954568Y-47289171D01*
X128954567Y-47289170D01*
X128773618Y-47162468D01*
X128773614Y-47162466D01*
X128675886Y-47116895D01*
X128573402Y-47069106D01*
X128573399Y-47069105D01*
X128573397Y-47069104D01*
X128360022Y-47011930D01*
X128360014Y-47011929D01*
X128139954Y-46992677D01*
X128139950Y-46992677D01*
X127919889Y-47011929D01*
X127919881Y-47011930D01*
X127706506Y-47069104D01*
X127706500Y-47069107D01*
X127506292Y-47162465D01*
X127506290Y-47162466D01*
X127325329Y-47289175D01*
X127169127Y-47445377D01*
X127042418Y-47626338D01*
X127042417Y-47626340D01*
X126982334Y-47755189D01*
X126936161Y-47807628D01*
X126868968Y-47826780D01*
X126802087Y-47806564D01*
X126757570Y-47755189D01*
X126739011Y-47715390D01*
X126697486Y-47626339D01*
X126570778Y-47445380D01*
X126414572Y-47289174D01*
X126414568Y-47289171D01*
X126414567Y-47289170D01*
X126233618Y-47162468D01*
X126233614Y-47162466D01*
X126135886Y-47116895D01*
X126033402Y-47069106D01*
X126033399Y-47069105D01*
X126033397Y-47069104D01*
X125820022Y-47011930D01*
X125820014Y-47011929D01*
X125599954Y-46992677D01*
X125599950Y-46992677D01*
X125379889Y-47011929D01*
X125379881Y-47011930D01*
X125166506Y-47069104D01*
X125166500Y-47069107D01*
X124966292Y-47162465D01*
X124966290Y-47162466D01*
X124785329Y-47289175D01*
X124629127Y-47445377D01*
X124502418Y-47626338D01*
X124502417Y-47626340D01*
X124442334Y-47755189D01*
X124396161Y-47807628D01*
X124328968Y-47826780D01*
X124262087Y-47806564D01*
X124217570Y-47755189D01*
X124199011Y-47715390D01*
X124157486Y-47626339D01*
X124030778Y-47445380D01*
X123874572Y-47289174D01*
X123874568Y-47289171D01*
X123874567Y-47289170D01*
X123693618Y-47162468D01*
X123693614Y-47162466D01*
X123595886Y-47116895D01*
X123493402Y-47069106D01*
X123493399Y-47069105D01*
X123493397Y-47069104D01*
X123280022Y-47011930D01*
X123280014Y-47011929D01*
X123059954Y-46992677D01*
X123059950Y-46992677D01*
X122839889Y-47011929D01*
X122839881Y-47011930D01*
X122626506Y-47069104D01*
X122626500Y-47069107D01*
X122426292Y-47162465D01*
X122426290Y-47162466D01*
X122245329Y-47289175D01*
X122089127Y-47445377D01*
X121962418Y-47626338D01*
X121962417Y-47626340D01*
X121902334Y-47755189D01*
X121856161Y-47807628D01*
X121788968Y-47826780D01*
X121722087Y-47806564D01*
X121677570Y-47755189D01*
X121659011Y-47715390D01*
X121617486Y-47626339D01*
X121490778Y-47445380D01*
X121334572Y-47289174D01*
X121334568Y-47289171D01*
X121334567Y-47289170D01*
X121153618Y-47162468D01*
X121153614Y-47162466D01*
X121055886Y-47116895D01*
X120953402Y-47069106D01*
X120953399Y-47069105D01*
X120953397Y-47069104D01*
X120740022Y-47011930D01*
X120740014Y-47011929D01*
X120519954Y-46992677D01*
X120519950Y-46992677D01*
X120299889Y-47011929D01*
X120299881Y-47011930D01*
X120086506Y-47069104D01*
X120086500Y-47069107D01*
X119886292Y-47162465D01*
X119886290Y-47162466D01*
X119705329Y-47289175D01*
X119549127Y-47445377D01*
X119422418Y-47626338D01*
X119422417Y-47626340D01*
X119362334Y-47755189D01*
X119316161Y-47807628D01*
X119248968Y-47826780D01*
X119182087Y-47806564D01*
X119137570Y-47755189D01*
X119119011Y-47715390D01*
X119077486Y-47626339D01*
X118950778Y-47445380D01*
X118794572Y-47289174D01*
X118794568Y-47289171D01*
X118794567Y-47289170D01*
X118613618Y-47162468D01*
X118613614Y-47162466D01*
X118515886Y-47116895D01*
X118413402Y-47069106D01*
X118413399Y-47069105D01*
X118413397Y-47069104D01*
X118200022Y-47011930D01*
X118200014Y-47011929D01*
X117979954Y-46992677D01*
X117979950Y-46992677D01*
X117759889Y-47011929D01*
X117759881Y-47011930D01*
X117546506Y-47069104D01*
X117546500Y-47069107D01*
X117346292Y-47162465D01*
X117346290Y-47162466D01*
X117165329Y-47289175D01*
X117009127Y-47445377D01*
X116882418Y-47626338D01*
X116882417Y-47626340D01*
X116822334Y-47755189D01*
X116776161Y-47807628D01*
X116708968Y-47826780D01*
X116642087Y-47806564D01*
X116597570Y-47755189D01*
X116579011Y-47715390D01*
X116537486Y-47626339D01*
X116410778Y-47445380D01*
X116254572Y-47289174D01*
X116254568Y-47289171D01*
X116254567Y-47289170D01*
X116073618Y-47162468D01*
X116073614Y-47162466D01*
X115975886Y-47116895D01*
X115873402Y-47069106D01*
X115873399Y-47069105D01*
X115873397Y-47069104D01*
X115660022Y-47011930D01*
X115660014Y-47011929D01*
X115439954Y-46992677D01*
X115439950Y-46992677D01*
X115219889Y-47011929D01*
X115219875Y-47011932D01*
X115195217Y-47018539D01*
X115125367Y-47016876D01*
X115067505Y-46977713D01*
X115040002Y-46913484D01*
X115051589Y-46844582D01*
X115075445Y-46811082D01*
X124392675Y-37494091D01*
X124999963Y-36886817D01*
X125061286Y-36853333D01*
X125087643Y-36850500D01*
X131075501Y-36850500D01*
X131142540Y-36870185D01*
X131188295Y-36922989D01*
X131199501Y-36974500D01*
X131199501Y-37047876D01*
X131205908Y-37107483D01*
X131256202Y-37242328D01*
X131256206Y-37242335D01*
X131342452Y-37357544D01*
X131342455Y-37357547D01*
X131457664Y-37443793D01*
X131457671Y-37443797D01*
X131592517Y-37494091D01*
X131592516Y-37494091D01*
X131599444Y-37494835D01*
X131652127Y-37500500D01*
X133747872Y-37500499D01*
X133807483Y-37494091D01*
X133942331Y-37443796D01*
X134057546Y-37357546D01*
X134143796Y-37242331D01*
X134194091Y-37107483D01*
X134200500Y-37047873D01*
X134200499Y-35999994D01*
X138794357Y-35999994D01*
X138794357Y-36000005D01*
X138814890Y-36247812D01*
X138814892Y-36247824D01*
X138875936Y-36488881D01*
X138975826Y-36716606D01*
X139111833Y-36924782D01*
X139111836Y-36924785D01*
X139280256Y-37107738D01*
X139476491Y-37260474D01*
X139695190Y-37378828D01*
X139930386Y-37459571D01*
X140175665Y-37500500D01*
X140424335Y-37500500D01*
X140669614Y-37459571D01*
X140904810Y-37378828D01*
X141123509Y-37260474D01*
X141319744Y-37107738D01*
X141488164Y-36924785D01*
X141624173Y-36716607D01*
X141724063Y-36488881D01*
X141785108Y-36247821D01*
X141805643Y-36000000D01*
X141785108Y-35752179D01*
X141724063Y-35511119D01*
X141624173Y-35283393D01*
X141623033Y-35281648D01*
X141488166Y-35075217D01*
X141429492Y-35011480D01*
X141319744Y-34892262D01*
X141123509Y-34739526D01*
X141123507Y-34739525D01*
X141123506Y-34739524D01*
X140904811Y-34621172D01*
X140904802Y-34621169D01*
X140669616Y-34540429D01*
X140424335Y-34499500D01*
X140175665Y-34499500D01*
X139930383Y-34540429D01*
X139695197Y-34621169D01*
X139695188Y-34621172D01*
X139476493Y-34739524D01*
X139280257Y-34892261D01*
X139111833Y-35075217D01*
X138975826Y-35283393D01*
X138875936Y-35511118D01*
X138814892Y-35752175D01*
X138814890Y-35752187D01*
X138794357Y-35999994D01*
X134200499Y-35999994D01*
X134200499Y-34952128D01*
X134194091Y-34892517D01*
X134146859Y-34765882D01*
X134143797Y-34757671D01*
X134143793Y-34757664D01*
X134057547Y-34642455D01*
X134057544Y-34642452D01*
X133942335Y-34556206D01*
X133942328Y-34556202D01*
X133807482Y-34505908D01*
X133807483Y-34505908D01*
X133747883Y-34499501D01*
X133747881Y-34499500D01*
X133747873Y-34499500D01*
X133747864Y-34499500D01*
X131652129Y-34499500D01*
X131652123Y-34499501D01*
X131592516Y-34505908D01*
X131457671Y-34556202D01*
X131457664Y-34556206D01*
X131342455Y-34642452D01*
X131342452Y-34642455D01*
X131256206Y-34757664D01*
X131256202Y-34757671D01*
X131205908Y-34892517D01*
X131200059Y-34946924D01*
X131199501Y-34952123D01*
X131199500Y-34952135D01*
X131199500Y-35025500D01*
X131179815Y-35092539D01*
X131127011Y-35138294D01*
X131075500Y-35149500D01*
X124600228Y-35149500D01*
X124435925Y-35182182D01*
X124435917Y-35182184D01*
X124337718Y-35222860D01*
X124337716Y-35222861D01*
X124281148Y-35246290D01*
X124281140Y-35246294D01*
X124281133Y-35246299D01*
X124281069Y-35246342D01*
X124228226Y-35281648D01*
X124228227Y-35281649D01*
X124141848Y-35339365D01*
X124141843Y-35339369D01*
X124118994Y-35362218D01*
X112379477Y-47101434D01*
X112344203Y-47126133D01*
X112266296Y-47162462D01*
X112266289Y-47162466D01*
X112085329Y-47289175D01*
X111929127Y-47445377D01*
X111802418Y-47626338D01*
X111802417Y-47626340D01*
X111742334Y-47755189D01*
X111696161Y-47807628D01*
X111628968Y-47826780D01*
X111562087Y-47806564D01*
X111517570Y-47755189D01*
X111499011Y-47715390D01*
X111457486Y-47626339D01*
X111330778Y-47445380D01*
X111174572Y-47289174D01*
X111174568Y-47289171D01*
X111174567Y-47289170D01*
X110993618Y-47162468D01*
X110993614Y-47162466D01*
X110895886Y-47116895D01*
X110793402Y-47069106D01*
X110793399Y-47069105D01*
X110793397Y-47069104D01*
X110580022Y-47011930D01*
X110580014Y-47011929D01*
X110359954Y-46992677D01*
X110359950Y-46992677D01*
X110139889Y-47011929D01*
X110139881Y-47011930D01*
X109926506Y-47069104D01*
X109926500Y-47069107D01*
X109726292Y-47162465D01*
X109726290Y-47162466D01*
X109545329Y-47289175D01*
X109389127Y-47445377D01*
X109262419Y-47626337D01*
X109202057Y-47755782D01*
X109155884Y-47808221D01*
X109088690Y-47827372D01*
X109021809Y-47807156D01*
X108977293Y-47755780D01*
X108917050Y-47626589D01*
X108917049Y-47626587D01*
X108871693Y-47561811D01*
X108871692Y-47561810D01*
X108200952Y-48232551D01*
X108200952Y-48209840D01*
X108174988Y-48112939D01*
X108124828Y-48026060D01*
X108053892Y-47955124D01*
X107967013Y-47904964D01*
X107870112Y-47879000D01*
X107847400Y-47879000D01*
X108518140Y-47208259D01*
X108518139Y-47208258D01*
X108453363Y-47162901D01*
X108453357Y-47162898D01*
X108253236Y-47069580D01*
X108253222Y-47069575D01*
X108039938Y-47012426D01*
X108039928Y-47012424D01*
X107819953Y-46993179D01*
X107819951Y-46993179D01*
X107599975Y-47012424D01*
X107599965Y-47012426D01*
X107386681Y-47069575D01*
X107386672Y-47069579D01*
X107186542Y-47162901D01*
X107121763Y-47208258D01*
X107792505Y-47879000D01*
X107769792Y-47879000D01*
X107672891Y-47904964D01*
X107586012Y-47955124D01*
X107515076Y-48026060D01*
X107464916Y-48112939D01*
X107438952Y-48209840D01*
X107438952Y-48232553D01*
X106768210Y-47561811D01*
X106744076Y-47596279D01*
X106689500Y-47639905D01*
X106620001Y-47647099D01*
X106557646Y-47615577D01*
X106522232Y-47555348D01*
X106518500Y-47525157D01*
X106518500Y-37348550D01*
X106538185Y-37281511D01*
X106554814Y-37260874D01*
X108804209Y-35011478D01*
X108865530Y-34977995D01*
X108869058Y-34977281D01*
X109031456Y-34946924D01*
X109221637Y-34873248D01*
X109395041Y-34765881D01*
X109545764Y-34628479D01*
X109668673Y-34465721D01*
X109759582Y-34283150D01*
X109815397Y-34086983D01*
X109834215Y-33883900D01*
X109815397Y-33680817D01*
X109759582Y-33484650D01*
X109668673Y-33302079D01*
X109545764Y-33139321D01*
X109545762Y-33139318D01*
X109395041Y-33001919D01*
X109395039Y-33001917D01*
X109221642Y-32894555D01*
X109221635Y-32894551D01*
X109126546Y-32857714D01*
X109031456Y-32820876D01*
X108830976Y-32783400D01*
X108627024Y-32783400D01*
X108426544Y-32820876D01*
X108426541Y-32820876D01*
X108426541Y-32820877D01*
X108236364Y-32894551D01*
X108236357Y-32894555D01*
X108062960Y-33001917D01*
X108062958Y-33001919D01*
X107912237Y-33139318D01*
X107789327Y-33302078D01*
X107698422Y-33484639D01*
X107698417Y-33484652D01*
X107642603Y-33680815D01*
X107637880Y-33731781D01*
X107612093Y-33796718D01*
X107602090Y-33808019D01*
X105007375Y-36402734D01*
X105007372Y-36402738D01*
X104914297Y-36542033D01*
X104874638Y-36637781D01*
X104850184Y-36696817D01*
X104850182Y-36696825D01*
X104817500Y-36861128D01*
X101460500Y-36861128D01*
X101460500Y-29405513D01*
X103799500Y-29405513D01*
X103799500Y-29594486D01*
X103829059Y-29781118D01*
X103887454Y-29960836D01*
X103973240Y-30129199D01*
X104084310Y-30282073D01*
X104217927Y-30415690D01*
X104370801Y-30526760D01*
X104450347Y-30567290D01*
X104539163Y-30612545D01*
X104539165Y-30612545D01*
X104539168Y-30612547D01*
X104635497Y-30643846D01*
X104718881Y-30670940D01*
X104905514Y-30700500D01*
X104905519Y-30700500D01*
X105094486Y-30700500D01*
X105281118Y-30670940D01*
X105460832Y-30612547D01*
X105629199Y-30526760D01*
X105782073Y-30415690D01*
X105915690Y-30282073D01*
X106026760Y-30129199D01*
X106112547Y-29960832D01*
X106170940Y-29781118D01*
X106200500Y-29594486D01*
X106200500Y-29405513D01*
X164299500Y-29405513D01*
X164299500Y-29594486D01*
X164329059Y-29781118D01*
X164387454Y-29960836D01*
X164473240Y-30129199D01*
X164584310Y-30282073D01*
X164717927Y-30415690D01*
X164870801Y-30526760D01*
X164950347Y-30567290D01*
X165039163Y-30612545D01*
X165039165Y-30612545D01*
X165039168Y-30612547D01*
X165135497Y-30643846D01*
X165218881Y-30670940D01*
X165405514Y-30700500D01*
X165405519Y-30700500D01*
X165594486Y-30700500D01*
X165781118Y-30670940D01*
X165960832Y-30612547D01*
X166129199Y-30526760D01*
X166282073Y-30415690D01*
X166415690Y-30282073D01*
X166526760Y-30129199D01*
X166612547Y-29960832D01*
X166670940Y-29781118D01*
X166700500Y-29594486D01*
X166700500Y-29405513D01*
X166670940Y-29218881D01*
X166612545Y-29039163D01*
X166526759Y-28870800D01*
X166415690Y-28717927D01*
X166282073Y-28584310D01*
X166129199Y-28473240D01*
X165960836Y-28387454D01*
X165781118Y-28329059D01*
X165594486Y-28299500D01*
X165594481Y-28299500D01*
X165405519Y-28299500D01*
X165405514Y-28299500D01*
X165218881Y-28329059D01*
X165039163Y-28387454D01*
X164870800Y-28473240D01*
X164783579Y-28536610D01*
X164717927Y-28584310D01*
X164717925Y-28584312D01*
X164717924Y-28584312D01*
X164584312Y-28717924D01*
X164584312Y-28717925D01*
X164584310Y-28717927D01*
X164536610Y-28783579D01*
X164473240Y-28870800D01*
X164387454Y-29039163D01*
X164329059Y-29218881D01*
X164299500Y-29405513D01*
X106200500Y-29405513D01*
X106170940Y-29218881D01*
X106112545Y-29039163D01*
X106026759Y-28870800D01*
X105915690Y-28717927D01*
X105782073Y-28584310D01*
X105629199Y-28473240D01*
X105460836Y-28387454D01*
X105281118Y-28329059D01*
X105094486Y-28299500D01*
X105094481Y-28299500D01*
X104905519Y-28299500D01*
X104905514Y-28299500D01*
X104718881Y-28329059D01*
X104539163Y-28387454D01*
X104370800Y-28473240D01*
X104283579Y-28536610D01*
X104217927Y-28584310D01*
X104217925Y-28584312D01*
X104217924Y-28584312D01*
X104084312Y-28717924D01*
X104084312Y-28717925D01*
X104084310Y-28717927D01*
X104036610Y-28783579D01*
X103973240Y-28870800D01*
X103887454Y-29039163D01*
X103829059Y-29218881D01*
X103799500Y-29405513D01*
X101460500Y-29405513D01*
X101460500Y-26024500D01*
X101480185Y-25957461D01*
X101532989Y-25911706D01*
X101584500Y-25900500D01*
X169335500Y-25900500D01*
X169402539Y-25920185D01*
G37*
%TD.AperFunction*%
%TD*%
M02*
