%TF.GenerationSoftware,KiCad,Pcbnew,8.0.2*%
%TF.CreationDate,2024-06-22T16:18:14+02:00*%
%TF.ProjectId,LoRaKid,4c6f5261-4b69-4642-9e6b-696361645f70,rev?*%
%TF.SameCoordinates,Original*%
%TF.FileFunction,Copper,L1,Top*%
%TF.FilePolarity,Positive*%
%FSLAX46Y46*%
G04 Gerber Fmt 4.6, Leading zero omitted, Abs format (unit mm)*
G04 Created by KiCad (PCBNEW 8.0.2) date 2024-06-22 16:18:14*
%MOMM*%
%LPD*%
G01*
G04 APERTURE LIST*
G04 Aperture macros list*
%AMRoundRect*
0 Rectangle with rounded corners*
0 $1 Rounding radius*
0 $2 $3 $4 $5 $6 $7 $8 $9 X,Y pos of 4 corners*
0 Add a 4 corners polygon primitive as box body*
4,1,4,$2,$3,$4,$5,$6,$7,$8,$9,$2,$3,0*
0 Add four circle primitives for the rounded corners*
1,1,$1+$1,$2,$3*
1,1,$1+$1,$4,$5*
1,1,$1+$1,$6,$7*
1,1,$1+$1,$8,$9*
0 Add four rect primitives between the rounded corners*
20,1,$1+$1,$2,$3,$4,$5,0*
20,1,$1+$1,$4,$5,$6,$7,0*
20,1,$1+$1,$6,$7,$8,$9,0*
20,1,$1+$1,$8,$9,$2,$3,0*%
G04 Aperture macros list end*
%TA.AperFunction,SMDPad,CuDef*%
%ADD10R,1.600000X1.400000*%
%TD*%
%TA.AperFunction,ComponentPad*%
%ADD11R,2.000000X3.000000*%
%TD*%
%TA.AperFunction,ComponentPad*%
%ADD12O,2.000000X3.000000*%
%TD*%
%TA.AperFunction,ComponentPad*%
%ADD13R,1.100000X1.800000*%
%TD*%
%TA.AperFunction,ComponentPad*%
%ADD14RoundRect,0.275000X-0.275000X-0.625000X0.275000X-0.625000X0.275000X0.625000X-0.275000X0.625000X0*%
%TD*%
%TA.AperFunction,ComponentPad*%
%ADD15RoundRect,0.250000X-0.350000X-1.250000X0.350000X-1.250000X0.350000X1.250000X-0.350000X1.250000X0*%
%TD*%
%TA.AperFunction,ComponentPad*%
%ADD16O,1.200000X3.000000*%
%TD*%
%TA.AperFunction,SMDPad,CuDef*%
%ADD17RoundRect,0.250000X-0.400000X-0.625000X0.400000X-0.625000X0.400000X0.625000X-0.400000X0.625000X0*%
%TD*%
%TA.AperFunction,ViaPad*%
%ADD18C,3.000000*%
%TD*%
%TA.AperFunction,Conductor*%
%ADD19C,0.700000*%
%TD*%
%TA.AperFunction,Profile*%
%ADD20C,0.050000*%
%TD*%
G04 APERTURE END LIST*
D10*
%TO.P,SW1_ON_OFF1,1,1*%
%TO.N,Net-(U1-PROG)*%
X103220000Y-33750000D03*
X111220000Y-33750000D03*
%TO.P,SW1_ON_OFF1,2,2*%
%TO.N,GND*%
X103220000Y-38250000D03*
X111220000Y-38250000D03*
%TD*%
D11*
%TO.P,USB1,1,Pin_1*%
%TO.N,Net-(U1-5V)*%
X131920000Y-132500000D03*
D12*
%TO.P,USB1,2,Pin_2*%
%TO.N,unconnected-(USB1-Pin_2-Pad2)*%
X134460000Y-132500000D03*
%TO.P,USB1,3,Pin_3*%
%TO.N,unconnected-(USB1-Pin_3-Pad3)*%
X137000000Y-132500000D03*
%TO.P,USB1,4,Pin_4*%
%TO.N,GND*%
X139540000Y-132500000D03*
%TD*%
D10*
%TO.P,SW4,1,1*%
%TO.N,GND*%
X110860000Y-79030000D03*
X118860000Y-79030000D03*
%TO.P,SW4,2,2*%
%TO.N,Net-(U1-GPIO38)*%
X110860000Y-83530000D03*
X118860000Y-83530000D03*
%TD*%
%TO.P,SW3_RIGHT1,1,1*%
%TO.N,GND*%
X147000000Y-33750000D03*
X155000000Y-33750000D03*
%TO.P,SW3_RIGHT1,2,2*%
%TO.N,Net-(U1-GPIO6{slash}ADC1_5)*%
X147000000Y-38250000D03*
X155000000Y-38250000D03*
%TD*%
D13*
%TO.P,Q1,1,E*%
%TO.N,GND*%
X120230000Y-108670000D03*
D14*
%TO.P,Q1,2,B*%
%TO.N,Net-(Q1-B)*%
X121500000Y-106600000D03*
%TO.P,Q1,3,C*%
%TO.N,Net-(BZ1--)*%
X122770000Y-108670000D03*
%TD*%
D10*
%TO.P,SW8,1,1*%
%TO.N,Net-(U1-GPIO48)*%
X131180000Y-96810000D03*
X139180000Y-96810000D03*
%TO.P,SW8,2,2*%
%TO.N,GND*%
X131180000Y-101310000D03*
X139180000Y-101310000D03*
%TD*%
%TO.P,SW6,1,1*%
%TO.N,GND*%
X151500000Y-79030000D03*
X159500000Y-79030000D03*
%TO.P,SW6,2,2*%
%TO.N,Net-(U1-GPIO40)*%
X151500000Y-83530000D03*
X159500000Y-83530000D03*
%TD*%
%TO.P,SW5,1,1*%
%TO.N,GND*%
X131180000Y-79030000D03*
X139180000Y-79030000D03*
%TO.P,SW5,2,2*%
%TO.N,Net-(U1-GPIO39)*%
X131180000Y-83530000D03*
X139180000Y-83530000D03*
%TD*%
D15*
%TO.P,BAT1,1,Pin_1*%
%TO.N,GND*%
X149000000Y-119500000D03*
D16*
%TO.P,BAT1,2,Pin_2*%
%TO.N,Net-(BAT1-Pin_2)*%
X151000000Y-119500000D03*
%TD*%
D11*
%TO.P,BZ1,1,+*%
%TO.N,+3.3V*%
X132700000Y-36000000D03*
D12*
%TO.P,BZ1,2,-*%
%TO.N,Net-(BZ1--)*%
X140300000Y-36000000D03*
%TD*%
D17*
%TO.P,R1,1*%
%TO.N,Net-(U1-GPIO33)*%
X122900000Y-122500000D03*
%TO.P,R1,2*%
%TO.N,Net-(Q1-B)*%
X126000000Y-122500000D03*
%TD*%
D11*
%TO.P,U1,1,GND*%
%TO.N,GND*%
X107819952Y-48260000D03*
D12*
%TO.P,U1,2,3V3*%
%TO.N,+3.3V*%
X110359952Y-48260000D03*
%TO.P,U1,3,3V3*%
X112899952Y-48260000D03*
%TO.P,U1,4,ADC_Ctrl*%
%TO.N,unconnected-(U1-ADC_Ctrl-Pad4)*%
X115439952Y-48260000D03*
%TO.P,U1,5,GPIO46*%
%TO.N,unconnected-(U1-GPIO46-Pad5)*%
X117979952Y-48260000D03*
%TO.P,U1,6,GPIO45*%
%TO.N,unconnected-(U1-GPIO45-Pad6)*%
X120519952Y-48260000D03*
%TO.P,U1,7,GPIO42*%
%TO.N,unconnected-(U1-GPIO42-Pad7)*%
X123059952Y-48260000D03*
%TO.P,U1,8,GPIO41*%
%TO.N,unconnected-(U1-GPIO41-Pad8)*%
X125599952Y-48260000D03*
%TO.P,U1,9,GPIO40*%
%TO.N,Net-(U1-GPIO40)*%
X128139952Y-48260000D03*
%TO.P,U1,10,GPIO39*%
%TO.N,Net-(U1-GPIO39)*%
X130679952Y-48260000D03*
%TO.P,U1,11,GPIO38*%
%TO.N,Net-(U1-GPIO38)*%
X133219952Y-48260000D03*
%TO.P,U1,12,VBAT_READ*%
%TO.N,unconnected-(U1-VBAT_READ-Pad12)*%
X135759952Y-48260000D03*
%TO.P,U1,13,GPIO2/ADC1_1*%
%TO.N,unconnected-(U1-GPIO2{slash}ADC1_1-Pad13)*%
X138299952Y-48260000D03*
%TO.P,U1,14,GPIO3/ADC1_2*%
%TO.N,unconnected-(U1-GPIO3{slash}ADC1_2-Pad14)*%
X140839952Y-48260000D03*
%TO.P,U1,15,GPIO4/ADC1_3*%
%TO.N,unconnected-(U1-GPIO4{slash}ADC1_3-Pad15)*%
X143379952Y-48260000D03*
%TO.P,U1,16,GPIO5/ADC1_4*%
%TO.N,unconnected-(U1-GPIO5{slash}ADC1_4-Pad16)*%
X145919952Y-48260000D03*
%TO.P,U1,17,GPIO6/ADC1_5*%
%TO.N,Net-(U1-GPIO6{slash}ADC1_5)*%
X148459952Y-48260000D03*
%TO.P,U1,18,GPIO7/ADC1_6*%
%TO.N,Net-(U1-GPIO7{slash}ADC1_6)*%
X150999952Y-48260000D03*
%TO.P,U1,19,GND*%
%TO.N,GND*%
X107819952Y-71120000D03*
%TO.P,U1,20,5V*%
%TO.N,Net-(U1-5V)*%
X110359952Y-71120000D03*
%TO.P,U1,21,Vextern*%
%TO.N,unconnected-(U1-Vextern-Pad21)*%
X112899952Y-71120000D03*
%TO.P,U1,22,Vextern*%
%TO.N,unconnected-(U1-Vextern-Pad22)*%
X115439952Y-71120000D03*
%TO.P,U1,23,USB_TX*%
%TO.N,unconnected-(U1-USB_TX-Pad23)*%
X117979952Y-71120000D03*
%TO.P,U1,24,USB_RX*%
%TO.N,unconnected-(U1-USB_RX-Pad24)*%
X120519952Y-71120000D03*
%TO.P,U1,25,RST*%
%TO.N,unconnected-(U1-RST-Pad25)*%
X123059952Y-71120000D03*
%TO.P,U1,26,PROG*%
%TO.N,Net-(U1-PROG)*%
X125599952Y-71120000D03*
%TO.P,U1,27,Vext_CTRL*%
%TO.N,unconnected-(U1-Vext_CTRL-Pad27)*%
X128139952Y-71120000D03*
%TO.P,U1,28,LED*%
%TO.N,unconnected-(U1-LED-Pad28)*%
X130679952Y-71120000D03*
%TO.P,U1,29,GPIO34*%
%TO.N,unconnected-(U1-GPIO34-Pad29)*%
X133219952Y-71120000D03*
%TO.P,U1,30,GPIO33*%
%TO.N,Net-(U1-GPIO33)*%
X135759952Y-71120000D03*
%TO.P,U1,31,GPIO47*%
%TO.N,Net-(U1-GPIO47)*%
X138299952Y-71120000D03*
%TO.P,U1,32,GPIO48*%
%TO.N,Net-(U1-GPIO48)*%
X140839952Y-71120000D03*
%TO.P,U1,33,GPIO26*%
%TO.N,Net-(U1-GPIO26)*%
X143379952Y-71120000D03*
%TO.P,U1,34,OLED_RST*%
%TO.N,unconnected-(U1-OLED_RST-Pad34)*%
X145919952Y-71120000D03*
%TO.P,U1,35,GPIO20*%
%TO.N,unconnected-(U1-GPIO20-Pad35)*%
X148459952Y-71120000D03*
%TO.P,U1,36,GPIO19*%
%TO.N,unconnected-(U1-GPIO19-Pad36)*%
X150999952Y-71120000D03*
%TD*%
D10*
%TO.P,SW2_LEFT1,1,1*%
%TO.N,GND*%
X117000000Y-33750000D03*
X125000000Y-33750000D03*
%TO.P,SW2_LEFT1,2,2*%
%TO.N,Net-(U1-GPIO7{slash}ADC1_6)*%
X117000000Y-38250000D03*
X125000000Y-38250000D03*
%TD*%
D17*
%TO.P,R2,1*%
%TO.N,Net-(Q1-B)*%
X114570000Y-122500000D03*
%TO.P,R2,2*%
%TO.N,GND*%
X117670000Y-122500000D03*
%TD*%
D10*
%TO.P,SW7,1,1*%
%TO.N,Net-(U1-GPIO26)*%
X110860000Y-96810000D03*
X118860000Y-96810000D03*
%TO.P,SW7,2,2*%
%TO.N,GND*%
X110860000Y-101310000D03*
X118860000Y-101310000D03*
%TD*%
D11*
%TO.P,J1,1,Pin_1*%
%TO.N,GND*%
X134725000Y-121500000D03*
D12*
%TO.P,J1,2,Pin_2*%
%TO.N,Net-(BAT1-Pin_2)*%
X137265000Y-121500000D03*
%TD*%
D10*
%TO.P,SW9,1,1*%
%TO.N,Net-(U1-GPIO47)*%
X151500000Y-96810000D03*
X159500000Y-96810000D03*
%TO.P,SW9,2,2*%
%TO.N,GND*%
X151500000Y-101310000D03*
X159500000Y-101310000D03*
%TD*%
D18*
%TO.N,Net-(U1-PROG)*%
X107500000Y-42000000D03*
%TO.N,Net-(U1-GPIO39)*%
X135000000Y-89000000D03*
%TO.N,Net-(U1-GPIO40)*%
X150500000Y-89500000D03*
%TD*%
D19*
%TO.N,Net-(U1-PROG)*%
X107500000Y-42000000D02*
X107500000Y-39500000D01*
X107409000Y-33909000D02*
X107250000Y-33750000D01*
X107568000Y-33750000D02*
X111220000Y-33750000D01*
X107409000Y-33909000D02*
X107568000Y-33750000D01*
X107250000Y-33750000D02*
X103220000Y-33750000D01*
X107500000Y-39500000D02*
X107409000Y-39409000D01*
X107409000Y-39409000D02*
X107409000Y-33909000D01*
%TO.N,Net-(U1-GPIO7{slash}ADC1_6)*%
X137000000Y-41500000D02*
X137000000Y-29000000D01*
X125000000Y-38250000D02*
X125000000Y-41500000D01*
X117000000Y-38250000D02*
X119152000Y-38250000D01*
X124750000Y-38000000D02*
X125000000Y-38250000D01*
X125000000Y-41500000D02*
X137000000Y-41500000D01*
X151000000Y-29000000D02*
X151000000Y-48260000D01*
X119152000Y-38250000D02*
X119402000Y-38000000D01*
X137000000Y-29000000D02*
X151000000Y-29000000D01*
X119402000Y-38000000D02*
X124750000Y-38000000D01*
%TO.N,Net-(U1-GPIO6{slash}ADC1_5)*%
X158000000Y-57000000D02*
X158000000Y-41250000D01*
X148460000Y-41761700D02*
X148460000Y-54960000D01*
X147000000Y-38250000D02*
X147000000Y-40301700D01*
X158000000Y-41250000D02*
X155000000Y-38250000D01*
X148460000Y-54960000D02*
X150500000Y-57000000D01*
X150500000Y-57000000D02*
X158000000Y-57000000D01*
X147000000Y-40301700D02*
X148460000Y-41761700D01*
%TO.N,Net-(U1-GPIO38)*%
X133220000Y-48260000D02*
X133220000Y-53780000D01*
X107500000Y-65000000D02*
X104000000Y-68500000D01*
X133220000Y-53780000D02*
X132500000Y-54500000D01*
X108000000Y-84000000D02*
X110390000Y-84000000D01*
X118860000Y-83530000D02*
X110860000Y-83530000D01*
X104000000Y-80000000D02*
X108000000Y-84000000D01*
X110390000Y-84000000D02*
X110860000Y-83530000D01*
X116941900Y-65000000D02*
X107500000Y-65000000D01*
X132500000Y-54500000D02*
X127441900Y-54500000D01*
X127441900Y-54500000D02*
X116941900Y-65000000D01*
X104000000Y-68500000D02*
X104000000Y-80000000D01*
%TO.N,Net-(U1-GPIO39)*%
X134358000Y-84555800D02*
X139180000Y-84555800D01*
X133332000Y-83530000D02*
X134358000Y-84555800D01*
X139180000Y-84820000D02*
X139180000Y-84555800D01*
X131180000Y-83530000D02*
X133332000Y-83530000D01*
X139180000Y-83530000D02*
X139180000Y-84555800D01*
X135000000Y-89000000D02*
X139180000Y-84820000D01*
%TO.N,Net-(U1-GPIO40)*%
X150500000Y-89500000D02*
X150500000Y-86652000D01*
X153682000Y-83530000D02*
X153652000Y-83500000D01*
X159500000Y-83530000D02*
X153682000Y-83530000D01*
X150500000Y-86652000D02*
X153652000Y-83500000D01*
X151530000Y-83500000D02*
X151500000Y-83530000D01*
X153652000Y-83500000D02*
X151530000Y-83500000D01*
%TO.N,Net-(U1-GPIO26)*%
X143379952Y-71120000D02*
X144000000Y-71740048D01*
X118860000Y-97835800D02*
X118860000Y-96810000D01*
X114038000Y-97835800D02*
X118860000Y-97835800D01*
X144000000Y-71740048D02*
X144000000Y-106500000D01*
X110860000Y-96810000D02*
X113012000Y-96810000D01*
X129000000Y-106500000D02*
X120335800Y-97835800D01*
X143380000Y-71120000D02*
X143379952Y-71120000D01*
X120335800Y-97835800D02*
X118860000Y-97835800D01*
X113012000Y-96810000D02*
X114038000Y-97835800D01*
X144000000Y-106500000D02*
X129000000Y-106500000D01*
%TO.N,Net-(U1-GPIO48)*%
X139180000Y-94758300D02*
X139180000Y-95784100D01*
X131180000Y-96810000D02*
X133332000Y-96810000D01*
X139180000Y-95784100D02*
X139180000Y-96810000D01*
X133332000Y-96810000D02*
X134358000Y-95784100D01*
X142500000Y-91438300D02*
X139180000Y-94758300D01*
X134358000Y-95784100D02*
X139180000Y-95784100D01*
X140840000Y-74840000D02*
X142500000Y-76500000D01*
X140840000Y-71120000D02*
X140840000Y-74840000D01*
X142500000Y-76500000D02*
X142500000Y-91438300D01*
%TO.N,Net-(U1-GPIO47)*%
X164000000Y-90258300D02*
X164000000Y-78707300D01*
X159500000Y-95784100D02*
X159500000Y-94758300D01*
X153652000Y-96810000D02*
X154678000Y-95784100D01*
X151792700Y-66500000D02*
X138500000Y-66500000D01*
X138300000Y-66700000D02*
X138300000Y-71120000D01*
X154678000Y-95784100D02*
X159500000Y-95784100D01*
X159500000Y-94758300D02*
X164000000Y-90258300D01*
X159500000Y-96810000D02*
X159500000Y-95784100D01*
X151500000Y-96810000D02*
X153652000Y-96810000D01*
X164000000Y-78707300D02*
X151792700Y-66500000D01*
X138500000Y-66500000D02*
X138300000Y-66700000D01*
%TO.N,+3.3V*%
X112900000Y-48260000D02*
X110360000Y-48260000D01*
%TO.N,Net-(Q1-B)*%
X121500000Y-105000000D02*
X121500000Y-107000000D01*
X121000000Y-119000000D02*
X108000000Y-106000000D01*
X126000000Y-129000000D02*
X126000000Y-122500000D01*
X108000000Y-106000000D02*
X109000000Y-105000000D01*
X114570000Y-126070000D02*
X117500000Y-129000000D01*
X117500000Y-129000000D02*
X126000000Y-129000000D01*
X126000000Y-120500000D02*
X124500000Y-119000000D01*
X109000000Y-105000000D02*
X121500000Y-105000000D01*
X126000000Y-122500000D02*
X126000000Y-120500000D01*
X114570000Y-122500000D02*
X114570000Y-126070000D01*
X124500000Y-119000000D02*
X121000000Y-119000000D01*
%TO.N,Net-(U1-GPIO33)*%
X135500000Y-75000000D02*
X125000000Y-75000000D01*
X125000000Y-75000000D02*
X125000000Y-90000000D01*
X135759952Y-74740048D02*
X135500000Y-75000000D01*
X106000000Y-90000000D02*
X106000000Y-106000000D01*
X135759952Y-71120000D02*
X135759952Y-74740048D01*
X106000000Y-106000000D02*
X120460500Y-120460500D01*
X125000000Y-90000000D02*
X106000000Y-90000000D01*
X120460500Y-120460500D02*
X122500000Y-122500000D01*
%TD*%
%TA.AperFunction,Conductor*%
%TO.N,GND*%
G36*
X169206938Y-25920764D02*
G01*
X169315216Y-25979361D01*
X169398600Y-26069941D01*
X169448056Y-26182688D01*
X169459500Y-26274500D01*
X169459500Y-144412321D01*
X169439236Y-144533759D01*
X169380639Y-144642037D01*
X169290059Y-144725421D01*
X169177312Y-144774877D01*
X169088208Y-144786311D01*
X153456021Y-144899490D01*
X153453313Y-144899500D01*
X101834500Y-144899500D01*
X101713062Y-144879236D01*
X101604784Y-144820639D01*
X101521400Y-144730059D01*
X101471944Y-144617312D01*
X101460500Y-144525500D01*
X101460500Y-139405519D01*
X103799500Y-139405519D01*
X103799500Y-139594481D01*
X103815666Y-139696550D01*
X103829059Y-139781115D01*
X103829060Y-139781120D01*
X103867006Y-139897906D01*
X103887453Y-139960832D01*
X103973240Y-140129199D01*
X104084310Y-140282073D01*
X104217927Y-140415690D01*
X104370801Y-140526760D01*
X104539168Y-140612547D01*
X104718882Y-140670940D01*
X104905519Y-140700500D01*
X104905523Y-140700500D01*
X105094477Y-140700500D01*
X105094481Y-140700500D01*
X105281118Y-140670940D01*
X105460832Y-140612547D01*
X105629199Y-140526760D01*
X105782073Y-140415690D01*
X105915690Y-140282073D01*
X106026760Y-140129199D01*
X106112547Y-139960832D01*
X106170940Y-139781118D01*
X106200500Y-139594481D01*
X106200500Y-139405519D01*
X164299500Y-139405519D01*
X164299500Y-139594481D01*
X164315666Y-139696550D01*
X164329059Y-139781115D01*
X164329060Y-139781120D01*
X164367006Y-139897906D01*
X164387453Y-139960832D01*
X164473240Y-140129199D01*
X164584310Y-140282073D01*
X164717927Y-140415690D01*
X164870801Y-140526760D01*
X165039168Y-140612547D01*
X165218882Y-140670940D01*
X165405519Y-140700500D01*
X165405523Y-140700500D01*
X165594477Y-140700500D01*
X165594481Y-140700500D01*
X165781118Y-140670940D01*
X165960832Y-140612547D01*
X166129199Y-140526760D01*
X166282073Y-140415690D01*
X166415690Y-140282073D01*
X166526760Y-140129199D01*
X166612547Y-139960832D01*
X166670940Y-139781118D01*
X166700500Y-139594481D01*
X166700500Y-139405519D01*
X166670940Y-139218882D01*
X166612547Y-139039168D01*
X166526760Y-138870801D01*
X166415690Y-138717927D01*
X166282073Y-138584310D01*
X166129199Y-138473240D01*
X165960832Y-138387453D01*
X165897906Y-138367006D01*
X165781120Y-138329060D01*
X165781115Y-138329059D01*
X165696550Y-138315666D01*
X165594481Y-138299500D01*
X165405519Y-138299500D01*
X165315726Y-138313721D01*
X165218884Y-138329059D01*
X165218879Y-138329060D01*
X165039165Y-138387454D01*
X164870800Y-138473240D01*
X164717932Y-138584306D01*
X164717923Y-138584313D01*
X164584313Y-138717923D01*
X164584306Y-138717932D01*
X164473240Y-138870800D01*
X164387454Y-139039165D01*
X164329060Y-139218879D01*
X164329059Y-139218884D01*
X164311624Y-139328966D01*
X164299500Y-139405519D01*
X106200500Y-139405519D01*
X106170940Y-139218882D01*
X106112547Y-139039168D01*
X106026760Y-138870801D01*
X105915690Y-138717927D01*
X105782073Y-138584310D01*
X105629199Y-138473240D01*
X105460832Y-138387453D01*
X105397906Y-138367006D01*
X105281120Y-138329060D01*
X105281115Y-138329059D01*
X105196550Y-138315666D01*
X105094481Y-138299500D01*
X104905519Y-138299500D01*
X104815726Y-138313721D01*
X104718884Y-138329059D01*
X104718879Y-138329060D01*
X104539165Y-138387454D01*
X104370800Y-138473240D01*
X104217932Y-138584306D01*
X104217923Y-138584313D01*
X104084313Y-138717923D01*
X104084306Y-138717932D01*
X103973240Y-138870800D01*
X103887454Y-139039165D01*
X103829060Y-139218879D01*
X103829059Y-139218884D01*
X103811624Y-139328966D01*
X103799500Y-139405519D01*
X101460500Y-139405519D01*
X101460500Y-130949987D01*
X130169500Y-130949987D01*
X130169500Y-134050005D01*
X130180001Y-134152799D01*
X130235184Y-134319331D01*
X130241381Y-134329377D01*
X130327288Y-134468656D01*
X130451344Y-134592712D01*
X130600666Y-134684814D01*
X130767203Y-134739999D01*
X130869991Y-134750500D01*
X132970008Y-134750499D01*
X133072797Y-134739999D01*
X133239334Y-134684814D01*
X133363370Y-134608308D01*
X133477362Y-134561806D01*
X133600282Y-134554835D01*
X133702826Y-134581095D01*
X133896113Y-134661158D01*
X134117762Y-134720548D01*
X134345266Y-134750500D01*
X134345272Y-134750500D01*
X134574728Y-134750500D01*
X134574734Y-134750500D01*
X134802238Y-134720548D01*
X135023887Y-134661158D01*
X135235888Y-134573344D01*
X135434612Y-134458611D01*
X135502322Y-134406655D01*
X135611001Y-134348805D01*
X135732575Y-134329377D01*
X135853870Y-134350477D01*
X135957678Y-134406655D01*
X136025388Y-134458611D01*
X136025389Y-134458612D01*
X136025391Y-134458613D01*
X136042788Y-134468657D01*
X136224112Y-134573344D01*
X136436113Y-134661158D01*
X136657762Y-134720548D01*
X136885266Y-134750500D01*
X136885272Y-134750500D01*
X137114728Y-134750500D01*
X137114734Y-134750500D01*
X137342238Y-134720548D01*
X137563887Y-134661158D01*
X137775888Y-134573344D01*
X137974612Y-134458611D01*
X138156661Y-134318919D01*
X138182672Y-134292908D01*
X138282870Y-134221368D01*
X138338310Y-134204862D01*
X138540000Y-134121320D01*
X138540000Y-134121319D01*
X140540000Y-134121319D01*
X140684132Y-133977187D01*
X140684140Y-133977178D01*
X140822911Y-133786176D01*
X140822915Y-133786169D01*
X140930102Y-133575802D01*
X140954733Y-133500000D01*
X140540000Y-133500000D01*
X140540000Y-134121319D01*
X138540000Y-134121319D01*
X138540000Y-133930707D01*
X138560264Y-133809269D01*
X138569336Y-133787481D01*
X138568658Y-133787200D01*
X138573344Y-133775888D01*
X138661158Y-133563887D01*
X138720548Y-133342238D01*
X138750500Y-133114734D01*
X138750500Y-132449840D01*
X139159000Y-132449840D01*
X139159000Y-132550160D01*
X139184964Y-132647061D01*
X139235124Y-132733940D01*
X139306060Y-132804876D01*
X139392939Y-132855036D01*
X139489840Y-132881000D01*
X139590160Y-132881000D01*
X139687061Y-132855036D01*
X139773940Y-132804876D01*
X139844876Y-132733940D01*
X139895036Y-132647061D01*
X139921000Y-132550160D01*
X139921000Y-132449840D01*
X139895036Y-132352939D01*
X139844876Y-132266060D01*
X139773940Y-132195124D01*
X139687061Y-132144964D01*
X139590160Y-132119000D01*
X139489840Y-132119000D01*
X139392939Y-132144964D01*
X139306060Y-132195124D01*
X139235124Y-132266060D01*
X139184964Y-132352939D01*
X139159000Y-132449840D01*
X138750500Y-132449840D01*
X138750500Y-131885266D01*
X138720548Y-131657762D01*
X138678276Y-131500000D01*
X140540000Y-131500000D01*
X140954732Y-131500000D01*
X140930102Y-131424197D01*
X140822915Y-131213830D01*
X140822911Y-131213823D01*
X140684140Y-131022821D01*
X140684132Y-131022812D01*
X140540000Y-130878680D01*
X140540000Y-131500000D01*
X138678276Y-131500000D01*
X138661158Y-131436113D01*
X138607527Y-131306636D01*
X138568659Y-131212800D01*
X138571573Y-131211592D01*
X138542999Y-131116556D01*
X138540000Y-131069291D01*
X138540000Y-130878680D01*
X138371025Y-130808688D01*
X138370308Y-130808659D01*
X138255622Y-130763883D01*
X138182672Y-130707092D01*
X138156660Y-130681080D01*
X137974615Y-130541391D01*
X137974608Y-130541386D01*
X137775892Y-130426658D01*
X137775890Y-130426657D01*
X137775888Y-130426656D01*
X137563887Y-130338842D01*
X137563883Y-130338841D01*
X137563881Y-130338840D01*
X137445095Y-130307012D01*
X137342238Y-130279452D01*
X137342235Y-130279451D01*
X137342233Y-130279451D01*
X137114740Y-130249500D01*
X137114734Y-130249500D01*
X136885266Y-130249500D01*
X136885259Y-130249500D01*
X136657766Y-130279451D01*
X136436118Y-130338840D01*
X136224107Y-130426658D01*
X136025391Y-130541386D01*
X136025388Y-130541388D01*
X135957676Y-130593346D01*
X135848996Y-130651195D01*
X135727422Y-130670622D01*
X135606127Y-130649521D01*
X135502324Y-130593346D01*
X135434611Y-130541388D01*
X135434608Y-130541386D01*
X135235892Y-130426658D01*
X135235890Y-130426657D01*
X135235888Y-130426656D01*
X135023887Y-130338842D01*
X135023883Y-130338841D01*
X135023881Y-130338840D01*
X134905095Y-130307012D01*
X134802238Y-130279452D01*
X134802235Y-130279451D01*
X134802233Y-130279451D01*
X134574740Y-130249500D01*
X134574734Y-130249500D01*
X134345266Y-130249500D01*
X134345259Y-130249500D01*
X134117766Y-130279451D01*
X133896115Y-130338841D01*
X133702830Y-130418902D01*
X133582881Y-130446652D01*
X133460421Y-130433952D01*
X133363368Y-130391690D01*
X133239334Y-130315186D01*
X133239328Y-130315184D01*
X133072797Y-130260001D01*
X133072794Y-130260000D01*
X133072790Y-130260000D01*
X132970012Y-130249500D01*
X130869994Y-130249500D01*
X130767200Y-130260001D01*
X130600668Y-130315184D01*
X130451346Y-130407286D01*
X130451342Y-130407289D01*
X130327289Y-130531342D01*
X130327286Y-130531346D01*
X130235186Y-130680665D01*
X130180001Y-130847203D01*
X130180000Y-130847209D01*
X130169500Y-130949987D01*
X101460500Y-130949987D01*
X101460500Y-89913389D01*
X104899500Y-89913389D01*
X104899500Y-105913389D01*
X104899500Y-106086611D01*
X104926598Y-106257701D01*
X104980127Y-106422445D01*
X104980128Y-106422448D01*
X104980129Y-106422449D01*
X105058768Y-106576789D01*
X105160581Y-106716922D01*
X105160583Y-106716924D01*
X105160586Y-106716928D01*
X115693158Y-117249500D01*
X119621086Y-121177428D01*
X121391045Y-122947387D01*
X121462585Y-123047585D01*
X121497715Y-123165584D01*
X121499118Y-123178726D01*
X121510114Y-123302418D01*
X121566092Y-123498054D01*
X121566093Y-123498055D01*
X121660299Y-123678403D01*
X121660301Y-123678406D01*
X121788889Y-123836107D01*
X121788892Y-123836110D01*
X121946593Y-123964698D01*
X121946596Y-123964700D01*
X122126944Y-124058906D01*
X122126945Y-124058907D01*
X122126949Y-124058908D01*
X122126951Y-124058909D01*
X122322582Y-124114886D01*
X122441963Y-124125500D01*
X123358036Y-124125499D01*
X123477418Y-124114886D01*
X123673049Y-124058909D01*
X123673051Y-124058907D01*
X123673054Y-124058907D01*
X123673055Y-124058906D01*
X123819765Y-123982271D01*
X123853407Y-123964698D01*
X124011109Y-123836109D01*
X124139698Y-123678407D01*
X124139698Y-123678405D01*
X124151684Y-123663707D01*
X124153085Y-123664849D01*
X124221462Y-123591165D01*
X124329973Y-123532999D01*
X124451490Y-123513219D01*
X124572846Y-123533967D01*
X124680890Y-123592995D01*
X124746984Y-123664792D01*
X124748316Y-123663707D01*
X124760301Y-123678406D01*
X124760302Y-123678407D01*
X124794663Y-123720548D01*
X124815356Y-123745925D01*
X124876392Y-123852846D01*
X124899404Y-123973794D01*
X124899500Y-123982271D01*
X124899500Y-127525500D01*
X124879236Y-127646938D01*
X124820639Y-127755216D01*
X124730059Y-127838600D01*
X124617312Y-127888056D01*
X124525500Y-127899500D01*
X118110758Y-127899500D01*
X117989320Y-127879236D01*
X117881042Y-127820639D01*
X117846300Y-127789958D01*
X115780042Y-125723700D01*
X115708502Y-125623502D01*
X115673372Y-125505503D01*
X115670500Y-125459242D01*
X115670500Y-123982271D01*
X115690764Y-123860833D01*
X115749361Y-123752555D01*
X115754644Y-123745925D01*
X115809698Y-123678407D01*
X115854132Y-123593342D01*
X115903905Y-123498058D01*
X115909341Y-123484449D01*
X115973204Y-123379191D01*
X116067784Y-123300373D01*
X116182831Y-123256535D01*
X116305880Y-123252428D01*
X116423594Y-123288497D01*
X116523219Y-123360834D01*
X116574979Y-123426834D01*
X116677682Y-123593342D01*
X116677686Y-123593347D01*
X116801652Y-123717313D01*
X116801657Y-123717317D01*
X116950877Y-123809357D01*
X117019999Y-123832261D01*
X117020000Y-123832261D01*
X118320000Y-123832261D01*
X118389121Y-123809357D01*
X118389122Y-123809357D01*
X118538342Y-123717317D01*
X118538347Y-123717313D01*
X118662313Y-123593347D01*
X118662320Y-123593338D01*
X118754357Y-123444123D01*
X118809506Y-123277692D01*
X118820000Y-123174981D01*
X118820000Y-123150000D01*
X118320000Y-123150000D01*
X118320000Y-123832261D01*
X117020000Y-123832261D01*
X117020000Y-121850000D01*
X118320000Y-121850000D01*
X118819999Y-121850000D01*
X118819999Y-121825024D01*
X118809506Y-121722301D01*
X118754359Y-121555880D01*
X118754358Y-121555878D01*
X118662320Y-121406661D01*
X118662313Y-121406652D01*
X118538347Y-121282686D01*
X118538338Y-121282679D01*
X118389127Y-121190645D01*
X118389120Y-121190641D01*
X118320000Y-121167737D01*
X118320000Y-121850000D01*
X117020000Y-121850000D01*
X117020000Y-121167737D01*
X117019999Y-121167737D01*
X116950879Y-121190641D01*
X116950872Y-121190645D01*
X116801661Y-121282679D01*
X116801652Y-121282686D01*
X116677686Y-121406652D01*
X116677682Y-121406658D01*
X116574979Y-121573165D01*
X116493979Y-121665885D01*
X116387263Y-121727280D01*
X116266394Y-121750697D01*
X116144470Y-121733600D01*
X116034704Y-121677841D01*
X115948990Y-121589461D01*
X115909342Y-121515553D01*
X115903905Y-121501941D01*
X115809700Y-121321596D01*
X115809698Y-121321593D01*
X115681110Y-121163892D01*
X115681107Y-121163889D01*
X115523406Y-121035301D01*
X115523403Y-121035299D01*
X115343055Y-120941093D01*
X115343054Y-120941092D01*
X115147419Y-120885114D01*
X115127521Y-120883345D01*
X115028037Y-120874500D01*
X115028032Y-120874500D01*
X114111967Y-120874500D01*
X113992581Y-120885114D01*
X113796945Y-120941092D01*
X113796944Y-120941093D01*
X113616596Y-121035299D01*
X113616593Y-121035301D01*
X113458892Y-121163889D01*
X113458889Y-121163892D01*
X113330301Y-121321593D01*
X113330299Y-121321596D01*
X113236093Y-121501944D01*
X113236092Y-121501945D01*
X113180114Y-121697580D01*
X113169500Y-121816962D01*
X113169500Y-123183032D01*
X113180114Y-123302418D01*
X113236092Y-123498054D01*
X113236093Y-123498055D01*
X113330299Y-123678403D01*
X113330301Y-123678406D01*
X113330302Y-123678407D01*
X113364663Y-123720548D01*
X113385356Y-123745925D01*
X113446392Y-123852846D01*
X113469404Y-123973794D01*
X113469500Y-123982271D01*
X113469500Y-125983389D01*
X113469500Y-126156611D01*
X113496598Y-126327701D01*
X113550127Y-126492445D01*
X113550128Y-126492448D01*
X113550129Y-126492449D01*
X113628768Y-126646789D01*
X113730581Y-126786922D01*
X113730583Y-126786924D01*
X113730586Y-126786928D01*
X116660586Y-129716928D01*
X116783072Y-129839414D01*
X116783075Y-129839416D01*
X116783077Y-129839418D01*
X116923210Y-129941231D01*
X116923212Y-129941232D01*
X117077555Y-130019873D01*
X117242299Y-130073402D01*
X117413389Y-130100500D01*
X117413390Y-130100500D01*
X117413393Y-130100500D01*
X126086607Y-130100500D01*
X126086611Y-130100500D01*
X126257701Y-130073402D01*
X126422445Y-130019873D01*
X126576788Y-129941232D01*
X126716928Y-129839414D01*
X126839414Y-129716928D01*
X126941232Y-129576788D01*
X127019873Y-129422445D01*
X127073402Y-129257701D01*
X127100500Y-129086611D01*
X127100500Y-123982271D01*
X127120764Y-123860833D01*
X127179361Y-123752555D01*
X127184644Y-123745925D01*
X127239698Y-123678407D01*
X127333906Y-123498055D01*
X127333907Y-123498054D01*
X127333907Y-123498051D01*
X127333909Y-123498049D01*
X127389886Y-123302418D01*
X127400500Y-123183037D01*
X127400500Y-123047829D01*
X133225000Y-123047829D01*
X133231401Y-123107371D01*
X133231403Y-123107381D01*
X133281646Y-123242087D01*
X133281647Y-123242088D01*
X133367811Y-123357188D01*
X133482911Y-123443352D01*
X133482912Y-123443353D01*
X133617618Y-123493596D01*
X133617628Y-123493598D01*
X133677171Y-123500000D01*
X133725000Y-123500000D01*
X133725000Y-122500000D01*
X133225000Y-122500000D01*
X133225000Y-123047829D01*
X127400500Y-123047829D01*
X127400499Y-121816964D01*
X127389886Y-121697582D01*
X127333909Y-121501951D01*
X127333908Y-121501949D01*
X127333907Y-121501945D01*
X127333906Y-121501944D01*
X127298506Y-121434174D01*
X134225000Y-121434174D01*
X134225000Y-121565826D01*
X134259075Y-121692993D01*
X134324901Y-121807007D01*
X134417993Y-121900099D01*
X134532007Y-121965925D01*
X134659174Y-122000000D01*
X134790826Y-122000000D01*
X134917993Y-121965925D01*
X135032007Y-121900099D01*
X135125099Y-121807007D01*
X135190925Y-121692993D01*
X135225000Y-121565826D01*
X135225000Y-121434174D01*
X135190925Y-121307007D01*
X135125099Y-121192993D01*
X135032007Y-121099901D01*
X134917993Y-121034075D01*
X134790826Y-121000000D01*
X134659174Y-121000000D01*
X134532007Y-121034075D01*
X134417993Y-121099901D01*
X134324901Y-121192993D01*
X134259075Y-121307007D01*
X134225000Y-121434174D01*
X127298506Y-121434174D01*
X127239700Y-121321596D01*
X127239699Y-121321595D01*
X127239698Y-121321593D01*
X127199071Y-121271768D01*
X127184643Y-121254073D01*
X127123607Y-121147150D01*
X127100596Y-121026203D01*
X127100500Y-121017728D01*
X127100500Y-120885259D01*
X135514500Y-120885259D01*
X135514500Y-122114740D01*
X135544451Y-122342233D01*
X135603840Y-122563881D01*
X135696342Y-122787200D01*
X135693393Y-122788421D01*
X135721954Y-122883070D01*
X135725000Y-122930707D01*
X135725000Y-123500000D01*
X135772829Y-123500000D01*
X135832371Y-123493598D01*
X135832374Y-123493597D01*
X135982345Y-123437661D01*
X136103208Y-123414209D01*
X136225136Y-123431272D01*
X136300046Y-123464187D01*
X136489104Y-123573340D01*
X136489107Y-123573341D01*
X136489112Y-123573344D01*
X136701113Y-123661158D01*
X136922762Y-123720548D01*
X137150266Y-123750500D01*
X137150272Y-123750500D01*
X137379728Y-123750500D01*
X137379734Y-123750500D01*
X137607238Y-123720548D01*
X137828887Y-123661158D01*
X138040888Y-123573344D01*
X138239612Y-123458611D01*
X138421661Y-123318919D01*
X138583919Y-123156661D01*
X138723611Y-122974612D01*
X138838344Y-122775888D01*
X138926158Y-122563887D01*
X138985548Y-122342238D01*
X139015500Y-122114734D01*
X139015500Y-120885266D01*
X139004271Y-120799975D01*
X147900001Y-120799975D01*
X147910493Y-120902698D01*
X147965640Y-121069119D01*
X147965641Y-121069121D01*
X148057679Y-121218338D01*
X148057686Y-121218347D01*
X148181652Y-121342313D01*
X148181657Y-121342317D01*
X148330877Y-121434357D01*
X148399999Y-121457261D01*
X148400000Y-121457261D01*
X148400000Y-120100000D01*
X147900001Y-120100000D01*
X147900001Y-120799975D01*
X139004271Y-120799975D01*
X138985548Y-120657762D01*
X138926158Y-120436113D01*
X138838344Y-120224112D01*
X138753727Y-120077551D01*
X138723613Y-120025391D01*
X138723608Y-120025384D01*
X138583919Y-119843339D01*
X138421660Y-119681080D01*
X138239615Y-119541391D01*
X138239608Y-119541386D01*
X138082413Y-119450630D01*
X148625000Y-119450630D01*
X148625000Y-119549370D01*
X148650556Y-119644745D01*
X148699925Y-119730255D01*
X148769745Y-119800075D01*
X148855255Y-119849444D01*
X148950630Y-119875000D01*
X149049370Y-119875000D01*
X149144745Y-119849444D01*
X149230255Y-119800075D01*
X149300075Y-119730255D01*
X149349444Y-119644745D01*
X149375000Y-119549370D01*
X149375000Y-119450630D01*
X149349444Y-119355255D01*
X149300075Y-119269745D01*
X149230255Y-119199925D01*
X149144745Y-119150556D01*
X149049370Y-119125000D01*
X148950630Y-119125000D01*
X148855255Y-119150556D01*
X148769745Y-119199925D01*
X148699925Y-119269745D01*
X148650556Y-119355255D01*
X148625000Y-119450630D01*
X138082413Y-119450630D01*
X138040892Y-119426658D01*
X138040890Y-119426657D01*
X138040888Y-119426656D01*
X137828887Y-119338842D01*
X137828883Y-119338841D01*
X137828881Y-119338840D01*
X137710095Y-119307012D01*
X137607238Y-119279452D01*
X137607235Y-119279451D01*
X137607233Y-119279451D01*
X137379740Y-119249500D01*
X137379734Y-119249500D01*
X137150266Y-119249500D01*
X137150259Y-119249500D01*
X136922766Y-119279451D01*
X136701118Y-119338840D01*
X136489107Y-119426658D01*
X136300045Y-119535813D01*
X136184744Y-119578982D01*
X136061674Y-119582374D01*
X135982347Y-119562338D01*
X135832380Y-119506403D01*
X135832371Y-119506401D01*
X135772829Y-119500000D01*
X135725000Y-119500000D01*
X135725000Y-120069291D01*
X135704736Y-120190729D01*
X135695673Y-120212523D01*
X135696341Y-120212800D01*
X135603841Y-120436115D01*
X135544451Y-120657766D01*
X135514500Y-120885259D01*
X127100500Y-120885259D01*
X127100500Y-120413392D01*
X127100500Y-120413389D01*
X127073402Y-120242299D01*
X127060568Y-120202799D01*
X127019873Y-120077554D01*
X127019872Y-120077553D01*
X127019872Y-120077551D01*
X126993291Y-120025384D01*
X126955987Y-119952170D01*
X133225000Y-119952170D01*
X133225000Y-120500000D01*
X133725000Y-120500000D01*
X133725000Y-119500000D01*
X133677171Y-119500000D01*
X133617628Y-119506401D01*
X133617618Y-119506403D01*
X133482912Y-119556646D01*
X133482911Y-119556647D01*
X133367811Y-119642811D01*
X133281647Y-119757911D01*
X133281646Y-119757912D01*
X133231403Y-119892618D01*
X133231401Y-119892628D01*
X133225000Y-119952170D01*
X126955987Y-119952170D01*
X126941232Y-119923212D01*
X126839414Y-119783072D01*
X125256360Y-118200018D01*
X147900000Y-118200018D01*
X147900000Y-118900000D01*
X148400000Y-118900000D01*
X148400000Y-117542737D01*
X149600000Y-117542737D01*
X149600000Y-121457261D01*
X149669121Y-121434357D01*
X149669124Y-121434356D01*
X149702891Y-121413529D01*
X149816887Y-121367024D01*
X149939806Y-121360053D01*
X150058329Y-121393372D01*
X150119063Y-121429273D01*
X150292177Y-121555047D01*
X150292183Y-121555050D01*
X150292184Y-121555051D01*
X150481588Y-121651557D01*
X150683757Y-121717246D01*
X150893713Y-121750500D01*
X150893717Y-121750500D01*
X151106283Y-121750500D01*
X151106287Y-121750500D01*
X151316243Y-121717246D01*
X151518412Y-121651557D01*
X151707816Y-121555051D01*
X151879792Y-121430104D01*
X152030104Y-121279792D01*
X152155051Y-121107816D01*
X152251557Y-120918412D01*
X152317246Y-120716243D01*
X152350500Y-120506287D01*
X152350500Y-118493713D01*
X152317246Y-118283757D01*
X152251557Y-118081588D01*
X152155051Y-117892184D01*
X152030104Y-117720208D01*
X151879792Y-117569896D01*
X151873935Y-117565641D01*
X151860114Y-117555599D01*
X151707816Y-117444949D01*
X151707813Y-117444947D01*
X151518412Y-117348443D01*
X151316244Y-117282754D01*
X151274251Y-117276103D01*
X151106287Y-117249500D01*
X150893713Y-117249500D01*
X150683757Y-117282754D01*
X150683753Y-117282754D01*
X150481587Y-117348443D01*
X150292186Y-117444947D01*
X150292177Y-117444952D01*
X150119063Y-117570727D01*
X150008907Y-117625712D01*
X149886866Y-117641949D01*
X149766165Y-117617681D01*
X149702893Y-117586472D01*
X149669127Y-117565645D01*
X149669120Y-117565641D01*
X149600000Y-117542737D01*
X148400000Y-117542737D01*
X148399999Y-117542737D01*
X148330879Y-117565641D01*
X148330872Y-117565645D01*
X148181661Y-117657679D01*
X148181652Y-117657686D01*
X148057686Y-117781652D01*
X148057679Y-117781661D01*
X147965642Y-117930876D01*
X147910493Y-118097307D01*
X147900000Y-118200018D01*
X125256360Y-118200018D01*
X125216928Y-118160586D01*
X125216924Y-118160583D01*
X125216922Y-118160581D01*
X125076789Y-118058768D01*
X124922449Y-117980129D01*
X124922448Y-117980128D01*
X124922445Y-117980127D01*
X124757701Y-117926598D01*
X124586611Y-117899500D01*
X124586607Y-117899500D01*
X121610758Y-117899500D01*
X121489320Y-117879236D01*
X121381042Y-117820639D01*
X121346300Y-117789958D01*
X113174171Y-109617829D01*
X119180000Y-109617829D01*
X119186401Y-109677371D01*
X119186403Y-109677381D01*
X119236646Y-109812087D01*
X119236647Y-109812088D01*
X119322811Y-109927188D01*
X119437911Y-110013352D01*
X119437912Y-110013353D01*
X119572618Y-110063596D01*
X119572628Y-110063598D01*
X119632171Y-110070000D01*
X119680000Y-110070000D01*
X119680000Y-109220000D01*
X119180000Y-109220000D01*
X119180000Y-109617829D01*
X113174171Y-109617829D01*
X110295300Y-106738958D01*
X110223760Y-106638760D01*
X110188630Y-106520761D01*
X110193718Y-106397749D01*
X110238472Y-106283055D01*
X110318042Y-106189107D01*
X110423806Y-106126085D01*
X110544302Y-106100819D01*
X110559758Y-106100500D01*
X119825500Y-106100500D01*
X119946938Y-106120764D01*
X120055216Y-106179361D01*
X120138600Y-106269941D01*
X120188056Y-106382688D01*
X120199500Y-106474500D01*
X120199500Y-106896000D01*
X120179236Y-107017438D01*
X120120639Y-107125716D01*
X120030059Y-107209100D01*
X119917312Y-107258556D01*
X119825500Y-107270000D01*
X119632171Y-107270000D01*
X119572628Y-107276401D01*
X119572618Y-107276403D01*
X119437912Y-107326646D01*
X119437911Y-107326647D01*
X119322811Y-107412811D01*
X119236647Y-107527911D01*
X119236646Y-107527912D01*
X119186403Y-107662618D01*
X119186401Y-107662628D01*
X119180000Y-107722170D01*
X119180000Y-108120000D01*
X119883590Y-108120000D01*
X119880556Y-108125255D01*
X119855000Y-108220630D01*
X119855000Y-108319370D01*
X119880556Y-108414745D01*
X119929925Y-108500255D01*
X119999745Y-108570075D01*
X120085255Y-108619444D01*
X120180630Y-108645000D01*
X120279370Y-108645000D01*
X120374745Y-108619444D01*
X120460255Y-108570075D01*
X120530075Y-108500255D01*
X120579444Y-108414745D01*
X120605000Y-108319370D01*
X120605000Y-108220630D01*
X120592968Y-108175727D01*
X120635716Y-108198861D01*
X120719100Y-108289441D01*
X120768556Y-108402188D01*
X120780000Y-108494000D01*
X120780000Y-110070000D01*
X120827829Y-110070000D01*
X120887371Y-110063598D01*
X120887381Y-110063596D01*
X121022087Y-110013353D01*
X121022088Y-110013352D01*
X121137191Y-109927185D01*
X121147487Y-109916890D01*
X121247684Y-109845348D01*
X121365682Y-109810216D01*
X121488693Y-109815302D01*
X121603389Y-109860054D01*
X121697338Y-109939622D01*
X121701056Y-109944082D01*
X121766349Y-110023643D01*
X121766357Y-110023651D01*
X121822834Y-110070000D01*
X121922506Y-110151798D01*
X122100659Y-110247023D01*
X122293967Y-110305662D01*
X122444620Y-110320500D01*
X123095380Y-110320500D01*
X123246033Y-110305662D01*
X123439341Y-110247023D01*
X123617494Y-110151798D01*
X123773647Y-110023647D01*
X123901798Y-109867494D01*
X123997023Y-109689341D01*
X124055662Y-109496033D01*
X124070500Y-109345380D01*
X124070500Y-107994620D01*
X124055662Y-107843967D01*
X123997023Y-107650659D01*
X123901798Y-107472506D01*
X123901791Y-107472497D01*
X123773651Y-107316357D01*
X123773642Y-107316348D01*
X123617502Y-107188208D01*
X123617495Y-107188203D01*
X123617494Y-107188202D01*
X123539922Y-107146739D01*
X123439344Y-107092978D01*
X123246034Y-107034338D01*
X123246028Y-107034337D01*
X123137841Y-107023682D01*
X123018974Y-106991612D01*
X122916962Y-106922684D01*
X122842857Y-106824367D01*
X122804691Y-106707315D01*
X122800500Y-106651483D01*
X122800500Y-105924620D01*
X122785662Y-105773971D01*
X122785662Y-105773967D01*
X122727023Y-105580659D01*
X122644662Y-105426572D01*
X122605288Y-105309921D01*
X122600500Y-105250269D01*
X122600500Y-104913392D01*
X122600500Y-104913389D01*
X122573402Y-104742299D01*
X122519873Y-104577555D01*
X122441232Y-104423212D01*
X122339414Y-104283072D01*
X122216928Y-104160586D01*
X122216924Y-104160583D01*
X122216922Y-104160581D01*
X122076789Y-104058768D01*
X121922449Y-103980129D01*
X121922448Y-103980128D01*
X121922445Y-103980127D01*
X121757701Y-103926598D01*
X121586611Y-103899500D01*
X108913389Y-103899500D01*
X108906441Y-103900600D01*
X108889981Y-103903206D01*
X108889980Y-103903205D01*
X108742309Y-103926594D01*
X108742300Y-103926596D01*
X108742299Y-103926597D01*
X108670783Y-103949834D01*
X108577554Y-103980127D01*
X108423210Y-104058768D01*
X108321396Y-104132740D01*
X108321395Y-104132742D01*
X108304033Y-104145356D01*
X108283075Y-104160583D01*
X108283068Y-104160589D01*
X107738958Y-104704700D01*
X107638760Y-104776240D01*
X107520761Y-104811370D01*
X107397749Y-104806282D01*
X107283055Y-104761528D01*
X107189107Y-104681958D01*
X107126085Y-104576194D01*
X107100819Y-104455698D01*
X107100500Y-104440242D01*
X107100500Y-102057829D01*
X109560000Y-102057829D01*
X109566401Y-102117371D01*
X109566403Y-102117381D01*
X109616646Y-102252087D01*
X109616647Y-102252088D01*
X109702811Y-102367188D01*
X109817911Y-102453352D01*
X109817912Y-102453353D01*
X109952618Y-102503596D01*
X109952628Y-102503598D01*
X110012171Y-102510000D01*
X110160000Y-102510000D01*
X111560000Y-102510000D01*
X111707829Y-102510000D01*
X111767371Y-102503598D01*
X111767381Y-102503596D01*
X111902087Y-102453353D01*
X111902088Y-102453352D01*
X112017188Y-102367188D01*
X112103352Y-102252088D01*
X112103353Y-102252087D01*
X112153596Y-102117381D01*
X112153598Y-102117371D01*
X112160000Y-102057829D01*
X117560000Y-102057829D01*
X117566401Y-102117371D01*
X117566403Y-102117381D01*
X117616646Y-102252087D01*
X117616647Y-102252088D01*
X117702811Y-102367188D01*
X117817911Y-102453352D01*
X117817912Y-102453353D01*
X117952618Y-102503596D01*
X117952628Y-102503598D01*
X118012171Y-102510000D01*
X118160000Y-102510000D01*
X119560000Y-102510000D01*
X119707829Y-102510000D01*
X119767371Y-102503598D01*
X119767381Y-102503596D01*
X119902087Y-102453353D01*
X119902088Y-102453352D01*
X120017188Y-102367188D01*
X120103352Y-102252088D01*
X120103353Y-102252087D01*
X120153596Y-102117381D01*
X120153598Y-102117371D01*
X120160000Y-102057829D01*
X120160000Y-102010000D01*
X119560000Y-102010000D01*
X119560000Y-102510000D01*
X118160000Y-102510000D01*
X118160000Y-102010000D01*
X117560000Y-102010000D01*
X117560000Y-102057829D01*
X112160000Y-102057829D01*
X112160000Y-102010000D01*
X111560000Y-102010000D01*
X111560000Y-102510000D01*
X110160000Y-102510000D01*
X110160000Y-102010000D01*
X109560000Y-102010000D01*
X109560000Y-102057829D01*
X107100500Y-102057829D01*
X107100500Y-100562170D01*
X109560000Y-100562170D01*
X109560000Y-100610000D01*
X110160000Y-100610000D01*
X111560000Y-100610000D01*
X112160000Y-100610000D01*
X112160000Y-100562170D01*
X117560000Y-100562170D01*
X117560000Y-100610000D01*
X118160000Y-100610000D01*
X119560000Y-100610000D01*
X120160000Y-100610000D01*
X120160000Y-100562170D01*
X120153598Y-100502628D01*
X120153596Y-100502618D01*
X120103353Y-100367912D01*
X120103352Y-100367911D01*
X120017188Y-100252811D01*
X119902088Y-100166647D01*
X119902087Y-100166646D01*
X119767381Y-100116403D01*
X119767371Y-100116401D01*
X119707829Y-100110000D01*
X119560000Y-100110000D01*
X119560000Y-100610000D01*
X118160000Y-100610000D01*
X118160000Y-100110000D01*
X118012171Y-100110000D01*
X117952628Y-100116401D01*
X117952618Y-100116403D01*
X117817912Y-100166646D01*
X117817911Y-100166647D01*
X117702811Y-100252811D01*
X117616647Y-100367911D01*
X117616646Y-100367912D01*
X117566403Y-100502618D01*
X117566401Y-100502628D01*
X117560000Y-100562170D01*
X112160000Y-100562170D01*
X112153598Y-100502628D01*
X112153596Y-100502618D01*
X112103353Y-100367912D01*
X112103352Y-100367911D01*
X112017188Y-100252811D01*
X111902088Y-100166647D01*
X111902087Y-100166646D01*
X111767381Y-100116403D01*
X111767371Y-100116401D01*
X111707829Y-100110000D01*
X111560000Y-100110000D01*
X111560000Y-100610000D01*
X110160000Y-100610000D01*
X110160000Y-100110000D01*
X110012171Y-100110000D01*
X109952628Y-100116401D01*
X109952618Y-100116403D01*
X109817912Y-100166646D01*
X109817911Y-100166647D01*
X109702811Y-100252811D01*
X109616647Y-100367911D01*
X109616646Y-100367912D01*
X109566403Y-100502618D01*
X109566401Y-100502628D01*
X109560000Y-100562170D01*
X107100500Y-100562170D01*
X107100500Y-91474500D01*
X107120764Y-91353062D01*
X107179361Y-91244784D01*
X107269941Y-91161400D01*
X107382688Y-91111944D01*
X107474500Y-91100500D01*
X125086607Y-91100500D01*
X125086611Y-91100500D01*
X125257701Y-91073402D01*
X125422445Y-91019873D01*
X125576788Y-90941232D01*
X125716928Y-90839414D01*
X125839414Y-90716928D01*
X125941232Y-90576788D01*
X126019873Y-90422445D01*
X126073402Y-90257701D01*
X126100500Y-90086611D01*
X126100500Y-79777829D01*
X129880000Y-79777829D01*
X129886401Y-79837371D01*
X129886403Y-79837381D01*
X129936646Y-79972087D01*
X129936647Y-79972088D01*
X130022811Y-80087188D01*
X130137911Y-80173352D01*
X130137912Y-80173353D01*
X130272618Y-80223596D01*
X130272628Y-80223598D01*
X130332171Y-80230000D01*
X130480000Y-80230000D01*
X131880000Y-80230000D01*
X132027829Y-80230000D01*
X132087371Y-80223598D01*
X132087381Y-80223596D01*
X132222087Y-80173353D01*
X132222088Y-80173352D01*
X132337188Y-80087188D01*
X132423352Y-79972088D01*
X132423353Y-79972087D01*
X132473596Y-79837381D01*
X132473598Y-79837371D01*
X132480000Y-79777829D01*
X137880000Y-79777829D01*
X137886401Y-79837371D01*
X137886403Y-79837381D01*
X137936646Y-79972087D01*
X137936647Y-79972088D01*
X138022811Y-80087188D01*
X138137911Y-80173352D01*
X138137912Y-80173353D01*
X138272618Y-80223596D01*
X138272628Y-80223598D01*
X138332171Y-80230000D01*
X138480000Y-80230000D01*
X139880000Y-80230000D01*
X140027829Y-80230000D01*
X140087371Y-80223598D01*
X140087381Y-80223596D01*
X140222087Y-80173353D01*
X140222088Y-80173352D01*
X140337188Y-80087188D01*
X140423352Y-79972088D01*
X140423353Y-79972087D01*
X140473596Y-79837381D01*
X140473598Y-79837371D01*
X140480000Y-79777829D01*
X140480000Y-79730000D01*
X139880000Y-79730000D01*
X139880000Y-80230000D01*
X138480000Y-80230000D01*
X138480000Y-79730000D01*
X137880000Y-79730000D01*
X137880000Y-79777829D01*
X132480000Y-79777829D01*
X132480000Y-79730000D01*
X131880000Y-79730000D01*
X131880000Y-80230000D01*
X130480000Y-80230000D01*
X130480000Y-79730000D01*
X129880000Y-79730000D01*
X129880000Y-79777829D01*
X126100500Y-79777829D01*
X126100500Y-78282170D01*
X129880000Y-78282170D01*
X129880000Y-78330000D01*
X130480000Y-78330000D01*
X131880000Y-78330000D01*
X132480000Y-78330000D01*
X132480000Y-78282170D01*
X137880000Y-78282170D01*
X137880000Y-78330000D01*
X138480000Y-78330000D01*
X139880000Y-78330000D01*
X140480000Y-78330000D01*
X140480000Y-78282170D01*
X140473598Y-78222628D01*
X140473596Y-78222618D01*
X140423353Y-78087912D01*
X140423352Y-78087911D01*
X140337188Y-77972811D01*
X140222088Y-77886647D01*
X140222087Y-77886646D01*
X140087381Y-77836403D01*
X140087371Y-77836401D01*
X140027829Y-77830000D01*
X139880000Y-77830000D01*
X139880000Y-78330000D01*
X138480000Y-78330000D01*
X138480000Y-77830000D01*
X138332171Y-77830000D01*
X138272628Y-77836401D01*
X138272618Y-77836403D01*
X138137912Y-77886646D01*
X138137911Y-77886647D01*
X138022811Y-77972811D01*
X137936647Y-78087911D01*
X137936646Y-78087912D01*
X137886403Y-78222618D01*
X137886401Y-78222628D01*
X137880000Y-78282170D01*
X132480000Y-78282170D01*
X132473598Y-78222628D01*
X132473596Y-78222618D01*
X132423353Y-78087912D01*
X132423352Y-78087911D01*
X132337188Y-77972811D01*
X132222088Y-77886647D01*
X132222087Y-77886646D01*
X132087381Y-77836403D01*
X132087371Y-77836401D01*
X132027829Y-77830000D01*
X131880000Y-77830000D01*
X131880000Y-78330000D01*
X130480000Y-78330000D01*
X130480000Y-77830000D01*
X130332171Y-77830000D01*
X130272628Y-77836401D01*
X130272618Y-77836403D01*
X130137912Y-77886646D01*
X130137911Y-77886647D01*
X130022811Y-77972811D01*
X129936647Y-78087911D01*
X129936646Y-78087912D01*
X129886403Y-78222618D01*
X129886401Y-78222628D01*
X129880000Y-78282170D01*
X126100500Y-78282170D01*
X126100500Y-76474500D01*
X126120764Y-76353062D01*
X126179361Y-76244784D01*
X126269941Y-76161400D01*
X126382688Y-76111944D01*
X126474500Y-76100500D01*
X135586607Y-76100500D01*
X135586611Y-76100500D01*
X135757701Y-76073402D01*
X135922445Y-76019873D01*
X136076788Y-75941232D01*
X136216928Y-75839414D01*
X136599366Y-75456976D01*
X136641125Y-75399500D01*
X136701184Y-75316836D01*
X136779825Y-75162493D01*
X136833354Y-74997749D01*
X136860452Y-74826659D01*
X136860452Y-73457994D01*
X136880716Y-73336556D01*
X136939313Y-73228278D01*
X137029893Y-73144894D01*
X137142640Y-73095438D01*
X137265337Y-73085271D01*
X137384686Y-73115495D01*
X137421443Y-73134096D01*
X137524064Y-73193344D01*
X137736065Y-73281158D01*
X137957714Y-73340548D01*
X138185218Y-73370500D01*
X138185224Y-73370500D01*
X138414680Y-73370500D01*
X138414686Y-73370500D01*
X138642190Y-73340548D01*
X138863839Y-73281158D01*
X139075840Y-73193344D01*
X139178503Y-73134071D01*
X139293799Y-73090903D01*
X139416869Y-73087511D01*
X139534372Y-73124262D01*
X139633576Y-73197176D01*
X139703729Y-73298350D01*
X139737230Y-73416822D01*
X139739500Y-73457966D01*
X139739500Y-74753389D01*
X139739500Y-74926611D01*
X139766598Y-75097701D01*
X139820127Y-75262445D01*
X139820128Y-75262448D01*
X139820129Y-75262449D01*
X139898768Y-75416789D01*
X140000581Y-75556922D01*
X140000583Y-75556924D01*
X140000586Y-75556928D01*
X141289960Y-76846302D01*
X141361498Y-76946497D01*
X141396628Y-77064496D01*
X141399500Y-77110757D01*
X141399500Y-82410133D01*
X141379236Y-82531571D01*
X141320639Y-82639849D01*
X141230059Y-82723233D01*
X141117312Y-82772689D01*
X140994615Y-82782856D01*
X140875266Y-82752632D01*
X140772197Y-82685294D01*
X140696577Y-82588137D01*
X140670484Y-82527776D01*
X140664814Y-82510666D01*
X140602252Y-82409236D01*
X140572712Y-82361344D01*
X140448656Y-82237288D01*
X140299334Y-82145186D01*
X140132797Y-82090001D01*
X140132794Y-82090000D01*
X140132790Y-82090000D01*
X140030012Y-82079500D01*
X138329994Y-82079500D01*
X138227200Y-82090001D01*
X138060668Y-82145184D01*
X137911346Y-82237286D01*
X137911342Y-82237289D01*
X137787289Y-82361342D01*
X137787286Y-82361346D01*
X137695186Y-82510665D01*
X137640001Y-82677203D01*
X137640000Y-82677209D01*
X137629500Y-82779987D01*
X137629500Y-83081300D01*
X137609236Y-83202738D01*
X137550639Y-83311016D01*
X137460059Y-83394400D01*
X137347312Y-83443856D01*
X137255500Y-83455300D01*
X134968674Y-83455300D01*
X134847236Y-83435036D01*
X134738958Y-83376439D01*
X134704242Y-83345784D01*
X134110372Y-82752030D01*
X134048929Y-82690587D01*
X134048843Y-82690513D01*
X133980151Y-82640616D01*
X133980124Y-82640596D01*
X133908747Y-82588738D01*
X133907567Y-82588137D01*
X133832872Y-82550087D01*
X133832845Y-82550067D01*
X133832843Y-82550072D01*
X133754453Y-82510130D01*
X133754351Y-82510088D01*
X133754348Y-82510087D01*
X133754346Y-82510086D01*
X133673306Y-82483763D01*
X133673276Y-82483747D01*
X133673275Y-82483753D01*
X133589680Y-82456591D01*
X133589630Y-82456579D01*
X133589599Y-82456574D01*
X133589596Y-82456573D01*
X133507651Y-82443602D01*
X133507626Y-82443598D01*
X133507620Y-82443597D01*
X133418595Y-82429497D01*
X133418524Y-82429492D01*
X133418503Y-82429492D01*
X133339423Y-82429499D01*
X133331890Y-82429500D01*
X132795784Y-82429500D01*
X132674346Y-82409236D01*
X132566068Y-82350639D01*
X132531326Y-82319958D01*
X132448657Y-82237289D01*
X132448653Y-82237286D01*
X132299334Y-82145186D01*
X132299328Y-82145184D01*
X132132797Y-82090001D01*
X132132794Y-82090000D01*
X132132790Y-82090000D01*
X132030012Y-82079500D01*
X130329994Y-82079500D01*
X130227200Y-82090001D01*
X130060668Y-82145184D01*
X129911346Y-82237286D01*
X129911342Y-82237289D01*
X129787289Y-82361342D01*
X129787286Y-82361346D01*
X129695186Y-82510665D01*
X129640001Y-82677203D01*
X129640000Y-82677209D01*
X129629500Y-82779987D01*
X129629500Y-84280005D01*
X129640001Y-84382799D01*
X129695184Y-84549331D01*
X129757194Y-84649865D01*
X129787288Y-84698656D01*
X129911344Y-84822712D01*
X130060666Y-84914814D01*
X130227203Y-84969999D01*
X130329991Y-84980500D01*
X132030008Y-84980499D01*
X132132797Y-84969999D01*
X132299334Y-84914814D01*
X132448656Y-84822712D01*
X132494101Y-84777266D01*
X132594296Y-84705728D01*
X132712294Y-84670597D01*
X132835306Y-84675684D01*
X132950000Y-84720437D01*
X133022990Y-84777241D01*
X133416089Y-85170263D01*
X133579627Y-85333769D01*
X133641072Y-85395214D01*
X133641075Y-85395216D01*
X133641079Y-85395220D01*
X133641149Y-85395280D01*
X133641152Y-85395282D01*
X133641154Y-85395284D01*
X133643226Y-85396789D01*
X133709851Y-85445186D01*
X133709849Y-85445188D01*
X133709877Y-85445204D01*
X133781215Y-85497034D01*
X133781309Y-85497091D01*
X133857152Y-85535725D01*
X133857188Y-85535743D01*
X133935051Y-85575416D01*
X133935608Y-85575703D01*
X133935610Y-85575704D01*
X133936395Y-85575954D01*
X134018848Y-85602737D01*
X134021511Y-85603602D01*
X134021510Y-85603604D01*
X134021534Y-85603609D01*
X134100004Y-85629106D01*
X134100382Y-85629230D01*
X134100405Y-85629236D01*
X134101664Y-85629427D01*
X134160334Y-85638713D01*
X134192142Y-85643748D01*
X134192172Y-85643752D01*
X134271389Y-85656300D01*
X134271394Y-85656300D01*
X134271487Y-85656307D01*
X134271497Y-85656309D01*
X134363186Y-85656300D01*
X134363204Y-85656300D01*
X135884441Y-85656300D01*
X136005879Y-85676564D01*
X136114157Y-85735161D01*
X136197541Y-85825741D01*
X136246997Y-85938488D01*
X136257164Y-86061185D01*
X136226940Y-86180534D01*
X136159602Y-86283603D01*
X136148899Y-86294758D01*
X135757119Y-86686537D01*
X135656920Y-86758077D01*
X135538922Y-86793207D01*
X135419699Y-86788893D01*
X135294387Y-86763967D01*
X135294381Y-86763966D01*
X135294380Y-86763966D01*
X135294379Y-86763965D01*
X135294372Y-86763965D01*
X135000002Y-86744671D01*
X134999998Y-86744671D01*
X134705627Y-86763965D01*
X134705621Y-86763965D01*
X134705620Y-86763966D01*
X134705615Y-86763967D01*
X134416283Y-86821518D01*
X134416277Y-86821519D01*
X134136928Y-86916346D01*
X134136926Y-86916346D01*
X134136923Y-86916348D01*
X134004629Y-86981588D01*
X133872331Y-87046830D01*
X133627045Y-87210725D01*
X133405242Y-87405242D01*
X133210725Y-87627045D01*
X133046830Y-87872331D01*
X132981588Y-88004629D01*
X132921220Y-88127045D01*
X132916346Y-88136928D01*
X132821519Y-88416277D01*
X132821518Y-88416283D01*
X132763967Y-88705615D01*
X132763965Y-88705627D01*
X132744671Y-88999997D01*
X132744671Y-89000002D01*
X132763224Y-89283072D01*
X132763966Y-89294380D01*
X132821519Y-89583722D01*
X132895770Y-89802458D01*
X132916350Y-89863082D01*
X132916351Y-89863085D01*
X133046827Y-90127664D01*
X133046827Y-90127665D01*
X133210724Y-90372953D01*
X133210727Y-90372957D01*
X133405242Y-90594758D01*
X133627043Y-90789273D01*
X133627046Y-90789275D01*
X133872334Y-90953172D01*
X134136914Y-91083648D01*
X134136916Y-91083648D01*
X134136923Y-91083652D01*
X134416278Y-91178481D01*
X134705620Y-91236034D01*
X134934582Y-91251041D01*
X134999998Y-91255329D01*
X135000000Y-91255329D01*
X135000002Y-91255329D01*
X135058876Y-91251470D01*
X135294380Y-91236034D01*
X135583722Y-91178481D01*
X135863077Y-91083652D01*
X136127665Y-90953172D01*
X136372957Y-90789273D01*
X136594758Y-90594758D01*
X136789273Y-90372957D01*
X136953172Y-90127665D01*
X137083652Y-89863077D01*
X137178481Y-89583722D01*
X137236034Y-89294380D01*
X137255329Y-89000000D01*
X137254026Y-88980127D01*
X137244750Y-88838600D01*
X137236034Y-88705620D01*
X137211105Y-88580296D01*
X137207290Y-88457241D01*
X137243638Y-88339612D01*
X137313459Y-88242881D01*
X140019414Y-85536928D01*
X140121232Y-85396788D01*
X140199873Y-85242445D01*
X140253402Y-85077701D01*
X140253404Y-85077684D01*
X140255302Y-85069783D01*
X140303353Y-84956430D01*
X140385606Y-84864821D01*
X140422625Y-84838767D01*
X140448656Y-84822712D01*
X140572712Y-84698656D01*
X140664814Y-84549334D01*
X140670483Y-84532227D01*
X140727915Y-84423327D01*
X140817596Y-84338976D01*
X140929806Y-84288315D01*
X141052386Y-84276833D01*
X141172053Y-84305775D01*
X141275838Y-84372004D01*
X141352496Y-84468344D01*
X141393718Y-84584355D01*
X141399500Y-84649865D01*
X141399500Y-90827542D01*
X141379236Y-90948980D01*
X141320639Y-91057258D01*
X141289958Y-91092000D01*
X138340581Y-94041377D01*
X138238768Y-94181510D01*
X138160128Y-94335851D01*
X138131106Y-94425173D01*
X138074307Y-94534405D01*
X137985118Y-94619275D01*
X137873204Y-94670588D01*
X137775411Y-94683600D01*
X134348430Y-94683600D01*
X134348425Y-94683599D01*
X134271448Y-94683595D01*
X134271383Y-94683600D01*
X134187836Y-94696833D01*
X134187823Y-94696835D01*
X134100326Y-94710689D01*
X134076769Y-94718343D01*
X134019866Y-94736832D01*
X133946129Y-94760787D01*
X133935576Y-94764216D01*
X133855161Y-94805188D01*
X133855155Y-94805191D01*
X133781232Y-94842853D01*
X133709805Y-94894748D01*
X133709792Y-94894757D01*
X133641095Y-94944663D01*
X133579595Y-95006162D01*
X133579586Y-95006171D01*
X133022980Y-95562722D01*
X132922778Y-95634257D01*
X132804778Y-95669381D01*
X132681766Y-95664287D01*
X132567074Y-95619528D01*
X132494077Y-95562709D01*
X132448657Y-95517289D01*
X132448653Y-95517286D01*
X132299334Y-95425186D01*
X132280500Y-95418945D01*
X132132797Y-95370001D01*
X132132794Y-95370000D01*
X132132790Y-95370000D01*
X132030012Y-95359500D01*
X130329994Y-95359500D01*
X130227200Y-95370001D01*
X130060668Y-95425184D01*
X129911346Y-95517286D01*
X129911342Y-95517289D01*
X129787289Y-95641342D01*
X129787286Y-95641346D01*
X129695186Y-95790665D01*
X129640001Y-95957203D01*
X129640000Y-95957209D01*
X129629500Y-96059987D01*
X129629500Y-97560005D01*
X129640001Y-97662799D01*
X129695184Y-97829331D01*
X129737087Y-97897266D01*
X129787288Y-97978656D01*
X129911344Y-98102712D01*
X130060666Y-98194814D01*
X130227203Y-98249999D01*
X130329991Y-98260500D01*
X132030008Y-98260499D01*
X132132797Y-98249999D01*
X132299334Y-98194814D01*
X132448656Y-98102712D01*
X132531326Y-98020042D01*
X132631524Y-97948502D01*
X132749523Y-97913372D01*
X132795784Y-97910500D01*
X133331947Y-97910500D01*
X133346382Y-97910500D01*
X133418552Y-97910504D01*
X133418552Y-97910503D01*
X133418557Y-97910504D01*
X133418562Y-97910503D01*
X133418600Y-97910500D01*
X133418611Y-97910500D01*
X133477262Y-97901210D01*
X133502140Y-97897270D01*
X133502157Y-97897267D01*
X133505196Y-97896785D01*
X133583869Y-97884329D01*
X133589572Y-97883522D01*
X133589589Y-97883518D01*
X133594578Y-97881817D01*
X133670133Y-97857267D01*
X133750090Y-97831291D01*
X133754500Y-97829922D01*
X133758895Y-97827605D01*
X133834845Y-97788907D01*
X133834846Y-97788906D01*
X133834846Y-97788907D01*
X133834851Y-97788903D01*
X133905028Y-97753152D01*
X133908765Y-97751303D01*
X133908772Y-97751299D01*
X133911969Y-97748920D01*
X133956469Y-97716588D01*
X133980177Y-97699364D01*
X133980192Y-97699353D01*
X134044530Y-97652614D01*
X134048852Y-97649571D01*
X134048871Y-97649555D01*
X134052126Y-97646215D01*
X134110413Y-97587928D01*
X134704271Y-96994128D01*
X134804473Y-96922594D01*
X134922473Y-96887470D01*
X134968716Y-96884600D01*
X137255501Y-96884600D01*
X137376939Y-96904864D01*
X137485217Y-96963461D01*
X137568601Y-97054041D01*
X137618057Y-97166788D01*
X137629501Y-97258600D01*
X137629501Y-97560008D01*
X137632353Y-97587928D01*
X137640001Y-97662799D01*
X137695184Y-97829331D01*
X137737087Y-97897266D01*
X137787288Y-97978656D01*
X137911344Y-98102712D01*
X138060666Y-98194814D01*
X138227203Y-98249999D01*
X138329991Y-98260500D01*
X140030008Y-98260499D01*
X140132797Y-98249999D01*
X140299334Y-98194814D01*
X140448656Y-98102712D01*
X140572712Y-97978656D01*
X140664814Y-97829334D01*
X140719999Y-97662797D01*
X140730500Y-97560009D01*
X140730499Y-96059992D01*
X140719999Y-95957203D01*
X140707869Y-95920596D01*
X140664815Y-95790668D01*
X140664482Y-95790127D01*
X140572712Y-95641344D01*
X140477462Y-95546094D01*
X140405923Y-95445897D01*
X140370793Y-95327898D01*
X140375881Y-95204886D01*
X140420635Y-95090192D01*
X140477463Y-95017179D01*
X142261042Y-93233600D01*
X142361240Y-93162060D01*
X142479239Y-93126930D01*
X142602251Y-93132018D01*
X142716945Y-93176772D01*
X142810893Y-93256342D01*
X142873915Y-93362106D01*
X142899181Y-93482602D01*
X142899500Y-93498058D01*
X142899500Y-105025500D01*
X142879236Y-105146938D01*
X142820639Y-105255216D01*
X142730059Y-105338600D01*
X142617312Y-105388056D01*
X142525500Y-105399500D01*
X129610758Y-105399500D01*
X129489320Y-105379236D01*
X129381042Y-105320639D01*
X129346300Y-105289958D01*
X126114171Y-102057829D01*
X129880000Y-102057829D01*
X129886401Y-102117371D01*
X129886403Y-102117381D01*
X129936646Y-102252087D01*
X129936647Y-102252088D01*
X130022811Y-102367188D01*
X130137911Y-102453352D01*
X130137912Y-102453353D01*
X130272618Y-102503596D01*
X130272628Y-102503598D01*
X130332171Y-102510000D01*
X130480000Y-102510000D01*
X131880000Y-102510000D01*
X132027829Y-102510000D01*
X132087371Y-102503598D01*
X132087381Y-102503596D01*
X132222087Y-102453353D01*
X132222088Y-102453352D01*
X132337188Y-102367188D01*
X132423352Y-102252088D01*
X132423353Y-102252087D01*
X132473596Y-102117381D01*
X132473598Y-102117371D01*
X132480000Y-102057829D01*
X137880000Y-102057829D01*
X137886401Y-102117371D01*
X137886403Y-102117381D01*
X137936646Y-102252087D01*
X137936647Y-102252088D01*
X138022811Y-102367188D01*
X138137911Y-102453352D01*
X138137912Y-102453353D01*
X138272618Y-102503596D01*
X138272628Y-102503598D01*
X138332171Y-102510000D01*
X138480000Y-102510000D01*
X139880000Y-102510000D01*
X140027829Y-102510000D01*
X140087371Y-102503598D01*
X140087381Y-102503596D01*
X140222087Y-102453353D01*
X140222088Y-102453352D01*
X140337188Y-102367188D01*
X140423352Y-102252088D01*
X140423353Y-102252087D01*
X140473596Y-102117381D01*
X140473598Y-102117371D01*
X140480000Y-102057829D01*
X140480000Y-102010000D01*
X139880000Y-102010000D01*
X139880000Y-102510000D01*
X138480000Y-102510000D01*
X138480000Y-102010000D01*
X137880000Y-102010000D01*
X137880000Y-102057829D01*
X132480000Y-102057829D01*
X132480000Y-102010000D01*
X131880000Y-102010000D01*
X131880000Y-102510000D01*
X130480000Y-102510000D01*
X130480000Y-102010000D01*
X129880000Y-102010000D01*
X129880000Y-102057829D01*
X126114171Y-102057829D01*
X126066342Y-102010000D01*
X124618512Y-100562170D01*
X129880000Y-100562170D01*
X129880000Y-100610000D01*
X130480000Y-100610000D01*
X131880000Y-100610000D01*
X132480000Y-100610000D01*
X132480000Y-100562170D01*
X137880000Y-100562170D01*
X137880000Y-100610000D01*
X138480000Y-100610000D01*
X139880000Y-100610000D01*
X140480000Y-100610000D01*
X140480000Y-100562170D01*
X140473598Y-100502628D01*
X140473596Y-100502618D01*
X140423353Y-100367912D01*
X140423352Y-100367911D01*
X140337188Y-100252811D01*
X140222088Y-100166647D01*
X140222087Y-100166646D01*
X140087381Y-100116403D01*
X140087371Y-100116401D01*
X140027829Y-100110000D01*
X139880000Y-100110000D01*
X139880000Y-100610000D01*
X138480000Y-100610000D01*
X138480000Y-100110000D01*
X138332171Y-100110000D01*
X138272628Y-100116401D01*
X138272618Y-100116403D01*
X138137912Y-100166646D01*
X138137911Y-100166647D01*
X138022811Y-100252811D01*
X137936647Y-100367911D01*
X137936646Y-100367912D01*
X137886403Y-100502618D01*
X137886401Y-100502628D01*
X137880000Y-100562170D01*
X132480000Y-100562170D01*
X132473598Y-100502628D01*
X132473596Y-100502618D01*
X132423353Y-100367912D01*
X132423352Y-100367911D01*
X132337188Y-100252811D01*
X132222088Y-100166647D01*
X132222087Y-100166646D01*
X132087381Y-100116403D01*
X132087371Y-100116401D01*
X132027829Y-100110000D01*
X131880000Y-100110000D01*
X131880000Y-100610000D01*
X130480000Y-100610000D01*
X130480000Y-100110000D01*
X130332171Y-100110000D01*
X130272628Y-100116401D01*
X130272618Y-100116403D01*
X130137912Y-100166646D01*
X130137911Y-100166647D01*
X130022811Y-100252811D01*
X129936647Y-100367911D01*
X129936646Y-100367912D01*
X129886403Y-100502618D01*
X129886401Y-100502628D01*
X129880000Y-100562170D01*
X124618512Y-100562170D01*
X121052728Y-96996386D01*
X121052724Y-96996383D01*
X121052722Y-96996381D01*
X120912589Y-96894568D01*
X120758245Y-96815927D01*
X120668924Y-96786904D01*
X120559693Y-96730105D01*
X120474822Y-96640915D01*
X120423510Y-96529001D01*
X120410499Y-96431210D01*
X120410499Y-96059994D01*
X120410498Y-96059987D01*
X120399999Y-95957203D01*
X120387869Y-95920596D01*
X120344815Y-95790668D01*
X120344482Y-95790127D01*
X120252712Y-95641344D01*
X120128656Y-95517288D01*
X120012910Y-95445896D01*
X119979334Y-95425186D01*
X119960500Y-95418945D01*
X119812797Y-95370001D01*
X119812794Y-95370000D01*
X119812790Y-95370000D01*
X119710012Y-95359500D01*
X118009994Y-95359500D01*
X117907200Y-95370001D01*
X117740668Y-95425184D01*
X117591346Y-95517286D01*
X117591342Y-95517289D01*
X117467289Y-95641342D01*
X117467286Y-95641346D01*
X117375186Y-95790665D01*
X117320001Y-95957203D01*
X117320000Y-95957209D01*
X117309500Y-96059987D01*
X117309500Y-96361300D01*
X117289236Y-96482738D01*
X117230639Y-96591016D01*
X117140059Y-96674400D01*
X117027312Y-96723856D01*
X116935500Y-96735300D01*
X114648674Y-96735300D01*
X114527236Y-96715036D01*
X114418958Y-96656439D01*
X114384242Y-96625784D01*
X113790372Y-96032030D01*
X113728929Y-95970587D01*
X113728843Y-95970513D01*
X113660151Y-95920616D01*
X113660124Y-95920596D01*
X113588747Y-95868738D01*
X113588696Y-95868712D01*
X113512872Y-95830087D01*
X113512845Y-95830067D01*
X113512843Y-95830072D01*
X113434453Y-95790130D01*
X113434351Y-95790088D01*
X113434348Y-95790087D01*
X113434346Y-95790086D01*
X113353306Y-95763763D01*
X113353276Y-95763747D01*
X113353275Y-95763753D01*
X113269680Y-95736591D01*
X113269630Y-95736579D01*
X113269599Y-95736574D01*
X113269596Y-95736573D01*
X113187651Y-95723602D01*
X113187626Y-95723598D01*
X113187620Y-95723597D01*
X113098595Y-95709497D01*
X113098524Y-95709492D01*
X113098503Y-95709492D01*
X113019423Y-95709499D01*
X113011890Y-95709500D01*
X112475784Y-95709500D01*
X112354346Y-95689236D01*
X112246068Y-95630639D01*
X112211326Y-95599958D01*
X112128657Y-95517289D01*
X112128653Y-95517286D01*
X111979334Y-95425186D01*
X111960500Y-95418945D01*
X111812797Y-95370001D01*
X111812794Y-95370000D01*
X111812790Y-95370000D01*
X111710012Y-95359500D01*
X110009994Y-95359500D01*
X109907200Y-95370001D01*
X109740668Y-95425184D01*
X109591346Y-95517286D01*
X109591342Y-95517289D01*
X109467289Y-95641342D01*
X109467286Y-95641346D01*
X109375186Y-95790665D01*
X109320001Y-95957203D01*
X109320000Y-95957209D01*
X109309500Y-96059987D01*
X109309500Y-97560005D01*
X109320001Y-97662799D01*
X109375184Y-97829331D01*
X109417087Y-97897266D01*
X109467288Y-97978656D01*
X109591344Y-98102712D01*
X109740666Y-98194814D01*
X109907203Y-98249999D01*
X110009991Y-98260500D01*
X111710008Y-98260499D01*
X111812797Y-98249999D01*
X111979334Y-98194814D01*
X112128656Y-98102712D01*
X112174101Y-98057266D01*
X112274296Y-97985728D01*
X112392294Y-97950597D01*
X112515306Y-97955684D01*
X112630000Y-98000437D01*
X112702990Y-98057241D01*
X112748468Y-98102710D01*
X113259627Y-98613769D01*
X113321072Y-98675214D01*
X113321075Y-98675216D01*
X113321079Y-98675220D01*
X113321149Y-98675280D01*
X113321152Y-98675282D01*
X113321154Y-98675284D01*
X113342416Y-98690729D01*
X113389851Y-98725186D01*
X113389849Y-98725188D01*
X113389877Y-98725204D01*
X113461215Y-98777034D01*
X113461309Y-98777091D01*
X113537152Y-98815725D01*
X113537188Y-98815743D01*
X113615051Y-98855416D01*
X113615608Y-98855703D01*
X113615610Y-98855704D01*
X113616395Y-98855954D01*
X113698848Y-98882737D01*
X113701511Y-98883602D01*
X113701510Y-98883604D01*
X113701534Y-98883609D01*
X113780004Y-98909106D01*
X113780382Y-98909230D01*
X113780405Y-98909236D01*
X113781664Y-98909427D01*
X113840334Y-98918713D01*
X113872142Y-98923748D01*
X113872172Y-98923752D01*
X113951389Y-98936300D01*
X113951394Y-98936300D01*
X113951487Y-98936307D01*
X113951497Y-98936309D01*
X114043186Y-98936300D01*
X114043204Y-98936300D01*
X118773389Y-98936300D01*
X119725042Y-98936300D01*
X119846480Y-98956564D01*
X119954758Y-99015161D01*
X119989500Y-99045842D01*
X128160586Y-107216928D01*
X128283072Y-107339414D01*
X128283075Y-107339416D01*
X128283077Y-107339418D01*
X128423210Y-107441231D01*
X128423212Y-107441232D01*
X128577555Y-107519873D01*
X128742299Y-107573402D01*
X128913389Y-107600500D01*
X128913393Y-107600500D01*
X144086607Y-107600500D01*
X144086611Y-107600500D01*
X144257701Y-107573402D01*
X144422445Y-107519873D01*
X144576788Y-107441232D01*
X144716928Y-107339414D01*
X144839414Y-107216928D01*
X144941232Y-107076788D01*
X145019873Y-106922445D01*
X145073402Y-106757701D01*
X145100500Y-106586611D01*
X145100500Y-102057829D01*
X150200000Y-102057829D01*
X150206401Y-102117371D01*
X150206403Y-102117381D01*
X150256646Y-102252087D01*
X150256647Y-102252088D01*
X150342811Y-102367188D01*
X150457911Y-102453352D01*
X150457912Y-102453353D01*
X150592618Y-102503596D01*
X150592628Y-102503598D01*
X150652171Y-102510000D01*
X150800000Y-102510000D01*
X152200000Y-102510000D01*
X152347829Y-102510000D01*
X152407371Y-102503598D01*
X152407381Y-102503596D01*
X152542087Y-102453353D01*
X152542088Y-102453352D01*
X152657188Y-102367188D01*
X152743352Y-102252088D01*
X152743353Y-102252087D01*
X152793596Y-102117381D01*
X152793598Y-102117371D01*
X152800000Y-102057829D01*
X158200000Y-102057829D01*
X158206401Y-102117371D01*
X158206403Y-102117381D01*
X158256646Y-102252087D01*
X158256647Y-102252088D01*
X158342811Y-102367188D01*
X158457911Y-102453352D01*
X158457912Y-102453353D01*
X158592618Y-102503596D01*
X158592628Y-102503598D01*
X158652171Y-102510000D01*
X158800000Y-102510000D01*
X160200000Y-102510000D01*
X160347829Y-102510000D01*
X160407371Y-102503598D01*
X160407381Y-102503596D01*
X160542087Y-102453353D01*
X160542088Y-102453352D01*
X160657188Y-102367188D01*
X160743352Y-102252088D01*
X160743353Y-102252087D01*
X160793596Y-102117381D01*
X160793598Y-102117371D01*
X160800000Y-102057829D01*
X160800000Y-102010000D01*
X160200000Y-102010000D01*
X160200000Y-102510000D01*
X158800000Y-102510000D01*
X158800000Y-102010000D01*
X158200000Y-102010000D01*
X158200000Y-102057829D01*
X152800000Y-102057829D01*
X152800000Y-102010000D01*
X152200000Y-102010000D01*
X152200000Y-102510000D01*
X150800000Y-102510000D01*
X150800000Y-102010000D01*
X150200000Y-102010000D01*
X150200000Y-102057829D01*
X145100500Y-102057829D01*
X145100500Y-100562170D01*
X150200000Y-100562170D01*
X150200000Y-100610000D01*
X150800000Y-100610000D01*
X152200000Y-100610000D01*
X152800000Y-100610000D01*
X152800000Y-100562170D01*
X158200000Y-100562170D01*
X158200000Y-100610000D01*
X158800000Y-100610000D01*
X160200000Y-100610000D01*
X160800000Y-100610000D01*
X160800000Y-100562170D01*
X160793598Y-100502628D01*
X160793596Y-100502618D01*
X160743353Y-100367912D01*
X160743352Y-100367911D01*
X160657188Y-100252811D01*
X160542088Y-100166647D01*
X160542087Y-100166646D01*
X160407381Y-100116403D01*
X160407371Y-100116401D01*
X160347829Y-100110000D01*
X160200000Y-100110000D01*
X160200000Y-100610000D01*
X158800000Y-100610000D01*
X158800000Y-100110000D01*
X158652171Y-100110000D01*
X158592628Y-100116401D01*
X158592618Y-100116403D01*
X158457912Y-100166646D01*
X158457911Y-100166647D01*
X158342811Y-100252811D01*
X158256647Y-100367911D01*
X158256646Y-100367912D01*
X158206403Y-100502618D01*
X158206401Y-100502628D01*
X158200000Y-100562170D01*
X152800000Y-100562170D01*
X152793598Y-100502628D01*
X152793596Y-100502618D01*
X152743353Y-100367912D01*
X152743352Y-100367911D01*
X152657188Y-100252811D01*
X152542088Y-100166647D01*
X152542087Y-100166646D01*
X152407381Y-100116403D01*
X152407371Y-100116401D01*
X152347829Y-100110000D01*
X152200000Y-100110000D01*
X152200000Y-100610000D01*
X150800000Y-100610000D01*
X150800000Y-100110000D01*
X150652171Y-100110000D01*
X150592628Y-100116401D01*
X150592618Y-100116403D01*
X150457912Y-100166646D01*
X150457911Y-100166647D01*
X150342811Y-100252811D01*
X150256647Y-100367911D01*
X150256646Y-100367912D01*
X150206403Y-100502618D01*
X150206401Y-100502628D01*
X150200000Y-100562170D01*
X145100500Y-100562170D01*
X145100500Y-89499997D01*
X148244671Y-89499997D01*
X148244671Y-89500002D01*
X148254341Y-89647542D01*
X148263966Y-89794380D01*
X148321519Y-90083722D01*
X148410181Y-90344911D01*
X148416350Y-90363082D01*
X148416351Y-90363085D01*
X148546827Y-90627664D01*
X148546827Y-90627665D01*
X148685424Y-90835089D01*
X148710727Y-90872957D01*
X148905242Y-91094758D01*
X149127043Y-91289273D01*
X149127046Y-91289275D01*
X149372334Y-91453172D01*
X149636914Y-91583648D01*
X149636916Y-91583648D01*
X149636923Y-91583652D01*
X149916278Y-91678481D01*
X150205620Y-91736034D01*
X150434582Y-91751041D01*
X150499998Y-91755329D01*
X150500000Y-91755329D01*
X150500002Y-91755329D01*
X150558876Y-91751470D01*
X150794380Y-91736034D01*
X151083722Y-91678481D01*
X151363077Y-91583652D01*
X151627665Y-91453172D01*
X151872957Y-91289273D01*
X152094758Y-91094758D01*
X152289273Y-90872957D01*
X152453172Y-90627665D01*
X152583652Y-90363077D01*
X152678481Y-90083722D01*
X152736034Y-89794380D01*
X152755329Y-89500000D01*
X152736034Y-89205620D01*
X152678481Y-88916278D01*
X152583652Y-88636923D01*
X152453172Y-88372336D01*
X152289273Y-88127043D01*
X152094758Y-87905242D01*
X151872957Y-87710727D01*
X151872220Y-87710234D01*
X151766715Y-87639737D01*
X151677002Y-87555421D01*
X151619528Y-87446543D01*
X151600500Y-87328769D01*
X151600500Y-87262758D01*
X151620764Y-87141320D01*
X151679361Y-87033042D01*
X151710042Y-86998300D01*
X153968300Y-84740042D01*
X154068498Y-84668502D01*
X154186497Y-84633372D01*
X154232758Y-84630500D01*
X157884216Y-84630500D01*
X158005654Y-84650764D01*
X158113932Y-84709361D01*
X158148674Y-84740042D01*
X158231344Y-84822712D01*
X158380666Y-84914814D01*
X158547203Y-84969999D01*
X158649991Y-84980500D01*
X160350008Y-84980499D01*
X160452797Y-84969999D01*
X160619334Y-84914814D01*
X160768656Y-84822712D01*
X160892712Y-84698656D01*
X160984814Y-84549334D01*
X161039999Y-84382797D01*
X161050500Y-84280009D01*
X161050499Y-82779992D01*
X161039999Y-82677203D01*
X161027621Y-82639849D01*
X160984815Y-82510668D01*
X160984482Y-82510127D01*
X160892712Y-82361344D01*
X160768656Y-82237288D01*
X160619334Y-82145186D01*
X160452797Y-82090001D01*
X160452794Y-82090000D01*
X160452790Y-82090000D01*
X160350012Y-82079500D01*
X158649994Y-82079500D01*
X158547200Y-82090001D01*
X158380668Y-82145184D01*
X158231346Y-82237286D01*
X158231342Y-82237289D01*
X158148674Y-82319958D01*
X158048476Y-82391498D01*
X157930477Y-82426628D01*
X157884216Y-82429500D01*
X153957460Y-82429500D01*
X153898955Y-82424896D01*
X153738611Y-82399500D01*
X153738607Y-82399500D01*
X153085784Y-82399500D01*
X152964346Y-82379236D01*
X152856068Y-82320639D01*
X152821326Y-82289958D01*
X152768657Y-82237289D01*
X152768653Y-82237286D01*
X152619334Y-82145186D01*
X152619328Y-82145184D01*
X152452797Y-82090001D01*
X152452794Y-82090000D01*
X152452790Y-82090000D01*
X152350012Y-82079500D01*
X150649994Y-82079500D01*
X150547200Y-82090001D01*
X150380668Y-82145184D01*
X150231346Y-82237286D01*
X150231342Y-82237289D01*
X150107289Y-82361342D01*
X150107286Y-82361346D01*
X150015186Y-82510665D01*
X149960001Y-82677203D01*
X149960000Y-82677209D01*
X149949500Y-82779987D01*
X149949500Y-84280005D01*
X149960001Y-84382799D01*
X150015184Y-84549331D01*
X150107286Y-84698653D01*
X150107289Y-84698657D01*
X150237686Y-84829054D01*
X150309226Y-84929252D01*
X150344356Y-85047251D01*
X150339268Y-85170263D01*
X150294514Y-85284957D01*
X150237687Y-85357969D01*
X149783073Y-85812585D01*
X149660581Y-85935077D01*
X149558768Y-86075210D01*
X149480129Y-86229550D01*
X149426598Y-86394298D01*
X149399500Y-86565392D01*
X149399500Y-87328769D01*
X149379236Y-87450207D01*
X149320639Y-87558485D01*
X149233284Y-87639738D01*
X149127047Y-87710723D01*
X148905242Y-87905242D01*
X148710725Y-88127045D01*
X148546830Y-88372331D01*
X148416346Y-88636928D01*
X148321519Y-88916277D01*
X148321518Y-88916283D01*
X148263967Y-89205615D01*
X148263965Y-89205627D01*
X148244671Y-89499997D01*
X145100500Y-89499997D01*
X145100500Y-79777829D01*
X150200000Y-79777829D01*
X150206401Y-79837371D01*
X150206403Y-79837381D01*
X150256646Y-79972087D01*
X150256647Y-79972088D01*
X150342811Y-80087188D01*
X150457911Y-80173352D01*
X150457912Y-80173353D01*
X150592618Y-80223596D01*
X150592628Y-80223598D01*
X150652171Y-80230000D01*
X150800000Y-80230000D01*
X152200000Y-80230000D01*
X152347829Y-80230000D01*
X152407371Y-80223598D01*
X152407381Y-80223596D01*
X152542087Y-80173353D01*
X152542088Y-80173352D01*
X152657188Y-80087188D01*
X152743352Y-79972088D01*
X152743353Y-79972087D01*
X152793596Y-79837381D01*
X152793598Y-79837371D01*
X152800000Y-79777829D01*
X158200000Y-79777829D01*
X158206401Y-79837371D01*
X158206403Y-79837381D01*
X158256646Y-79972087D01*
X158256647Y-79972088D01*
X158342811Y-80087188D01*
X158457911Y-80173352D01*
X158457912Y-80173353D01*
X158592618Y-80223596D01*
X158592628Y-80223598D01*
X158652171Y-80230000D01*
X158800000Y-80230000D01*
X160200000Y-80230000D01*
X160347829Y-80230000D01*
X160407371Y-80223598D01*
X160407381Y-80223596D01*
X160542087Y-80173353D01*
X160542088Y-80173352D01*
X160657188Y-80087188D01*
X160743352Y-79972088D01*
X160743353Y-79972087D01*
X160793596Y-79837381D01*
X160793598Y-79837371D01*
X160800000Y-79777829D01*
X160800000Y-79730000D01*
X160200000Y-79730000D01*
X160200000Y-80230000D01*
X158800000Y-80230000D01*
X158800000Y-79730000D01*
X158200000Y-79730000D01*
X158200000Y-79777829D01*
X152800000Y-79777829D01*
X152800000Y-79730000D01*
X152200000Y-79730000D01*
X152200000Y-80230000D01*
X150800000Y-80230000D01*
X150800000Y-79730000D01*
X150200000Y-79730000D01*
X150200000Y-79777829D01*
X145100500Y-79777829D01*
X145100500Y-78282170D01*
X150200000Y-78282170D01*
X150200000Y-78330000D01*
X150800000Y-78330000D01*
X152200000Y-78330000D01*
X152800000Y-78330000D01*
X152800000Y-78282170D01*
X158200000Y-78282170D01*
X158200000Y-78330000D01*
X158800000Y-78330000D01*
X160200000Y-78330000D01*
X160800000Y-78330000D01*
X160800000Y-78282170D01*
X160793598Y-78222628D01*
X160793596Y-78222618D01*
X160743353Y-78087912D01*
X160743350Y-78087906D01*
X160658584Y-77974675D01*
X160657855Y-77973266D01*
X160655325Y-77971416D01*
X160542092Y-77886649D01*
X160542087Y-77886646D01*
X160407381Y-77836403D01*
X160407371Y-77836401D01*
X160347829Y-77830000D01*
X160200000Y-77830000D01*
X160200000Y-78330000D01*
X158800000Y-78330000D01*
X158800000Y-77830000D01*
X158652171Y-77830000D01*
X158592628Y-77836401D01*
X158592618Y-77836403D01*
X158457912Y-77886646D01*
X158457911Y-77886647D01*
X158342811Y-77972811D01*
X158256647Y-78087911D01*
X158256646Y-78087912D01*
X158206403Y-78222618D01*
X158206401Y-78222628D01*
X158200000Y-78282170D01*
X152800000Y-78282170D01*
X152793598Y-78222628D01*
X152793596Y-78222618D01*
X152743353Y-78087912D01*
X152743352Y-78087911D01*
X152657188Y-77972811D01*
X152542088Y-77886647D01*
X152542087Y-77886646D01*
X152407381Y-77836403D01*
X152407371Y-77836401D01*
X152347829Y-77830000D01*
X152200000Y-77830000D01*
X152200000Y-78330000D01*
X150800000Y-78330000D01*
X150800000Y-77830000D01*
X150652171Y-77830000D01*
X150592628Y-77836401D01*
X150592618Y-77836403D01*
X150457912Y-77886646D01*
X150457911Y-77886647D01*
X150342811Y-77972811D01*
X150256647Y-78087911D01*
X150256646Y-78087912D01*
X150206403Y-78222618D01*
X150206401Y-78222628D01*
X150200000Y-78282170D01*
X145100500Y-78282170D01*
X145100500Y-73700084D01*
X145120764Y-73578646D01*
X145179361Y-73470368D01*
X145269941Y-73386984D01*
X145382688Y-73337528D01*
X145505385Y-73327361D01*
X145571303Y-73338830D01*
X145577714Y-73340548D01*
X145805218Y-73370500D01*
X145805224Y-73370500D01*
X146034680Y-73370500D01*
X146034686Y-73370500D01*
X146262190Y-73340548D01*
X146483839Y-73281158D01*
X146695840Y-73193344D01*
X146894564Y-73078611D01*
X146962274Y-73026655D01*
X147070953Y-72968805D01*
X147192527Y-72949377D01*
X147313822Y-72970477D01*
X147417630Y-73026655D01*
X147485340Y-73078611D01*
X147485341Y-73078612D01*
X147485343Y-73078613D01*
X147564410Y-73124262D01*
X147684064Y-73193344D01*
X147896065Y-73281158D01*
X148117714Y-73340548D01*
X148345218Y-73370500D01*
X148345224Y-73370500D01*
X148574680Y-73370500D01*
X148574686Y-73370500D01*
X148802190Y-73340548D01*
X149023839Y-73281158D01*
X149235840Y-73193344D01*
X149434564Y-73078611D01*
X149502274Y-73026655D01*
X149610953Y-72968805D01*
X149732527Y-72949377D01*
X149853822Y-72970477D01*
X149957630Y-73026655D01*
X150025340Y-73078611D01*
X150025341Y-73078612D01*
X150025343Y-73078613D01*
X150104410Y-73124262D01*
X150224064Y-73193344D01*
X150436065Y-73281158D01*
X150657714Y-73340548D01*
X150885218Y-73370500D01*
X150885224Y-73370500D01*
X151114680Y-73370500D01*
X151114686Y-73370500D01*
X151342190Y-73340548D01*
X151563839Y-73281158D01*
X151775840Y-73193344D01*
X151974564Y-73078611D01*
X152156613Y-72938919D01*
X152318871Y-72776661D01*
X152458563Y-72594612D01*
X152573296Y-72395888D01*
X152661110Y-72183887D01*
X152720500Y-71962238D01*
X152750452Y-71734734D01*
X152750452Y-70505266D01*
X152720500Y-70277762D01*
X152661110Y-70056113D01*
X152580646Y-69861857D01*
X152552896Y-69741911D01*
X152565596Y-69619451D01*
X152617371Y-69507750D01*
X152702609Y-69418913D01*
X152812075Y-69362566D01*
X152933905Y-69344815D01*
X153054898Y-69367584D01*
X153161942Y-69428406D01*
X153190635Y-69454277D01*
X161143916Y-77407558D01*
X161176270Y-77452872D01*
X161216408Y-77480185D01*
X161222441Y-77486083D01*
X162789958Y-79053600D01*
X162861498Y-79153798D01*
X162896628Y-79271797D01*
X162899500Y-79318058D01*
X162899500Y-89647542D01*
X162879236Y-89768980D01*
X162820639Y-89877258D01*
X162789958Y-89912000D01*
X158660581Y-94041377D01*
X158558768Y-94181510D01*
X158480128Y-94335851D01*
X158451106Y-94425173D01*
X158394307Y-94534405D01*
X158305118Y-94619275D01*
X158193204Y-94670588D01*
X158095411Y-94683600D01*
X154668430Y-94683600D01*
X154668425Y-94683599D01*
X154591448Y-94683595D01*
X154591383Y-94683600D01*
X154507836Y-94696833D01*
X154507823Y-94696835D01*
X154420326Y-94710689D01*
X154396769Y-94718343D01*
X154339866Y-94736832D01*
X154266129Y-94760787D01*
X154255576Y-94764216D01*
X154175161Y-94805188D01*
X154175155Y-94805191D01*
X154101232Y-94842853D01*
X154029805Y-94894748D01*
X154029792Y-94894757D01*
X153961095Y-94944663D01*
X153899595Y-95006162D01*
X153899586Y-95006171D01*
X153342980Y-95562722D01*
X153242778Y-95634257D01*
X153124778Y-95669381D01*
X153001766Y-95664287D01*
X152887074Y-95619528D01*
X152814077Y-95562709D01*
X152768657Y-95517289D01*
X152768653Y-95517286D01*
X152619334Y-95425186D01*
X152600500Y-95418945D01*
X152452797Y-95370001D01*
X152452794Y-95370000D01*
X152452790Y-95370000D01*
X152350012Y-95359500D01*
X150649994Y-95359500D01*
X150547200Y-95370001D01*
X150380668Y-95425184D01*
X150231346Y-95517286D01*
X150231342Y-95517289D01*
X150107289Y-95641342D01*
X150107286Y-95641346D01*
X150015186Y-95790665D01*
X149960001Y-95957203D01*
X149960000Y-95957209D01*
X149949500Y-96059987D01*
X149949500Y-97560005D01*
X149960001Y-97662799D01*
X150015184Y-97829331D01*
X150057087Y-97897266D01*
X150107288Y-97978656D01*
X150231344Y-98102712D01*
X150380666Y-98194814D01*
X150547203Y-98249999D01*
X150649991Y-98260500D01*
X152350008Y-98260499D01*
X152452797Y-98249999D01*
X152619334Y-98194814D01*
X152768656Y-98102712D01*
X152851326Y-98020042D01*
X152951524Y-97948502D01*
X153069523Y-97913372D01*
X153115784Y-97910500D01*
X153651947Y-97910500D01*
X153666382Y-97910500D01*
X153738552Y-97910504D01*
X153738552Y-97910503D01*
X153738557Y-97910504D01*
X153738562Y-97910503D01*
X153738600Y-97910500D01*
X153738611Y-97910500D01*
X153797262Y-97901210D01*
X153822140Y-97897270D01*
X153822157Y-97897267D01*
X153825196Y-97896785D01*
X153903869Y-97884329D01*
X153909572Y-97883522D01*
X153909589Y-97883518D01*
X153914578Y-97881817D01*
X153990133Y-97857267D01*
X154070090Y-97831291D01*
X154074500Y-97829922D01*
X154078895Y-97827605D01*
X154154845Y-97788907D01*
X154154846Y-97788906D01*
X154154846Y-97788907D01*
X154154851Y-97788903D01*
X154225028Y-97753152D01*
X154228765Y-97751303D01*
X154228772Y-97751299D01*
X154231969Y-97748920D01*
X154276469Y-97716588D01*
X154300177Y-97699364D01*
X154300192Y-97699353D01*
X154364530Y-97652614D01*
X154368852Y-97649571D01*
X154368871Y-97649555D01*
X154372126Y-97646215D01*
X154430413Y-97587928D01*
X155024271Y-96994128D01*
X155124473Y-96922594D01*
X155242473Y-96887470D01*
X155288716Y-96884600D01*
X157575501Y-96884600D01*
X157696939Y-96904864D01*
X157805217Y-96963461D01*
X157888601Y-97054041D01*
X157938057Y-97166788D01*
X157949501Y-97258600D01*
X157949501Y-97560008D01*
X157952353Y-97587928D01*
X157960001Y-97662799D01*
X158015184Y-97829331D01*
X158057087Y-97897266D01*
X158107288Y-97978656D01*
X158231344Y-98102712D01*
X158380666Y-98194814D01*
X158547203Y-98249999D01*
X158649991Y-98260500D01*
X160350008Y-98260499D01*
X160452797Y-98249999D01*
X160619334Y-98194814D01*
X160768656Y-98102712D01*
X160892712Y-97978656D01*
X160984814Y-97829334D01*
X161039999Y-97662797D01*
X161050500Y-97560009D01*
X161050499Y-96059992D01*
X161039999Y-95957203D01*
X161027869Y-95920596D01*
X160984815Y-95790668D01*
X160984482Y-95790127D01*
X160892712Y-95641344D01*
X160797462Y-95546094D01*
X160725922Y-95445896D01*
X160690792Y-95327897D01*
X160695880Y-95204885D01*
X160740634Y-95090191D01*
X160797454Y-95017187D01*
X164839414Y-90975228D01*
X164941232Y-90835088D01*
X165019873Y-90680745D01*
X165073402Y-90516001D01*
X165100500Y-90344911D01*
X165100500Y-90171689D01*
X165100500Y-78620689D01*
X165073402Y-78449599D01*
X165024412Y-78298825D01*
X165021214Y-78287486D01*
X164941231Y-78130511D01*
X164839417Y-77990376D01*
X164839416Y-77990375D01*
X164839414Y-77990372D01*
X152509628Y-65660586D01*
X152509624Y-65660583D01*
X152509622Y-65660581D01*
X152369489Y-65558768D01*
X152215149Y-65480129D01*
X152215148Y-65480128D01*
X152215145Y-65480127D01*
X152050401Y-65426598D01*
X151879311Y-65399500D01*
X138413389Y-65399500D01*
X138413384Y-65399500D01*
X138268520Y-65422445D01*
X138268514Y-65422446D01*
X138242302Y-65426597D01*
X138242299Y-65426598D01*
X138077555Y-65480127D01*
X138077552Y-65480128D01*
X138077550Y-65480129D01*
X137923210Y-65558768D01*
X137783077Y-65660581D01*
X137460581Y-65983077D01*
X137358768Y-66123210D01*
X137280129Y-66277550D01*
X137226598Y-66442298D01*
X137199500Y-66613392D01*
X137199500Y-68782033D01*
X137179236Y-68903471D01*
X137120639Y-69011749D01*
X137030059Y-69095133D01*
X136917312Y-69144589D01*
X136794615Y-69154756D01*
X136675266Y-69124532D01*
X136638501Y-69105927D01*
X136535844Y-69046658D01*
X136535842Y-69046657D01*
X136535840Y-69046656D01*
X136323839Y-68958842D01*
X136323835Y-68958841D01*
X136323833Y-68958840D01*
X136205047Y-68927012D01*
X136102190Y-68899452D01*
X136102187Y-68899451D01*
X136102185Y-68899451D01*
X135874692Y-68869500D01*
X135874686Y-68869500D01*
X135645218Y-68869500D01*
X135645211Y-68869500D01*
X135417718Y-68899451D01*
X135196070Y-68958840D01*
X134984059Y-69046658D01*
X134785343Y-69161386D01*
X134785340Y-69161388D01*
X134717628Y-69213346D01*
X134608948Y-69271195D01*
X134487374Y-69290622D01*
X134366079Y-69269521D01*
X134262276Y-69213346D01*
X134194563Y-69161388D01*
X134194560Y-69161386D01*
X133995844Y-69046658D01*
X133995842Y-69046657D01*
X133995840Y-69046656D01*
X133783839Y-68958842D01*
X133783835Y-68958841D01*
X133783833Y-68958840D01*
X133665047Y-68927012D01*
X133562190Y-68899452D01*
X133562187Y-68899451D01*
X133562185Y-68899451D01*
X133334692Y-68869500D01*
X133334686Y-68869500D01*
X133105218Y-68869500D01*
X133105211Y-68869500D01*
X132877718Y-68899451D01*
X132656070Y-68958840D01*
X132444059Y-69046658D01*
X132245343Y-69161386D01*
X132245340Y-69161388D01*
X132177628Y-69213346D01*
X132068948Y-69271195D01*
X131947374Y-69290622D01*
X131826079Y-69269521D01*
X131722276Y-69213346D01*
X131654563Y-69161388D01*
X131654560Y-69161386D01*
X131455844Y-69046658D01*
X131455842Y-69046657D01*
X131455840Y-69046656D01*
X131243839Y-68958842D01*
X131243835Y-68958841D01*
X131243833Y-68958840D01*
X131125047Y-68927012D01*
X131022190Y-68899452D01*
X131022187Y-68899451D01*
X131022185Y-68899451D01*
X130794692Y-68869500D01*
X130794686Y-68869500D01*
X130565218Y-68869500D01*
X130565211Y-68869500D01*
X130337718Y-68899451D01*
X130116070Y-68958840D01*
X129904059Y-69046658D01*
X129705343Y-69161386D01*
X129705340Y-69161388D01*
X129637628Y-69213346D01*
X129528948Y-69271195D01*
X129407374Y-69290622D01*
X129286079Y-69269521D01*
X129182276Y-69213346D01*
X129114563Y-69161388D01*
X129114560Y-69161386D01*
X128915844Y-69046658D01*
X128915842Y-69046657D01*
X128915840Y-69046656D01*
X128703839Y-68958842D01*
X128703835Y-68958841D01*
X128703833Y-68958840D01*
X128585047Y-68927012D01*
X128482190Y-68899452D01*
X128482187Y-68899451D01*
X128482185Y-68899451D01*
X128254692Y-68869500D01*
X128254686Y-68869500D01*
X128025218Y-68869500D01*
X128025211Y-68869500D01*
X127797718Y-68899451D01*
X127576070Y-68958840D01*
X127364059Y-69046658D01*
X127165343Y-69161386D01*
X127165340Y-69161388D01*
X127097628Y-69213346D01*
X126988948Y-69271195D01*
X126867374Y-69290622D01*
X126746079Y-69269521D01*
X126642276Y-69213346D01*
X126574563Y-69161388D01*
X126574560Y-69161386D01*
X126375844Y-69046658D01*
X126375842Y-69046657D01*
X126375840Y-69046656D01*
X126163839Y-68958842D01*
X126163835Y-68958841D01*
X126163833Y-68958840D01*
X126045047Y-68927012D01*
X125942190Y-68899452D01*
X125942187Y-68899451D01*
X125942185Y-68899451D01*
X125714692Y-68869500D01*
X125714686Y-68869500D01*
X125485218Y-68869500D01*
X125485211Y-68869500D01*
X125257718Y-68899451D01*
X125036070Y-68958840D01*
X124824059Y-69046658D01*
X124625343Y-69161386D01*
X124625340Y-69161388D01*
X124557628Y-69213346D01*
X124448948Y-69271195D01*
X124327374Y-69290622D01*
X124206079Y-69269521D01*
X124102276Y-69213346D01*
X124034563Y-69161388D01*
X124034560Y-69161386D01*
X123835844Y-69046658D01*
X123835842Y-69046657D01*
X123835840Y-69046656D01*
X123623839Y-68958842D01*
X123623835Y-68958841D01*
X123623833Y-68958840D01*
X123505047Y-68927012D01*
X123402190Y-68899452D01*
X123402187Y-68899451D01*
X123402185Y-68899451D01*
X123174692Y-68869500D01*
X123174686Y-68869500D01*
X122945218Y-68869500D01*
X122945211Y-68869500D01*
X122717718Y-68899451D01*
X122496070Y-68958840D01*
X122284059Y-69046658D01*
X122085343Y-69161386D01*
X122085340Y-69161388D01*
X122017628Y-69213346D01*
X121908948Y-69271195D01*
X121787374Y-69290622D01*
X121666079Y-69269521D01*
X121562276Y-69213346D01*
X121494563Y-69161388D01*
X121494560Y-69161386D01*
X121295844Y-69046658D01*
X121295842Y-69046657D01*
X121295840Y-69046656D01*
X121083839Y-68958842D01*
X121083835Y-68958841D01*
X121083833Y-68958840D01*
X120965047Y-68927012D01*
X120862190Y-68899452D01*
X120862187Y-68899451D01*
X120862185Y-68899451D01*
X120634692Y-68869500D01*
X120634686Y-68869500D01*
X120405218Y-68869500D01*
X120405211Y-68869500D01*
X120177718Y-68899451D01*
X119956070Y-68958840D01*
X119744059Y-69046658D01*
X119545343Y-69161386D01*
X119545340Y-69161388D01*
X119477628Y-69213346D01*
X119368948Y-69271195D01*
X119247374Y-69290622D01*
X119126079Y-69269521D01*
X119022276Y-69213346D01*
X118954563Y-69161388D01*
X118954560Y-69161386D01*
X118755844Y-69046658D01*
X118755842Y-69046657D01*
X118755840Y-69046656D01*
X118543839Y-68958842D01*
X118543835Y-68958841D01*
X118543833Y-68958840D01*
X118425047Y-68927012D01*
X118322190Y-68899452D01*
X118322187Y-68899451D01*
X118322185Y-68899451D01*
X118094692Y-68869500D01*
X118094686Y-68869500D01*
X117865218Y-68869500D01*
X117865211Y-68869500D01*
X117637718Y-68899451D01*
X117416070Y-68958840D01*
X117204059Y-69046658D01*
X117005343Y-69161386D01*
X117005340Y-69161388D01*
X116937628Y-69213346D01*
X116828948Y-69271195D01*
X116707374Y-69290622D01*
X116586079Y-69269521D01*
X116482276Y-69213346D01*
X116414563Y-69161388D01*
X116414560Y-69161386D01*
X116215844Y-69046658D01*
X116215842Y-69046657D01*
X116215840Y-69046656D01*
X116003839Y-68958842D01*
X116003835Y-68958841D01*
X116003833Y-68958840D01*
X115885047Y-68927012D01*
X115782190Y-68899452D01*
X115782187Y-68899451D01*
X115782185Y-68899451D01*
X115554692Y-68869500D01*
X115554686Y-68869500D01*
X115325218Y-68869500D01*
X115325211Y-68869500D01*
X115097718Y-68899451D01*
X114876070Y-68958840D01*
X114664059Y-69046658D01*
X114465343Y-69161386D01*
X114465340Y-69161388D01*
X114397628Y-69213346D01*
X114288948Y-69271195D01*
X114167374Y-69290622D01*
X114046079Y-69269521D01*
X113942276Y-69213346D01*
X113874563Y-69161388D01*
X113874560Y-69161386D01*
X113675844Y-69046658D01*
X113675842Y-69046657D01*
X113675840Y-69046656D01*
X113463839Y-68958842D01*
X113463835Y-68958841D01*
X113463833Y-68958840D01*
X113345047Y-68927012D01*
X113242190Y-68899452D01*
X113242187Y-68899451D01*
X113242185Y-68899451D01*
X113014692Y-68869500D01*
X113014686Y-68869500D01*
X112785218Y-68869500D01*
X112785211Y-68869500D01*
X112557718Y-68899451D01*
X112336070Y-68958840D01*
X112124059Y-69046658D01*
X111925343Y-69161386D01*
X111925340Y-69161388D01*
X111857628Y-69213346D01*
X111748948Y-69271195D01*
X111627374Y-69290622D01*
X111506079Y-69269521D01*
X111402276Y-69213346D01*
X111334563Y-69161388D01*
X111334560Y-69161386D01*
X111135844Y-69046658D01*
X111135842Y-69046657D01*
X111135840Y-69046656D01*
X110923839Y-68958842D01*
X110923835Y-68958841D01*
X110923833Y-68958840D01*
X110805047Y-68927012D01*
X110702190Y-68899452D01*
X110702187Y-68899451D01*
X110702185Y-68899451D01*
X110474692Y-68869500D01*
X110474686Y-68869500D01*
X110245218Y-68869500D01*
X110245211Y-68869500D01*
X110017718Y-68899451D01*
X109796070Y-68958840D01*
X109584059Y-69046658D01*
X109385343Y-69161386D01*
X109385336Y-69161391D01*
X109203291Y-69301080D01*
X109177280Y-69327092D01*
X109077082Y-69398632D01*
X109021641Y-69415137D01*
X108819952Y-69498679D01*
X108819952Y-69689291D01*
X108799688Y-69810729D01*
X108790625Y-69832523D01*
X108791293Y-69832800D01*
X108698793Y-70056115D01*
X108639403Y-70277766D01*
X108609452Y-70505259D01*
X108609452Y-71734740D01*
X108639403Y-71962233D01*
X108639404Y-71962238D01*
X108698794Y-72183887D01*
X108786608Y-72395888D01*
X108791294Y-72407200D01*
X108788345Y-72408421D01*
X108816906Y-72503070D01*
X108819952Y-72550707D01*
X108819952Y-72741320D01*
X108988877Y-72811290D01*
X108989537Y-72811318D01*
X109104236Y-72856061D01*
X109177280Y-72912908D01*
X109203291Y-72938919D01*
X109385336Y-73078608D01*
X109385343Y-73078613D01*
X109464410Y-73124262D01*
X109584064Y-73193344D01*
X109796065Y-73281158D01*
X110017714Y-73340548D01*
X110245218Y-73370500D01*
X110245224Y-73370500D01*
X110474680Y-73370500D01*
X110474686Y-73370500D01*
X110702190Y-73340548D01*
X110923839Y-73281158D01*
X111135840Y-73193344D01*
X111334564Y-73078611D01*
X111402274Y-73026655D01*
X111510953Y-72968805D01*
X111632527Y-72949377D01*
X111753822Y-72970477D01*
X111857630Y-73026655D01*
X111925340Y-73078611D01*
X111925341Y-73078612D01*
X111925343Y-73078613D01*
X112004410Y-73124262D01*
X112124064Y-73193344D01*
X112336065Y-73281158D01*
X112557714Y-73340548D01*
X112785218Y-73370500D01*
X112785224Y-73370500D01*
X113014680Y-73370500D01*
X113014686Y-73370500D01*
X113242190Y-73340548D01*
X113463839Y-73281158D01*
X113675840Y-73193344D01*
X113874564Y-73078611D01*
X113942274Y-73026655D01*
X114050953Y-72968805D01*
X114172527Y-72949377D01*
X114293822Y-72970477D01*
X114397630Y-73026655D01*
X114465340Y-73078611D01*
X114465341Y-73078612D01*
X114465343Y-73078613D01*
X114544410Y-73124262D01*
X114664064Y-73193344D01*
X114876065Y-73281158D01*
X115097714Y-73340548D01*
X115325218Y-73370500D01*
X115325224Y-73370500D01*
X115554680Y-73370500D01*
X115554686Y-73370500D01*
X115782190Y-73340548D01*
X116003839Y-73281158D01*
X116215840Y-73193344D01*
X116414564Y-73078611D01*
X116482274Y-73026655D01*
X116590953Y-72968805D01*
X116712527Y-72949377D01*
X116833822Y-72970477D01*
X116937630Y-73026655D01*
X117005340Y-73078611D01*
X117005341Y-73078612D01*
X117005343Y-73078613D01*
X117084410Y-73124262D01*
X117204064Y-73193344D01*
X117416065Y-73281158D01*
X117637714Y-73340548D01*
X117865218Y-73370500D01*
X117865224Y-73370500D01*
X118094680Y-73370500D01*
X118094686Y-73370500D01*
X118322190Y-73340548D01*
X118543839Y-73281158D01*
X118755840Y-73193344D01*
X118954564Y-73078611D01*
X119022274Y-73026655D01*
X119130953Y-72968805D01*
X119252527Y-72949377D01*
X119373822Y-72970477D01*
X119477630Y-73026655D01*
X119545340Y-73078611D01*
X119545341Y-73078612D01*
X119545343Y-73078613D01*
X119624410Y-73124262D01*
X119744064Y-73193344D01*
X119956065Y-73281158D01*
X120177714Y-73340548D01*
X120405218Y-73370500D01*
X120405224Y-73370500D01*
X120634680Y-73370500D01*
X120634686Y-73370500D01*
X120862190Y-73340548D01*
X121083839Y-73281158D01*
X121295840Y-73193344D01*
X121494564Y-73078611D01*
X121562274Y-73026655D01*
X121670953Y-72968805D01*
X121792527Y-72949377D01*
X121913822Y-72970477D01*
X122017630Y-73026655D01*
X122085340Y-73078611D01*
X122085341Y-73078612D01*
X122085343Y-73078613D01*
X122164410Y-73124262D01*
X122284064Y-73193344D01*
X122496065Y-73281158D01*
X122717714Y-73340548D01*
X122945218Y-73370500D01*
X122945224Y-73370500D01*
X123174680Y-73370500D01*
X123174686Y-73370500D01*
X123402190Y-73340548D01*
X123623839Y-73281158D01*
X123835840Y-73193344D01*
X124034564Y-73078611D01*
X124102274Y-73026655D01*
X124210953Y-72968805D01*
X124332527Y-72949377D01*
X124453822Y-72970477D01*
X124557630Y-73026655D01*
X124625340Y-73078611D01*
X124625341Y-73078612D01*
X124625343Y-73078613D01*
X124704410Y-73124262D01*
X124824064Y-73193344D01*
X124856862Y-73206929D01*
X124961299Y-73272121D01*
X125038911Y-73367694D01*
X125081285Y-73483289D01*
X125083830Y-73606379D01*
X125046269Y-73723627D01*
X124972674Y-73822325D01*
X124871018Y-73891780D01*
X124772248Y-73921854D01*
X124742300Y-73926597D01*
X124636424Y-73960999D01*
X124577555Y-73980127D01*
X124577552Y-73980128D01*
X124577550Y-73980129D01*
X124423210Y-74058768D01*
X124283077Y-74160581D01*
X124160581Y-74283077D01*
X124058768Y-74423210D01*
X123980129Y-74577550D01*
X123926598Y-74742298D01*
X123899500Y-74913392D01*
X123899500Y-88525500D01*
X123879236Y-88646938D01*
X123820639Y-88755216D01*
X123730059Y-88838600D01*
X123617312Y-88888056D01*
X123525500Y-88899500D01*
X106086611Y-88899500D01*
X105913389Y-88899500D01*
X105776517Y-88921178D01*
X105742298Y-88926598D01*
X105665860Y-88951434D01*
X105577555Y-88980127D01*
X105577552Y-88980128D01*
X105577550Y-88980129D01*
X105423210Y-89058768D01*
X105283077Y-89160581D01*
X105160581Y-89283077D01*
X105058768Y-89423210D01*
X104980129Y-89577550D01*
X104980128Y-89577552D01*
X104980127Y-89577555D01*
X104926598Y-89742299D01*
X104899500Y-89913389D01*
X101460500Y-89913389D01*
X101460500Y-68413389D01*
X102899500Y-68413389D01*
X102899500Y-79913389D01*
X102899500Y-80086611D01*
X102926598Y-80257701D01*
X102980127Y-80422445D01*
X102980128Y-80422448D01*
X102980129Y-80422449D01*
X103058768Y-80576789D01*
X103160581Y-80716922D01*
X103160583Y-80716924D01*
X103160586Y-80716928D01*
X107283072Y-84839414D01*
X107423212Y-84941232D01*
X107577554Y-85019873D01*
X107742299Y-85073402D01*
X107913389Y-85100500D01*
X107913393Y-85100500D01*
X110476607Y-85100500D01*
X110476611Y-85100500D01*
X110647701Y-85073402D01*
X110812445Y-85019873D01*
X110812460Y-85019865D01*
X110826019Y-85014250D01*
X110826701Y-85015898D01*
X110927127Y-84984186D01*
X110979511Y-84980499D01*
X111710006Y-84980499D01*
X111710008Y-84980499D01*
X111812797Y-84969999D01*
X111979334Y-84914814D01*
X112128656Y-84822712D01*
X112211326Y-84740042D01*
X112311524Y-84668502D01*
X112429523Y-84633372D01*
X112475784Y-84630500D01*
X117244216Y-84630500D01*
X117365654Y-84650764D01*
X117473932Y-84709361D01*
X117508674Y-84740042D01*
X117591344Y-84822712D01*
X117740666Y-84914814D01*
X117907203Y-84969999D01*
X118009991Y-84980500D01*
X119710008Y-84980499D01*
X119812797Y-84969999D01*
X119979334Y-84914814D01*
X120128656Y-84822712D01*
X120252712Y-84698656D01*
X120344814Y-84549334D01*
X120399999Y-84382797D01*
X120410500Y-84280009D01*
X120410499Y-82779992D01*
X120399999Y-82677203D01*
X120387621Y-82639849D01*
X120344815Y-82510668D01*
X120344482Y-82510127D01*
X120252712Y-82361344D01*
X120128656Y-82237288D01*
X119979334Y-82145186D01*
X119812797Y-82090001D01*
X119812794Y-82090000D01*
X119812790Y-82090000D01*
X119710012Y-82079500D01*
X118009994Y-82079500D01*
X117907200Y-82090001D01*
X117740668Y-82145184D01*
X117591346Y-82237286D01*
X117591342Y-82237289D01*
X117508674Y-82319958D01*
X117408476Y-82391498D01*
X117290477Y-82426628D01*
X117244216Y-82429500D01*
X112475784Y-82429500D01*
X112354346Y-82409236D01*
X112246068Y-82350639D01*
X112211326Y-82319958D01*
X112128657Y-82237289D01*
X112128653Y-82237286D01*
X111979334Y-82145186D01*
X111979328Y-82145184D01*
X111812797Y-82090001D01*
X111812794Y-82090000D01*
X111812790Y-82090000D01*
X111710012Y-82079500D01*
X110009994Y-82079500D01*
X109907200Y-82090001D01*
X109740668Y-82145184D01*
X109591346Y-82237286D01*
X109591342Y-82237289D01*
X109467289Y-82361342D01*
X109467286Y-82361346D01*
X109375186Y-82510665D01*
X109375186Y-82510666D01*
X109331287Y-82643143D01*
X109273855Y-82752039D01*
X109184174Y-82836390D01*
X109071964Y-82887051D01*
X108976272Y-82899500D01*
X108610758Y-82899500D01*
X108489320Y-82879236D01*
X108381042Y-82820639D01*
X108346300Y-82789958D01*
X105334171Y-79777829D01*
X109560000Y-79777829D01*
X109566401Y-79837371D01*
X109566403Y-79837381D01*
X109616646Y-79972087D01*
X109616647Y-79972088D01*
X109702811Y-80087188D01*
X109817911Y-80173352D01*
X109817912Y-80173353D01*
X109952618Y-80223596D01*
X109952628Y-80223598D01*
X110012171Y-80230000D01*
X110160000Y-80230000D01*
X111560000Y-80230000D01*
X111707829Y-80230000D01*
X111767371Y-80223598D01*
X111767381Y-80223596D01*
X111902087Y-80173353D01*
X111902088Y-80173352D01*
X112017188Y-80087188D01*
X112103352Y-79972088D01*
X112103353Y-79972087D01*
X112153596Y-79837381D01*
X112153598Y-79837371D01*
X112160000Y-79777829D01*
X117560000Y-79777829D01*
X117566401Y-79837371D01*
X117566403Y-79837381D01*
X117616646Y-79972087D01*
X117616647Y-79972088D01*
X117702811Y-80087188D01*
X117817911Y-80173352D01*
X117817912Y-80173353D01*
X117952618Y-80223596D01*
X117952628Y-80223598D01*
X118012171Y-80230000D01*
X118160000Y-80230000D01*
X119560000Y-80230000D01*
X119707829Y-80230000D01*
X119767371Y-80223598D01*
X119767381Y-80223596D01*
X119902087Y-80173353D01*
X119902088Y-80173352D01*
X120017188Y-80087188D01*
X120103352Y-79972088D01*
X120103353Y-79972087D01*
X120153596Y-79837381D01*
X120153598Y-79837371D01*
X120160000Y-79777829D01*
X120160000Y-79730000D01*
X119560000Y-79730000D01*
X119560000Y-80230000D01*
X118160000Y-80230000D01*
X118160000Y-79730000D01*
X117560000Y-79730000D01*
X117560000Y-79777829D01*
X112160000Y-79777829D01*
X112160000Y-79730000D01*
X111560000Y-79730000D01*
X111560000Y-80230000D01*
X110160000Y-80230000D01*
X110160000Y-79730000D01*
X109560000Y-79730000D01*
X109560000Y-79777829D01*
X105334171Y-79777829D01*
X105210042Y-79653700D01*
X105138502Y-79553502D01*
X105103372Y-79435503D01*
X105100500Y-79389242D01*
X105100500Y-78282170D01*
X109560000Y-78282170D01*
X109560000Y-78330000D01*
X110160000Y-78330000D01*
X111560000Y-78330000D01*
X112160000Y-78330000D01*
X112160000Y-78282170D01*
X117560000Y-78282170D01*
X117560000Y-78330000D01*
X118160000Y-78330000D01*
X119560000Y-78330000D01*
X120160000Y-78330000D01*
X120160000Y-78282170D01*
X120153598Y-78222628D01*
X120153596Y-78222618D01*
X120103353Y-78087912D01*
X120103352Y-78087911D01*
X120017188Y-77972811D01*
X119902088Y-77886647D01*
X119902087Y-77886646D01*
X119767381Y-77836403D01*
X119767371Y-77836401D01*
X119707829Y-77830000D01*
X119560000Y-77830000D01*
X119560000Y-78330000D01*
X118160000Y-78330000D01*
X118160000Y-77830000D01*
X118012171Y-77830000D01*
X117952628Y-77836401D01*
X117952618Y-77836403D01*
X117817912Y-77886646D01*
X117817911Y-77886647D01*
X117702811Y-77972811D01*
X117616647Y-78087911D01*
X117616646Y-78087912D01*
X117566403Y-78222618D01*
X117566401Y-78222628D01*
X117560000Y-78282170D01*
X112160000Y-78282170D01*
X112153598Y-78222628D01*
X112153596Y-78222618D01*
X112103353Y-78087912D01*
X112103352Y-78087911D01*
X112017188Y-77972811D01*
X111902088Y-77886647D01*
X111902087Y-77886646D01*
X111767381Y-77836403D01*
X111767371Y-77836401D01*
X111707829Y-77830000D01*
X111560000Y-77830000D01*
X111560000Y-78330000D01*
X110160000Y-78330000D01*
X110160000Y-77830000D01*
X110012171Y-77830000D01*
X109952628Y-77836401D01*
X109952618Y-77836403D01*
X109817912Y-77886646D01*
X109817911Y-77886647D01*
X109702811Y-77972811D01*
X109616647Y-78087911D01*
X109616646Y-78087912D01*
X109566403Y-78222618D01*
X109566401Y-78222628D01*
X109560000Y-78282170D01*
X105100500Y-78282170D01*
X105100500Y-72120000D01*
X106405219Y-72120000D01*
X106429849Y-72195802D01*
X106537036Y-72406169D01*
X106537040Y-72406176D01*
X106675811Y-72597178D01*
X106675819Y-72597187D01*
X106819952Y-72741320D01*
X106819952Y-72120000D01*
X106405219Y-72120000D01*
X105100500Y-72120000D01*
X105100500Y-71069840D01*
X107438952Y-71069840D01*
X107438952Y-71170160D01*
X107464916Y-71267061D01*
X107515076Y-71353940D01*
X107586012Y-71424876D01*
X107672891Y-71475036D01*
X107769792Y-71501000D01*
X107870112Y-71501000D01*
X107967013Y-71475036D01*
X108053892Y-71424876D01*
X108124828Y-71353940D01*
X108174988Y-71267061D01*
X108200952Y-71170160D01*
X108200952Y-71069840D01*
X108174988Y-70972939D01*
X108124828Y-70886060D01*
X108053892Y-70815124D01*
X107967013Y-70764964D01*
X107870112Y-70739000D01*
X107769792Y-70739000D01*
X107672891Y-70764964D01*
X107586012Y-70815124D01*
X107515076Y-70886060D01*
X107464916Y-70972939D01*
X107438952Y-71069840D01*
X105100500Y-71069840D01*
X105100500Y-70120000D01*
X106405219Y-70120000D01*
X106819952Y-70120000D01*
X106819952Y-69498680D01*
X106675819Y-69642812D01*
X106675811Y-69642821D01*
X106537040Y-69833823D01*
X106537036Y-69833830D01*
X106429849Y-70044197D01*
X106405219Y-70120000D01*
X105100500Y-70120000D01*
X105100500Y-69110758D01*
X105120764Y-68989320D01*
X105179361Y-68881042D01*
X105210042Y-68846300D01*
X107846300Y-66210042D01*
X107946498Y-66138502D01*
X108064497Y-66103372D01*
X108110758Y-66100500D01*
X117028507Y-66100500D01*
X117028511Y-66100500D01*
X117199601Y-66073402D01*
X117364345Y-66019873D01*
X117518688Y-65941232D01*
X117658828Y-65839414D01*
X127788200Y-55710042D01*
X127888398Y-55638502D01*
X128006397Y-55603372D01*
X128052658Y-55600500D01*
X132586607Y-55600500D01*
X132586611Y-55600500D01*
X132757701Y-55573402D01*
X132922445Y-55519873D01*
X133076788Y-55441232D01*
X133216928Y-55339414D01*
X134059414Y-54496928D01*
X134161232Y-54356788D01*
X134239873Y-54202445D01*
X134293402Y-54037701D01*
X134320500Y-53866611D01*
X134320500Y-53693389D01*
X134320500Y-50598022D01*
X134340764Y-50476584D01*
X134399361Y-50368306D01*
X134489941Y-50284922D01*
X134602688Y-50235466D01*
X134725385Y-50225299D01*
X134844734Y-50255523D01*
X134881500Y-50274129D01*
X134984056Y-50333340D01*
X134984059Y-50333341D01*
X134984064Y-50333344D01*
X135196065Y-50421158D01*
X135417714Y-50480548D01*
X135645218Y-50510500D01*
X135645224Y-50510500D01*
X135874680Y-50510500D01*
X135874686Y-50510500D01*
X136102190Y-50480548D01*
X136323839Y-50421158D01*
X136535840Y-50333344D01*
X136734564Y-50218611D01*
X136802274Y-50166655D01*
X136910953Y-50108805D01*
X137032527Y-50089377D01*
X137153822Y-50110477D01*
X137257630Y-50166655D01*
X137325340Y-50218611D01*
X137325341Y-50218612D01*
X137325343Y-50218613D01*
X137397028Y-50260000D01*
X137524064Y-50333344D01*
X137736065Y-50421158D01*
X137957714Y-50480548D01*
X138185218Y-50510500D01*
X138185224Y-50510500D01*
X138414680Y-50510500D01*
X138414686Y-50510500D01*
X138642190Y-50480548D01*
X138863839Y-50421158D01*
X139075840Y-50333344D01*
X139274564Y-50218611D01*
X139342274Y-50166655D01*
X139450953Y-50108805D01*
X139572527Y-50089377D01*
X139693822Y-50110477D01*
X139797630Y-50166655D01*
X139865340Y-50218611D01*
X139865341Y-50218612D01*
X139865343Y-50218613D01*
X139937028Y-50260000D01*
X140064064Y-50333344D01*
X140276065Y-50421158D01*
X140497714Y-50480548D01*
X140725218Y-50510500D01*
X140725224Y-50510500D01*
X140954680Y-50510500D01*
X140954686Y-50510500D01*
X141182190Y-50480548D01*
X141403839Y-50421158D01*
X141615840Y-50333344D01*
X141814564Y-50218611D01*
X141882274Y-50166655D01*
X141990953Y-50108805D01*
X142112527Y-50089377D01*
X142233822Y-50110477D01*
X142337630Y-50166655D01*
X142405340Y-50218611D01*
X142405341Y-50218612D01*
X142405343Y-50218613D01*
X142477028Y-50260000D01*
X142604064Y-50333344D01*
X142816065Y-50421158D01*
X143037714Y-50480548D01*
X143265218Y-50510500D01*
X143265224Y-50510500D01*
X143494680Y-50510500D01*
X143494686Y-50510500D01*
X143722190Y-50480548D01*
X143943839Y-50421158D01*
X144155840Y-50333344D01*
X144354564Y-50218611D01*
X144422274Y-50166655D01*
X144530953Y-50108805D01*
X144652527Y-50089377D01*
X144773822Y-50110477D01*
X144877630Y-50166655D01*
X144945340Y-50218611D01*
X144945341Y-50218612D01*
X144945343Y-50218613D01*
X145017028Y-50260000D01*
X145144064Y-50333344D01*
X145356065Y-50421158D01*
X145577714Y-50480548D01*
X145805218Y-50510500D01*
X145805224Y-50510500D01*
X146034680Y-50510500D01*
X146034686Y-50510500D01*
X146262190Y-50480548D01*
X146483839Y-50421158D01*
X146695840Y-50333344D01*
X146798503Y-50274071D01*
X146913799Y-50230903D01*
X147036869Y-50227511D01*
X147154372Y-50264262D01*
X147253576Y-50337176D01*
X147323729Y-50438350D01*
X147357230Y-50556822D01*
X147359500Y-50597966D01*
X147359500Y-54873389D01*
X147359500Y-55046611D01*
X147386598Y-55217701D01*
X147440127Y-55382445D01*
X147440128Y-55382448D01*
X147440129Y-55382449D01*
X147518768Y-55536789D01*
X147620581Y-55676922D01*
X147620583Y-55676924D01*
X147620586Y-55676928D01*
X149660586Y-57716928D01*
X149783072Y-57839414D01*
X149783075Y-57839416D01*
X149783077Y-57839418D01*
X149923210Y-57941231D01*
X149923212Y-57941232D01*
X150077555Y-58019873D01*
X150242299Y-58073402D01*
X150413389Y-58100500D01*
X150413390Y-58100500D01*
X150413393Y-58100500D01*
X158086607Y-58100500D01*
X158086611Y-58100500D01*
X158257701Y-58073402D01*
X158422445Y-58019873D01*
X158576788Y-57941232D01*
X158716928Y-57839414D01*
X158839414Y-57716928D01*
X158941232Y-57576788D01*
X159019873Y-57422445D01*
X159073402Y-57257701D01*
X159100500Y-57086611D01*
X159100500Y-41163389D01*
X159073402Y-40992299D01*
X159019873Y-40827555D01*
X158941232Y-40673212D01*
X158907688Y-40627043D01*
X158839418Y-40533077D01*
X158839416Y-40533075D01*
X158839414Y-40533072D01*
X158716928Y-40410586D01*
X156660041Y-38353699D01*
X156588501Y-38253501D01*
X156553371Y-38135502D01*
X156550499Y-38089241D01*
X156550499Y-37499994D01*
X156550498Y-37499987D01*
X156539999Y-37397203D01*
X156510411Y-37307911D01*
X156484815Y-37230668D01*
X156434751Y-37149500D01*
X156392712Y-37081344D01*
X156268656Y-36957288D01*
X156119334Y-36865186D01*
X155952797Y-36810001D01*
X155952794Y-36810000D01*
X155952790Y-36810000D01*
X155850012Y-36799500D01*
X154149994Y-36799500D01*
X154047200Y-36810001D01*
X153880668Y-36865184D01*
X153731346Y-36957286D01*
X153731342Y-36957289D01*
X153607289Y-37081342D01*
X153607286Y-37081346D01*
X153515186Y-37230665D01*
X153460001Y-37397203D01*
X153460000Y-37397209D01*
X153449500Y-37499987D01*
X153449500Y-39000005D01*
X153460001Y-39102799D01*
X153515184Y-39269331D01*
X153548535Y-39323401D01*
X153607288Y-39418656D01*
X153731344Y-39542712D01*
X153880666Y-39634814D01*
X154047203Y-39689999D01*
X154149991Y-39700500D01*
X154739241Y-39700499D01*
X154860678Y-39720763D01*
X154968956Y-39779360D01*
X155003699Y-39810041D01*
X156789958Y-41596300D01*
X156861498Y-41696498D01*
X156896628Y-41814497D01*
X156899500Y-41860758D01*
X156899500Y-55525500D01*
X156879236Y-55646938D01*
X156820639Y-55755216D01*
X156730059Y-55838600D01*
X156617312Y-55888056D01*
X156525500Y-55899500D01*
X151110758Y-55899500D01*
X150989320Y-55879236D01*
X150881042Y-55820639D01*
X150846300Y-55789958D01*
X149670042Y-54613700D01*
X149598502Y-54513502D01*
X149563372Y-54395503D01*
X149560500Y-54349242D01*
X149560500Y-50598022D01*
X149580764Y-50476584D01*
X149639361Y-50368306D01*
X149729941Y-50284922D01*
X149842688Y-50235466D01*
X149965385Y-50225299D01*
X150084734Y-50255523D01*
X150121500Y-50274129D01*
X150224056Y-50333340D01*
X150224059Y-50333341D01*
X150224064Y-50333344D01*
X150436065Y-50421158D01*
X150657714Y-50480548D01*
X150885218Y-50510500D01*
X150885224Y-50510500D01*
X151114680Y-50510500D01*
X151114686Y-50510500D01*
X151342190Y-50480548D01*
X151563839Y-50421158D01*
X151775840Y-50333344D01*
X151974564Y-50218611D01*
X152156613Y-50078919D01*
X152318871Y-49916661D01*
X152458563Y-49734612D01*
X152573296Y-49535888D01*
X152661110Y-49323887D01*
X152720500Y-49102238D01*
X152750452Y-48874734D01*
X152750452Y-47645266D01*
X152720500Y-47417762D01*
X152661110Y-47196113D01*
X152573296Y-46984112D01*
X152539207Y-46925068D01*
X152458565Y-46785391D01*
X152458560Y-46785384D01*
X152318871Y-46603339D01*
X152210042Y-46494510D01*
X152138502Y-46394312D01*
X152103372Y-46276313D01*
X152100500Y-46230052D01*
X152100500Y-34497829D01*
X153700000Y-34497829D01*
X153706401Y-34557371D01*
X153706403Y-34557381D01*
X153756646Y-34692087D01*
X153756647Y-34692088D01*
X153842811Y-34807188D01*
X153957911Y-34893352D01*
X153957912Y-34893353D01*
X154092618Y-34943596D01*
X154092628Y-34943598D01*
X154152171Y-34950000D01*
X154300000Y-34950000D01*
X155700000Y-34950000D01*
X155847829Y-34950000D01*
X155907371Y-34943598D01*
X155907381Y-34943596D01*
X156042087Y-34893353D01*
X156042088Y-34893352D01*
X156157188Y-34807188D01*
X156243352Y-34692088D01*
X156243353Y-34692087D01*
X156293596Y-34557381D01*
X156293598Y-34557371D01*
X156300000Y-34497829D01*
X156300000Y-34450000D01*
X155700000Y-34450000D01*
X155700000Y-34950000D01*
X154300000Y-34950000D01*
X154300000Y-34450000D01*
X153700000Y-34450000D01*
X153700000Y-34497829D01*
X152100500Y-34497829D01*
X152100500Y-33002170D01*
X153700000Y-33002170D01*
X153700000Y-33050000D01*
X154300000Y-33050000D01*
X155700000Y-33050000D01*
X156300000Y-33050000D01*
X156300000Y-33002170D01*
X156293598Y-32942628D01*
X156293596Y-32942618D01*
X156243353Y-32807912D01*
X156243352Y-32807911D01*
X156157188Y-32692811D01*
X156042088Y-32606647D01*
X156042087Y-32606646D01*
X155907381Y-32556403D01*
X155907371Y-32556401D01*
X155847829Y-32550000D01*
X155700000Y-32550000D01*
X155700000Y-33050000D01*
X154300000Y-33050000D01*
X154300000Y-32550000D01*
X154152171Y-32550000D01*
X154092628Y-32556401D01*
X154092618Y-32556403D01*
X153957912Y-32606646D01*
X153957911Y-32606647D01*
X153842811Y-32692811D01*
X153756647Y-32807911D01*
X153756646Y-32807912D01*
X153706403Y-32942618D01*
X153706401Y-32942628D01*
X153700000Y-33002170D01*
X152100500Y-33002170D01*
X152100500Y-29405519D01*
X164299500Y-29405519D01*
X164299500Y-29594481D01*
X164315666Y-29696550D01*
X164329059Y-29781115D01*
X164329060Y-29781120D01*
X164367006Y-29897906D01*
X164387453Y-29960832D01*
X164473240Y-30129199D01*
X164584310Y-30282073D01*
X164717927Y-30415690D01*
X164870801Y-30526760D01*
X165039168Y-30612547D01*
X165218882Y-30670940D01*
X165405519Y-30700500D01*
X165405523Y-30700500D01*
X165594477Y-30700500D01*
X165594481Y-30700500D01*
X165781118Y-30670940D01*
X165960832Y-30612547D01*
X166129199Y-30526760D01*
X166282073Y-30415690D01*
X166415690Y-30282073D01*
X166526760Y-30129199D01*
X166612547Y-29960832D01*
X166670940Y-29781118D01*
X166700500Y-29594481D01*
X166700500Y-29405519D01*
X166670940Y-29218882D01*
X166612547Y-29039168D01*
X166526760Y-28870801D01*
X166415690Y-28717927D01*
X166282073Y-28584310D01*
X166129199Y-28473240D01*
X165960832Y-28387453D01*
X165897906Y-28367006D01*
X165781120Y-28329060D01*
X165781115Y-28329059D01*
X165696550Y-28315666D01*
X165594481Y-28299500D01*
X165405519Y-28299500D01*
X165315726Y-28313721D01*
X165218884Y-28329059D01*
X165218879Y-28329060D01*
X165039165Y-28387454D01*
X164870800Y-28473240D01*
X164717932Y-28584306D01*
X164717923Y-28584313D01*
X164584313Y-28717923D01*
X164584306Y-28717932D01*
X164473240Y-28870800D01*
X164387454Y-29039165D01*
X164329060Y-29218879D01*
X164329059Y-29218884D01*
X164311624Y-29328966D01*
X164299500Y-29405519D01*
X152100500Y-29405519D01*
X152100500Y-28913392D01*
X152100500Y-28913389D01*
X152073402Y-28742299D01*
X152019873Y-28577555D01*
X151941232Y-28423212D01*
X151915252Y-28387454D01*
X151839418Y-28283077D01*
X151839416Y-28283075D01*
X151839414Y-28283072D01*
X151716928Y-28160586D01*
X151716924Y-28160583D01*
X151716922Y-28160581D01*
X151576789Y-28058768D01*
X151422449Y-27980129D01*
X151422448Y-27980128D01*
X151422445Y-27980127D01*
X151257701Y-27926598D01*
X151086611Y-27899500D01*
X137086611Y-27899500D01*
X136913389Y-27899500D01*
X136776517Y-27921178D01*
X136742298Y-27926598D01*
X136665860Y-27951434D01*
X136577555Y-27980127D01*
X136577552Y-27980128D01*
X136577550Y-27980129D01*
X136423210Y-28058768D01*
X136283077Y-28160581D01*
X136160581Y-28283077D01*
X136058768Y-28423210D01*
X135980129Y-28577550D01*
X135980128Y-28577552D01*
X135980127Y-28577555D01*
X135926598Y-28742299D01*
X135906246Y-28870801D01*
X135899500Y-28913392D01*
X135899500Y-40025500D01*
X135879236Y-40146938D01*
X135820639Y-40255216D01*
X135730059Y-40338600D01*
X135617312Y-40388056D01*
X135525500Y-40399500D01*
X126474500Y-40399500D01*
X126353062Y-40379236D01*
X126244784Y-40320639D01*
X126161400Y-40230059D01*
X126111944Y-40117312D01*
X126100500Y-40025500D01*
X126100500Y-39855168D01*
X126120764Y-39733730D01*
X126179361Y-39625452D01*
X126252830Y-39557819D01*
X126251568Y-39556223D01*
X126268649Y-39542716D01*
X126268656Y-39542712D01*
X126392712Y-39418656D01*
X126484814Y-39269334D01*
X126539999Y-39102797D01*
X126550500Y-39000009D01*
X126550499Y-37499992D01*
X126539999Y-37397203D01*
X126510411Y-37307911D01*
X126484815Y-37230668D01*
X126434751Y-37149500D01*
X126392712Y-37081344D01*
X126268656Y-36957288D01*
X126119334Y-36865186D01*
X125952797Y-36810001D01*
X125952794Y-36810000D01*
X125952790Y-36810000D01*
X125850012Y-36799500D01*
X124149994Y-36799500D01*
X124047200Y-36810001D01*
X123859989Y-36872037D01*
X123859563Y-36870754D01*
X123763602Y-36897415D01*
X123724165Y-36899500D01*
X119488610Y-36899500D01*
X119315389Y-36899500D01*
X119144299Y-36926598D01*
X119144296Y-36926599D01*
X118979551Y-36980128D01*
X118825210Y-37058769D01*
X118825206Y-37058771D01*
X118820051Y-37062517D01*
X118814892Y-37065091D01*
X118812681Y-37066447D01*
X118812563Y-37066254D01*
X118709894Y-37117500D01*
X118587853Y-37133736D01*
X118467152Y-37109466D01*
X118360872Y-37047319D01*
X118335767Y-37024399D01*
X118268657Y-36957289D01*
X118268653Y-36957286D01*
X118119334Y-36865186D01*
X118119328Y-36865184D01*
X117952797Y-36810001D01*
X117952794Y-36810000D01*
X117952790Y-36810000D01*
X117850012Y-36799500D01*
X116149994Y-36799500D01*
X116047200Y-36810001D01*
X115880668Y-36865184D01*
X115731346Y-36957286D01*
X115731342Y-36957289D01*
X115607289Y-37081342D01*
X115607286Y-37081346D01*
X115515186Y-37230665D01*
X115460001Y-37397203D01*
X115460000Y-37397209D01*
X115449500Y-37499987D01*
X115449500Y-39000005D01*
X115460001Y-39102799D01*
X115515184Y-39269331D01*
X115548535Y-39323401D01*
X115607288Y-39418656D01*
X115731344Y-39542712D01*
X115880666Y-39634814D01*
X116047203Y-39689999D01*
X116149991Y-39700500D01*
X117850008Y-39700499D01*
X117952797Y-39689999D01*
X118119334Y-39634814D01*
X118268656Y-39542712D01*
X118351326Y-39460042D01*
X118451524Y-39388502D01*
X118569523Y-39353372D01*
X118615784Y-39350500D01*
X119238607Y-39350500D01*
X119238611Y-39350500D01*
X119409701Y-39323402D01*
X119574445Y-39269873D01*
X119728788Y-39191232D01*
X119755360Y-39171925D01*
X119865517Y-39116942D01*
X119975190Y-39100500D01*
X123202311Y-39100500D01*
X123323749Y-39120764D01*
X123432027Y-39179361D01*
X123515411Y-39269941D01*
X123520629Y-39278160D01*
X123579586Y-39373744D01*
X123607288Y-39418656D01*
X123731344Y-39542712D01*
X123731346Y-39542713D01*
X123748432Y-39556223D01*
X123746627Y-39558505D01*
X123814551Y-39617838D01*
X123875950Y-39724552D01*
X123899373Y-39845420D01*
X123899500Y-39855168D01*
X123899500Y-41413389D01*
X123899500Y-41586611D01*
X123926598Y-41757701D01*
X123980127Y-41922445D01*
X123980128Y-41922448D01*
X123980129Y-41922449D01*
X124058768Y-42076789D01*
X124160581Y-42216922D01*
X124160583Y-42216924D01*
X124160586Y-42216928D01*
X124283072Y-42339414D01*
X124283075Y-42339416D01*
X124283077Y-42339418D01*
X124423210Y-42441231D01*
X124423212Y-42441232D01*
X124577555Y-42519873D01*
X124742299Y-42573402D01*
X124913389Y-42600500D01*
X124913393Y-42600500D01*
X137086607Y-42600500D01*
X137086611Y-42600500D01*
X137257701Y-42573402D01*
X137422445Y-42519873D01*
X137576788Y-42441232D01*
X137716928Y-42339414D01*
X137839414Y-42216928D01*
X137941232Y-42076788D01*
X138019873Y-41922445D01*
X138073402Y-41757701D01*
X138100500Y-41586611D01*
X138100500Y-37587141D01*
X138120764Y-37465703D01*
X138179361Y-37357425D01*
X138269941Y-37274041D01*
X138382688Y-37224585D01*
X138505385Y-37214418D01*
X138624734Y-37244642D01*
X138727803Y-37311980D01*
X138798394Y-37400142D01*
X138841386Y-37474608D01*
X138841391Y-37474615D01*
X138981080Y-37656660D01*
X139143339Y-37818919D01*
X139325384Y-37958608D01*
X139325391Y-37958613D01*
X139342788Y-37968657D01*
X139524112Y-38073344D01*
X139736113Y-38161158D01*
X139957762Y-38220548D01*
X140185266Y-38250500D01*
X140185272Y-38250500D01*
X140414728Y-38250500D01*
X140414734Y-38250500D01*
X140642238Y-38220548D01*
X140863887Y-38161158D01*
X141075888Y-38073344D01*
X141274612Y-37958611D01*
X141456661Y-37818919D01*
X141618919Y-37656661D01*
X141758611Y-37474612D01*
X141873344Y-37275888D01*
X141961158Y-37063887D01*
X142020548Y-36842238D01*
X142050500Y-36614734D01*
X142050500Y-35385266D01*
X142020548Y-35157762D01*
X141961158Y-34936113D01*
X141873344Y-34724112D01*
X141803303Y-34602797D01*
X141758613Y-34525391D01*
X141758608Y-34525384D01*
X141737464Y-34497829D01*
X145700000Y-34497829D01*
X145706401Y-34557371D01*
X145706403Y-34557381D01*
X145756646Y-34692087D01*
X145756647Y-34692088D01*
X145842811Y-34807188D01*
X145957911Y-34893352D01*
X145957912Y-34893353D01*
X146092618Y-34943596D01*
X146092628Y-34943598D01*
X146152171Y-34950000D01*
X146300000Y-34950000D01*
X147700000Y-34950000D01*
X147847829Y-34950000D01*
X147907371Y-34943598D01*
X147907381Y-34943596D01*
X148042087Y-34893353D01*
X148042088Y-34893352D01*
X148157188Y-34807188D01*
X148243352Y-34692088D01*
X148243353Y-34692087D01*
X148293596Y-34557381D01*
X148293598Y-34557371D01*
X148300000Y-34497829D01*
X148300000Y-34450000D01*
X147700000Y-34450000D01*
X147700000Y-34950000D01*
X146300000Y-34950000D01*
X146300000Y-34450000D01*
X145700000Y-34450000D01*
X145700000Y-34497829D01*
X141737464Y-34497829D01*
X141618919Y-34343339D01*
X141456660Y-34181080D01*
X141274615Y-34041391D01*
X141274608Y-34041386D01*
X141075892Y-33926658D01*
X141075890Y-33926657D01*
X141075888Y-33926656D01*
X140863887Y-33838842D01*
X140863883Y-33838841D01*
X140863881Y-33838840D01*
X140745095Y-33807012D01*
X140642238Y-33779452D01*
X140642235Y-33779451D01*
X140642233Y-33779451D01*
X140414740Y-33749500D01*
X140414734Y-33749500D01*
X140185266Y-33749500D01*
X140185259Y-33749500D01*
X139957766Y-33779451D01*
X139736118Y-33838840D01*
X139524107Y-33926658D01*
X139325391Y-34041386D01*
X139325384Y-34041391D01*
X139143339Y-34181080D01*
X138981080Y-34343339D01*
X138841391Y-34525384D01*
X138841383Y-34525397D01*
X138798393Y-34599858D01*
X138720125Y-34694894D01*
X138615239Y-34759367D01*
X138495103Y-34786290D01*
X138372733Y-34772746D01*
X138261392Y-34720203D01*
X138173144Y-34634354D01*
X138117552Y-34524502D01*
X138100500Y-34412858D01*
X138100500Y-33002170D01*
X145700000Y-33002170D01*
X145700000Y-33050000D01*
X146300000Y-33050000D01*
X147700000Y-33050000D01*
X148300000Y-33050000D01*
X148300000Y-33002170D01*
X148293598Y-32942628D01*
X148293596Y-32942618D01*
X148243353Y-32807912D01*
X148243352Y-32807911D01*
X148157188Y-32692811D01*
X148042088Y-32606647D01*
X148042087Y-32606646D01*
X147907381Y-32556403D01*
X147907371Y-32556401D01*
X147847829Y-32550000D01*
X147700000Y-32550000D01*
X147700000Y-33050000D01*
X146300000Y-33050000D01*
X146300000Y-32550000D01*
X146152171Y-32550000D01*
X146092628Y-32556401D01*
X146092618Y-32556403D01*
X145957912Y-32606646D01*
X145957911Y-32606647D01*
X145842811Y-32692811D01*
X145756647Y-32807911D01*
X145756646Y-32807912D01*
X145706403Y-32942618D01*
X145706401Y-32942628D01*
X145700000Y-33002170D01*
X138100500Y-33002170D01*
X138100500Y-30474500D01*
X138120764Y-30353062D01*
X138179361Y-30244784D01*
X138269941Y-30161400D01*
X138382688Y-30111944D01*
X138474500Y-30100500D01*
X149525500Y-30100500D01*
X149646938Y-30120764D01*
X149755216Y-30179361D01*
X149838600Y-30269941D01*
X149888056Y-30382688D01*
X149899500Y-30474500D01*
X149899500Y-40741942D01*
X149879236Y-40863380D01*
X149820639Y-40971658D01*
X149730059Y-41055042D01*
X149617312Y-41104498D01*
X149494615Y-41114665D01*
X149375266Y-41084441D01*
X149272197Y-41017103D01*
X149261042Y-41006400D01*
X148297463Y-40042821D01*
X148225923Y-39942623D01*
X148190793Y-39824624D01*
X148195881Y-39701612D01*
X148240635Y-39586918D01*
X148297463Y-39513905D01*
X148329346Y-39482022D01*
X148392712Y-39418656D01*
X148484814Y-39269334D01*
X148539999Y-39102797D01*
X148550500Y-39000009D01*
X148550499Y-37499992D01*
X148539999Y-37397203D01*
X148510411Y-37307911D01*
X148484815Y-37230668D01*
X148434751Y-37149500D01*
X148392712Y-37081344D01*
X148268656Y-36957288D01*
X148119334Y-36865186D01*
X147952797Y-36810001D01*
X147952794Y-36810000D01*
X147952790Y-36810000D01*
X147850012Y-36799500D01*
X146149994Y-36799500D01*
X146047200Y-36810001D01*
X145880668Y-36865184D01*
X145731346Y-36957286D01*
X145731342Y-36957289D01*
X145607289Y-37081342D01*
X145607286Y-37081346D01*
X145515186Y-37230665D01*
X145460001Y-37397203D01*
X145460000Y-37397209D01*
X145449500Y-37499987D01*
X145449500Y-39000005D01*
X145460001Y-39102799D01*
X145515184Y-39269331D01*
X145548535Y-39323401D01*
X145607288Y-39418656D01*
X145731344Y-39542712D01*
X145731346Y-39542713D01*
X145748432Y-39556223D01*
X145746627Y-39558505D01*
X145814551Y-39617838D01*
X145875950Y-39724552D01*
X145899373Y-39845420D01*
X145899500Y-39855168D01*
X145899500Y-40215089D01*
X145899500Y-40388311D01*
X145926598Y-40559401D01*
X145980127Y-40724145D01*
X145980128Y-40724148D01*
X145980129Y-40724149D01*
X146058768Y-40878489D01*
X146160581Y-41018622D01*
X146160583Y-41018624D01*
X146160586Y-41018628D01*
X147249960Y-42108002D01*
X147321498Y-42208197D01*
X147356628Y-42326196D01*
X147359500Y-42372457D01*
X147359500Y-45922033D01*
X147339236Y-46043471D01*
X147280639Y-46151749D01*
X147190059Y-46235133D01*
X147077312Y-46284589D01*
X146954615Y-46294756D01*
X146835266Y-46264532D01*
X146798501Y-46245927D01*
X146695844Y-46186658D01*
X146695842Y-46186657D01*
X146695840Y-46186656D01*
X146483839Y-46098842D01*
X146483835Y-46098841D01*
X146483833Y-46098840D01*
X146365047Y-46067012D01*
X146262190Y-46039452D01*
X146262187Y-46039451D01*
X146262185Y-46039451D01*
X146034692Y-46009500D01*
X146034686Y-46009500D01*
X145805218Y-46009500D01*
X145805211Y-46009500D01*
X145577718Y-46039451D01*
X145356070Y-46098840D01*
X145144059Y-46186658D01*
X144945343Y-46301386D01*
X144945340Y-46301388D01*
X144877628Y-46353346D01*
X144768948Y-46411195D01*
X144647374Y-46430622D01*
X144526079Y-46409521D01*
X144422276Y-46353346D01*
X144354563Y-46301388D01*
X144354560Y-46301386D01*
X144155844Y-46186658D01*
X144155842Y-46186657D01*
X144155840Y-46186656D01*
X143943839Y-46098842D01*
X143943835Y-46098841D01*
X143943833Y-46098840D01*
X143825047Y-46067012D01*
X143722190Y-46039452D01*
X143722187Y-46039451D01*
X143722185Y-46039451D01*
X143494692Y-46009500D01*
X143494686Y-46009500D01*
X143265218Y-46009500D01*
X143265211Y-46009500D01*
X143037718Y-46039451D01*
X142816070Y-46098840D01*
X142604059Y-46186658D01*
X142405343Y-46301386D01*
X142405340Y-46301388D01*
X142337628Y-46353346D01*
X142228948Y-46411195D01*
X142107374Y-46430622D01*
X141986079Y-46409521D01*
X141882276Y-46353346D01*
X141814563Y-46301388D01*
X141814560Y-46301386D01*
X141615844Y-46186658D01*
X141615842Y-46186657D01*
X141615840Y-46186656D01*
X141403839Y-46098842D01*
X141403835Y-46098841D01*
X141403833Y-46098840D01*
X141285047Y-46067012D01*
X141182190Y-46039452D01*
X141182187Y-46039451D01*
X141182185Y-46039451D01*
X140954692Y-46009500D01*
X140954686Y-46009500D01*
X140725218Y-46009500D01*
X140725211Y-46009500D01*
X140497718Y-46039451D01*
X140276070Y-46098840D01*
X140064059Y-46186658D01*
X139865343Y-46301386D01*
X139865340Y-46301388D01*
X139797628Y-46353346D01*
X139688948Y-46411195D01*
X139567374Y-46430622D01*
X139446079Y-46409521D01*
X139342276Y-46353346D01*
X139274563Y-46301388D01*
X139274560Y-46301386D01*
X139075844Y-46186658D01*
X139075842Y-46186657D01*
X139075840Y-46186656D01*
X138863839Y-46098842D01*
X138863835Y-46098841D01*
X138863833Y-46098840D01*
X138745047Y-46067012D01*
X138642190Y-46039452D01*
X138642187Y-46039451D01*
X138642185Y-46039451D01*
X138414692Y-46009500D01*
X138414686Y-46009500D01*
X138185218Y-46009500D01*
X138185211Y-46009500D01*
X137957718Y-46039451D01*
X137736070Y-46098840D01*
X137524059Y-46186658D01*
X137325343Y-46301386D01*
X137325340Y-46301388D01*
X137257628Y-46353346D01*
X137148948Y-46411195D01*
X137027374Y-46430622D01*
X136906079Y-46409521D01*
X136802276Y-46353346D01*
X136734563Y-46301388D01*
X136734560Y-46301386D01*
X136535844Y-46186658D01*
X136535842Y-46186657D01*
X136535840Y-46186656D01*
X136323839Y-46098842D01*
X136323835Y-46098841D01*
X136323833Y-46098840D01*
X136205047Y-46067012D01*
X136102190Y-46039452D01*
X136102187Y-46039451D01*
X136102185Y-46039451D01*
X135874692Y-46009500D01*
X135874686Y-46009500D01*
X135645218Y-46009500D01*
X135645211Y-46009500D01*
X135417718Y-46039451D01*
X135196070Y-46098840D01*
X134984059Y-46186658D01*
X134785343Y-46301386D01*
X134785340Y-46301388D01*
X134717628Y-46353346D01*
X134608948Y-46411195D01*
X134487374Y-46430622D01*
X134366079Y-46409521D01*
X134262276Y-46353346D01*
X134194563Y-46301388D01*
X134194560Y-46301386D01*
X133995844Y-46186658D01*
X133995842Y-46186657D01*
X133995840Y-46186656D01*
X133783839Y-46098842D01*
X133783835Y-46098841D01*
X133783833Y-46098840D01*
X133665047Y-46067012D01*
X133562190Y-46039452D01*
X133562187Y-46039451D01*
X133562185Y-46039451D01*
X133334692Y-46009500D01*
X133334686Y-46009500D01*
X133105218Y-46009500D01*
X133105211Y-46009500D01*
X132877718Y-46039451D01*
X132656070Y-46098840D01*
X132444059Y-46186658D01*
X132245343Y-46301386D01*
X132245340Y-46301388D01*
X132177628Y-46353346D01*
X132068948Y-46411195D01*
X131947374Y-46430622D01*
X131826079Y-46409521D01*
X131722276Y-46353346D01*
X131654563Y-46301388D01*
X131654560Y-46301386D01*
X131455844Y-46186658D01*
X131455842Y-46186657D01*
X131455840Y-46186656D01*
X131243839Y-46098842D01*
X131243835Y-46098841D01*
X131243833Y-46098840D01*
X131125047Y-46067012D01*
X131022190Y-46039452D01*
X131022187Y-46039451D01*
X131022185Y-46039451D01*
X130794692Y-46009500D01*
X130794686Y-46009500D01*
X130565218Y-46009500D01*
X130565211Y-46009500D01*
X130337718Y-46039451D01*
X130116070Y-46098840D01*
X129904059Y-46186658D01*
X129705343Y-46301386D01*
X129705340Y-46301388D01*
X129637628Y-46353346D01*
X129528948Y-46411195D01*
X129407374Y-46430622D01*
X129286079Y-46409521D01*
X129182276Y-46353346D01*
X129114563Y-46301388D01*
X129114560Y-46301386D01*
X128915844Y-46186658D01*
X128915842Y-46186657D01*
X128915840Y-46186656D01*
X128703839Y-46098842D01*
X128703835Y-46098841D01*
X128703833Y-46098840D01*
X128585047Y-46067012D01*
X128482190Y-46039452D01*
X128482187Y-46039451D01*
X128482185Y-46039451D01*
X128254692Y-46009500D01*
X128254686Y-46009500D01*
X128025218Y-46009500D01*
X128025211Y-46009500D01*
X127797718Y-46039451D01*
X127576070Y-46098840D01*
X127364059Y-46186658D01*
X127165343Y-46301386D01*
X127165340Y-46301388D01*
X127097628Y-46353346D01*
X126988948Y-46411195D01*
X126867374Y-46430622D01*
X126746079Y-46409521D01*
X126642276Y-46353346D01*
X126574563Y-46301388D01*
X126574560Y-46301386D01*
X126375844Y-46186658D01*
X126375842Y-46186657D01*
X126375840Y-46186656D01*
X126163839Y-46098842D01*
X126163835Y-46098841D01*
X126163833Y-46098840D01*
X126045047Y-46067012D01*
X125942190Y-46039452D01*
X125942187Y-46039451D01*
X125942185Y-46039451D01*
X125714692Y-46009500D01*
X125714686Y-46009500D01*
X125485218Y-46009500D01*
X125485211Y-46009500D01*
X125257718Y-46039451D01*
X125036070Y-46098840D01*
X124824059Y-46186658D01*
X124625343Y-46301386D01*
X124625340Y-46301388D01*
X124557628Y-46353346D01*
X124448948Y-46411195D01*
X124327374Y-46430622D01*
X124206079Y-46409521D01*
X124102276Y-46353346D01*
X124034563Y-46301388D01*
X124034560Y-46301386D01*
X123835844Y-46186658D01*
X123835842Y-46186657D01*
X123835840Y-46186656D01*
X123623839Y-46098842D01*
X123623835Y-46098841D01*
X123623833Y-46098840D01*
X123505047Y-46067012D01*
X123402190Y-46039452D01*
X123402187Y-46039451D01*
X123402185Y-46039451D01*
X123174692Y-46009500D01*
X123174686Y-46009500D01*
X122945218Y-46009500D01*
X122945211Y-46009500D01*
X122717718Y-46039451D01*
X122496070Y-46098840D01*
X122284059Y-46186658D01*
X122085343Y-46301386D01*
X122085340Y-46301388D01*
X122017628Y-46353346D01*
X121908948Y-46411195D01*
X121787374Y-46430622D01*
X121666079Y-46409521D01*
X121562276Y-46353346D01*
X121494563Y-46301388D01*
X121494560Y-46301386D01*
X121295844Y-46186658D01*
X121295842Y-46186657D01*
X121295840Y-46186656D01*
X121083839Y-46098842D01*
X121083835Y-46098841D01*
X121083833Y-46098840D01*
X120965047Y-46067012D01*
X120862190Y-46039452D01*
X120862187Y-46039451D01*
X120862185Y-46039451D01*
X120634692Y-46009500D01*
X120634686Y-46009500D01*
X120405218Y-46009500D01*
X120405211Y-46009500D01*
X120177718Y-46039451D01*
X119956070Y-46098840D01*
X119744059Y-46186658D01*
X119545343Y-46301386D01*
X119545340Y-46301388D01*
X119477628Y-46353346D01*
X119368948Y-46411195D01*
X119247374Y-46430622D01*
X119126079Y-46409521D01*
X119022276Y-46353346D01*
X118954563Y-46301388D01*
X118954560Y-46301386D01*
X118755844Y-46186658D01*
X118755842Y-46186657D01*
X118755840Y-46186656D01*
X118543839Y-46098842D01*
X118543835Y-46098841D01*
X118543833Y-46098840D01*
X118425047Y-46067012D01*
X118322190Y-46039452D01*
X118322187Y-46039451D01*
X118322185Y-46039451D01*
X118094692Y-46009500D01*
X118094686Y-46009500D01*
X117865218Y-46009500D01*
X117865211Y-46009500D01*
X117637718Y-46039451D01*
X117416070Y-46098840D01*
X117204059Y-46186658D01*
X117005343Y-46301386D01*
X117005340Y-46301388D01*
X116937628Y-46353346D01*
X116828948Y-46411195D01*
X116707374Y-46430622D01*
X116586079Y-46409521D01*
X116482276Y-46353346D01*
X116414563Y-46301388D01*
X116414560Y-46301386D01*
X116215844Y-46186658D01*
X116215842Y-46186657D01*
X116215840Y-46186656D01*
X116003839Y-46098842D01*
X116003835Y-46098841D01*
X116003833Y-46098840D01*
X115885047Y-46067012D01*
X115782190Y-46039452D01*
X115782187Y-46039451D01*
X115782185Y-46039451D01*
X115554692Y-46009500D01*
X115554686Y-46009500D01*
X115325218Y-46009500D01*
X115325211Y-46009500D01*
X115097718Y-46039451D01*
X114876070Y-46098840D01*
X114664059Y-46186658D01*
X114465343Y-46301386D01*
X114465340Y-46301388D01*
X114397628Y-46353346D01*
X114288948Y-46411195D01*
X114167374Y-46430622D01*
X114046079Y-46409521D01*
X113942276Y-46353346D01*
X113874563Y-46301388D01*
X113874560Y-46301386D01*
X113675844Y-46186658D01*
X113675842Y-46186657D01*
X113675840Y-46186656D01*
X113463839Y-46098842D01*
X113463835Y-46098841D01*
X113463833Y-46098840D01*
X113345047Y-46067012D01*
X113242190Y-46039452D01*
X113242187Y-46039451D01*
X113242185Y-46039451D01*
X113014692Y-46009500D01*
X113014686Y-46009500D01*
X112785218Y-46009500D01*
X112785211Y-46009500D01*
X112557718Y-46039451D01*
X112336070Y-46098840D01*
X112124059Y-46186658D01*
X111925343Y-46301386D01*
X111925340Y-46301388D01*
X111857628Y-46353346D01*
X111748948Y-46411195D01*
X111627374Y-46430622D01*
X111506079Y-46409521D01*
X111402276Y-46353346D01*
X111334563Y-46301388D01*
X111334560Y-46301386D01*
X111135844Y-46186658D01*
X111135842Y-46186657D01*
X111135840Y-46186656D01*
X110923839Y-46098842D01*
X110923835Y-46098841D01*
X110923833Y-46098840D01*
X110805047Y-46067012D01*
X110702190Y-46039452D01*
X110702187Y-46039451D01*
X110702185Y-46039451D01*
X110474692Y-46009500D01*
X110474686Y-46009500D01*
X110245218Y-46009500D01*
X110245211Y-46009500D01*
X110017718Y-46039451D01*
X109796070Y-46098840D01*
X109584059Y-46186658D01*
X109394997Y-46295813D01*
X109279696Y-46338982D01*
X109156626Y-46342374D01*
X109077299Y-46322338D01*
X108927332Y-46266403D01*
X108927323Y-46266401D01*
X108867781Y-46260000D01*
X108819952Y-46260000D01*
X108819952Y-46829291D01*
X108799688Y-46950729D01*
X108790625Y-46972523D01*
X108791293Y-46972800D01*
X108698793Y-47196115D01*
X108639403Y-47417766D01*
X108609452Y-47645259D01*
X108609452Y-48874740D01*
X108639403Y-49102233D01*
X108698792Y-49323881D01*
X108791294Y-49547200D01*
X108788345Y-49548421D01*
X108816906Y-49643070D01*
X108819952Y-49690707D01*
X108819952Y-50260000D01*
X108867781Y-50260000D01*
X108927323Y-50253598D01*
X108927326Y-50253597D01*
X109077297Y-50197661D01*
X109198160Y-50174209D01*
X109320088Y-50191272D01*
X109394998Y-50224187D01*
X109584056Y-50333340D01*
X109584059Y-50333341D01*
X109584064Y-50333344D01*
X109796065Y-50421158D01*
X110017714Y-50480548D01*
X110245218Y-50510500D01*
X110245224Y-50510500D01*
X110474680Y-50510500D01*
X110474686Y-50510500D01*
X110702190Y-50480548D01*
X110923839Y-50421158D01*
X111135840Y-50333344D01*
X111334564Y-50218611D01*
X111402274Y-50166655D01*
X111510953Y-50108805D01*
X111632527Y-50089377D01*
X111753822Y-50110477D01*
X111857630Y-50166655D01*
X111925340Y-50218611D01*
X111925341Y-50218612D01*
X111925343Y-50218613D01*
X111997028Y-50260000D01*
X112124064Y-50333344D01*
X112336065Y-50421158D01*
X112557714Y-50480548D01*
X112785218Y-50510500D01*
X112785224Y-50510500D01*
X113014680Y-50510500D01*
X113014686Y-50510500D01*
X113242190Y-50480548D01*
X113463839Y-50421158D01*
X113675840Y-50333344D01*
X113874564Y-50218611D01*
X113942274Y-50166655D01*
X114050953Y-50108805D01*
X114172527Y-50089377D01*
X114293822Y-50110477D01*
X114397630Y-50166655D01*
X114465340Y-50218611D01*
X114465341Y-50218612D01*
X114465343Y-50218613D01*
X114537028Y-50260000D01*
X114664064Y-50333344D01*
X114876065Y-50421158D01*
X115097714Y-50480548D01*
X115325218Y-50510500D01*
X115325224Y-50510500D01*
X115554680Y-50510500D01*
X115554686Y-50510500D01*
X115782190Y-50480548D01*
X116003839Y-50421158D01*
X116215840Y-50333344D01*
X116414564Y-50218611D01*
X116482274Y-50166655D01*
X116590953Y-50108805D01*
X116712527Y-50089377D01*
X116833822Y-50110477D01*
X116937630Y-50166655D01*
X117005340Y-50218611D01*
X117005341Y-50218612D01*
X117005343Y-50218613D01*
X117077028Y-50260000D01*
X117204064Y-50333344D01*
X117416065Y-50421158D01*
X117637714Y-50480548D01*
X117865218Y-50510500D01*
X117865224Y-50510500D01*
X118094680Y-50510500D01*
X118094686Y-50510500D01*
X118322190Y-50480548D01*
X118543839Y-50421158D01*
X118755840Y-50333344D01*
X118954564Y-50218611D01*
X119022274Y-50166655D01*
X119130953Y-50108805D01*
X119252527Y-50089377D01*
X119373822Y-50110477D01*
X119477630Y-50166655D01*
X119545340Y-50218611D01*
X119545341Y-50218612D01*
X119545343Y-50218613D01*
X119617028Y-50260000D01*
X119744064Y-50333344D01*
X119956065Y-50421158D01*
X120177714Y-50480548D01*
X120405218Y-50510500D01*
X120405224Y-50510500D01*
X120634680Y-50510500D01*
X120634686Y-50510500D01*
X120862190Y-50480548D01*
X121083839Y-50421158D01*
X121295840Y-50333344D01*
X121494564Y-50218611D01*
X121562274Y-50166655D01*
X121670953Y-50108805D01*
X121792527Y-50089377D01*
X121913822Y-50110477D01*
X122017630Y-50166655D01*
X122085340Y-50218611D01*
X122085341Y-50218612D01*
X122085343Y-50218613D01*
X122157028Y-50260000D01*
X122284064Y-50333344D01*
X122496065Y-50421158D01*
X122717714Y-50480548D01*
X122945218Y-50510500D01*
X122945224Y-50510500D01*
X123174680Y-50510500D01*
X123174686Y-50510500D01*
X123402190Y-50480548D01*
X123623839Y-50421158D01*
X123835840Y-50333344D01*
X124034564Y-50218611D01*
X124102274Y-50166655D01*
X124210953Y-50108805D01*
X124332527Y-50089377D01*
X124453822Y-50110477D01*
X124557630Y-50166655D01*
X124625340Y-50218611D01*
X124625341Y-50218612D01*
X124625343Y-50218613D01*
X124697028Y-50260000D01*
X124824064Y-50333344D01*
X125036065Y-50421158D01*
X125257714Y-50480548D01*
X125485218Y-50510500D01*
X125485224Y-50510500D01*
X125714680Y-50510500D01*
X125714686Y-50510500D01*
X125942190Y-50480548D01*
X126163839Y-50421158D01*
X126375840Y-50333344D01*
X126574564Y-50218611D01*
X126642274Y-50166655D01*
X126750953Y-50108805D01*
X126872527Y-50089377D01*
X126993822Y-50110477D01*
X127097630Y-50166655D01*
X127165340Y-50218611D01*
X127165341Y-50218612D01*
X127165343Y-50218613D01*
X127237028Y-50260000D01*
X127364064Y-50333344D01*
X127576065Y-50421158D01*
X127797714Y-50480548D01*
X128025218Y-50510500D01*
X128025224Y-50510500D01*
X128254680Y-50510500D01*
X128254686Y-50510500D01*
X128482190Y-50480548D01*
X128703839Y-50421158D01*
X128915840Y-50333344D01*
X129114564Y-50218611D01*
X129182274Y-50166655D01*
X129290953Y-50108805D01*
X129412527Y-50089377D01*
X129533822Y-50110477D01*
X129637630Y-50166655D01*
X129705340Y-50218611D01*
X129705341Y-50218612D01*
X129705343Y-50218613D01*
X129777028Y-50260000D01*
X129904064Y-50333344D01*
X130116065Y-50421158D01*
X130337714Y-50480548D01*
X130565218Y-50510500D01*
X130565224Y-50510500D01*
X130794680Y-50510500D01*
X130794686Y-50510500D01*
X131022190Y-50480548D01*
X131243839Y-50421158D01*
X131455840Y-50333344D01*
X131558503Y-50274071D01*
X131673799Y-50230903D01*
X131796869Y-50227511D01*
X131914372Y-50264262D01*
X132013576Y-50337176D01*
X132083729Y-50438350D01*
X132117230Y-50556822D01*
X132119500Y-50597966D01*
X132119500Y-53025500D01*
X132099236Y-53146938D01*
X132040639Y-53255216D01*
X131950059Y-53338600D01*
X131837312Y-53388056D01*
X131745500Y-53399500D01*
X127528510Y-53399500D01*
X127355289Y-53399500D01*
X127184199Y-53426598D01*
X127184196Y-53426599D01*
X127019451Y-53480128D01*
X126865111Y-53558768D01*
X126724976Y-53660582D01*
X116595600Y-63789958D01*
X116495402Y-63861498D01*
X116377403Y-63896628D01*
X116331142Y-63899500D01*
X107586610Y-63899500D01*
X107413389Y-63899500D01*
X107242299Y-63926598D01*
X107242296Y-63926599D01*
X107077551Y-63980128D01*
X106923211Y-64058768D01*
X106783076Y-64160582D01*
X103160581Y-67783077D01*
X103058768Y-67923210D01*
X102980129Y-68077550D01*
X102980128Y-68077552D01*
X102980127Y-68077555D01*
X102926598Y-68242299D01*
X102899500Y-68413389D01*
X101460500Y-68413389D01*
X101460500Y-49807829D01*
X106319952Y-49807829D01*
X106326353Y-49867371D01*
X106326355Y-49867381D01*
X106376598Y-50002087D01*
X106376599Y-50002088D01*
X106462763Y-50117188D01*
X106577863Y-50203352D01*
X106577864Y-50203353D01*
X106712570Y-50253596D01*
X106712580Y-50253598D01*
X106772123Y-50260000D01*
X106819952Y-50260000D01*
X106819952Y-49260000D01*
X106319952Y-49260000D01*
X106319952Y-49807829D01*
X101460500Y-49807829D01*
X101460500Y-48209840D01*
X107438952Y-48209840D01*
X107438952Y-48310160D01*
X107464916Y-48407061D01*
X107515076Y-48493940D01*
X107586012Y-48564876D01*
X107672891Y-48615036D01*
X107769792Y-48641000D01*
X107870112Y-48641000D01*
X107967013Y-48615036D01*
X108053892Y-48564876D01*
X108124828Y-48493940D01*
X108174988Y-48407061D01*
X108200952Y-48310160D01*
X108200952Y-48209840D01*
X108174988Y-48112939D01*
X108124828Y-48026060D01*
X108053892Y-47955124D01*
X107967013Y-47904964D01*
X107870112Y-47879000D01*
X107769792Y-47879000D01*
X107672891Y-47904964D01*
X107586012Y-47955124D01*
X107515076Y-48026060D01*
X107464916Y-48112939D01*
X107438952Y-48209840D01*
X101460500Y-48209840D01*
X101460500Y-46712170D01*
X106319952Y-46712170D01*
X106319952Y-47260000D01*
X106819952Y-47260000D01*
X106819952Y-46260000D01*
X106772123Y-46260000D01*
X106712580Y-46266401D01*
X106712570Y-46266403D01*
X106577864Y-46316646D01*
X106577863Y-46316647D01*
X106462763Y-46402811D01*
X106376599Y-46517911D01*
X106376598Y-46517912D01*
X106326355Y-46652618D01*
X106326353Y-46652628D01*
X106319952Y-46712170D01*
X101460500Y-46712170D01*
X101460500Y-39603460D01*
X101480764Y-39482022D01*
X101539361Y-39373744D01*
X101629941Y-39290360D01*
X101742688Y-39240904D01*
X101865385Y-39230737D01*
X101984734Y-39260961D01*
X102058635Y-39304061D01*
X102177910Y-39393352D01*
X102177912Y-39393353D01*
X102312618Y-39443596D01*
X102312628Y-39443598D01*
X102372171Y-39450000D01*
X102520000Y-39450000D01*
X103920000Y-39450000D01*
X104067829Y-39450000D01*
X104127371Y-39443598D01*
X104127381Y-39443596D01*
X104262087Y-39393353D01*
X104262088Y-39393352D01*
X104377188Y-39307188D01*
X104463352Y-39192088D01*
X104463353Y-39192087D01*
X104513596Y-39057381D01*
X104513598Y-39057371D01*
X104520000Y-38997829D01*
X104520000Y-38950000D01*
X103920000Y-38950000D01*
X103920000Y-39450000D01*
X102520000Y-39450000D01*
X102520000Y-37550000D01*
X103920000Y-37550000D01*
X104520000Y-37550000D01*
X104520000Y-37502170D01*
X104513598Y-37442628D01*
X104513596Y-37442618D01*
X104463353Y-37307912D01*
X104463352Y-37307911D01*
X104377188Y-37192811D01*
X104262088Y-37106647D01*
X104262087Y-37106646D01*
X104127381Y-37056403D01*
X104127371Y-37056401D01*
X104067829Y-37050000D01*
X103920000Y-37050000D01*
X103920000Y-37550000D01*
X102520000Y-37550000D01*
X102520000Y-37050000D01*
X102372171Y-37050000D01*
X102312628Y-37056401D01*
X102312618Y-37056403D01*
X102177912Y-37106646D01*
X102177907Y-37106649D01*
X102058633Y-37195939D01*
X101949274Y-37252492D01*
X101827477Y-37270473D01*
X101706442Y-37247932D01*
X101599283Y-37187312D01*
X101517614Y-37095183D01*
X101470284Y-36981527D01*
X101460500Y-36896539D01*
X101460500Y-35410063D01*
X101480764Y-35288625D01*
X101539361Y-35180347D01*
X101629941Y-35096963D01*
X101742688Y-35047507D01*
X101865385Y-35037340D01*
X101984734Y-35067564D01*
X102030831Y-35091740D01*
X102100666Y-35134814D01*
X102267203Y-35189999D01*
X102369991Y-35200500D01*
X104070008Y-35200499D01*
X104172797Y-35189999D01*
X104339334Y-35134814D01*
X104488656Y-35042712D01*
X104571326Y-34960042D01*
X104671524Y-34888502D01*
X104789523Y-34853372D01*
X104835784Y-34850500D01*
X105934500Y-34850500D01*
X106055938Y-34870764D01*
X106164216Y-34929361D01*
X106247600Y-35019941D01*
X106297056Y-35132688D01*
X106308500Y-35224500D01*
X106308500Y-39322389D01*
X106308500Y-39495611D01*
X106330548Y-39634814D01*
X106335598Y-39666701D01*
X106356144Y-39729934D01*
X106374398Y-39851690D01*
X106352129Y-39972777D01*
X106291750Y-40080071D01*
X106208233Y-40156477D01*
X106127047Y-40210723D01*
X105905242Y-40405242D01*
X105710725Y-40627045D01*
X105546830Y-40872331D01*
X105522195Y-40922286D01*
X105427325Y-41114665D01*
X105416346Y-41136928D01*
X105321519Y-41416277D01*
X105321518Y-41416283D01*
X105263967Y-41705615D01*
X105263965Y-41705627D01*
X105244671Y-41999997D01*
X105244671Y-42000002D01*
X105258929Y-42217542D01*
X105263966Y-42294380D01*
X105308818Y-42519870D01*
X105321518Y-42583716D01*
X105321519Y-42583722D01*
X105416350Y-42863082D01*
X105416351Y-42863085D01*
X105546827Y-43127664D01*
X105546827Y-43127665D01*
X105710724Y-43372953D01*
X105710727Y-43372957D01*
X105905242Y-43594758D01*
X106127043Y-43789273D01*
X106127046Y-43789275D01*
X106372334Y-43953172D01*
X106636914Y-44083648D01*
X106636916Y-44083648D01*
X106636923Y-44083652D01*
X106916278Y-44178481D01*
X107205620Y-44236034D01*
X107434582Y-44251041D01*
X107499998Y-44255329D01*
X107500000Y-44255329D01*
X107500002Y-44255329D01*
X107558876Y-44251470D01*
X107794380Y-44236034D01*
X108083722Y-44178481D01*
X108363077Y-44083652D01*
X108627665Y-43953172D01*
X108872957Y-43789273D01*
X109094758Y-43594758D01*
X109289273Y-43372957D01*
X109453172Y-43127665D01*
X109583652Y-42863077D01*
X109678481Y-42583722D01*
X109736034Y-42294380D01*
X109755329Y-42000000D01*
X109736034Y-41705620D01*
X109678481Y-41416278D01*
X109583652Y-41136923D01*
X109453172Y-40872336D01*
X109423250Y-40827555D01*
X109320122Y-40673212D01*
X109289273Y-40627043D01*
X109094758Y-40405242D01*
X108872957Y-40210727D01*
X108872220Y-40210234D01*
X108766715Y-40139737D01*
X108677002Y-40055421D01*
X108619528Y-39946543D01*
X108600500Y-39828769D01*
X108600500Y-39413392D01*
X108600500Y-39413389D01*
X108573402Y-39242299D01*
X108528075Y-39102797D01*
X108527804Y-39101962D01*
X108511311Y-38997829D01*
X109920000Y-38997829D01*
X109926401Y-39057371D01*
X109926403Y-39057381D01*
X109976646Y-39192087D01*
X109976647Y-39192088D01*
X110062811Y-39307188D01*
X110177911Y-39393352D01*
X110177912Y-39393353D01*
X110312618Y-39443596D01*
X110312628Y-39443598D01*
X110372171Y-39450000D01*
X110520000Y-39450000D01*
X111920000Y-39450000D01*
X112067829Y-39450000D01*
X112127371Y-39443598D01*
X112127381Y-39443596D01*
X112262087Y-39393353D01*
X112262088Y-39393352D01*
X112377188Y-39307188D01*
X112463352Y-39192088D01*
X112463353Y-39192087D01*
X112513596Y-39057381D01*
X112513598Y-39057371D01*
X112520000Y-38997829D01*
X112520000Y-38950000D01*
X111920000Y-38950000D01*
X111920000Y-39450000D01*
X110520000Y-39450000D01*
X110520000Y-38950000D01*
X109920000Y-38950000D01*
X109920000Y-38997829D01*
X108511311Y-38997829D01*
X108509500Y-38986393D01*
X108509500Y-37502170D01*
X109920000Y-37502170D01*
X109920000Y-37550000D01*
X110520000Y-37550000D01*
X111920000Y-37550000D01*
X112520000Y-37550000D01*
X112520000Y-37502170D01*
X112513598Y-37442628D01*
X112513596Y-37442618D01*
X112463353Y-37307912D01*
X112463352Y-37307911D01*
X112377188Y-37192811D01*
X112262088Y-37106647D01*
X112262087Y-37106646D01*
X112127381Y-37056403D01*
X112127371Y-37056401D01*
X112067829Y-37050000D01*
X111920000Y-37050000D01*
X111920000Y-37550000D01*
X110520000Y-37550000D01*
X110520000Y-37050000D01*
X110372171Y-37050000D01*
X110312628Y-37056401D01*
X110312618Y-37056403D01*
X110177912Y-37106646D01*
X110177911Y-37106647D01*
X110062811Y-37192811D01*
X109976647Y-37307911D01*
X109976646Y-37307912D01*
X109926403Y-37442618D01*
X109926401Y-37442628D01*
X109920000Y-37502170D01*
X108509500Y-37502170D01*
X108509500Y-35224500D01*
X108529764Y-35103062D01*
X108588361Y-34994784D01*
X108678941Y-34911400D01*
X108791688Y-34861944D01*
X108883500Y-34850500D01*
X109604216Y-34850500D01*
X109725654Y-34870764D01*
X109833932Y-34929361D01*
X109868674Y-34960042D01*
X109951344Y-35042712D01*
X110100666Y-35134814D01*
X110267203Y-35189999D01*
X110369991Y-35200500D01*
X112070008Y-35200499D01*
X112172797Y-35189999D01*
X112339334Y-35134814D01*
X112488656Y-35042712D01*
X112612712Y-34918656D01*
X112704814Y-34769334D01*
X112759999Y-34602797D01*
X112770500Y-34500009D01*
X112770500Y-34497829D01*
X115700000Y-34497829D01*
X115706401Y-34557371D01*
X115706403Y-34557381D01*
X115756646Y-34692087D01*
X115756647Y-34692088D01*
X115842811Y-34807188D01*
X115957911Y-34893352D01*
X115957912Y-34893353D01*
X116092618Y-34943596D01*
X116092628Y-34943598D01*
X116152171Y-34950000D01*
X116300000Y-34950000D01*
X117700000Y-34950000D01*
X117847829Y-34950000D01*
X117907371Y-34943598D01*
X117907381Y-34943596D01*
X118042087Y-34893353D01*
X118042088Y-34893352D01*
X118157188Y-34807188D01*
X118243352Y-34692088D01*
X118243353Y-34692087D01*
X118293596Y-34557381D01*
X118293598Y-34557371D01*
X118300000Y-34497829D01*
X123700000Y-34497829D01*
X123706401Y-34557371D01*
X123706403Y-34557381D01*
X123756646Y-34692087D01*
X123756647Y-34692088D01*
X123842811Y-34807188D01*
X123957911Y-34893352D01*
X123957912Y-34893353D01*
X124092618Y-34943596D01*
X124092628Y-34943598D01*
X124152171Y-34950000D01*
X124300000Y-34950000D01*
X125700000Y-34950000D01*
X125847829Y-34950000D01*
X125907371Y-34943598D01*
X125907381Y-34943596D01*
X126042087Y-34893353D01*
X126042088Y-34893352D01*
X126157188Y-34807188D01*
X126243352Y-34692088D01*
X126243353Y-34692087D01*
X126293596Y-34557381D01*
X126293598Y-34557371D01*
X126300000Y-34497829D01*
X126300000Y-34450000D01*
X125700000Y-34450000D01*
X125700000Y-34950000D01*
X124300000Y-34950000D01*
X124300000Y-34450000D01*
X123700000Y-34450000D01*
X123700000Y-34497829D01*
X118300000Y-34497829D01*
X118300000Y-34450000D01*
X117700000Y-34450000D01*
X117700000Y-34950000D01*
X116300000Y-34950000D01*
X116300000Y-34450000D01*
X115700000Y-34450000D01*
X115700000Y-34497829D01*
X112770500Y-34497829D01*
X112770500Y-34449987D01*
X130949500Y-34449987D01*
X130949500Y-37550005D01*
X130960001Y-37652799D01*
X131015184Y-37819331D01*
X131015186Y-37819334D01*
X131107288Y-37968656D01*
X131231344Y-38092712D01*
X131380666Y-38184814D01*
X131547203Y-38239999D01*
X131649991Y-38250500D01*
X133750008Y-38250499D01*
X133852797Y-38239999D01*
X134019334Y-38184814D01*
X134168656Y-38092712D01*
X134292712Y-37968656D01*
X134384814Y-37819334D01*
X134439999Y-37652797D01*
X134450500Y-37550009D01*
X134450499Y-34449992D01*
X134439999Y-34347203D01*
X134384952Y-34181081D01*
X134384815Y-34180668D01*
X134292713Y-34031346D01*
X134292712Y-34031344D01*
X134168656Y-33907288D01*
X134057683Y-33838840D01*
X134019334Y-33815186D01*
X134019328Y-33815184D01*
X133852797Y-33760001D01*
X133852794Y-33760000D01*
X133852790Y-33760000D01*
X133750012Y-33749500D01*
X131649994Y-33749500D01*
X131547200Y-33760001D01*
X131380668Y-33815184D01*
X131231346Y-33907286D01*
X131231342Y-33907289D01*
X131107289Y-34031342D01*
X131107286Y-34031346D01*
X131015186Y-34180665D01*
X130960001Y-34347203D01*
X130960000Y-34347209D01*
X130949500Y-34449987D01*
X112770500Y-34449987D01*
X112770499Y-33002170D01*
X115700000Y-33002170D01*
X115700000Y-33050000D01*
X116300000Y-33050000D01*
X117700000Y-33050000D01*
X118300000Y-33050000D01*
X118300000Y-33002170D01*
X123700000Y-33002170D01*
X123700000Y-33050000D01*
X124300000Y-33050000D01*
X125700000Y-33050000D01*
X126300000Y-33050000D01*
X126300000Y-33002170D01*
X126293598Y-32942628D01*
X126293596Y-32942618D01*
X126243353Y-32807912D01*
X126243352Y-32807911D01*
X126157188Y-32692811D01*
X126042088Y-32606647D01*
X126042087Y-32606646D01*
X125907381Y-32556403D01*
X125907371Y-32556401D01*
X125847829Y-32550000D01*
X125700000Y-32550000D01*
X125700000Y-33050000D01*
X124300000Y-33050000D01*
X124300000Y-32550000D01*
X124152171Y-32550000D01*
X124092628Y-32556401D01*
X124092618Y-32556403D01*
X123957912Y-32606646D01*
X123957911Y-32606647D01*
X123842811Y-32692811D01*
X123756647Y-32807911D01*
X123756646Y-32807912D01*
X123706403Y-32942618D01*
X123706401Y-32942628D01*
X123700000Y-33002170D01*
X118300000Y-33002170D01*
X118293598Y-32942628D01*
X118293596Y-32942618D01*
X118243353Y-32807912D01*
X118243352Y-32807911D01*
X118157188Y-32692811D01*
X118042088Y-32606647D01*
X118042087Y-32606646D01*
X117907381Y-32556403D01*
X117907371Y-32556401D01*
X117847829Y-32550000D01*
X117700000Y-32550000D01*
X117700000Y-33050000D01*
X116300000Y-33050000D01*
X116300000Y-32550000D01*
X116152171Y-32550000D01*
X116092628Y-32556401D01*
X116092618Y-32556403D01*
X115957912Y-32606646D01*
X115957911Y-32606647D01*
X115842811Y-32692811D01*
X115756647Y-32807911D01*
X115756646Y-32807912D01*
X115706403Y-32942618D01*
X115706401Y-32942628D01*
X115700000Y-33002170D01*
X112770499Y-33002170D01*
X112770499Y-32999992D01*
X112759999Y-32897203D01*
X112704814Y-32730666D01*
X112612712Y-32581344D01*
X112488656Y-32457288D01*
X112339334Y-32365186D01*
X112172797Y-32310001D01*
X112172794Y-32310000D01*
X112172790Y-32310000D01*
X112070012Y-32299500D01*
X110369994Y-32299500D01*
X110267200Y-32310001D01*
X110100668Y-32365184D01*
X109951346Y-32457286D01*
X109951342Y-32457289D01*
X109868674Y-32539958D01*
X109768476Y-32611498D01*
X109650477Y-32646628D01*
X109604216Y-32649500D01*
X107481388Y-32649500D01*
X107467498Y-32651700D01*
X107350502Y-32651700D01*
X107336611Y-32649500D01*
X104835784Y-32649500D01*
X104714346Y-32629236D01*
X104606068Y-32570639D01*
X104571326Y-32539958D01*
X104488657Y-32457289D01*
X104488653Y-32457286D01*
X104339334Y-32365186D01*
X104318885Y-32358410D01*
X104172797Y-32310001D01*
X104172794Y-32310000D01*
X104172790Y-32310000D01*
X104070012Y-32299500D01*
X102369994Y-32299500D01*
X102267200Y-32310001D01*
X102100667Y-32365184D01*
X102030839Y-32408255D01*
X101916842Y-32454759D01*
X101793923Y-32461728D01*
X101675401Y-32428408D01*
X101574120Y-32358410D01*
X101501055Y-32259318D01*
X101464123Y-32141870D01*
X101460500Y-32089936D01*
X101460500Y-29405519D01*
X103799500Y-29405519D01*
X103799500Y-29594481D01*
X103815666Y-29696550D01*
X103829059Y-29781115D01*
X103829060Y-29781120D01*
X103867006Y-29897906D01*
X103887453Y-29960832D01*
X103973240Y-30129199D01*
X104084310Y-30282073D01*
X104217927Y-30415690D01*
X104370801Y-30526760D01*
X104539168Y-30612547D01*
X104718882Y-30670940D01*
X104905519Y-30700500D01*
X104905523Y-30700500D01*
X105094477Y-30700500D01*
X105094481Y-30700500D01*
X105281118Y-30670940D01*
X105460832Y-30612547D01*
X105629199Y-30526760D01*
X105782073Y-30415690D01*
X105915690Y-30282073D01*
X106026760Y-30129199D01*
X106112547Y-29960832D01*
X106170940Y-29781118D01*
X106200500Y-29594481D01*
X106200500Y-29405519D01*
X106170940Y-29218882D01*
X106112547Y-29039168D01*
X106026760Y-28870801D01*
X105915690Y-28717927D01*
X105782073Y-28584310D01*
X105629199Y-28473240D01*
X105460832Y-28387453D01*
X105397906Y-28367006D01*
X105281120Y-28329060D01*
X105281115Y-28329059D01*
X105196550Y-28315666D01*
X105094481Y-28299500D01*
X104905519Y-28299500D01*
X104815726Y-28313721D01*
X104718884Y-28329059D01*
X104718879Y-28329060D01*
X104539165Y-28387454D01*
X104370800Y-28473240D01*
X104217932Y-28584306D01*
X104217923Y-28584313D01*
X104084313Y-28717923D01*
X104084306Y-28717932D01*
X103973240Y-28870800D01*
X103887454Y-29039165D01*
X103829060Y-29218879D01*
X103829059Y-29218884D01*
X103811624Y-29328966D01*
X103799500Y-29405519D01*
X101460500Y-29405519D01*
X101460500Y-26274500D01*
X101480764Y-26153062D01*
X101539361Y-26044784D01*
X101629941Y-25961400D01*
X101742688Y-25911944D01*
X101834500Y-25900500D01*
X169085500Y-25900500D01*
X169206938Y-25920764D01*
G37*
%TD.AperFunction*%
%TD*%
D20*
X100960000Y-25400000D02*
X169960000Y-25400000D01*
X169960000Y-145400000D01*
X100960000Y-145400000D01*
X100960000Y-25400000D01*
M02*
