%TF.GenerationSoftware,KiCad,Pcbnew,8.0.2*%
%TF.CreationDate,2024-05-31T11:20:34+02:00*%
%TF.ProjectId,LoRaKid,4c6f5261-4b69-4642-9e6b-696361645f70,rev?*%
%TF.SameCoordinates,Original*%
%TF.FileFunction,Paste,Top*%
%TF.FilePolarity,Positive*%
%FSLAX46Y46*%
G04 Gerber Fmt 4.6, Leading zero omitted, Abs format (unit mm)*
G04 Created by KiCad (PCBNEW 8.0.2) date 2024-05-31 11:20:34*
%MOMM*%
%LPD*%
G01*
G04 APERTURE LIST*
G04 Aperture macros list*
%AMRoundRect*
0 Rectangle with rounded corners*
0 $1 Rounding radius*
0 $2 $3 $4 $5 $6 $7 $8 $9 X,Y pos of 4 corners*
0 Add a 4 corners polygon primitive as box body*
4,1,4,$2,$3,$4,$5,$6,$7,$8,$9,$2,$3,0*
0 Add four circle primitives for the rounded corners*
1,1,$1+$1,$2,$3*
1,1,$1+$1,$4,$5*
1,1,$1+$1,$6,$7*
1,1,$1+$1,$8,$9*
0 Add four rect primitives between the rounded corners*
20,1,$1+$1,$2,$3,$4,$5,0*
20,1,$1+$1,$4,$5,$6,$7,0*
20,1,$1+$1,$6,$7,$8,$9,0*
20,1,$1+$1,$8,$9,$2,$3,0*%
G04 Aperture macros list end*
%ADD10R,1.600000X1.400000*%
%ADD11RoundRect,0.250000X-0.400000X-0.625000X0.400000X-0.625000X0.400000X0.625000X-0.400000X0.625000X0*%
G04 APERTURE END LIST*
D10*
%TO.C,SW1_ON_OFF1*%
X103220000Y-33750000D03*
X111220000Y-33750000D03*
X103220000Y-38250000D03*
X111220000Y-38250000D03*
%TD*%
%TO.C,SW4*%
X110860000Y-79030000D03*
X118860000Y-79030000D03*
X110860000Y-83530000D03*
X118860000Y-83530000D03*
%TD*%
%TO.C,SW3_RIGHT1*%
X147000000Y-33750000D03*
X155000000Y-33750000D03*
X147000000Y-38250000D03*
X155000000Y-38250000D03*
%TD*%
%TO.C,SW8*%
X131180000Y-96810000D03*
X139180000Y-96810000D03*
X131180000Y-101310000D03*
X139180000Y-101310000D03*
%TD*%
%TO.C,SW6*%
X151500000Y-79030000D03*
X159500000Y-79030000D03*
X151500000Y-83530000D03*
X159500000Y-83530000D03*
%TD*%
%TO.C,SW5*%
X131180000Y-79030000D03*
X139180000Y-79030000D03*
X131180000Y-83530000D03*
X139180000Y-83530000D03*
%TD*%
D11*
%TO.C,R1*%
X122900000Y-122500000D03*
X126000000Y-122500000D03*
%TD*%
D10*
%TO.C,SW2_LEFT1*%
X117000000Y-33750000D03*
X125000000Y-33750000D03*
X117000000Y-38250000D03*
X125000000Y-38250000D03*
%TD*%
D11*
%TO.C,R2*%
X114570000Y-122500000D03*
X117670000Y-122500000D03*
%TD*%
D10*
%TO.C,SW7*%
X110860000Y-96810000D03*
X118860000Y-96810000D03*
X110860000Y-101310000D03*
X118860000Y-101310000D03*
%TD*%
%TO.C,SW9*%
X151500000Y-96810000D03*
X159500000Y-96810000D03*
X151500000Y-101310000D03*
X159500000Y-101310000D03*
%TD*%
M02*
