<?xml version="1.0" standalone="no"?>
 <!DOCTYPE svg PUBLIC "-//W3C//DTD SVG 1.1//EN" 
 "http://www.w3.org/Graphics/SVG/1.1/DTD/svg11.dtd"> 
<svg
  xmlns:svg="http://www.w3.org/2000/svg"
  xmlns="http://www.w3.org/2000/svg"
  xmlns:xlink="http://www.w3.org/1999/xlink"
  version="1.1"
  width="69.0626mm" height="120.0404mm" viewBox="0.0000 0.0000 69.0626 120.0404">
<title>SVG Image created as LoRaKid-B_Cu.svg date 2024/05/31 13:23:24 </title>
  <desc>Image generated by PCBNEW </desc>
<g style="fill:#000000; fill-opacity:1.0000;stroke:#000000; stroke-opacity:1.0000;
stroke-linecap:round; stroke-linejoin:round;"
 transform="translate(0 0) scale(1 1)">
<path style="fill:#4D7FC4; fill-opacity:1.0000; stroke:none;fill-rule:evenodd;"
d="M 18.7800,84.1950
18.7800,82.3950
19.8800,82.3950
19.8800,84.1950
Z" /> 
<path style="fill:#4D7FC4; fill-opacity:1.0000; stroke:none;fill-rule:evenodd;"
d="M 20.0500,80.6000
20.0709,80.4948
20.1305,80.4055
20.2198,80.3459
20.3250,80.3250
20.8750,80.3250
20.9802,80.3459
21.0695,80.4055
21.1291,80.4948
21.1500,80.6000
21.1500,81.8500
21.1291,81.9552
21.0695,82.0445
20.9802,82.1041
20.8750,82.1250
20.3250,82.1250
20.2198,82.1041
20.1305,82.0445
20.0709,81.9552
20.0500,81.8500
Z" /> 
<path style="fill:#4D7FC4; fill-opacity:1.0000; stroke:none;fill-rule:evenodd;"
d="M 21.3200,82.6700
21.3409,82.5648
21.4005,82.4755
21.4898,82.4159
21.5950,82.3950
22.1450,82.3950
22.2502,82.4159
22.3395,82.4755
22.3991,82.5648
22.4200,82.6700
22.4200,83.9200
22.3991,84.0252
22.3395,84.1145
22.2502,84.1741
22.1450,84.1950
21.5950,84.1950
21.4898,84.1741
21.4005,84.1145
21.3409,84.0252
21.3200,83.9200
Z" /> 
<path style="fill:#4D7FC4; fill-opacity:1.0000; stroke:none;fill-rule:evenodd;"
d="M 31.8700,107.9750
30.1700,107.9750
30.1700,106.2750
31.8700,106.2750
Z" /> 
</g>
<g style="fill:#4D7FC4; fill-opacity:1.0000; stroke:none;">
<circle cx="33.5600" cy="107.1250" r="0.8500" /> 
<circle cx="36.1000" cy="107.1250" r="0.8500" /> 
<circle cx="38.6400" cy="107.1250" r="0.8500" /> 
<path style="fill:#4D7FC4; fill-opacity:1.0000; stroke:none;fill-rule:evenodd;"
d="M 47.5000,93.5000
47.5190,93.4043
47.5732,93.3232
47.6543,93.2690
47.7500,93.2500
48.4500,93.2500
48.5457,93.2690
48.6268,93.3232
48.6810,93.4043
48.7000,93.5000
48.7000,94.7500
48.6810,94.8457
48.6268,94.9268
48.5457,94.9810
48.4500,95.0000
47.7500,95.0000
47.6543,94.9810
47.5732,94.9268
47.5190,94.8457
47.5000,94.7500
Z" /> 
</g>
<g style="fill:none; 
stroke:#4D7FC4; stroke-width:1.2000; stroke-opacity:1; 
stroke-linecap:round; stroke-linejoin:round;">
<path d="M50.1000 93.8500
L50.1000 94.4000
" />
<path style="fill:#4D7FC4; fill-opacity:1.0000; stroke:none;fill-rule:evenodd;"
d="M 30.8000,11.6250
30.8000,9.6250
32.8000,9.6250
32.8000,11.6250
Z" /> 
</g>
<g style="fill:#4D7FC4; fill-opacity:1.0000; stroke:none;">
<circle cx="39.4000" cy="10.6250" r="1.0000" /> 
</g>
<g style="fill:none; 
stroke:#4D7FC4; stroke-width:2.0000; stroke-opacity:1; 
stroke-linecap:round; stroke-linejoin:round;">
<path d="M50.1000 45.2450
L50.1000 46.2450
" />
<path d="M47.5600 45.2450
L47.5600 46.2450
" />
<path d="M45.0200 45.2450
L45.0200 46.2450
" />
<path d="M42.4800 45.2450
L42.4800 46.2450
" />
<path d="M39.9400 45.2450
L39.9400 46.2450
" />
<path d="M37.4000 45.2450
L37.4000 46.2450
" />
<path d="M34.8600 45.2450
L34.8600 46.2450
" />
<path d="M32.3200 45.2450
L32.3200 46.2450
" />
<path d="M29.7800 45.2450
L29.7800 46.2450
" />
<path d="M27.2400 45.2450
L27.2400 46.2450
" />
<path d="M24.7000 45.2450
L24.7000 46.2450
" />
<path d="M22.1600 45.2450
L22.1600 46.2450
" />
<path d="M19.6200 45.2450
L19.6200 46.2450
" />
<path d="M17.0800 45.2450
L17.0800 46.2450
" />
<path d="M14.5400 45.2450
L14.5400 46.2450
" />
<path d="M12.0000 45.2450
L12.0000 46.2450
" />
<path d="M9.4600 45.2450
L9.4600 46.2450
" />
<path d="M6.9200 45.2450
L6.9200 46.2450
" />
<path d="M50.1000 22.3850
L50.1000 23.3850
" />
<path d="M47.5600 22.3850
L47.5600 23.3850
" />
<path d="M45.0200 22.3850
L45.0200 23.3850
" />
<path d="M42.4800 22.3850
L42.4800 23.3850
" />
<path d="M39.9400 22.3850
L39.9400 23.3850
" />
<path d="M37.4000 22.3850
L37.4000 23.3850
" />
<path d="M34.8600 22.3850
L34.8600 23.3850
" />
<path d="M32.3200 22.3850
L32.3200 23.3850
" />
<path d="M29.7800 22.3850
L29.7800 23.3850
" />
<path d="M27.2400 22.3850
L27.2400 23.3850
" />
<path d="M24.7000 22.3850
L24.7000 23.3850
" />
<path d="M22.1600 22.3850
L22.1600 23.3850
" />
<path d="M19.6200 22.3850
L19.6200 23.3850
" />
<path d="M17.0800 22.3850
L17.0800 23.3850
" />
<path d="M14.5400 22.3850
L14.5400 23.3850
" />
<path d="M12.0000 22.3850
L12.0000 23.3850
" />
<path d="M9.4600 22.3850
L9.4600 23.3850
" />
<path style="fill:#4D7FC4; fill-opacity:1.0000; stroke:none;fill-rule:evenodd;"
d="M 5.9200,24.3850
5.9200,21.3850
7.9200,21.3850
7.9200,24.3850
Z" /> 
<path style="fill:#4D7FC4; fill-opacity:1.0000; stroke:none;fill-rule:evenodd;"
d="M 34.6750,96.9750
32.9750,96.9750
32.9750,95.2750
34.6750,95.2750
Z" /> 
</g>
<g style="fill:#4D7FC4; fill-opacity:1.0000; stroke:none;">
<circle cx="36.3650" cy="96.1250" r="0.8500" /> 
</g>
<g style="fill:#ECECEC; fill-opacity:1.0000; stroke:none;">
<circle cx="6.6000" cy="16.6250" r="1.0000" /> 
</g>
<g style="fill:#ECECEC; fill-opacity:1.0000; stroke:none;">
<circle cx="34.1000" cy="63.6250" r="1.0000" /> 
</g>
<g style="fill:#ECECEC; fill-opacity:1.0000; stroke:none;">
<circle cx="49.6000" cy="64.1250" r="1.0000" /> 
</g>
<g style="fill:none; 
stroke:#4D7FC4; stroke-width:0.7000; stroke-opacity:1; 
stroke-linecap:round; stroke-linejoin:round;">
<path d="M24.7000 39.6250
L24.7000 45.7450
" />
<path d="M3.6000 27.6250
L15.6000 39.6250
" />
<path d="M15.6000 39.6250
L24.7000 39.6250
" />
<path d="M3.6000 18.1250
L3.6000 27.6250
" />
<path d="M4.1000 17.6250
L3.6000 18.1250
" />
<path d="M5.6000 17.6250
L4.1000 17.6250
" />
<path d="M6.6000 16.6250
L5.6000 17.6250
" />
<path d="M38.6000 40.6250
L27.2400 29.2650
" />
<path d="M57.6000 40.6250
L38.6000 40.6250
" />
<path d="M27.2400 29.2650
L27.2400 22.8850
" />
<path d="M57.6000 56.1250
L57.6000 40.6250
" />
<path d="M49.6000 64.1250
L57.6000 56.1250
" />
<path d="M29.7800 28.3050
L29.7800 22.8850
" />
<path d="M40.0987 38.6237
L29.7800 28.3050
" />
<path d="M60.6000 38.6237
L40.0987 38.6237
" />
<path d="M60.6000 68.1250
L60.6000 38.6237
" />
<path d="M34.1000 63.6250
L38.6000 68.1250
" />
<path d="M38.6000 68.1250
L60.6000 68.1250
" />
<path d="M63.6000 68.1250
L48.8300 82.8950
" />
<path d="M63.6000 22.6250
L63.6000 68.1250
" />
<path d="M51.6000 10.6250
L63.6000 22.6250
" />
<path d="M39.4000 10.6250
L51.6000 10.6250
" />
<path d="M48.8300 82.8950
L21.8700 82.8950
" />
<path d="M12.0000 20.2250
L21.6000 10.6250
" />
<path d="M12.0000 22.8850
L12.0000 20.2250
" />
<path d="M21.6000 10.6250
L31.8000 10.6250
" />
<path d="M31.0200 106.1250
L31.0200 107.1250
" />
<path d="M31.0200 106.1250
L31.0200 103.9230
" />
<path d="M9.4600 82.3630
L9.4600 45.7450
" />
<path d="M31.0200 103.9230
L9.4600 82.3630
" />
<path d="M50.1000 94.1250
L50.1000 98.6250
" />
<path d="M38.8650 98.6250
L36.3650 96.1250
" />
<path d="M50.1000 98.6250
L38.8650 98.6250
" />
<path style="fill:#4D7FC4; fill-opacity:1.0000; stroke:none;fill-rule:evenodd;"
d="M 68.2011,0.5457
68.3303,0.6047
68.4376,0.6977
68.5144,0.8172
68.5544,0.9535
68.5595,1.0245
68.5595,118.9132
68.5393,119.0538
68.4803,119.1830
68.3873,119.2903
68.2678,119.3671
68.1315,119.4071
68.0641,119.4122
52.5564,119.5245
52.5528,119.5245
1.0595,119.5245
0.9189,119.5043
0.7897,119.4453
0.6824,119.3523
0.6056,119.2328
0.5656,119.0965
0.5605,119.0255
0.5605,114.0305
2.8995,114.0305
2.8995,114.2195
2.9291,114.4061
2.9875,114.5858
2.9875,114.5858
3.0732,114.7542
3.0732,114.7542
3.1843,114.9071
3.1843,114.9071
3.3179,115.0407
3.3179,115.0407
3.4397,115.1292
3.4708,115.1518
3.4708,115.1518
3.4708,115.1518
3.5513,115.1928
3.6392,115.2375
3.7308,115.2673
3.8189,115.2959
3.8189,115.2959
3.8189,115.2959
3.9249,115.3127
4.0055,115.3255
4.0055,115.3255
4.1945,115.3255
4.2508,115.3166
4.3811,115.2959
4.3811,115.2959
4.3811,115.2959
4.4234,115.2822
4.5608,115.2375
4.7292,115.1518
4.8821,115.0407
5.0157,114.9071
5.1268,114.7542
5.2125,114.5858
5.2709,114.4061
5.3005,114.2195
5.3005,114.0305
5.3005,114.0305
63.3995,114.0305
63.3995,114.2195
63.4291,114.4061
63.4875,114.5858
63.4875,114.5858
63.5732,114.7542
63.5732,114.7542
63.6843,114.9071
63.6843,114.9071
63.8179,115.0407
63.8179,115.0407
63.9397,115.1292
63.9708,115.1518
63.9708,115.1518
63.9708,115.1518
64.0513,115.1928
64.1392,115.2375
64.2308,115.2673
64.3189,115.2959
64.3189,115.2959
64.3189,115.2959
64.4249,115.3127
64.5055,115.3255
64.5055,115.3255
64.6945,115.3255
64.7508,115.3166
64.8811,115.2959
64.8811,115.2959
64.8811,115.2959
64.9234,115.2822
65.0608,115.2375
65.2292,115.1518
65.3821,115.0407
65.5157,114.9071
65.6268,114.7542
65.7125,114.5858
65.7709,114.4061
65.8005,114.2195
65.8005,114.0305
65.7709,113.8439
65.7709,113.8439
65.7709,113.8439
65.7423,113.7558
65.7125,113.6642
65.6268,113.4958
65.5157,113.3429
65.3821,113.2093
65.3821,113.2093
65.3821,113.2093
65.2292,113.0982
65.2292,113.0982
65.0608,113.0125
65.0608,113.0125
65.0608,113.0125
65.0608,113.0125
64.8811,112.9541
64.6945,112.9245
64.6945,112.9245
64.5055,112.9245
64.5055,112.9245
64.3189,112.9541
64.1392,113.0125
64.1392,113.0125
63.9708,113.0982
63.9708,113.0982
63.8179,113.2093
63.8179,113.2093
63.6843,113.3429
63.6843,113.3429
63.5732,113.4958
63.5732,113.4958
63.4875,113.6642
63.4875,113.6642
63.4291,113.8439
63.3995,114.0305
5.3005,114.0305
5.2709,113.8439
5.2709,113.8439
5.2709,113.8439
5.2423,113.7558
5.2125,113.6642
5.1268,113.4958
5.0157,113.3429
4.8821,113.2093
4.8821,113.2093
4.8821,113.2093
4.7292,113.0982
4.7292,113.0982
4.5608,113.0125
4.5608,113.0125
4.5608,113.0125
4.5608,113.0125
4.3811,112.9541
4.1945,112.9245
4.1945,112.9245
4.0055,112.9245
4.0055,112.9245
3.8189,112.9541
3.6392,113.0125
3.6392,113.0125
3.4708,113.0982
3.4708,113.0982
3.3179,113.2093
3.3179,113.2093
3.1843,113.3429
3.1843,113.3429
3.0732,113.4958
3.0732,113.4958
2.9875,113.6642
2.9875,113.6642
2.9291,113.8439
2.8995,114.0305
0.5605,114.0305
0.5605,46.7450
5.5052,46.7450
5.5298,46.8208
5.5298,46.8208
5.6370,47.0312
5.7758,47.2222
5.9200,47.3663
5.9200,47.3663
5.9200,46.7450
5.5052,46.7450
5.5052,46.7450
0.5605,46.7450
0.5605,45.6948
6.5390,45.6948
6.5390,45.7952
6.5649,45.8921
6.6151,45.9789
6.6860,46.0499
6.7729,46.1000
6.8698,46.1260
6.9701,46.1260
7.0670,46.1000
7.1539,46.0499
7.2248,45.9789
7.2750,45.8921
7.3010,45.7952
7.3010,45.6948
7.2750,45.5979
7.2248,45.5111
7.1539,45.4401
7.0670,45.3900
6.9701,45.3640
6.8698,45.3640
6.7729,45.3900
6.6860,45.4401
6.6151,45.5111
6.5649,45.5979
6.5390,45.6948
0.5605,45.6948
0.5605,44.7450
5.5052,44.7450
5.5052,44.7450
5.9200,44.7450
5.9200,44.1237
5.9200,44.1237
5.7758,44.2678
5.6370,44.4588
5.5298,44.6692
5.5298,44.6692
5.5052,44.7450
0.5605,44.7450
0.5605,18.0384
2.4995,18.0384
2.4995,27.5384
2.4995,27.7116
2.5266,27.8827
2.5801,28.0474
2.6561,28.1966
2.6588,28.2018
2.7606,28.3419
2.7606,28.3419
11.7957,37.3770
14.7606,40.3419
14.8831,40.4644
14.8831,40.4644
15.0232,40.5662
15.0232,40.5662
15.1776,40.6449
15.3423,40.6984
15.5134,40.7255
23.1005,40.7255
23.2411,40.7457
23.3703,40.8047
23.4776,40.8977
23.5544,41.0172
23.5944,41.1535
23.5995,41.2245
23.5995,43.1997
23.5793,43.3403
23.5203,43.4695
23.4273,43.5769
23.3078,43.6537
23.1715,43.6937
23.0295,43.6937
22.9095,43.6608
22.7238,43.5838
22.7238,43.5838
22.7238,43.5838
22.5022,43.5245
22.5022,43.5244
22.3114,43.4993
22.2747,43.4945
22.0452,43.4945
22.0136,43.4987
21.8177,43.5244
21.8177,43.5245
21.5961,43.5838
21.5961,43.5838
21.3841,43.6717
21.1853,43.7864
21.1718,43.7955
21.1702,43.7932
21.0699,43.8495
20.9314,43.8813
20.7897,43.8729
20.6560,43.8248
20.6088,43.7945
20.6081,43.7955
20.5946,43.7864
20.5946,43.7864
20.5526,43.7621
20.3958,43.6717
20.1838,43.5838
20.1838,43.5838
19.9622,43.5245
19.9622,43.5244
19.7714,43.4993
19.7347,43.4945
19.5052,43.4945
19.4736,43.4987
19.2777,43.5244
19.2777,43.5245
19.0561,43.5838
19.0561,43.5838
18.8441,43.6717
18.6453,43.7864
18.6318,43.7955
18.6302,43.7932
18.5299,43.8495
18.3914,43.8813
18.2497,43.8729
18.1160,43.8248
18.0688,43.7945
18.0681,43.7955
18.0546,43.7864
18.0546,43.7864
18.0126,43.7621
17.8558,43.6717
17.6438,43.5838
17.6438,43.5838
17.4222,43.5245
17.4222,43.5244
17.2314,43.4993
17.1947,43.4945
16.9652,43.4945
16.9336,43.4987
16.7377,43.5244
16.7377,43.5245
16.5161,43.5838
16.5161,43.5838
16.3041,43.6717
16.1053,43.7864
16.0918,43.7955
16.0902,43.7932
15.9899,43.8495
15.8514,43.8813
15.7097,43.8729
15.5760,43.8248
15.5288,43.7945
15.5281,43.7955
15.5146,43.7864
15.5146,43.7864
15.4726,43.7621
15.3158,43.6717
15.1038,43.5838
15.1038,43.5838
14.8822,43.5245
14.8822,43.5244
14.6914,43.4993
14.6547,43.4945
14.4252,43.4945
14.3936,43.4987
14.1977,43.5244
14.1977,43.5245
13.9761,43.5838
13.9761,43.5838
13.7641,43.6717
13.5653,43.7864
13.5518,43.7955
13.5502,43.7932
13.4499,43.8495
13.3114,43.8813
13.1697,43.8729
13.0360,43.8248
12.9888,43.7945
12.9881,43.7955
12.9746,43.7864
12.9746,43.7864
12.9326,43.7621
12.7758,43.6717
12.5638,43.5838
12.5638,43.5838
12.3422,43.5245
12.3422,43.5244
12.1514,43.4993
12.1147,43.4945
11.8852,43.4945
11.8536,43.4987
11.6577,43.5244
11.6577,43.5245
11.4361,43.5838
11.4361,43.5838
11.2241,43.6717
11.0253,43.7864
11.0118,43.7955
11.0102,43.7932
10.9099,43.8495
10.7714,43.8813
10.6297,43.8729
10.4960,43.8248
10.4488,43.7945
10.4481,43.7955
10.4346,43.7864
10.4346,43.7864
10.3926,43.7621
10.2358,43.6717
10.0238,43.5838
10.0238,43.5838
9.8022,43.5245
9.8022,43.5244
9.6114,43.4993
9.5747,43.4945
9.3452,43.4945
9.3136,43.4987
9.1177,43.5244
9.1177,43.5245
8.8961,43.5838
8.8961,43.5838
8.6841,43.6717
8.5088,43.7728
8.4853,43.7864
8.4048,43.8482
8.3033,43.9261
8.2910,43.9369
8.2896,43.9353
8.1935,44.0073
8.1453,44.0303
7.9200,44.1237
7.9200,44.2894
7.8997,44.4299
7.8820,44.4803
7.7988,44.6811
7.7988,44.6811
7.7394,44.9028
7.7394,44.9028
7.7095,45.1303
7.7095,46.3597
7.7394,46.5872
7.7394,46.5872
7.7988,46.8089
7.7988,46.8089
7.7988,46.8089
7.8820,47.0097
7.9171,47.1473
7.9200,47.2006
7.9200,47.3663
8.0515,47.4208
8.1736,47.4933
8.2704,47.5972
8.3340,47.7242
8.3592,47.8640
8.3595,47.8818
8.3595,82.2764
8.3595,82.4496
8.3866,82.6207
8.4009,82.6647
8.4270,82.7450
8.4401,82.7854
8.4486,82.8020
8.5188,82.9398
8.6206,83.0799
8.6206,83.0799
29.7733,104.2327
29.8585,104.3464
29.9081,104.4795
29.9195,104.5855
29.9195,105.2692
29.8993,105.4098
29.8403,105.5390
29.7473,105.6463
29.7237,105.6637
29.7241,105.6643
29.7013,105.6823
29.5773,105.8063
29.4852,105.9557
29.4300,106.1222
29.4195,106.2250
29.4195,108.0250
29.4300,108.1278
29.4300,108.1278
29.4852,108.2943
29.4852,108.2943
29.5651,108.4238
29.5773,108.4437
29.7013,108.5677
29.7013,108.5677
29.7013,108.5677
29.8507,108.6598
30.0172,108.7150
30.1200,108.7255
31.9200,108.7255
32.0228,108.7150
32.1893,108.6598
32.3337,108.5708
32.4639,108.5142
32.6049,108.4966
32.7450,108.5194
32.8222,108.5509
32.8311,108.5555
32.8311,108.5555
33.0639,108.6519
33.3089,108.7107
33.5600,108.7304
33.8111,108.7107
34.0561,108.6519
34.2889,108.5555
34.5037,108.4238
34.5059,108.4219
34.5090,108.4200
34.5195,108.4123
34.5200,108.4130
34.6260,108.3460
34.7625,108.3069
34.9045,108.3079
35.0405,108.3489
35.1401,108.4129
35.1405,108.4123
35.1506,108.4197
35.1541,108.4219
35.1563,108.4238
35.3711,108.5555
35.6039,108.6519
35.8489,108.7107
36.1000,108.7304
36.3511,108.7107
36.5961,108.6519
36.8289,108.5555
37.0437,108.4238
37.2352,108.2602
37.2352,108.2602
37.2443,108.2524
37.3644,108.1765
37.5009,108.1375
37.6430,108.1385
37.7789,108.1795
37.7827,108.1817
37.7900,108.1779
37.7900,108.1779
39.4900,108.1779
39.5111,108.1631
39.6781,107.9961
39.6929,107.9750
39.4900,107.9750
39.4900,108.1779
37.7900,108.1779
37.7900,107.0592
38.1400,107.0592
38.1400,107.1908
38.1741,107.3180
38.2399,107.4320
38.3330,107.5251
38.4470,107.5909
38.5742,107.6250
38.7058,107.6250
38.8330,107.5909
38.9470,107.5251
39.0401,107.4320
39.1059,107.3180
39.1400,107.1908
39.1400,107.0592
39.1059,106.9320
39.0401,106.8180
38.9470,106.7249
38.8330,106.6591
38.7058,106.6250
38.5742,106.6250
38.4470,106.6591
38.3330,106.7249
38.2399,106.8180
38.1741,106.9320
38.1400,107.0592
37.7900,107.0592
37.7900,106.2750
39.4900,106.2750
39.6929,106.2750
39.6781,106.2539
39.5111,106.0869
39.5111,106.0869
39.4900,106.0721
39.4900,106.2750
37.7900,106.2750
37.7900,106.0721
37.7777,106.0657
37.7279,106.0910
37.5882,106.1167
37.4469,106.1021
37.3155,106.0483
37.2443,105.9976
37.1363,105.9053
37.0437,105.8262
36.8289,105.6945
36.5961,105.5981
36.4680,105.5674
36.3512,105.5393
36.3512,105.5393
36.3511,105.5393
36.1000,105.5196
35.8489,105.5393
35.8488,105.5393
35.8488,105.5393
35.6039,105.5981
35.6039,105.5981
35.3711,105.6945
35.1563,105.8262
35.1563,105.8262
35.1541,105.8281
35.1510,105.8301
35.1405,105.8377
35.1400,105.8370
35.0340,105.9040
34.8975,105.9431
34.7554,105.9421
34.6195,105.9011
34.5199,105.8371
34.5195,105.8377
34.5094,105.8303
34.5059,105.8281
34.5037,105.8262
34.5037,105.8262
34.2889,105.6945
34.0561,105.5981
33.9280,105.5674
33.8112,105.5393
33.8112,105.5393
33.8111,105.5393
33.5600,105.5196
33.3089,105.5393
33.3088,105.5393
33.3088,105.5393
33.0639,105.5981
33.0639,105.5981
32.9056,105.6637
32.8311,105.6945
32.8311,105.6945
32.8130,105.7020
32.8116,105.6987
32.7115,105.7328
32.5696,105.7388
32.4317,105.7046
32.3091,105.6330
32.2116,105.5297
32.1471,105.4031
32.1210,105.2635
32.1205,105.2423
32.1205,103.8364
32.1205,103.8364
32.0934,103.6653
32.0459,103.5192
32.0417,103.5041
32.0385,103.4980
31.9612,103.3462
31.9612,103.3462
31.9612,103.3462
31.8594,103.2061
31.8594,103.2061
25.6762,97.0228
32.4750,97.0228
32.4814,97.0824
32.5316,97.2171
32.5316,97.2171
32.6178,97.3322
32.7329,97.4184
32.7329,97.4184
32.8676,97.4686
32.9272,97.4750
32.9750,97.4750
32.9750,96.9750
32.4750,96.9750
32.4750,97.0228
25.6762,97.0228
24.7125,96.0592
33.3250,96.0592
33.3250,96.1908
33.3591,96.3180
33.4249,96.4320
33.5180,96.5251
33.6320,96.5909
33.7592,96.6250
33.8908,96.6250
34.0180,96.5909
34.1320,96.5251
34.2251,96.4320
34.2909,96.3180
34.3250,96.1908
34.3250,96.0592
34.2909,95.9320
34.2251,95.8180
34.1320,95.7249
34.0180,95.6591
33.8908,95.6250
33.7592,95.6250
33.6320,95.6591
33.5180,95.7249
33.4249,95.8180
33.3591,95.9320
33.3250,96.0592
24.7125,96.0592
23.8805,95.2272
32.4750,95.2272
32.4750,95.2750
32.9750,95.2750
32.9750,94.7750
34.6750,94.7750
34.6750,97.4750
34.7228,97.4750
34.7824,97.4686
34.9171,97.4184
34.9254,97.4138
35.0585,97.3642
35.2002,97.3540
35.3390,97.3842
35.4253,97.4263
35.6361,97.5555
35.8689,97.6519
36.1139,97.7107
36.2348,97.7202
36.3733,97.7514
36.4975,97.8203
36.5485,97.8648
38.0256,99.3419
38.1481,99.4644
38.2882,99.5662
38.4426,99.6449
38.6073,99.6984
38.7784,99.7255
38.7784,99.7255
50.1866,99.7255
50.1866,99.7255
50.3577,99.6984
50.5224,99.6449
50.6768,99.5662
50.8169,99.4644
50.9394,99.3419
51.0412,99.2018
51.1199,99.0474
51.1734,98.8827
51.2005,98.7116
51.2005,95.3347
51.2207,95.1941
51.2549,95.1081
51.2932,95.0329
51.3516,94.9184
51.3783,94.8362
51.4172,94.7163
51.4172,94.7162
51.4172,94.7162
51.4505,94.5063
51.4505,93.7437
51.4172,93.5338
51.4172,93.5338
51.4172,93.5337
51.3516,93.3316
51.3516,93.3316
51.3516,93.3316
51.2551,93.1422
51.1301,92.9702
51.1301,92.9702
51.1301,92.9702
50.9798,92.8199
50.9798,92.8199
50.9798,92.8199
50.8078,92.6949
50.8078,92.6949
50.8078,92.6949
50.7229,92.6517
50.6184,92.5984
50.6184,92.5984
50.6184,92.5984
50.4163,92.5328
50.4162,92.5328
50.2063,92.4995
49.9937,92.4995
49.7838,92.5328
49.7837,92.5328
49.5816,92.5984
49.5816,92.5984
49.3922,92.6949
49.3922,92.6950
49.2852,92.7727
49.1596,92.8389
49.0204,92.8671
48.8789,92.8550
48.7810,92.8212
48.7691,92.8156
48.7000,92.7927
48.7000,95.4573
48.7926,95.5242
48.8948,95.6228
48.9650,95.7463
48.9975,95.8846
48.9995,95.9287
48.9995,97.0255
48.9793,97.1661
48.9203,97.2953
48.8273,97.4026
48.7078,97.4794
48.5715,97.5194
48.5005,97.5245
39.5275,97.5245
39.3869,97.5043
39.2578,97.4453
39.1747,97.3783
38.1048,96.3085
38.0197,96.1948
37.9701,96.0617
37.9602,95.9948
37.9507,95.8739
37.8919,95.6289
37.7955,95.3961
37.6638,95.1813
37.6638,95.1813
37.6638,95.1813
37.5002,94.9898
37.5002,94.9898
37.3087,94.8262
37.3087,94.8262
37.3087,94.8262
37.3047,94.8237
37.2659,94.8000
47.0000,94.8000
47.0105,94.9027
47.0105,94.9027
47.0656,95.0691
47.1577,95.2183
47.2817,95.3423
47.4309,95.4344
47.5000,95.4573
47.5000,94.7250
47.0000,94.7250
47.0000,94.8000
37.2659,94.8000
37.0939,94.6945
36.8611,94.5981
36.6162,94.5393
36.6162,94.5393
36.6161,94.5393
36.3650,94.5196
36.1139,94.5393
36.1138,94.5393
36.1138,94.5393
35.8689,94.5981
35.8689,94.5981
35.6361,94.6945
35.4253,94.8237
35.2949,94.8799
35.1539,94.8971
35.0138,94.8739
34.9255,94.8362
34.9171,94.8316
34.7824,94.7814
34.7228,94.7750
34.6750,94.7750
32.9750,94.7750
32.9272,94.7750
32.8676,94.7814
32.7329,94.8316
32.7329,94.8316
32.6178,94.9178
32.5316,95.0329
32.5316,95.0329
32.4814,95.1676
32.4750,95.2272
23.8805,95.2272
22.7290,94.0756
47.7250,94.0756
47.7250,94.1744
47.7506,94.2697
47.7999,94.3553
47.8697,94.4251
47.9553,94.4744
48.0506,94.5000
48.1494,94.5000
48.2447,94.4744
48.3303,94.4251
48.4001,94.3553
48.4494,94.2697
48.4750,94.1744
48.4750,94.0756
48.4494,93.9803
48.4001,93.8947
48.3303,93.8249
48.2447,93.7756
48.1494,93.7500
48.0506,93.7500
47.9553,93.7756
47.8697,93.8249
47.7999,93.8947
47.7506,93.9803
47.7250,94.0756
22.7290,94.0756
22.1034,93.4500
47.0000,93.4500
47.0000,93.5250
47.5000,93.5250
47.5000,92.7927
47.5000,92.7927
47.4309,92.8156
47.2817,92.9077
47.2817,92.9077
47.1577,93.0317
47.0656,93.1809
47.0105,93.3473
47.0000,93.4500
22.1034,93.4500
12.8962,84.2428
18.2800,84.2428
18.2864,84.3024
18.3366,84.4371
18.3366,84.4371
18.4228,84.5522
18.5379,84.6384
18.5379,84.6384
18.6726,84.6886
18.7322,84.6950
18.7800,84.6950
18.7800,83.8450
18.2800,83.8450
18.2800,84.2428
12.8962,84.2428
10.7067,82.0533
10.6215,81.9396
10.5719,81.8065
10.5605,81.7005
10.5605,48.2903
10.5807,48.1497
10.6397,48.0205
10.7327,47.9132
10.8522,47.8364
10.9885,47.7964
11.1305,47.7964
11.2505,47.8293
11.4361,47.9062
11.6577,47.9655
11.8852,47.9955
11.8852,47.9955
12.1147,47.9955
12.1147,47.9955
12.3422,47.9655
12.5638,47.9062
12.7758,47.8183
12.9746,47.7036
12.9746,47.7036
12.9881,47.6945
12.9897,47.6968
13.0900,47.6405
13.2284,47.6087
13.3702,47.6171
13.5038,47.6651
13.5511,47.6955
13.5518,47.6945
13.5653,47.7036
13.5653,47.7036
13.7641,47.8183
13.9761,47.9062
14.1977,47.9655
14.4252,47.9955
14.4252,47.9955
14.6547,47.9955
14.6547,47.9955
14.8822,47.9655
15.1038,47.9062
15.3158,47.8183
15.5146,47.7036
15.5146,47.7036
15.5281,47.6945
15.5297,47.6968
15.6300,47.6405
15.7684,47.6087
15.9102,47.6171
16.0438,47.6651
16.0911,47.6955
16.0918,47.6945
16.1053,47.7036
16.1053,47.7036
16.3041,47.8183
16.5161,47.9062
16.7377,47.9655
16.9652,47.9955
16.9652,47.9955
17.1947,47.9955
17.1947,47.9955
17.4222,47.9655
17.6438,47.9062
17.8558,47.8183
18.0546,47.7036
18.0546,47.7036
18.0681,47.6945
18.0697,47.6968
18.1700,47.6405
18.3084,47.6087
18.4502,47.6171
18.5838,47.6651
18.6311,47.6955
18.6318,47.6945
18.6453,47.7036
18.6453,47.7036
18.8441,47.8183
19.0561,47.9062
19.2777,47.9655
19.5052,47.9955
19.5052,47.9955
19.7347,47.9955
19.7347,47.9955
19.9622,47.9655
20.1838,47.9062
20.3958,47.8183
20.5946,47.7036
20.5946,47.7036
20.6081,47.6945
20.6097,47.6968
20.7100,47.6405
20.8484,47.6087
20.9902,47.6171
21.1238,47.6651
21.1711,47.6955
21.1718,47.6945
21.1853,47.7036
21.1853,47.7036
21.3841,47.8183
21.5961,47.9062
21.8177,47.9655
22.0452,47.9955
22.0452,47.9955
22.2747,47.9955
22.2747,47.9955
22.5022,47.9655
22.7238,47.9062
22.9358,47.8183
23.1346,47.7036
23.1346,47.7036
23.1481,47.6945
23.1497,47.6968
23.2500,47.6405
23.3884,47.6087
23.5302,47.6171
23.6638,47.6651
23.7111,47.6955
23.7118,47.6945
23.7253,47.7036
23.7253,47.7036
23.9241,47.8183
24.1361,47.9062
24.3577,47.9655
24.5852,47.9955
24.5852,47.9955
24.8147,47.9955
24.8147,47.9955
25.0422,47.9655
25.2638,47.9062
25.4758,47.8183
25.6746,47.7036
25.6746,47.7036
25.6881,47.6945
25.6897,47.6968
25.7900,47.6405
25.9284,47.6087
26.0702,47.6171
26.2038,47.6651
26.2511,47.6955
26.2518,47.6945
26.2653,47.7036
26.2653,47.7036
26.4641,47.8183
26.6761,47.9062
26.8977,47.9655
27.1252,47.9955
27.1252,47.9955
27.3547,47.9955
27.3547,47.9955
27.5822,47.9655
27.8038,47.9062
28.0158,47.8183
28.2146,47.7036
28.2146,47.7036
28.2281,47.6945
28.2297,47.6968
28.3300,47.6405
28.4684,47.6087
28.6102,47.6171
28.7438,47.6651
28.7911,47.6955
28.7918,47.6945
28.8053,47.7036
28.8053,47.7036
29.0041,47.8183
29.2161,47.9062
29.4377,47.9655
29.6652,47.9955
29.6652,47.9955
29.8947,47.9955
29.8947,47.9955
30.1222,47.9655
30.3438,47.9062
30.5558,47.8183
30.7546,47.7036
30.7546,47.7036
30.7681,47.6945
30.7697,47.6968
30.8700,47.6405
31.0084,47.6087
31.1502,47.6171
31.2838,47.6651
31.3311,47.6955
31.3318,47.6945
31.3453,47.7036
31.3453,47.7036
31.5441,47.8183
31.7561,47.9062
31.9777,47.9655
32.2052,47.9955
32.2052,47.9955
32.4347,47.9955
32.4347,47.9955
32.6622,47.9655
32.8838,47.9062
33.0958,47.8183
33.2946,47.7036
33.2946,47.7036
33.3081,47.6945
33.3097,47.6968
33.4100,47.6405
33.5484,47.6087
33.6902,47.6171
33.8238,47.6651
33.8711,47.6955
33.8718,47.6945
33.8853,47.7036
33.8853,47.7036
34.0841,47.8183
34.2961,47.9062
34.5177,47.9655
34.7452,47.9955
34.7452,47.9955
34.9747,47.9955
34.9747,47.9955
35.2022,47.9655
35.4238,47.9062
35.6358,47.8183
35.8346,47.7036
35.8346,47.7036
35.8481,47.6945
35.8497,47.6968
35.9500,47.6405
36.0884,47.6087
36.2302,47.6171
36.3638,47.6651
36.4111,47.6955
36.4118,47.6945
36.4253,47.7036
36.4253,47.7036
36.6241,47.8183
36.8361,47.9062
37.0577,47.9655
37.2852,47.9955
37.2852,47.9955
37.5147,47.9955
37.5147,47.9955
37.7422,47.9655
37.9638,47.9062
38.1758,47.8183
38.3746,47.7036
38.3746,47.7036
38.3881,47.6945
38.3897,47.6968
38.4900,47.6405
38.6284,47.6087
38.7702,47.6171
38.9038,47.6651
38.9511,47.6955
38.9518,47.6945
38.9653,47.7036
38.9653,47.7036
39.1641,47.8183
39.3761,47.9062
39.5977,47.9655
39.8252,47.9955
39.8252,47.9955
40.0547,47.9955
40.0547,47.9955
40.2822,47.9655
40.5038,47.9062
40.7158,47.8183
40.9146,47.7036
40.9146,47.7036
40.9281,47.6945
40.9297,47.6968
41.0300,47.6405
41.1684,47.6087
41.3102,47.6171
41.4438,47.6651
41.4911,47.6955
41.4918,47.6945
41.5053,47.7036
41.5053,47.7036
41.7041,47.8183
41.9161,47.9062
42.1377,47.9655
42.3652,47.9955
42.3652,47.9955
42.5947,47.9955
42.5947,47.9955
42.8222,47.9655
43.0438,47.9062
43.2558,47.8183
43.4546,47.7036
43.4546,47.7036
43.4681,47.6945
43.4697,47.6968
43.5700,47.6405
43.7084,47.6087
43.8502,47.6171
43.9838,47.6651
44.0311,47.6955
44.0318,47.6945
44.0453,47.7036
44.0453,47.7036
44.2441,47.8183
44.4561,47.9062
44.6777,47.9655
44.9052,47.9955
44.9052,47.9955
45.1347,47.9955
45.1347,47.9955
45.3622,47.9655
45.5838,47.9062
45.7958,47.8183
45.9946,47.7036
45.9946,47.7036
46.0081,47.6945
46.0097,47.6968
46.1100,47.6405
46.2484,47.6087
46.3902,47.6171
46.5238,47.6651
46.5711,47.6955
46.5718,47.6945
46.5853,47.7036
46.5853,47.7036
46.7841,47.8183
46.9961,47.9062
47.2177,47.9655
47.4452,47.9955
47.4452,47.9955
47.6747,47.9955
47.6747,47.9955
47.9022,47.9655
48.1238,47.9062
48.3358,47.8183
48.5346,47.7036
48.5346,47.7036
48.5481,47.6945
48.5497,47.6968
48.6500,47.6405
48.7884,47.6087
48.9302,47.6171
49.0638,47.6651
49.1111,47.6955
49.1118,47.6945
49.1253,47.7036
49.1253,47.7036
49.3241,47.8183
49.5361,47.9062
49.7577,47.9655
49.9852,47.9955
49.9852,47.9955
50.2147,47.9955
50.2147,47.9955
50.4422,47.9655
50.6638,47.9062
50.8758,47.8183
51.0746,47.7036
51.2566,47.5639
51.4189,47.4017
51.5586,47.2196
51.6733,47.0209
51.7611,46.8089
51.8205,46.5872
51.8505,46.3597
51.8505,45.1303
51.8205,44.9028
51.7611,44.6811
51.6733,44.4691
51.5586,44.2704
51.4189,44.0883
51.4189,44.0883
51.4189,44.0883
51.2566,43.9261
51.2566,43.9261
51.0746,43.7864
50.9177,43.6958
50.8758,43.6717
50.6638,43.5838
50.6638,43.5838
50.4422,43.5245
50.4422,43.5244
50.2514,43.4993
50.2147,43.4945
49.9852,43.4945
49.9536,43.4987
49.7577,43.5244
49.7577,43.5245
49.5361,43.5838
49.5361,43.5838
49.3241,43.6717
49.1253,43.7864
49.1118,43.7955
49.1102,43.7932
49.0099,43.8495
48.8714,43.8813
48.7297,43.8729
48.5960,43.8248
48.5488,43.7945
48.5481,43.7955
48.5346,43.7864
48.5346,43.7864
48.4926,43.7621
48.3358,43.6717
48.1238,43.5838
48.1238,43.5838
47.9022,43.5245
47.9022,43.5244
47.7114,43.4993
47.6747,43.4945
47.4452,43.4945
47.4136,43.4987
47.2177,43.5244
47.2177,43.5245
46.9961,43.5838
46.9961,43.5838
46.7841,43.6717
46.5853,43.7864
46.5718,43.7955
46.5702,43.7932
46.4699,43.8495
46.3314,43.8813
46.1897,43.8729
46.0560,43.8248
46.0088,43.7945
46.0081,43.7955
45.9946,43.7864
45.9946,43.7864
45.9526,43.7621
45.7958,43.6717
45.5838,43.5838
45.5838,43.5838
45.3622,43.5245
45.3622,43.5244
45.1714,43.4993
45.1347,43.4945
44.9052,43.4945
44.8736,43.4987
44.6777,43.5244
44.6777,43.5245
44.4561,43.5838
44.4561,43.5838
44.2441,43.6717
44.0453,43.7864
44.0318,43.7955
44.0302,43.7932
43.9299,43.8495
43.7914,43.8813
43.6497,43.8729
43.5160,43.8248
43.4688,43.7945
43.4681,43.7955
43.4546,43.7864
43.4546,43.7864
43.4126,43.7621
43.2558,43.6717
43.0438,43.5838
43.0438,43.5838
42.8222,43.5245
42.8222,43.5244
42.6314,43.4993
42.5947,43.4945
42.3652,43.4945
42.3336,43.4987
42.1377,43.5244
42.1377,43.5245
41.9161,43.5838
41.9161,43.5838
41.7041,43.6717
41.5053,43.7864
41.4918,43.7955
41.4902,43.7932
41.3899,43.8495
41.2514,43.8813
41.1097,43.8729
40.9760,43.8248
40.9288,43.7945
40.9281,43.7955
40.9146,43.7864
40.9146,43.7864
40.8726,43.7621
40.7158,43.6717
40.5038,43.5838
40.5038,43.5838
40.2822,43.5245
40.2822,43.5244
40.0914,43.4993
40.0547,43.4945
39.8252,43.4945
39.7936,43.4987
39.5977,43.5244
39.5977,43.5245
39.3761,43.5838
39.3761,43.5838
39.1641,43.6717
38.9653,43.7864
38.9518,43.7955
38.9502,43.7932
38.8499,43.8495
38.7114,43.8813
38.5697,43.8729
38.4360,43.8248
38.3888,43.7945
38.3881,43.7955
38.3746,43.7864
38.3746,43.7864
38.3326,43.7621
38.1758,43.6717
37.9638,43.5838
37.9638,43.5838
37.7422,43.5245
37.7422,43.5244
37.5514,43.4993
37.5147,43.4945
37.2852,43.4945
37.2536,43.4987
37.0577,43.5244
37.0577,43.5245
36.8361,43.5838
36.8361,43.5838
36.6241,43.6717
36.4253,43.7864
36.4118,43.7955
36.4102,43.7932
36.3099,43.8495
36.1714,43.8813
36.0297,43.8729
35.8960,43.8248
35.8488,43.7945
35.8481,43.7955
35.8346,43.7864
35.8346,43.7864
35.7926,43.7621
35.6358,43.6717
35.4238,43.5838
35.4238,43.5838
35.2022,43.5245
35.2022,43.5244
35.0114,43.4993
34.9747,43.4945
34.7452,43.4945
34.7136,43.4987
34.5177,43.5244
34.5177,43.5245
34.2961,43.5838
34.2961,43.5838
34.0841,43.6717
33.8853,43.7864
33.8718,43.7955
33.8702,43.7932
33.7699,43.8495
33.6314,43.8813
33.4897,43.8729
33.3560,43.8248
33.3088,43.7945
33.3081,43.7955
33.2946,43.7864
33.2946,43.7864
33.2526,43.7621
33.0958,43.6717
32.8838,43.5838
32.8838,43.5838
32.6622,43.5245
32.6622,43.5244
32.4714,43.4993
32.4347,43.4945
32.2052,43.4945
32.1736,43.4987
31.9777,43.5244
31.9777,43.5245
31.7561,43.5838
31.7561,43.5838
31.5441,43.6717
31.3453,43.7864
31.3318,43.7955
31.3302,43.7932
31.2299,43.8495
31.0914,43.8813
30.9497,43.8729
30.8160,43.8248
30.7688,43.7945
30.7681,43.7955
30.7546,43.7864
30.7546,43.7864
30.7126,43.7621
30.5558,43.6717
30.3438,43.5838
30.3438,43.5838
30.1222,43.5245
30.1222,43.5244
29.9314,43.4993
29.8947,43.4945
29.6652,43.4945
29.6336,43.4987
29.4377,43.5244
29.4377,43.5245
29.2161,43.5838
29.2161,43.5838
29.0041,43.6717
28.8053,43.7864
28.7918,43.7955
28.7902,43.7932
28.6899,43.8495
28.5514,43.8813
28.4097,43.8729
28.2760,43.8248
28.2288,43.7945
28.2281,43.7955
28.2146,43.7864
28.2146,43.7864
28.1726,43.7621
28.0158,43.6717
27.8038,43.5838
27.8038,43.5838
27.5822,43.5245
27.5822,43.5244
27.3914,43.4993
27.3547,43.4945
27.1252,43.4945
27.0936,43.4987
26.8977,43.5244
26.8977,43.5245
26.6761,43.5838
26.5387,43.6407
26.5262,43.6459
26.4905,43.6607
26.3528,43.6958
26.2109,43.6908
26.0761,43.6459
25.9595,43.5649
25.8704,43.4543
25.8160,43.3231
25.8005,43.1997
25.8005,39.5384
25.8005,39.5384
25.7734,39.3673
25.7199,39.2026
25.6412,39.0482
25.5394,38.9081
25.5394,38.9081
25.4169,38.7856
25.4169,38.7856
25.2768,38.6838
25.2716,38.6811
25.1224,38.6051
25.1224,38.6051
25.1224,38.6051
25.0636,38.5860
24.9577,38.5516
24.7866,38.5245
24.7866,38.5245
16.2625,38.5245
16.1219,38.5043
15.9928,38.4453
15.9097,38.3783
4.8467,27.3153
4.7615,27.2016
4.7119,27.0685
4.7005,26.9625
4.7005,25.0846
4.7207,24.9440
4.7797,24.8148
4.8727,24.7075
4.9922,24.6307
5.1285,24.5907
5.2705,24.5907
5.4068,24.6307
5.5263,24.7075
5.5523,24.7318
5.5628,24.7422
5.6779,24.8284
5.6779,24.8284
5.8126,24.8786
5.8721,24.8850
5.9200,24.8850
5.9200,22.8348
6.5390,22.8348
6.5390,22.9352
6.5649,23.0321
6.6151,23.1189
6.6860,23.1899
6.7729,23.2400
6.8698,23.2660
6.9701,23.2660
7.0670,23.2400
7.1539,23.1899
7.2248,23.1189
7.2750,23.0321
7.3010,22.9352
7.3010,22.8348
7.2750,22.7379
7.2248,22.6511
7.1539,22.5801
7.0670,22.5300
6.9701,22.5040
6.8698,22.5040
6.7729,22.5300
6.6860,22.5801
6.6151,22.6511
6.5649,22.7379
6.5390,22.8348
5.9200,22.8348
5.9200,22.2703
7.7095,22.2703
7.7095,23.4997
7.7394,23.7272
7.7394,23.7272
7.7988,23.9489
7.7988,23.9489
7.7988,23.9489
7.8820,24.1497
7.9171,24.2873
7.9200,24.3406
7.9200,24.8850
7.9678,24.8850
8.0273,24.8786
8.1221,24.8432
8.2609,24.8131
8.4026,24.8232
8.5356,24.8728
8.5460,24.8786
8.6841,24.9583
8.7204,24.9734
8.8961,25.0462
9.1177,25.1055
9.3452,25.1355
9.3452,25.1355
9.5747,25.1355
9.5747,25.1355
9.8022,25.1055
10.0238,25.0462
10.2358,24.9583
10.4346,24.8436
10.4346,24.8436
10.4481,24.8345
10.4497,24.8368
10.5500,24.7805
10.6884,24.7487
10.8302,24.7571
10.9638,24.8051
11.0111,24.8355
11.0118,24.8345
11.0253,24.8436
11.0253,24.8436
11.1821,24.9341
11.2241,24.9583
11.2241,24.9583
11.4361,25.0462
11.6577,25.1055
11.8852,25.1355
11.8852,25.1355
12.1147,25.1355
12.1147,25.1355
12.3422,25.1055
12.5638,25.0462
12.7758,24.9583
12.9746,24.8436
12.9746,24.8436
12.9881,24.8345
12.9897,24.8368
13.0900,24.7805
13.2284,24.7487
13.3702,24.7571
13.5038,24.8051
13.5511,24.8355
13.5518,24.8345
13.5653,24.8436
13.5653,24.8436
13.7221,24.9341
13.7641,24.9583
13.7641,24.9583
13.9761,25.0462
14.1977,25.1055
14.4252,25.1355
14.4252,25.1355
14.6547,25.1355
14.6547,25.1355
14.8822,25.1055
15.1038,25.0462
15.3158,24.9583
15.5146,24.8436
15.5146,24.8436
15.5281,24.8345
15.5297,24.8368
15.6300,24.7805
15.7684,24.7487
15.9102,24.7571
16.0438,24.8051
16.0911,24.8355
16.0918,24.8345
16.1053,24.8436
16.1053,24.8436
16.2621,24.9341
16.3041,24.9583
16.3041,24.9583
16.5161,25.0462
16.7377,25.1055
16.9652,25.1355
16.9652,25.1355
17.1947,25.1355
17.1947,25.1355
17.4222,25.1055
17.6438,25.0462
17.8558,24.9583
18.0546,24.8436
18.0546,24.8436
18.0681,24.8345
18.0697,24.8368
18.1700,24.7805
18.3084,24.7487
18.4502,24.7571
18.5838,24.8051
18.6311,24.8355
18.6318,24.8345
18.6453,24.8436
18.6453,24.8436
18.8021,24.9341
18.8441,24.9583
18.8441,24.9583
19.0561,25.0462
19.2777,25.1055
19.5052,25.1355
19.5052,25.1355
19.7347,25.1355
19.7347,25.1355
19.9622,25.1055
20.1838,25.0462
20.3958,24.9583
20.5946,24.8436
20.5946,24.8436
20.6081,24.8345
20.6097,24.8368
20.7100,24.7805
20.8484,24.7487
20.9902,24.7571
21.1238,24.8051
21.1711,24.8355
21.1718,24.8345
21.1853,24.8436
21.1853,24.8436
21.3421,24.9341
21.3841,24.9583
21.3841,24.9583
21.5961,25.0462
21.8177,25.1055
22.0452,25.1355
22.0452,25.1355
22.2747,25.1355
22.2747,25.1355
22.5022,25.1055
22.7238,25.0462
22.9358,24.9583
23.1346,24.8436
23.1346,24.8436
23.1481,24.8345
23.1497,24.8368
23.2500,24.7805
23.3884,24.7487
23.5302,24.7571
23.6638,24.8051
23.7111,24.8355
23.7118,24.8345
23.7253,24.8436
23.7253,24.8436
23.8821,24.9341
23.9241,24.9583
23.9241,24.9583
24.1361,25.0462
24.3577,25.1055
24.5852,25.1355
24.5852,25.1355
24.8147,25.1355
24.8147,25.1355
25.0422,25.1055
25.2638,25.0462
25.4495,24.9692
25.5872,24.9341
25.7291,24.9392
25.8639,24.9840
25.9805,25.0650
26.0696,25.1756
26.1240,25.3068
26.1395,25.4303
26.1395,29.1784
26.1395,29.3516
26.1666,29.5227
26.2201,29.6874
26.2961,29.8366
26.2988,29.8418
26.4006,29.9819
26.4006,29.9819
33.7957,37.3770
37.7606,41.3419
37.8831,41.4644
38.0232,41.5662
38.1776,41.6449
38.3423,41.6984
38.5134,41.7255
56.0005,41.7255
56.1411,41.7457
56.2703,41.8047
56.3776,41.8977
56.4544,42.0172
56.4944,42.1535
56.4995,42.2245
56.4995,55.4625
56.4793,55.6030
56.4203,55.7322
56.3533,55.8153
49.9403,62.2283
49.8266,62.3135
49.6935,62.3631
49.5875,62.3745
49.4688,62.3745
49.3186,62.3971
49.2094,62.4136
48.9587,62.4909
48.9587,62.4909
48.7223,62.6048
48.7223,62.6048
48.5055,62.7526
48.3132,62.9310
48.1496,63.1361
48.1496,63.1362
48.0184,63.3634
48.0184,63.3634
47.9226,63.6076
47.9226,63.6076
47.8763,63.8102
47.8642,63.8634
47.8446,64.1250
47.8642,64.3866
47.8642,64.3866
47.9226,64.6424
47.9226,64.6424
48.0184,64.8866
48.0184,64.8866
48.0184,64.8866
48.1496,65.1139
48.1496,65.1139
48.1496,65.1139
48.3132,65.3190
48.5055,65.4974
48.6389,65.5883
48.7223,65.6452
48.9587,65.7591
49.2094,65.8364
49.4688,65.8755
49.4688,65.8755
49.7312,65.8755
49.7312,65.8755
49.9906,65.8364
50.2413,65.7591
50.4777,65.6452
50.6945,65.4974
50.8868,65.3190
51.0504,65.1139
51.1816,64.8866
51.1816,64.8866
51.1816,64.8866
51.2237,64.7794
51.2774,64.6424
51.3358,64.3866
51.3554,64.1250
51.3554,64.1250
51.3568,64.1064
51.3592,64.1066
51.3756,63.9920
51.4346,63.8628
51.5016,63.7798
53.4068,61.8745
58.4394,56.8419
58.5412,56.7018
58.5559,56.6730
58.6377,56.5569
58.7489,56.4686
58.8805,56.4152
59.0219,56.4010
59.1615,56.4272
59.2880,56.4917
59.3913,56.5892
59.4629,56.7119
59.4970,56.8498
59.4995,56.8996
59.4995,66.5255
59.4793,66.6661
59.4203,66.7953
59.3273,66.9026
59.2078,66.9794
59.0715,67.0194
59.0005,67.0245
39.2625,67.0245
39.1219,67.0043
38.9928,66.9453
38.9097,66.8783
36.0016,63.9702
35.9164,63.8565
35.8668,63.7234
35.8582,63.6435
35.8568,63.6436
35.8554,63.6250
35.8358,63.3634
35.7774,63.1076
35.7564,63.0539
35.6816,62.8634
35.6816,62.8634
35.6816,62.8634
35.5504,62.6361
35.3868,62.4310
35.3680,62.4136
35.1945,62.2526
34.9777,62.1048
34.9777,62.1048
34.9777,62.1048
34.8488,62.0427
34.7413,61.9909
34.7413,61.9909
34.7413,61.9909
34.7413,61.9909
34.4906,61.9136
34.4906,61.9136
34.4906,61.9136
34.3814,61.8971
34.2312,61.8745
33.9688,61.8745
33.8186,61.8971
33.7094,61.9136
33.4587,61.9909
33.4587,61.9909
33.2223,62.1048
33.2223,62.1048
33.0055,62.2526
32.8132,62.4310
32.6496,62.6361
32.6496,62.6362
32.5184,62.8634
32.5184,62.8634
32.4226,63.1076
32.4226,63.1076
32.3642,63.3634
32.3446,63.6250
32.3642,63.8866
32.4144,64.1066
32.4226,64.1424
32.4226,64.1424
32.5184,64.3866
32.5184,64.3866
32.5184,64.3866
32.6496,64.6139
32.6496,64.6139
32.6496,64.6139
32.8132,64.8190
33.0055,64.9974
33.1389,65.0883
33.2223,65.1452
33.4587,65.2591
33.7094,65.3364
33.9688,65.3755
33.9688,65.3755
34.0875,65.3755
34.2281,65.3957
34.3572,65.4547
34.4403,65.5217
37.7606,68.8419
37.8831,68.9644
38.0232,69.0662
38.1776,69.1449
38.3423,69.1984
38.5134,69.2255
38.5134,69.2255
59.7385,69.2255
59.8790,69.2457
60.0082,69.3047
60.1156,69.3977
60.1924,69.5172
60.2324,69.6535
60.2324,69.7955
60.1924,69.9318
60.1156,70.0513
60.0913,70.0773
48.5203,81.6483
48.4066,81.7335
48.2735,81.7831
48.1675,81.7945
22.8075,81.7945
22.6669,81.7743
22.5723,81.7356
22.5393,81.7180
22.5393,81.7180
22.3460,81.6593
22.3460,81.6593
22.3460,81.6593
22.3460,81.6593
22.3220,81.6546
22.3223,81.6528
22.2126,81.6259
22.0899,81.5545
21.9922,81.4514
21.9275,81.3250
21.9010,81.1854
21.9005,81.1632
21.9005,80.5496
21.8857,80.3990
21.8857,80.3990
21.8270,80.2057
21.7318,80.0275
21.6036,79.8714
21.4475,79.7432
21.2693,79.6480
21.2693,79.6480
21.0760,79.5893
21.0760,79.5893
21.0760,79.5893
21.0760,79.5893
21.0760,79.5893
20.9254,79.5745
20.9254,79.5745
20.2746,79.5745
20.2746,79.5745
20.1240,79.5893
20.1240,79.5893
19.9307,79.6480
19.9307,79.6480
19.7525,79.7432
19.5964,79.8714
19.4682,80.0275
19.3730,80.2057
19.3730,80.2057
19.3143,80.3990
19.3143,80.3990
19.2995,80.5496
19.2995,81.3960
19.2793,81.5366
19.2203,81.6658
19.1273,81.7731
19.0078,81.8499
18.8715,81.8899
18.8005,81.8950
18.7322,81.8950
18.6726,81.9014
18.5379,81.9516
18.5379,81.9516
18.4228,82.0378
18.3366,82.1529
18.3366,82.1529
18.2864,82.2876
18.2800,82.3472
18.2800,82.7450
18.9836,82.7450
18.9806,82.7503
18.9550,82.8456
18.9550,82.9444
18.9806,83.0397
19.0299,83.1253
19.0997,83.1951
19.1853,83.2444
19.2806,83.2700
19.3794,83.2700
19.4747,83.2444
19.5603,83.1951
19.6301,83.1253
19.6794,83.0397
19.7050,82.9444
19.7050,82.8712
19.7581,82.9172
19.8349,83.0367
19.8749,83.1730
19.8800,83.2440
19.8800,84.6950
19.9278,84.6950
19.9874,84.6886
20.1221,84.6384
20.1221,84.6384
20.1958,84.5831
20.3205,84.5151
20.4593,84.4849
20.6010,84.4950
20.7340,84.5446
20.8477,84.6297
20.8504,84.6327
20.8664,84.6486
20.9150,84.6886
21.0225,84.7768
21.2007,84.8720
21.3940,84.9307
21.4944,84.9406
21.5446,84.9455
21.5446,84.9455
22.1954,84.9455
22.2384,84.9413
22.3460,84.9307
22.5393,84.8720
22.7175,84.7768
22.8736,84.6486
23.0018,84.4925
23.0970,84.3143
23.0970,84.3143
23.1015,84.3035
23.1740,84.1814
23.2779,84.0846
23.4049,84.0210
23.5447,83.9958
23.5625,83.9955
48.9166,83.9955
48.9166,83.9955
49.0877,83.9684
49.2524,83.9149
49.4068,83.8362
49.5469,83.7344
64.4394,68.8419
64.5412,68.7018
64.6199,68.5474
64.6734,68.3827
64.7005,68.2116
64.7005,68.0384
64.7005,68.0384
64.7005,22.5384
64.6734,22.3673
64.6199,22.2026
64.5412,22.0482
64.5373,22.0428
64.4394,21.9081
64.4394,21.9081
64.3169,21.7856
58.3947,15.8634
52.3169,9.7856
52.3169,9.7856
52.1768,9.6838
52.1716,9.6811
52.0224,9.6051
52.0224,9.6051
52.0224,9.6051
51.9636,9.5860
51.8577,9.5516
51.6866,9.5245
51.6866,9.5245
40.9834,9.5245
40.8428,9.5043
40.7136,9.4453
40.6440,9.3913
40.4945,9.2526
40.2777,9.1048
40.2777,9.1048
40.2777,9.1048
40.1488,9.0427
40.0413,8.9909
40.0413,8.9909
40.0413,8.9909
40.0413,8.9909
39.7906,8.9136
39.7906,8.9136
39.7906,8.9136
39.6814,8.8971
39.5312,8.8745
39.2688,8.8745
39.1186,8.8971
39.0094,8.9136
38.7587,8.9909
38.7587,8.9909
38.5223,9.1048
38.5223,9.1048
38.3055,9.2526
38.1132,9.4310
37.9496,9.6361
37.9496,9.6362
37.8184,9.8634
37.8184,9.8634
37.7226,10.1076
37.7226,10.1076
37.6642,10.3634
37.6446,10.6250
37.6642,10.8866
37.6642,10.8866
37.7226,11.1424
37.7226,11.1424
37.8184,11.3866
37.8184,11.3866
37.8184,11.3866
37.9496,11.6139
38.1018,11.8047
38.1132,11.8190
38.3055,11.9974
38.4389,12.0883
38.5223,12.1452
38.7587,12.2591
39.0094,12.3364
39.2688,12.3755
39.2688,12.3755
39.5312,12.3755
39.5312,12.3755
39.7906,12.3364
40.0413,12.2591
40.2777,12.1452
40.4945,11.9974
40.6300,11.8717
40.6440,11.8587
40.7608,11.7779
40.8956,11.7333
40.9834,11.7255
50.9375,11.7255
51.0781,11.7457
51.2072,11.8047
51.2903,11.8717
62.3533,22.9347
62.4385,23.0484
62.4881,23.1815
62.4995,23.2875
62.4995,37.8491
62.4793,37.9897
62.4203,38.1189
62.3273,38.2263
62.2078,38.3030
62.0715,38.3431
61.9295,38.3431
61.7932,38.3030
61.6737,38.2263
61.5807,38.1189
61.5559,38.0757
61.5412,38.0469
61.4394,37.9068
61.4394,37.9068
61.3169,37.7843
61.3169,37.7843
61.1768,37.6825
61.1716,37.6798
61.0224,37.6038
61.0224,37.6038
61.0224,37.6038
60.9636,37.5847
60.8577,37.5503
60.6866,37.5232
60.6866,37.5232
40.7612,37.5232
40.6206,37.5030
40.4915,37.4440
40.4084,37.3770
31.0267,27.9953
30.9415,27.8816
30.8919,27.7485
30.8805,27.6425
30.8805,25.4303
30.9007,25.2897
30.9597,25.1605
31.0527,25.0532
31.1722,24.9764
31.3085,24.9364
31.4505,24.9364
31.5705,24.9693
31.7561,25.0462
31.9777,25.1055
32.2052,25.1355
32.2052,25.1355
32.4347,25.1355
32.4347,25.1355
32.6622,25.1055
32.8838,25.0462
33.0958,24.9583
33.2946,24.8436
33.2946,24.8436
33.3081,24.8345
33.3097,24.8368
33.4100,24.7805
33.5484,24.7487
33.6902,24.7571
33.8238,24.8051
33.8711,24.8355
33.8718,24.8345
33.8853,24.8436
33.8853,24.8436
34.0421,24.9341
34.0841,24.9583
34.0841,24.9583
34.2961,25.0462
34.5177,25.1055
34.7452,25.1355
34.7452,25.1355
34.9747,25.1355
34.9747,25.1355
35.2022,25.1055
35.4238,25.0462
35.6358,24.9583
35.8346,24.8436
35.8346,24.8436
35.8481,24.8345
35.8497,24.8368
35.9500,24.7805
36.0884,24.7487
36.2302,24.7571
36.3638,24.8051
36.4111,24.8355
36.4118,24.8345
36.4253,24.8436
36.4253,24.8436
36.5821,24.9341
36.6241,24.9583
36.6241,24.9583
36.8361,25.0462
37.0577,25.1055
37.2852,25.1355
37.2852,25.1355
37.5147,25.1355
37.5147,25.1355
37.7422,25.1055
37.9638,25.0462
38.1758,24.9583
38.3746,24.8436
38.3746,24.8436
38.3881,24.8345
38.3897,24.8368
38.4900,24.7805
38.6284,24.7487
38.7702,24.7571
38.9038,24.8051
38.9511,24.8355
38.9518,24.8345
38.9653,24.8436
38.9653,24.8436
39.1221,24.9341
39.1641,24.9583
39.1641,24.9583
39.3761,25.0462
39.5977,25.1055
39.8252,25.1355
39.8252,25.1355
40.0547,25.1355
40.0547,25.1355
40.2822,25.1055
40.5038,25.0462
40.7158,24.9583
40.9146,24.8436
40.9146,24.8436
40.9281,24.8345
40.9297,24.8368
41.0300,24.7805
41.1684,24.7487
41.3102,24.7571
41.4438,24.8051
41.4911,24.8355
41.4918,24.8345
41.5053,24.8436
41.5053,24.8436
41.6621,24.9341
41.7041,24.9583
41.7041,24.9583
41.9161,25.0462
42.1377,25.1055
42.3652,25.1355
42.3652,25.1355
42.5947,25.1355
42.5947,25.1355
42.8222,25.1055
43.0438,25.0462
43.2558,24.9583
43.4546,24.8436
43.4546,24.8436
43.4681,24.8345
43.4697,24.8368
43.5700,24.7805
43.7084,24.7487
43.8502,24.7571
43.9838,24.8051
44.0311,24.8355
44.0318,24.8345
44.0453,24.8436
44.0453,24.8436
44.2021,24.9341
44.2441,24.9583
44.2441,24.9583
44.4561,25.0462
44.6777,25.1055
44.9052,25.1355
44.9052,25.1355
45.1347,25.1355
45.1347,25.1355
45.3622,25.1055
45.5838,25.0462
45.7958,24.9583
45.9946,24.8436
45.9946,24.8436
46.0081,24.8345
46.0097,24.8368
46.1100,24.7805
46.2484,24.7487
46.3902,24.7571
46.5238,24.8051
46.5711,24.8355
46.5718,24.8345
46.5853,24.8436
46.5853,24.8436
46.7421,24.9341
46.7841,24.9583
46.7841,24.9583
46.9961,25.0462
47.2177,25.1055
47.4452,25.1355
47.4452,25.1355
47.6747,25.1355
47.6747,25.1355
47.9022,25.1055
48.1238,25.0462
48.3358,24.9583
48.5346,24.8436
48.5346,24.8436
48.5481,24.8345
48.5497,24.8368
48.6500,24.7805
48.7884,24.7487
48.9302,24.7571
49.0638,24.8051
49.1111,24.8355
49.1118,24.8345
49.1253,24.8436
49.1253,24.8436
49.2821,24.9341
49.3241,24.9583
49.3241,24.9583
49.5361,25.0462
49.7577,25.1055
49.9852,25.1355
49.9852,25.1355
50.2147,25.1355
50.2147,25.1355
50.4422,25.1055
50.6638,25.0462
50.8758,24.9583
51.0746,24.8436
51.2566,24.7039
51.4189,24.5417
51.5586,24.3596
51.6733,24.1609
51.7611,23.9489
51.8205,23.7272
51.8505,23.4997
51.8505,22.2703
51.8205,22.0428
51.7611,21.8211
51.6733,21.6091
51.5586,21.4104
51.4189,21.2283
51.4189,21.2283
51.4189,21.2283
51.2566,21.0661
51.2067,21.0278
51.0746,20.9264
50.9635,20.8622
50.8758,20.8117
50.6638,20.7238
50.6638,20.7238
50.4422,20.6645
50.4422,20.6644
50.2295,20.6364
50.2147,20.6345
49.9852,20.6345
49.9704,20.6364
49.7577,20.6644
49.7577,20.6645
49.5361,20.7238
49.5361,20.7238
49.3241,20.8117
49.1253,20.9264
49.1118,20.9355
49.1102,20.9332
49.0099,20.9895
48.8714,21.0213
48.7297,21.0129
48.5960,20.9648
48.5488,20.9345
48.5481,20.9355
48.5346,20.9264
48.5346,20.9264
48.4629,20.8850
48.3358,20.8117
48.1238,20.7238
48.1238,20.7238
47.9022,20.6645
47.9022,20.6644
47.6895,20.6364
47.6747,20.6345
47.4452,20.6345
47.4304,20.6364
47.2177,20.6644
47.2177,20.6645
46.9961,20.7238
46.9961,20.7238
46.7841,20.8117
46.5853,20.9264
46.5718,20.9355
46.5702,20.9332
46.4699,20.9895
46.3314,21.0213
46.1897,21.0129
46.0560,20.9648
46.0088,20.9345
46.0081,20.9355
45.9946,20.9264
45.9946,20.9264
45.9229,20.8850
45.7958,20.8117
45.5838,20.7238
45.5838,20.7238
45.3622,20.6645
45.3622,20.6644
45.1495,20.6364
45.1347,20.6345
44.9052,20.6345
44.8904,20.6364
44.6777,20.6644
44.6777,20.6645
44.4561,20.7238
44.4561,20.7238
44.2441,20.8117
44.0453,20.9264
44.0318,20.9355
44.0302,20.9332
43.9299,20.9895
43.7914,21.0213
43.6497,21.0129
43.5160,20.9648
43.4688,20.9345
43.4681,20.9355
43.4546,20.9264
43.4546,20.9264
43.3829,20.8850
43.2558,20.8117
43.0438,20.7238
43.0438,20.7238
42.8222,20.6645
42.8222,20.6644
42.6095,20.6364
42.5947,20.6345
42.3652,20.6345
42.3504,20.6364
42.1377,20.6644
42.1377,20.6645
41.9161,20.7238
41.9161,20.7238
41.7041,20.8117
41.5053,20.9264
41.4918,20.9355
41.4902,20.9332
41.3899,20.9895
41.2514,21.0213
41.1097,21.0129
40.9760,20.9648
40.9288,20.9345
40.9281,20.9355
40.9146,20.9264
40.9146,20.9264
40.8429,20.8850
40.7158,20.8117
40.5038,20.7238
40.5038,20.7238
40.2822,20.6645
40.2822,20.6644
40.0695,20.6364
40.0547,20.6345
39.8252,20.6345
39.8104,20.6364
39.5977,20.6644
39.5977,20.6645
39.3761,20.7238
39.3761,20.7238
39.1641,20.8117
38.9653,20.9264
38.9518,20.9355
38.9502,20.9332
38.8499,20.9895
38.7114,21.0213
38.5697,21.0129
38.4360,20.9648
38.3888,20.9345
38.3881,20.9355
38.3746,20.9264
38.3746,20.9264
38.3029,20.8850
38.1758,20.8117
37.9638,20.7238
37.9638,20.7238
37.7422,20.6645
37.7422,20.6644
37.5295,20.6364
37.5147,20.6345
37.2852,20.6345
37.2704,20.6364
37.0577,20.6644
37.0577,20.6645
36.8361,20.7238
36.8361,20.7238
36.6241,20.8117
36.4253,20.9264
36.4118,20.9355
36.4102,20.9332
36.3099,20.9895
36.1714,21.0213
36.0297,21.0129
35.8960,20.9648
35.8488,20.9345
35.8481,20.9355
35.8346,20.9264
35.8346,20.9264
35.7629,20.8850
35.6358,20.8117
35.4238,20.7238
35.4238,20.7238
35.2022,20.6645
35.2022,20.6644
34.9895,20.6364
34.9747,20.6345
34.7452,20.6345
34.7304,20.6364
34.5177,20.6644
34.5177,20.6645
34.2961,20.7238
34.2961,20.7238
34.0841,20.8117
33.8853,20.9264
33.8718,20.9355
33.8702,20.9332
33.7699,20.9895
33.6314,21.0213
33.4897,21.0129
33.3560,20.9648
33.3088,20.9345
33.3081,20.9355
33.2946,20.9264
33.2946,20.9264
33.2229,20.8850
33.0958,20.8117
32.8838,20.7238
32.8838,20.7238
32.6622,20.6645
32.6622,20.6644
32.4495,20.6364
32.4347,20.6345
32.2052,20.6345
32.1904,20.6364
31.9777,20.6644
31.9777,20.6645
31.7561,20.7238
31.7561,20.7238
31.5441,20.8117
31.3453,20.9264
31.3318,20.9355
31.3302,20.9332
31.2299,20.9895
31.0914,21.0213
30.9497,21.0129
30.8160,20.9648
30.7688,20.9345
30.7681,20.9355
30.7546,20.9264
30.7546,20.9264
30.6829,20.8850
30.5558,20.8117
30.3438,20.7238
30.3438,20.7238
30.1222,20.6645
30.1222,20.6644
29.9095,20.6364
29.8947,20.6345
29.6652,20.6345
29.6504,20.6364
29.4377,20.6644
29.4377,20.6645
29.2161,20.7238
29.2161,20.7238
29.0041,20.8117
28.8053,20.9264
28.7918,20.9355
28.7902,20.9332
28.6899,20.9895
28.5514,21.0213
28.4097,21.0129
28.2760,20.9648
28.2288,20.9345
28.2281,20.9355
28.2146,20.9264
28.2146,20.9264
28.1429,20.8850
28.0158,20.8117
27.8038,20.7238
27.8038,20.7238
27.5822,20.6645
27.5822,20.6644
27.3695,20.6364
27.3547,20.6345
27.1252,20.6345
27.1104,20.6364
26.8977,20.6644
26.8977,20.6645
26.6761,20.7238
26.6761,20.7238
26.4641,20.8117
26.2653,20.9264
26.2518,20.9355
26.2502,20.9332
26.1499,20.9895
26.0114,21.0213
25.8697,21.0129
25.7360,20.9648
25.6888,20.9345
25.6881,20.9355
25.6746,20.9264
25.6746,20.9264
25.6029,20.8850
25.4758,20.8117
25.2638,20.7238
25.2638,20.7238
25.0422,20.6645
25.0422,20.6644
24.8295,20.6364
24.8147,20.6345
24.5852,20.6345
24.5704,20.6364
24.3577,20.6644
24.3577,20.6645
24.1361,20.7238
24.1361,20.7238
23.9241,20.8117
23.7253,20.9264
23.7118,20.9355
23.7102,20.9332
23.6099,20.9895
23.4714,21.0213
23.3297,21.0129
23.1960,20.9648
23.1488,20.9345
23.1481,20.9355
23.1346,20.9264
23.1346,20.9264
23.0629,20.8850
22.9358,20.8117
22.7238,20.7238
22.7238,20.7238
22.5022,20.6645
22.5022,20.6644
22.2895,20.6364
22.2747,20.6345
22.0452,20.6345
22.0304,20.6364
21.8177,20.6644
21.8177,20.6645
21.5961,20.7238
21.5961,20.7238
21.3841,20.8117
21.1853,20.9264
21.1718,20.9355
21.1702,20.9332
21.0699,20.9895
20.9314,21.0213
20.7897,21.0129
20.6560,20.9648
20.6088,20.9345
20.6081,20.9355
20.5946,20.9264
20.5946,20.9264
20.5229,20.8850
20.3958,20.8117
20.1838,20.7238
20.1838,20.7238
19.9622,20.6645
19.9622,20.6644
19.7495,20.6364
19.7347,20.6345
19.5052,20.6345
19.4904,20.6364
19.2777,20.6644
19.2777,20.6645
19.0561,20.7238
19.0561,20.7238
18.8441,20.8117
18.6453,20.9264
18.6318,20.9355
18.6302,20.9332
18.5299,20.9895
18.3914,21.0213
18.2497,21.0129
18.1160,20.9648
18.0688,20.9345
18.0681,20.9355
18.0546,20.9264
18.0546,20.9264
17.9829,20.8850
17.8558,20.8117
17.6438,20.7238
17.6438,20.7238
17.4222,20.6645
17.4222,20.6644
17.2095,20.6364
17.1947,20.6345
16.9652,20.6345
16.9504,20.6364
16.7377,20.6644
16.7377,20.6645
16.5161,20.7238
16.5161,20.7238
16.3041,20.8117
16.1053,20.9264
16.0918,20.9355
16.0902,20.9332
15.9899,20.9895
15.8514,21.0213
15.7097,21.0129
15.5760,20.9648
15.5288,20.9345
15.5281,20.9355
15.5146,20.9264
15.5146,20.9264
15.4429,20.8850
15.3158,20.8117
15.1038,20.7238
15.1038,20.7238
14.8822,20.6645
14.8822,20.6644
14.6695,20.6364
14.6547,20.6345
14.4252,20.6345
14.4104,20.6364
14.2684,20.6348
14.1326,20.5931
14.0141,20.5149
13.9223,20.4065
13.8649,20.2766
13.8464,20.1358
13.8682,19.9954
13.9288,19.8669
13.9925,19.7889
21.9097,11.8717
22.0234,11.7865
22.1565,11.7369
22.2625,11.7255
29.7017,11.7255
29.8423,11.7457
29.9715,11.8047
30.0788,11.8977
30.1264,11.9625
30.2073,12.0937
30.3313,12.2177
30.3313,12.2177
30.3313,12.2177
30.4807,12.3098
30.6472,12.3650
30.7500,12.3755
32.8500,12.3755
32.9528,12.3650
33.1193,12.3098
33.2687,12.2177
33.3927,12.0937
33.4848,11.9443
33.5400,11.7778
33.5505,11.6750
33.5505,9.5750
33.5400,9.4722
33.4848,9.3057
33.3927,9.1563
33.3927,9.1563
33.3927,9.1563
33.2687,9.0323
33.1193,8.9402
32.9528,8.8850
32.8710,8.8766
32.8500,8.8745
32.8500,8.8745
30.7500,8.8745
30.6472,8.8850
30.6472,8.8850
30.4807,8.9402
30.3313,9.0323
30.2073,9.1563
30.1264,9.2875
30.0354,9.3965
29.9174,9.4755
29.7819,9.5180
29.7017,9.5245
21.6866,9.5245
21.5134,9.5245
21.3423,9.5516
21.3423,9.5516
21.3423,9.5516
21.1776,9.6051
21.1775,9.6051
21.0232,9.6838
21.0232,9.6838
20.8831,9.7856
20.8831,9.7856
13.5262,17.1424
11.2831,19.3856
11.2218,19.4468
11.1606,19.5081
11.0588,19.6482
10.9801,19.8026
10.9592,19.8669
10.9266,19.9673
10.8995,20.1384
10.8995,20.1384
10.8995,20.3397
10.8793,20.4803
10.8203,20.6095
10.7273,20.7169
10.6078,20.7937
10.4715,20.8337
10.3295,20.8337
10.2095,20.8008
10.0238,20.7238
10.0238,20.7238
10.0238,20.7238
9.8022,20.6645
9.8022,20.6644
9.5895,20.6364
9.5747,20.6345
9.3452,20.6345
9.3304,20.6364
9.1177,20.6644
9.1177,20.6645
8.8961,20.7238
8.8961,20.7238
8.6841,20.8117
8.5460,20.8914
8.4141,20.9442
8.2728,20.9577
8.1333,20.9308
8.1221,20.9268
8.0273,20.8914
7.9678,20.8850
7.9200,20.8850
7.9200,21.4294
7.8997,21.5699
7.8820,21.6203
7.7988,21.8211
7.7988,21.8211
7.7394,22.0428
7.7394,22.0428
7.7095,22.2703
5.9200,22.2703
5.9200,20.8850
5.8721,20.8850
5.8126,20.8914
5.6779,20.9416
5.6779,20.9416
5.5628,21.0278
5.5523,21.0382
5.4386,21.1233
5.3056,21.1730
5.1639,21.1831
5.0251,21.1529
4.9005,21.0849
4.8000,20.9844
4.7320,20.8598
4.7018,20.7210
4.7005,20.6854
4.7005,19.2245
4.7207,19.0839
4.7797,18.9547
4.8727,18.8474
4.9922,18.7706
5.1285,18.7306
5.1995,18.7255
5.6866,18.7255
5.6866,18.7255
5.8577,18.6984
6.0224,18.6449
6.1768,18.5662
6.3081,18.4708
6.4338,18.4045
6.5730,18.3763
6.6014,18.3755
6.7312,18.3755
6.7312,18.3755
6.9906,18.3364
7.2413,18.2591
7.4777,18.1452
7.6945,17.9974
7.8868,17.8190
8.0504,17.6139
8.1816,17.3866
8.1816,17.3866
8.1816,17.3866
8.2237,17.2794
8.2774,17.1424
8.3358,16.8866
8.3554,16.6250
8.3358,16.3634
8.2774,16.1076
8.2564,16.0539
8.1816,15.8634
8.1816,15.8634
8.1816,15.8634
8.0504,15.6361
7.8868,15.4310
7.8868,15.4310
7.6945,15.2526
7.4777,15.1048
7.4777,15.1048
7.4777,15.1048
7.3488,15.0427
7.2413,14.9909
7.2413,14.9909
7.2413,14.9909
7.2413,14.9909
6.9906,14.9136
6.9906,14.9136
6.9906,14.9136
6.8814,14.8971
6.7312,14.8745
6.4688,14.8745
6.3186,14.8971
6.2094,14.9136
5.9587,14.9909
5.9587,14.9909
5.7223,15.1048
5.7223,15.1048
5.5055,15.2526
5.3132,15.4310
5.1496,15.6361
5.1496,15.6362
5.0184,15.8634
5.0184,15.8634
4.9226,16.1076
4.9226,16.1076
4.9160,16.1365
4.8650,16.2691
4.7787,16.3819
4.6641,16.4659
4.5306,16.5142
4.4295,16.5245
4.1866,16.5245
4.0134,16.5245
3.8423,16.5516
3.7874,16.5694
3.6776,16.6051
3.5232,16.6838
3.3831,16.7856
3.1331,17.0356
2.8831,17.2856
2.8218,17.3468
2.7606,17.4081
2.6588,17.5482
2.5801,17.7026
2.5444,17.8124
2.5266,17.8673
2.4995,18.0384
0.5605,18.0384
0.5605,4.0305
2.8995,4.0305
2.8995,4.2195
2.9291,4.4061
2.9875,4.5858
2.9875,4.5858
3.0732,4.7542
3.0732,4.7542
3.1843,4.9071
3.1843,4.9071
3.3179,5.0407
3.3179,5.0407
3.4397,5.1292
3.4708,5.1518
3.4708,5.1518
3.4708,5.1518
3.5513,5.1928
3.6392,5.2375
3.7308,5.2673
3.8189,5.2959
3.8189,5.2959
3.8189,5.2959
3.9249,5.3127
4.0055,5.3255
4.0055,5.3255
4.1945,5.3255
4.2508,5.3166
4.3811,5.2959
4.3811,5.2959
4.3811,5.2959
4.4234,5.2822
4.5608,5.2375
4.7292,5.1518
4.8821,5.0407
5.0157,4.9071
5.1268,4.7542
5.2125,4.5858
5.2709,4.4061
5.3005,4.2195
5.3005,4.0305
5.3005,4.0305
63.3995,4.0305
63.3995,4.2195
63.4291,4.4061
63.4875,4.5858
63.4875,4.5858
63.5732,4.7542
63.5732,4.7542
63.6843,4.9071
63.6843,4.9071
63.8179,5.0407
63.8179,5.0407
63.9397,5.1292
63.9708,5.1518
63.9708,5.1518
63.9708,5.1518
64.0513,5.1928
64.1392,5.2375
64.2308,5.2673
64.3189,5.2959
64.3189,5.2959
64.3189,5.2959
64.4249,5.3127
64.5055,5.3255
64.5055,5.3255
64.6945,5.3255
64.7508,5.3166
64.8811,5.2959
64.8811,5.2959
64.8811,5.2959
64.9234,5.2822
65.0608,5.2375
65.2292,5.1518
65.3821,5.0407
65.5157,4.9071
65.6268,4.7542
65.7125,4.5858
65.7709,4.4061
65.8005,4.2195
65.8005,4.0305
65.7709,3.8439
65.7709,3.8439
65.7709,3.8439
65.7423,3.7558
65.7125,3.6642
65.6268,3.4958
65.5157,3.3429
65.3821,3.2093
65.3821,3.2093
65.3821,3.2093
65.2292,3.0982
65.2292,3.0982
65.0608,3.0125
65.0608,3.0125
65.0608,3.0125
65.0608,3.0125
64.8811,2.9541
64.6945,2.9245
64.6945,2.9245
64.5055,2.9245
64.5055,2.9245
64.3189,2.9541
64.1392,3.0125
64.1392,3.0125
63.9708,3.0982
63.9708,3.0982
63.8179,3.2093
63.8179,3.2093
63.6843,3.3429
63.6843,3.3429
63.5732,3.4958
63.5732,3.4958
63.4875,3.6642
63.4875,3.6642
63.4291,3.8439
63.3995,4.0305
5.3005,4.0305
5.2709,3.8439
5.2709,3.8439
5.2709,3.8439
5.2423,3.7558
5.2125,3.6642
5.1268,3.4958
5.0157,3.3429
4.8821,3.2093
4.8821,3.2093
4.8821,3.2093
4.7292,3.0982
4.7292,3.0982
4.5608,3.0125
4.5608,3.0125
4.5608,3.0125
4.5608,3.0125
4.3811,2.9541
4.1945,2.9245
4.1945,2.9245
4.0055,2.9245
4.0055,2.9245
3.8189,2.9541
3.6392,3.0125
3.6392,3.0125
3.4708,3.0982
3.4708,3.0982
3.3179,3.2093
3.3179,3.2093
3.1843,3.3429
3.1843,3.3429
3.0732,3.4958
3.0732,3.4958
2.9875,3.6642
2.9875,3.6642
2.9291,3.8439
2.8995,4.0305
0.5605,4.0305
0.5605,1.0245
0.5807,0.8839
0.6397,0.7547
0.7327,0.6474
0.8522,0.5706
0.9885,0.5306
1.0595,0.5255
68.0605,0.5255
Z" /> 
</g>
<g style="fill:#FFFFFF; fill-opacity:1.0000; stroke:none;">
<circle cx="6.6000" cy="16.6250" r="0.2000" /> 
</g>
<g style="fill:#FFFFFF; fill-opacity:1.0000; stroke:none;">
<circle cx="34.1000" cy="63.6250" r="0.2000" /> 
</g>
<g style="fill:#FFFFFF; fill-opacity:1.0000; stroke:none;">
<circle cx="49.6000" cy="64.1250" r="0.2000" /> 
</g>
<g style="fill:#FFFFFF; fill-opacity:1.0000; stroke:none;">
<circle cx="19.3300" cy="82.8950" r="0.3750" /> 
</g>
<g style="fill:#FFFFFF; fill-opacity:1.0000; stroke:none;">
<circle cx="20.6000" cy="81.6250" r="0.3750" /> 
</g>
<g style="fill:#FFFFFF; fill-opacity:1.0000; stroke:none;">
<circle cx="21.8700" cy="82.8950" r="0.3750" /> 
</g>
<g style="fill:#FFFFFF; fill-opacity:1.0000; stroke:none;">
<circle cx="31.0200" cy="107.1250" r="0.5000" /> 
</g>
<g style="fill:#FFFFFF; fill-opacity:1.0000; stroke:none;">
<circle cx="33.5600" cy="107.1250" r="0.5000" /> 
</g>
<g style="fill:#FFFFFF; fill-opacity:1.0000; stroke:none;">
<circle cx="36.1000" cy="107.1250" r="0.5000" /> 
</g>
<g style="fill:#FFFFFF; fill-opacity:1.0000; stroke:none;">
<circle cx="38.6400" cy="107.1250" r="0.5000" /> 
</g>
<g style="fill:#FFFFFF; fill-opacity:1.0000; stroke:none;">
<circle cx="4.1000" cy="114.1250" r="1.1000" /> 
</g>
<g style="fill:#FFFFFF; fill-opacity:1.0000; stroke:none;">
<circle cx="48.1000" cy="94.1250" r="0.3750" /> 
</g>
<g style="fill:#FFFFFF; fill-opacity:1.0000; stroke:none;">
<circle cx="50.1000" cy="94.1250" r="0.3750" /> 
</g>
<g style="fill:#FFFFFF; fill-opacity:1.0000; stroke:none;">
<circle cx="4.1000" cy="4.1250" r="1.1000" /> 
</g>
<g style="fill:#FFFFFF; fill-opacity:1.0000; stroke:none;">
<circle cx="31.8000" cy="10.6250" r="0.5000" /> 
</g>
<g style="fill:#FFFFFF; fill-opacity:1.0000; stroke:none;">
<circle cx="39.4000" cy="10.6250" r="0.5000" /> 
</g>
<g style="fill:#FFFFFF; fill-opacity:1.0000; stroke:none;">
<circle cx="50.1000" cy="45.7450" r="0.3810" /> 
</g>
<g style="fill:#FFFFFF; fill-opacity:1.0000; stroke:none;">
<circle cx="47.5600" cy="45.7450" r="0.3810" /> 
</g>
<g style="fill:#FFFFFF; fill-opacity:1.0000; stroke:none;">
<circle cx="45.0200" cy="45.7450" r="0.3810" /> 
</g>
<g style="fill:#FFFFFF; fill-opacity:1.0000; stroke:none;">
<circle cx="42.4800" cy="45.7450" r="0.3810" /> 
</g>
<g style="fill:#FFFFFF; fill-opacity:1.0000; stroke:none;">
<circle cx="39.9400" cy="45.7450" r="0.3810" /> 
</g>
<g style="fill:#FFFFFF; fill-opacity:1.0000; stroke:none;">
<circle cx="37.4000" cy="45.7450" r="0.3810" /> 
</g>
<g style="fill:#FFFFFF; fill-opacity:1.0000; stroke:none;">
<circle cx="34.8600" cy="45.7450" r="0.3810" /> 
</g>
<g style="fill:#FFFFFF; fill-opacity:1.0000; stroke:none;">
<circle cx="32.3200" cy="45.7450" r="0.3810" /> 
</g>
<g style="fill:#FFFFFF; fill-opacity:1.0000; stroke:none;">
<circle cx="29.7800" cy="45.7450" r="0.3810" /> 
</g>
<g style="fill:#FFFFFF; fill-opacity:1.0000; stroke:none;">
<circle cx="27.2400" cy="45.7450" r="0.3810" /> 
</g>
<g style="fill:#FFFFFF; fill-opacity:1.0000; stroke:none;">
<circle cx="24.7000" cy="45.7450" r="0.3810" /> 
</g>
<g style="fill:#FFFFFF; fill-opacity:1.0000; stroke:none;">
<circle cx="22.1600" cy="45.7450" r="0.3810" /> 
</g>
<g style="fill:#FFFFFF; fill-opacity:1.0000; stroke:none;">
<circle cx="19.6200" cy="45.7450" r="0.3810" /> 
</g>
<g style="fill:#FFFFFF; fill-opacity:1.0000; stroke:none;">
<circle cx="17.0800" cy="45.7450" r="0.3810" /> 
</g>
<g style="fill:#FFFFFF; fill-opacity:1.0000; stroke:none;">
<circle cx="14.5400" cy="45.7450" r="0.3810" /> 
</g>
<g style="fill:#FFFFFF; fill-opacity:1.0000; stroke:none;">
<circle cx="12.0000" cy="45.7450" r="0.3810" /> 
</g>
<g style="fill:#FFFFFF; fill-opacity:1.0000; stroke:none;">
<circle cx="9.4600" cy="45.7450" r="0.3810" /> 
</g>
<g style="fill:#FFFFFF; fill-opacity:1.0000; stroke:none;">
<circle cx="6.9200" cy="45.7450" r="0.3810" /> 
</g>
<g style="fill:#FFFFFF; fill-opacity:1.0000; stroke:none;">
<circle cx="50.1000" cy="22.8850" r="0.3810" /> 
</g>
<g style="fill:#FFFFFF; fill-opacity:1.0000; stroke:none;">
<circle cx="47.5600" cy="22.8850" r="0.3810" /> 
</g>
<g style="fill:#FFFFFF; fill-opacity:1.0000; stroke:none;">
<circle cx="45.0200" cy="22.8850" r="0.3810" /> 
</g>
<g style="fill:#FFFFFF; fill-opacity:1.0000; stroke:none;">
<circle cx="42.4800" cy="22.8850" r="0.3810" /> 
</g>
<g style="fill:#FFFFFF; fill-opacity:1.0000; stroke:none;">
<circle cx="39.9400" cy="22.8850" r="0.3810" /> 
</g>
<g style="fill:#FFFFFF; fill-opacity:1.0000; stroke:none;">
<circle cx="37.4000" cy="22.8850" r="0.3810" /> 
</g>
<g style="fill:#FFFFFF; fill-opacity:1.0000; stroke:none;">
<circle cx="34.8600" cy="22.8850" r="0.3810" /> 
</g>
<g style="fill:#FFFFFF; fill-opacity:1.0000; stroke:none;">
<circle cx="32.3200" cy="22.8850" r="0.3810" /> 
</g>
<g style="fill:#FFFFFF; fill-opacity:1.0000; stroke:none;">
<circle cx="29.7800" cy="22.8850" r="0.3810" /> 
</g>
<g style="fill:#FFFFFF; fill-opacity:1.0000; stroke:none;">
<circle cx="27.2400" cy="22.8850" r="0.3810" /> 
</g>
<g style="fill:#FFFFFF; fill-opacity:1.0000; stroke:none;">
<circle cx="24.7000" cy="22.8850" r="0.3810" /> 
</g>
<g style="fill:#FFFFFF; fill-opacity:1.0000; stroke:none;">
<circle cx="22.1600" cy="22.8850" r="0.3810" /> 
</g>
<g style="fill:#FFFFFF; fill-opacity:1.0000; stroke:none;">
<circle cx="19.6200" cy="22.8850" r="0.3810" /> 
</g>
<g style="fill:#FFFFFF; fill-opacity:1.0000; stroke:none;">
<circle cx="17.0800" cy="22.8850" r="0.3810" /> 
</g>
<g style="fill:#FFFFFF; fill-opacity:1.0000; stroke:none;">
<circle cx="14.5400" cy="22.8850" r="0.3810" /> 
</g>
<g style="fill:#FFFFFF; fill-opacity:1.0000; stroke:none;">
<circle cx="12.0000" cy="22.8850" r="0.3810" /> 
</g>
<g style="fill:#FFFFFF; fill-opacity:1.0000; stroke:none;">
<circle cx="9.4600" cy="22.8850" r="0.3810" /> 
</g>
<g style="fill:#FFFFFF; fill-opacity:1.0000; stroke:none;">
<circle cx="6.9200" cy="22.8850" r="0.3810" /> 
</g>
<g style="fill:#FFFFFF; fill-opacity:1.0000; stroke:none;">
<circle cx="64.6000" cy="4.1250" r="1.1000" /> 
</g>
<g style="fill:#FFFFFF; fill-opacity:1.0000; stroke:none;">
<circle cx="33.8250" cy="96.1250" r="0.5000" /> 
</g>
<g style="fill:#FFFFFF; fill-opacity:1.0000; stroke:none;">
<circle cx="36.3650" cy="96.1250" r="0.5000" /> 
</g>
<g style="fill:#FFFFFF; fill-opacity:1.0000; stroke:none;">
<circle cx="64.6000" cy="114.1250" r="1.1000" /> 
<path style="fill:none; 
stroke:#D0D2CD; stroke-width:0.0500; stroke-opacity:1; 
stroke-linecap:round; stroke-linejoin:round;fill:none"
d="M 0.0600,0.0250
69.0600,0.0250
69.0600,120.0250
0.0600,120.0250
Z" /> 
</g> 
</svg>
