<?xml version="1.0" standalone="no"?>
 <!DOCTYPE svg PUBLIC "-//W3C//DTD SVG 1.1//EN" 
 "http://www.w3.org/Graphics/SVG/1.1/DTD/svg11.dtd"> 
<svg
  xmlns:svg="http://www.w3.org/2000/svg"
  xmlns="http://www.w3.org/2000/svg"
  xmlns:xlink="http://www.w3.org/1999/xlink"
  version="1.1"
  width="46.0756mm" height="53.1622mm" viewBox="0.0000 0.0000 46.0756 53.1622">
<title>SVG Image created as LoRaKid-B_Mask.svg date 2024/05/31 11:22:13 </title>
  <desc>Image generated by PCBNEW </desc>
<g style="fill:#000000; fill-opacity:1.0000;stroke:#000000; stroke-opacity:1.0000;
stroke-linecap:round; stroke-linejoin:round;"
 transform="translate(0 0) scale(1 1)">
<path style="fill:#02FFEE; fill-opacity:0.4000; stroke:none;fill-rule:evenodd;"
d="M 24.6410,100.0661
22.9410,100.0661
22.9410,98.3661
24.6410,98.3661
Z" /> 
</g>
<g style="fill:#02FFEE; fill-opacity:0.4000; stroke:none;">
<circle cx="26.3310" cy="99.2161" r="0.8500" /> 
<circle cx="28.8710" cy="99.2161" r="0.8500" /> 
<circle cx="31.4110" cy="99.2161" r="0.8500" /> 
<circle cx="-3.1290" cy="106.2161" r="1.1000" /> 
<path style="fill:#02FFEE; fill-opacity:0.4000; stroke:none;fill-rule:evenodd;"
d="M 10.1960,80.4661
10.1960,78.9661
11.2460,78.9661
11.2460,80.4661
Z" /> 
</g>
<g style="fill:none; 
stroke:#02FFEE; stroke-width:1.0500; stroke-opacity:1; 
stroke-linecap:round; stroke-linejoin:round;">
<path d="M11.9910 79.4911
L11.9910 79.9411
" />
<path d="M13.2610 79.4911
L13.2610 79.9411
" />
<path style="fill:#02FFEE; fill-opacity:0.4000; stroke:none;fill-rule:evenodd;"
d="M 40.2710,85.5911
40.2900,85.4954
40.3442,85.4143
40.4253,85.3601
40.5210,85.3411
41.2210,85.3411
41.3167,85.3601
41.3978,85.4143
41.4520,85.4954
41.4710,85.5911
41.4710,86.8411
41.4520,86.9368
41.3978,87.0179
41.3167,87.0721
41.2210,87.0911
40.5210,87.0911
40.4253,87.0721
40.3442,87.0179
40.2900,86.9368
40.2710,86.8411
Z" /> 
</g>
<g style="fill:none; 
stroke:#02FFEE; stroke-width:1.2000; stroke-opacity:1; 
stroke-linecap:round; stroke-linejoin:round;">
<path d="M42.8710 85.9411
L42.8710 86.4911
" />
</g>
<g style="fill:#02FFEE; fill-opacity:0.4000; stroke:none;">
<circle cx="-3.1290" cy="-3.7839" r="1.1000" /> 
<path style="fill:#02FFEE; fill-opacity:0.4000; stroke:none;fill-rule:evenodd;"
d="M 23.5710,3.7161
23.5710,1.7161
25.5710,1.7161
25.5710,3.7161
Z" /> 
</g>
<g style="fill:#02FFEE; fill-opacity:0.4000; stroke:none;">
<circle cx="32.1710" cy="2.7161" r="1.0000" /> 
</g>
<g style="fill:#02FFEE; fill-opacity:0.4000; stroke:none;">
<circle cx="-0.3090" cy="14.9761" r="0.7620" /> 
</g>
<g style="fill:#02FFEE; fill-opacity:0.4000; stroke:none;">
<circle cx="2.2310" cy="14.9761" r="0.7620" /> 
</g>
<g style="fill:#02FFEE; fill-opacity:0.4000; stroke:none;">
<circle cx="4.7710" cy="14.9761" r="0.7620" /> 
</g>
<g style="fill:#02FFEE; fill-opacity:0.4000; stroke:none;">
<circle cx="7.3110" cy="14.9761" r="0.7620" /> 
</g>
<g style="fill:#02FFEE; fill-opacity:0.4000; stroke:none;">
<circle cx="9.8510" cy="14.9761" r="0.7620" /> 
</g>
<g style="fill:#02FFEE; fill-opacity:0.4000; stroke:none;">
<circle cx="12.3910" cy="14.9761" r="0.7620" /> 
</g>
<g style="fill:#02FFEE; fill-opacity:0.4000; stroke:none;">
<circle cx="14.9310" cy="14.9761" r="0.7620" /> 
</g>
<g style="fill:#02FFEE; fill-opacity:0.4000; stroke:none;">
<circle cx="17.4710" cy="14.9761" r="0.7620" /> 
</g>
<g style="fill:#02FFEE; fill-opacity:0.4000; stroke:none;">
<circle cx="20.0110" cy="14.9761" r="0.7620" /> 
</g>
<g style="fill:#02FFEE; fill-opacity:0.4000; stroke:none;">
<circle cx="22.5510" cy="14.9761" r="0.7620" /> 
</g>
<g style="fill:#02FFEE; fill-opacity:0.4000; stroke:none;">
<circle cx="25.0910" cy="14.9761" r="0.7620" /> 
</g>
<g style="fill:#02FFEE; fill-opacity:0.4000; stroke:none;">
<circle cx="27.6310" cy="14.9761" r="0.7620" /> 
</g>
<g style="fill:#02FFEE; fill-opacity:0.4000; stroke:none;">
<circle cx="30.1710" cy="14.9761" r="0.7620" /> 
</g>
<g style="fill:#02FFEE; fill-opacity:0.4000; stroke:none;">
<circle cx="32.7110" cy="14.9761" r="0.7620" /> 
</g>
<g style="fill:#02FFEE; fill-opacity:0.4000; stroke:none;">
<circle cx="35.2510" cy="14.9761" r="0.7620" /> 
</g>
<g style="fill:#02FFEE; fill-opacity:0.4000; stroke:none;">
<circle cx="37.7910" cy="14.9761" r="0.7620" /> 
</g>
<g style="fill:#02FFEE; fill-opacity:0.4000; stroke:none;">
<circle cx="40.3310" cy="14.9761" r="0.7620" /> 
</g>
<g style="fill:#02FFEE; fill-opacity:0.4000; stroke:none;">
<circle cx="42.8710" cy="14.9761" r="0.7620" /> 
</g>
<g style="fill:#02FFEE; fill-opacity:0.4000; stroke:none;">
<circle cx="-0.3090" cy="37.8361" r="0.7620" /> 
</g>
<g style="fill:#02FFEE; fill-opacity:0.4000; stroke:none;">
<circle cx="2.2310" cy="37.8361" r="0.7620" /> 
</g>
<g style="fill:#02FFEE; fill-opacity:0.4000; stroke:none;">
<circle cx="4.7710" cy="37.8361" r="0.7620" /> 
</g>
<g style="fill:#02FFEE; fill-opacity:0.4000; stroke:none;">
<circle cx="7.3110" cy="37.8361" r="0.7620" /> 
</g>
<g style="fill:#02FFEE; fill-opacity:0.4000; stroke:none;">
<circle cx="9.8510" cy="37.8361" r="0.7620" /> 
</g>
<g style="fill:#02FFEE; fill-opacity:0.4000; stroke:none;">
<circle cx="12.3910" cy="37.8361" r="0.7620" /> 
</g>
<g style="fill:#02FFEE; fill-opacity:0.4000; stroke:none;">
<circle cx="14.9310" cy="37.8361" r="0.7620" /> 
</g>
<g style="fill:#02FFEE; fill-opacity:0.4000; stroke:none;">
<circle cx="17.4710" cy="37.8361" r="0.7620" /> 
</g>
<g style="fill:#02FFEE; fill-opacity:0.4000; stroke:none;">
<circle cx="20.0110" cy="37.8361" r="0.7620" /> 
</g>
<g style="fill:#02FFEE; fill-opacity:0.4000; stroke:none;">
<circle cx="22.5510" cy="37.8361" r="0.7620" /> 
</g>
<g style="fill:#02FFEE; fill-opacity:0.4000; stroke:none;">
<circle cx="25.0910" cy="37.8361" r="0.7620" /> 
</g>
<g style="fill:#02FFEE; fill-opacity:0.4000; stroke:none;">
<circle cx="27.6310" cy="37.8361" r="0.7620" /> 
</g>
<g style="fill:#02FFEE; fill-opacity:0.4000; stroke:none;">
<circle cx="30.1710" cy="37.8361" r="0.7620" /> 
</g>
<g style="fill:#02FFEE; fill-opacity:0.4000; stroke:none;">
<circle cx="32.7110" cy="37.8361" r="0.7620" /> 
</g>
<g style="fill:#02FFEE; fill-opacity:0.4000; stroke:none;">
<circle cx="35.2510" cy="37.8361" r="0.7620" /> 
</g>
<g style="fill:#02FFEE; fill-opacity:0.4000; stroke:none;">
<circle cx="37.7910" cy="37.8361" r="0.7620" /> 
</g>
<g style="fill:#02FFEE; fill-opacity:0.4000; stroke:none;">
<circle cx="40.3310" cy="37.8361" r="0.7620" /> 
</g>
<g style="fill:#02FFEE; fill-opacity:0.4000; stroke:none;">
<circle cx="42.8710" cy="37.8361" r="0.7620" /> 
</g>
<g style="fill:#02FFEE; fill-opacity:0.4000; stroke:none;">
<circle cx="57.3710" cy="-3.7839" r="1.1000" /> 
<path style="fill:#02FFEE; fill-opacity:0.4000; stroke:none;fill-rule:evenodd;"
d="M 27.4460,89.0661
25.7460,89.0661
25.7460,87.3661
27.4460,87.3661
Z" /> 
</g>
<g style="fill:#02FFEE; fill-opacity:0.4000; stroke:none;">
<circle cx="29.1360" cy="88.2161" r="0.8500" /> 
<circle cx="57.3710" cy="106.2161" r="1.1000" /> 
</g>
<g style="fill:#ECECEC; fill-opacity:1.0000; stroke:none;">
<circle cx="0.6000" cy="0.6000" r="0.6000" /> 
</g>
<g style="fill:#ECECEC; fill-opacity:1.0000; stroke:none;">
<circle cx="31.9070" cy="52.5764" r="0.6000" /> 
</g>
<g style="fill:#ECECEC; fill-opacity:1.0000; stroke:none;">
<circle cx="45.4990" cy="37.8109" r="0.6000" /> 
<path style="fill:none; 
stroke:#D0D2CD; stroke-width:0.0500; stroke-opacity:1; 
stroke-linecap:round; stroke-linejoin:round;fill:none"
d="M -7.1690,-7.8839
61.8310,-7.8839
61.8310,112.1161
-7.1690,112.1161
Z" /> 
</g> 
</svg>
