<?xml version="1.0" standalone="no"?>
 <!DOCTYPE svg PUBLIC "-//W3C//DTD SVG 1.1//EN" 
 "http://www.w3.org/Graphics/SVG/1.1/DTD/svg11.dtd"> 
<svg
  xmlns:svg="http://www.w3.org/2000/svg"
  xmlns="http://www.w3.org/2000/svg"
  xmlns:xlink="http://www.w3.org/1999/xlink"
  version="1.1"
  width="46.0756mm" height="53.1622mm" viewBox="0.0000 0.0000 46.0756 53.1622">
<title>SVG Image created as LoRaKid-F_Mask.svg date 2024/05/31 11:22:13 </title>
  <desc>Image generated by PCBNEW </desc>
<g style="fill:#000000; fill-opacity:1.0000;stroke:#000000; stroke-opacity:1.0000;
stroke-linecap:round; stroke-linejoin:round;"
 transform="translate(0 0) scale(1 1)">
<path style="fill:#D864FF; fill-opacity:0.4000; stroke:none;fill-rule:evenodd;"
d="M -4.1090,-0.2339
-4.1090,1.1661
-5.7090,1.1661
-5.7090,-0.2339
Z" /> 
<path style="fill:#D864FF; fill-opacity:0.4000; stroke:none;fill-rule:evenodd;"
d="M 3.8910,-0.2339
3.8910,1.1661
2.2910,1.1661
2.2910,-0.2339
Z" /> 
<path style="fill:#D864FF; fill-opacity:0.4000; stroke:none;fill-rule:evenodd;"
d="M -4.1090,4.2661
-4.1090,5.6661
-5.7090,5.6661
-5.7090,4.2661
Z" /> 
<path style="fill:#D864FF; fill-opacity:0.4000; stroke:none;fill-rule:evenodd;"
d="M 3.8910,4.2661
3.8910,5.6661
2.2910,5.6661
2.2910,4.2661
Z" /> 
<path style="fill:#D864FF; fill-opacity:0.4000; stroke:none;fill-rule:evenodd;"
d="M 24.6410,100.0661
22.9410,100.0661
22.9410,98.3661
24.6410,98.3661
Z" /> 
</g>
<g style="fill:#D864FF; fill-opacity:0.4000; stroke:none;">
<circle cx="26.3310" cy="99.2161" r="0.8500" /> 
<circle cx="28.8710" cy="99.2161" r="0.8500" /> 
<circle cx="31.4110" cy="99.2161" r="0.8500" /> 
<circle cx="-3.1290" cy="106.2161" r="1.1000" /> 
<path style="fill:#D864FF; fill-opacity:0.4000; stroke:none;fill-rule:evenodd;"
d="M 3.5310,45.0461
3.5310,46.4461
1.9310,46.4461
1.9310,45.0461
Z" /> 
<path style="fill:#D864FF; fill-opacity:0.4000; stroke:none;fill-rule:evenodd;"
d="M 11.5310,45.0461
11.5310,46.4461
9.9310,46.4461
9.9310,45.0461
Z" /> 
<path style="fill:#D864FF; fill-opacity:0.4000; stroke:none;fill-rule:evenodd;"
d="M 3.5310,49.5461
3.5310,50.9461
1.9310,50.9461
1.9310,49.5461
Z" /> 
<path style="fill:#D864FF; fill-opacity:0.4000; stroke:none;fill-rule:evenodd;"
d="M 11.5310,49.5461
11.5310,50.9461
9.9310,50.9461
9.9310,49.5461
Z" /> 
<path style="fill:#D864FF; fill-opacity:0.4000; stroke:none;fill-rule:evenodd;"
d="M 39.6710,-0.2339
39.6710,1.1661
38.0710,1.1661
38.0710,-0.2339
Z" /> 
<path style="fill:#D864FF; fill-opacity:0.4000; stroke:none;fill-rule:evenodd;"
d="M 47.6710,-0.2339
47.6710,1.1661
46.0710,1.1661
46.0710,-0.2339
Z" /> 
<path style="fill:#D864FF; fill-opacity:0.4000; stroke:none;fill-rule:evenodd;"
d="M 39.6710,4.2661
39.6710,5.6661
38.0710,5.6661
38.0710,4.2661
Z" /> 
<path style="fill:#D864FF; fill-opacity:0.4000; stroke:none;fill-rule:evenodd;"
d="M 47.6710,4.2661
47.6710,5.6661
46.0710,5.6661
46.0710,4.2661
Z" /> 
<path style="fill:#D864FF; fill-opacity:0.4000; stroke:none;fill-rule:evenodd;"
d="M 10.1960,80.4661
10.1960,78.9661
11.2460,78.9661
11.2460,80.4661
Z" /> 
</g>
<g style="fill:none; 
stroke:#D864FF; stroke-width:1.0500; stroke-opacity:1; 
stroke-linecap:round; stroke-linejoin:round;">
<path d="M11.9910 79.4911
L11.9910 79.9411
" />
<path d="M13.2610 79.4911
L13.2610 79.9411
" />
<path style="fill:#D864FF; fill-opacity:0.4000; stroke:none;fill-rule:evenodd;"
d="M 23.8510,62.8261
23.8510,64.2261
22.2510,64.2261
22.2510,62.8261
Z" /> 
<path style="fill:#D864FF; fill-opacity:0.4000; stroke:none;fill-rule:evenodd;"
d="M 31.8510,62.8261
31.8510,64.2261
30.2510,64.2261
30.2510,62.8261
Z" /> 
<path style="fill:#D864FF; fill-opacity:0.4000; stroke:none;fill-rule:evenodd;"
d="M 23.8510,67.3261
23.8510,68.7261
22.2510,68.7261
22.2510,67.3261
Z" /> 
<path style="fill:#D864FF; fill-opacity:0.4000; stroke:none;fill-rule:evenodd;"
d="M 31.8510,67.3261
31.8510,68.7261
30.2510,68.7261
30.2510,67.3261
Z" /> 
<path style="fill:#D864FF; fill-opacity:0.4000; stroke:none;fill-rule:evenodd;"
d="M 44.1710,45.0461
44.1710,46.4461
42.5710,46.4461
42.5710,45.0461
Z" /> 
<path style="fill:#D864FF; fill-opacity:0.4000; stroke:none;fill-rule:evenodd;"
d="M 52.1710,45.0461
52.1710,46.4461
50.5710,46.4461
50.5710,45.0461
Z" /> 
<path style="fill:#D864FF; fill-opacity:0.4000; stroke:none;fill-rule:evenodd;"
d="M 44.1710,49.5461
44.1710,50.9461
42.5710,50.9461
42.5710,49.5461
Z" /> 
<path style="fill:#D864FF; fill-opacity:0.4000; stroke:none;fill-rule:evenodd;"
d="M 52.1710,49.5461
52.1710,50.9461
50.5710,50.9461
50.5710,49.5461
Z" /> 
<path style="fill:#D864FF; fill-opacity:0.4000; stroke:none;fill-rule:evenodd;"
d="M 23.8510,45.0461
23.8510,46.4461
22.2510,46.4461
22.2510,45.0461
Z" /> 
<path style="fill:#D864FF; fill-opacity:0.4000; stroke:none;fill-rule:evenodd;"
d="M 31.8510,45.0461
31.8510,46.4461
30.2510,46.4461
30.2510,45.0461
Z" /> 
<path style="fill:#D864FF; fill-opacity:0.4000; stroke:none;fill-rule:evenodd;"
d="M 23.8510,49.5461
23.8510,50.9461
22.2510,50.9461
22.2510,49.5461
Z" /> 
<path style="fill:#D864FF; fill-opacity:0.4000; stroke:none;fill-rule:evenodd;"
d="M 31.8510,49.5461
31.8510,50.9461
30.2510,50.9461
30.2510,49.5461
Z" /> 
<path style="fill:#D864FF; fill-opacity:0.4000; stroke:none;fill-rule:evenodd;"
d="M 40.2710,85.5911
40.2900,85.4954
40.3442,85.4143
40.4253,85.3601
40.5210,85.3411
41.2210,85.3411
41.3167,85.3601
41.3978,85.4143
41.4520,85.4954
41.4710,85.5911
41.4710,86.8411
41.4520,86.9368
41.3978,87.0179
41.3167,87.0721
41.2210,87.0911
40.5210,87.0911
40.4253,87.0721
40.3442,87.0179
40.2900,86.9368
40.2710,86.8411
Z" /> 
</g>
<g style="fill:none; 
stroke:#D864FF; stroke-width:1.2000; stroke-opacity:1; 
stroke-linecap:round; stroke-linejoin:round;">
<path d="M42.8710 85.9411
L42.8710 86.4911
" />
</g>
<g style="fill:#D864FF; fill-opacity:0.4000; stroke:none;">
<circle cx="-3.1290" cy="-3.7839" r="1.1000" /> 
<path style="fill:#D864FF; fill-opacity:0.4000; stroke:none;fill-rule:evenodd;"
d="M 23.5710,3.7161
23.5710,1.7161
25.5710,1.7161
25.5710,3.7161
Z" /> 
</g>
<g style="fill:#D864FF; fill-opacity:0.4000; stroke:none;">
<circle cx="32.1710" cy="2.7161" r="1.0000" /> 
<path style="fill:#D864FF; fill-opacity:0.4000; stroke:none;fill-rule:evenodd;"
d="M 14.1210,88.5911
14.1400,88.4954
14.1942,88.4143
14.2753,88.3601
14.3710,88.3411
15.1710,88.3411
15.2667,88.3601
15.3478,88.4143
15.4020,88.4954
15.4210,88.5911
15.4210,89.8411
15.4020,89.9368
15.3478,90.0179
15.2667,90.0721
15.1710,90.0911
14.3710,90.0911
14.2753,90.0721
14.1942,90.0179
14.1400,89.9368
14.1210,89.8411
Z" /> 
<path style="fill:#D864FF; fill-opacity:0.4000; stroke:none;fill-rule:evenodd;"
d="M 17.2210,88.5911
17.2400,88.4954
17.2942,88.4143
17.3753,88.3601
17.4710,88.3411
18.2710,88.3411
18.3667,88.3601
18.4478,88.4143
18.5020,88.4954
18.5210,88.5911
18.5210,89.8411
18.5020,89.9368
18.4478,90.0179
18.3667,90.0721
18.2710,90.0911
17.4710,90.0911
17.3753,90.0721
17.2942,90.0179
17.2400,89.9368
17.2210,89.8411
Z" /> 
</g>
<g style="fill:#D864FF; fill-opacity:0.4000; stroke:none;">
<circle cx="-0.3090" cy="14.9761" r="0.7620" /> 
</g>
<g style="fill:#D864FF; fill-opacity:0.4000; stroke:none;">
<circle cx="2.2310" cy="14.9761" r="0.7620" /> 
</g>
<g style="fill:#D864FF; fill-opacity:0.4000; stroke:none;">
<circle cx="4.7710" cy="14.9761" r="0.7620" /> 
</g>
<g style="fill:#D864FF; fill-opacity:0.4000; stroke:none;">
<circle cx="7.3110" cy="14.9761" r="0.7620" /> 
</g>
<g style="fill:#D864FF; fill-opacity:0.4000; stroke:none;">
<circle cx="9.8510" cy="14.9761" r="0.7620" /> 
</g>
<g style="fill:#D864FF; fill-opacity:0.4000; stroke:none;">
<circle cx="12.3910" cy="14.9761" r="0.7620" /> 
</g>
<g style="fill:#D864FF; fill-opacity:0.4000; stroke:none;">
<circle cx="14.9310" cy="14.9761" r="0.7620" /> 
</g>
<g style="fill:#D864FF; fill-opacity:0.4000; stroke:none;">
<circle cx="17.4710" cy="14.9761" r="0.7620" /> 
</g>
<g style="fill:#D864FF; fill-opacity:0.4000; stroke:none;">
<circle cx="20.0110" cy="14.9761" r="0.7620" /> 
</g>
<g style="fill:#D864FF; fill-opacity:0.4000; stroke:none;">
<circle cx="22.5510" cy="14.9761" r="0.7620" /> 
</g>
<g style="fill:#D864FF; fill-opacity:0.4000; stroke:none;">
<circle cx="25.0910" cy="14.9761" r="0.7620" /> 
</g>
<g style="fill:#D864FF; fill-opacity:0.4000; stroke:none;">
<circle cx="27.6310" cy="14.9761" r="0.7620" /> 
</g>
<g style="fill:#D864FF; fill-opacity:0.4000; stroke:none;">
<circle cx="30.1710" cy="14.9761" r="0.7620" /> 
</g>
<g style="fill:#D864FF; fill-opacity:0.4000; stroke:none;">
<circle cx="32.7110" cy="14.9761" r="0.7620" /> 
</g>
<g style="fill:#D864FF; fill-opacity:0.4000; stroke:none;">
<circle cx="35.2510" cy="14.9761" r="0.7620" /> 
</g>
<g style="fill:#D864FF; fill-opacity:0.4000; stroke:none;">
<circle cx="37.7910" cy="14.9761" r="0.7620" /> 
</g>
<g style="fill:#D864FF; fill-opacity:0.4000; stroke:none;">
<circle cx="40.3310" cy="14.9761" r="0.7620" /> 
</g>
<g style="fill:#D864FF; fill-opacity:0.4000; stroke:none;">
<circle cx="42.8710" cy="14.9761" r="0.7620" /> 
</g>
<g style="fill:#D864FF; fill-opacity:0.4000; stroke:none;">
<circle cx="-0.3090" cy="37.8361" r="0.7620" /> 
</g>
<g style="fill:#D864FF; fill-opacity:0.4000; stroke:none;">
<circle cx="2.2310" cy="37.8361" r="0.7620" /> 
</g>
<g style="fill:#D864FF; fill-opacity:0.4000; stroke:none;">
<circle cx="4.7710" cy="37.8361" r="0.7620" /> 
</g>
<g style="fill:#D864FF; fill-opacity:0.4000; stroke:none;">
<circle cx="7.3110" cy="37.8361" r="0.7620" /> 
</g>
<g style="fill:#D864FF; fill-opacity:0.4000; stroke:none;">
<circle cx="9.8510" cy="37.8361" r="0.7620" /> 
</g>
<g style="fill:#D864FF; fill-opacity:0.4000; stroke:none;">
<circle cx="12.3910" cy="37.8361" r="0.7620" /> 
</g>
<g style="fill:#D864FF; fill-opacity:0.4000; stroke:none;">
<circle cx="14.9310" cy="37.8361" r="0.7620" /> 
</g>
<g style="fill:#D864FF; fill-opacity:0.4000; stroke:none;">
<circle cx="17.4710" cy="37.8361" r="0.7620" /> 
</g>
<g style="fill:#D864FF; fill-opacity:0.4000; stroke:none;">
<circle cx="20.0110" cy="37.8361" r="0.7620" /> 
</g>
<g style="fill:#D864FF; fill-opacity:0.4000; stroke:none;">
<circle cx="22.5510" cy="37.8361" r="0.7620" /> 
</g>
<g style="fill:#D864FF; fill-opacity:0.4000; stroke:none;">
<circle cx="25.0910" cy="37.8361" r="0.7620" /> 
</g>
<g style="fill:#D864FF; fill-opacity:0.4000; stroke:none;">
<circle cx="27.6310" cy="37.8361" r="0.7620" /> 
</g>
<g style="fill:#D864FF; fill-opacity:0.4000; stroke:none;">
<circle cx="30.1710" cy="37.8361" r="0.7620" /> 
</g>
<g style="fill:#D864FF; fill-opacity:0.4000; stroke:none;">
<circle cx="32.7110" cy="37.8361" r="0.7620" /> 
</g>
<g style="fill:#D864FF; fill-opacity:0.4000; stroke:none;">
<circle cx="35.2510" cy="37.8361" r="0.7620" /> 
</g>
<g style="fill:#D864FF; fill-opacity:0.4000; stroke:none;">
<circle cx="37.7910" cy="37.8361" r="0.7620" /> 
</g>
<g style="fill:#D864FF; fill-opacity:0.4000; stroke:none;">
<circle cx="40.3310" cy="37.8361" r="0.7620" /> 
</g>
<g style="fill:#D864FF; fill-opacity:0.4000; stroke:none;">
<circle cx="42.8710" cy="37.8361" r="0.7620" /> 
</g>
<g style="fill:#D864FF; fill-opacity:0.4000; stroke:none;">
<circle cx="57.3710" cy="-3.7839" r="1.1000" /> 
<path style="fill:#D864FF; fill-opacity:0.4000; stroke:none;fill-rule:evenodd;"
d="M 9.6710,-0.2339
9.6710,1.1661
8.0710,1.1661
8.0710,-0.2339
Z" /> 
<path style="fill:#D864FF; fill-opacity:0.4000; stroke:none;fill-rule:evenodd;"
d="M 17.6710,-0.2339
17.6710,1.1661
16.0710,1.1661
16.0710,-0.2339
Z" /> 
<path style="fill:#D864FF; fill-opacity:0.4000; stroke:none;fill-rule:evenodd;"
d="M 9.6710,4.2661
9.6710,5.6661
8.0710,5.6661
8.0710,4.2661
Z" /> 
<path style="fill:#D864FF; fill-opacity:0.4000; stroke:none;fill-rule:evenodd;"
d="M 17.6710,4.2661
17.6710,5.6661
16.0710,5.6661
16.0710,4.2661
Z" /> 
<path style="fill:#D864FF; fill-opacity:0.4000; stroke:none;fill-rule:evenodd;"
d="M 5.7910,88.5911
5.8100,88.4954
5.8642,88.4143
5.9453,88.3601
6.0410,88.3411
6.8410,88.3411
6.9367,88.3601
7.0178,88.4143
7.0720,88.4954
7.0910,88.5911
7.0910,89.8411
7.0720,89.9368
7.0178,90.0179
6.9367,90.0721
6.8410,90.0911
6.0410,90.0911
5.9453,90.0721
5.8642,90.0179
5.8100,89.9368
5.7910,89.8411
Z" /> 
<path style="fill:#D864FF; fill-opacity:0.4000; stroke:none;fill-rule:evenodd;"
d="M 8.8910,88.5911
8.9100,88.4954
8.9642,88.4143
9.0453,88.3601
9.1410,88.3411
9.9410,88.3411
10.0367,88.3601
10.1178,88.4143
10.1720,88.4954
10.1910,88.5911
10.1910,89.8411
10.1720,89.9368
10.1178,90.0179
10.0367,90.0721
9.9410,90.0911
9.1410,90.0911
9.0453,90.0721
8.9642,90.0179
8.9100,89.9368
8.8910,89.8411
Z" /> 
<path style="fill:#D864FF; fill-opacity:0.4000; stroke:none;fill-rule:evenodd;"
d="M 3.5310,62.8261
3.5310,64.2261
1.9310,64.2261
1.9310,62.8261
Z" /> 
<path style="fill:#D864FF; fill-opacity:0.4000; stroke:none;fill-rule:evenodd;"
d="M 11.5310,62.8261
11.5310,64.2261
9.9310,64.2261
9.9310,62.8261
Z" /> 
<path style="fill:#D864FF; fill-opacity:0.4000; stroke:none;fill-rule:evenodd;"
d="M 3.5310,67.3261
3.5310,68.7261
1.9310,68.7261
1.9310,67.3261
Z" /> 
<path style="fill:#D864FF; fill-opacity:0.4000; stroke:none;fill-rule:evenodd;"
d="M 11.5310,67.3261
11.5310,68.7261
9.9310,68.7261
9.9310,67.3261
Z" /> 
<path style="fill:#D864FF; fill-opacity:0.4000; stroke:none;fill-rule:evenodd;"
d="M 27.4460,89.0661
25.7460,89.0661
25.7460,87.3661
27.4460,87.3661
Z" /> 
</g>
<g style="fill:#D864FF; fill-opacity:0.4000; stroke:none;">
<circle cx="29.1360" cy="88.2161" r="0.8500" /> 
<path style="fill:#D864FF; fill-opacity:0.4000; stroke:none;fill-rule:evenodd;"
d="M 44.1710,62.8261
44.1710,64.2261
42.5710,64.2261
42.5710,62.8261
Z" /> 
<path style="fill:#D864FF; fill-opacity:0.4000; stroke:none;fill-rule:evenodd;"
d="M 52.1710,62.8261
52.1710,64.2261
50.5710,64.2261
50.5710,62.8261
Z" /> 
<path style="fill:#D864FF; fill-opacity:0.4000; stroke:none;fill-rule:evenodd;"
d="M 44.1710,67.3261
44.1710,68.7261
42.5710,68.7261
42.5710,67.3261
Z" /> 
<path style="fill:#D864FF; fill-opacity:0.4000; stroke:none;fill-rule:evenodd;"
d="M 52.1710,67.3261
52.1710,68.7261
50.5710,68.7261
50.5710,67.3261
Z" /> 
<circle cx="57.3710" cy="106.2161" r="1.1000" /> 
</g>
<g style="fill:#ECECEC; fill-opacity:1.0000; stroke:none;">
<circle cx="0.6000" cy="0.6000" r="0.6000" /> 
</g>
<g style="fill:#ECECEC; fill-opacity:1.0000; stroke:none;">
<circle cx="31.9070" cy="52.5764" r="0.6000" /> 
</g>
<g style="fill:#ECECEC; fill-opacity:1.0000; stroke:none;">
<circle cx="45.4990" cy="37.8109" r="0.6000" /> 
<path style="fill:none; 
stroke:#D0D2CD; stroke-width:0.0500; stroke-opacity:1; 
stroke-linecap:round; stroke-linejoin:round;fill:none"
d="M -7.1690,-7.8839
61.8310,-7.8839
61.8310,112.1161
-7.1690,112.1161
Z" /> 
</g> 
</svg>
