<?xml version="1.0" standalone="no"?>
 <!DOCTYPE svg PUBLIC "-//W3C//DTD SVG 1.1//EN" 
 "http://www.w3.org/Graphics/SVG/1.1/DTD/svg11.dtd"> 
<svg
  xmlns:svg="http://www.w3.org/2000/svg"
  xmlns="http://www.w3.org/2000/svg"
  xmlns:xlink="http://www.w3.org/1999/xlink"
  version="1.1"
  width="69.0626mm" height="120.0404mm" viewBox="0.0000 0.0000 69.0626 120.0404">
<title>SVG Image created as LoRaKid-F_Mask.svg date 2024/05/31 13:23:24 </title>
  <desc>Image generated by PCBNEW </desc>
<g style="fill:#000000; fill-opacity:1.0000;stroke:#000000; stroke-opacity:1.0000;
stroke-linecap:round; stroke-linejoin:round;"
 transform="translate(0 0) scale(1 1)">
<path style="fill:#D864FF; fill-opacity:0.4000; stroke:none;fill-rule:evenodd;"
d="M 18.7800,84.1950
18.7800,82.3950
19.8800,82.3950
19.8800,84.1950
Z" /> 
<path style="fill:#D864FF; fill-opacity:0.4000; stroke:none;fill-rule:evenodd;"
d="M 20.0500,80.6000
20.0709,80.4948
20.1305,80.4055
20.2198,80.3459
20.3250,80.3250
20.8750,80.3250
20.9802,80.3459
21.0695,80.4055
21.1291,80.4948
21.1500,80.6000
21.1500,81.8500
21.1291,81.9552
21.0695,82.0445
20.9802,82.1041
20.8750,82.1250
20.3250,82.1250
20.2198,82.1041
20.1305,82.0445
20.0709,81.9552
20.0500,81.8500
Z" /> 
<path style="fill:#D864FF; fill-opacity:0.4000; stroke:none;fill-rule:evenodd;"
d="M 21.3200,82.6700
21.3409,82.5648
21.4005,82.4755
21.4898,82.4159
21.5950,82.3950
22.1450,82.3950
22.2502,82.4159
22.3395,82.4755
22.3991,82.5648
22.4200,82.6700
22.4200,83.9200
22.3991,84.0252
22.3395,84.1145
22.2502,84.1741
22.1450,84.1950
21.5950,84.1950
21.4898,84.1741
21.4005,84.1145
21.3409,84.0252
21.3200,83.9200
Z" /> 
<path style="fill:#D864FF; fill-opacity:0.4000; stroke:none;fill-rule:evenodd;"
d="M 3.1200,7.6750
3.1200,9.0750
1.5200,9.0750
1.5200,7.6750
Z" /> 
<path style="fill:#D864FF; fill-opacity:0.4000; stroke:none;fill-rule:evenodd;"
d="M 11.1200,7.6750
11.1200,9.0750
9.5200,9.0750
9.5200,7.6750
Z" /> 
<path style="fill:#D864FF; fill-opacity:0.4000; stroke:none;fill-rule:evenodd;"
d="M 3.1200,12.1750
3.1200,13.5750
1.5200,13.5750
1.5200,12.1750
Z" /> 
<path style="fill:#D864FF; fill-opacity:0.4000; stroke:none;fill-rule:evenodd;"
d="M 11.1200,12.1750
11.1200,13.5750
9.5200,13.5750
9.5200,12.1750
Z" /> 
<path style="fill:#D864FF; fill-opacity:0.4000; stroke:none;fill-rule:evenodd;"
d="M 31.8700,107.9750
30.1700,107.9750
30.1700,106.2750
31.8700,106.2750
Z" /> 
</g>
<g style="fill:#D864FF; fill-opacity:0.4000; stroke:none;">
<circle cx="33.5600" cy="107.1250" r="0.8500" /> 
<circle cx="36.1000" cy="107.1250" r="0.8500" /> 
<circle cx="38.6400" cy="107.1250" r="0.8500" /> 
<circle cx="4.1000" cy="114.1250" r="1.1000" /> 
<path style="fill:#D864FF; fill-opacity:0.4000; stroke:none;fill-rule:evenodd;"
d="M 10.7600,52.9550
10.7600,54.3550
9.1600,54.3550
9.1600,52.9550
Z" /> 
<path style="fill:#D864FF; fill-opacity:0.4000; stroke:none;fill-rule:evenodd;"
d="M 18.7600,52.9550
18.7600,54.3550
17.1600,54.3550
17.1600,52.9550
Z" /> 
<path style="fill:#D864FF; fill-opacity:0.4000; stroke:none;fill-rule:evenodd;"
d="M 10.7600,57.4550
10.7600,58.8550
9.1600,58.8550
9.1600,57.4550
Z" /> 
<path style="fill:#D864FF; fill-opacity:0.4000; stroke:none;fill-rule:evenodd;"
d="M 18.7600,57.4550
18.7600,58.8550
17.1600,58.8550
17.1600,57.4550
Z" /> 
<path style="fill:#D864FF; fill-opacity:0.4000; stroke:none;fill-rule:evenodd;"
d="M 46.9000,7.6750
46.9000,9.0750
45.3000,9.0750
45.3000,7.6750
Z" /> 
<path style="fill:#D864FF; fill-opacity:0.4000; stroke:none;fill-rule:evenodd;"
d="M 54.9000,7.6750
54.9000,9.0750
53.3000,9.0750
53.3000,7.6750
Z" /> 
<path style="fill:#D864FF; fill-opacity:0.4000; stroke:none;fill-rule:evenodd;"
d="M 46.9000,12.1750
46.9000,13.5750
45.3000,13.5750
45.3000,12.1750
Z" /> 
<path style="fill:#D864FF; fill-opacity:0.4000; stroke:none;fill-rule:evenodd;"
d="M 54.9000,12.1750
54.9000,13.5750
53.3000,13.5750
53.3000,12.1750
Z" /> 
<path style="fill:#D864FF; fill-opacity:0.4000; stroke:none;fill-rule:evenodd;"
d="M 31.0800,70.7350
31.0800,72.1350
29.4800,72.1350
29.4800,70.7350
Z" /> 
<path style="fill:#D864FF; fill-opacity:0.4000; stroke:none;fill-rule:evenodd;"
d="M 39.0800,70.7350
39.0800,72.1350
37.4800,72.1350
37.4800,70.7350
Z" /> 
<path style="fill:#D864FF; fill-opacity:0.4000; stroke:none;fill-rule:evenodd;"
d="M 31.0800,75.2350
31.0800,76.6350
29.4800,76.6350
29.4800,75.2350
Z" /> 
<path style="fill:#D864FF; fill-opacity:0.4000; stroke:none;fill-rule:evenodd;"
d="M 39.0800,75.2350
39.0800,76.6350
37.4800,76.6350
37.4800,75.2350
Z" /> 
<path style="fill:#D864FF; fill-opacity:0.4000; stroke:none;fill-rule:evenodd;"
d="M 51.4000,52.9550
51.4000,54.3550
49.8000,54.3550
49.8000,52.9550
Z" /> 
<path style="fill:#D864FF; fill-opacity:0.4000; stroke:none;fill-rule:evenodd;"
d="M 59.4000,52.9550
59.4000,54.3550
57.8000,54.3550
57.8000,52.9550
Z" /> 
<path style="fill:#D864FF; fill-opacity:0.4000; stroke:none;fill-rule:evenodd;"
d="M 51.4000,57.4550
51.4000,58.8550
49.8000,58.8550
49.8000,57.4550
Z" /> 
<path style="fill:#D864FF; fill-opacity:0.4000; stroke:none;fill-rule:evenodd;"
d="M 59.4000,57.4550
59.4000,58.8550
57.8000,58.8550
57.8000,57.4550
Z" /> 
<path style="fill:#D864FF; fill-opacity:0.4000; stroke:none;fill-rule:evenodd;"
d="M 31.0800,52.9550
31.0800,54.3550
29.4800,54.3550
29.4800,52.9550
Z" /> 
<path style="fill:#D864FF; fill-opacity:0.4000; stroke:none;fill-rule:evenodd;"
d="M 39.0800,52.9550
39.0800,54.3550
37.4800,54.3550
37.4800,52.9550
Z" /> 
<path style="fill:#D864FF; fill-opacity:0.4000; stroke:none;fill-rule:evenodd;"
d="M 31.0800,57.4550
31.0800,58.8550
29.4800,58.8550
29.4800,57.4550
Z" /> 
<path style="fill:#D864FF; fill-opacity:0.4000; stroke:none;fill-rule:evenodd;"
d="M 39.0800,57.4550
39.0800,58.8550
37.4800,58.8550
37.4800,57.4550
Z" /> 
<path style="fill:#D864FF; fill-opacity:0.4000; stroke:none;fill-rule:evenodd;"
d="M 47.5000,93.5000
47.5190,93.4043
47.5732,93.3232
47.6543,93.2690
47.7500,93.2500
48.4500,93.2500
48.5457,93.2690
48.6268,93.3232
48.6810,93.4043
48.7000,93.5000
48.7000,94.7500
48.6810,94.8457
48.6268,94.9268
48.5457,94.9810
48.4500,95.0000
47.7500,95.0000
47.6543,94.9810
47.5732,94.9268
47.5190,94.8457
47.5000,94.7500
Z" /> 
</g>
<g style="fill:none; 
stroke:#D864FF; stroke-width:1.2000; stroke-opacity:1; 
stroke-linecap:round; stroke-linejoin:round;">
<path d="M50.1000 93.8500
L50.1000 94.4000
" />
</g>
<g style="fill:#D864FF; fill-opacity:0.4000; stroke:none;">
<circle cx="4.1000" cy="4.1250" r="1.1000" /> 
<path style="fill:#D864FF; fill-opacity:0.4000; stroke:none;fill-rule:evenodd;"
d="M 30.8000,11.6250
30.8000,9.6250
32.8000,9.6250
32.8000,11.6250
Z" /> 
</g>
<g style="fill:#D864FF; fill-opacity:0.4000; stroke:none;">
<circle cx="39.4000" cy="10.6250" r="1.0000" /> 
<path style="fill:#D864FF; fill-opacity:0.4000; stroke:none;fill-rule:evenodd;"
d="M 21.3500,96.5000
21.3690,96.4043
21.4232,96.3232
21.5043,96.2690
21.6000,96.2500
22.4000,96.2500
22.4957,96.2690
22.5768,96.3232
22.6310,96.4043
22.6500,96.5000
22.6500,97.7500
22.6310,97.8457
22.5768,97.9268
22.4957,97.9810
22.4000,98.0000
21.6000,98.0000
21.5043,97.9810
21.4232,97.9268
21.3690,97.8457
21.3500,97.7500
Z" /> 
<path style="fill:#D864FF; fill-opacity:0.4000; stroke:none;fill-rule:evenodd;"
d="M 24.4500,96.5000
24.4690,96.4043
24.5232,96.3232
24.6043,96.2690
24.7000,96.2500
25.5000,96.2500
25.5957,96.2690
25.6768,96.3232
25.7310,96.4043
25.7500,96.5000
25.7500,97.7500
25.7310,97.8457
25.6768,97.9268
25.5957,97.9810
25.5000,98.0000
24.7000,98.0000
24.6043,97.9810
24.5232,97.9268
24.4690,97.8457
24.4500,97.7500
Z" /> 
</g>
<g style="fill:none; 
stroke:#D864FF; stroke-width:2.0000; stroke-opacity:1; 
stroke-linecap:round; stroke-linejoin:round;">
<path d="M50.1000 45.2450
L50.1000 46.2450
" />
<path d="M47.5600 45.2450
L47.5600 46.2450
" />
<path d="M45.0200 45.2450
L45.0200 46.2450
" />
<path d="M42.4800 45.2450
L42.4800 46.2450
" />
<path d="M39.9400 45.2450
L39.9400 46.2450
" />
<path d="M37.4000 45.2450
L37.4000 46.2450
" />
<path d="M34.8600 45.2450
L34.8600 46.2450
" />
<path d="M32.3200 45.2450
L32.3200 46.2450
" />
<path d="M29.7800 45.2450
L29.7800 46.2450
" />
<path d="M27.2400 45.2450
L27.2400 46.2450
" />
<path d="M24.7000 45.2450
L24.7000 46.2450
" />
<path d="M22.1600 45.2450
L22.1600 46.2450
" />
<path d="M19.6200 45.2450
L19.6200 46.2450
" />
<path d="M17.0800 45.2450
L17.0800 46.2450
" />
<path d="M14.5400 45.2450
L14.5400 46.2450
" />
<path d="M12.0000 45.2450
L12.0000 46.2450
" />
<path d="M9.4600 45.2450
L9.4600 46.2450
" />
<path d="M6.9200 45.2450
L6.9200 46.2450
" />
<path d="M50.1000 22.3850
L50.1000 23.3850
" />
<path d="M47.5600 22.3850
L47.5600 23.3850
" />
<path d="M45.0200 22.3850
L45.0200 23.3850
" />
<path d="M42.4800 22.3850
L42.4800 23.3850
" />
<path d="M39.9400 22.3850
L39.9400 23.3850
" />
<path d="M37.4000 22.3850
L37.4000 23.3850
" />
<path d="M34.8600 22.3850
L34.8600 23.3850
" />
<path d="M32.3200 22.3850
L32.3200 23.3850
" />
<path d="M29.7800 22.3850
L29.7800 23.3850
" />
<path d="M27.2400 22.3850
L27.2400 23.3850
" />
<path d="M24.7000 22.3850
L24.7000 23.3850
" />
<path d="M22.1600 22.3850
L22.1600 23.3850
" />
<path d="M19.6200 22.3850
L19.6200 23.3850
" />
<path d="M17.0800 22.3850
L17.0800 23.3850
" />
<path d="M14.5400 22.3850
L14.5400 23.3850
" />
<path d="M12.0000 22.3850
L12.0000 23.3850
" />
<path d="M9.4600 22.3850
L9.4600 23.3850
" />
<path style="fill:#D864FF; fill-opacity:0.4000; stroke:none;fill-rule:evenodd;"
d="M 5.9200,24.3850
5.9200,21.3850
7.9200,21.3850
7.9200,24.3850
Z" /> 
</g>
<g style="fill:#D864FF; fill-opacity:0.4000; stroke:none;">
<circle cx="64.6000" cy="4.1250" r="1.1000" /> 
<path style="fill:#D864FF; fill-opacity:0.4000; stroke:none;fill-rule:evenodd;"
d="M 16.9000,7.6750
16.9000,9.0750
15.3000,9.0750
15.3000,7.6750
Z" /> 
<path style="fill:#D864FF; fill-opacity:0.4000; stroke:none;fill-rule:evenodd;"
d="M 24.9000,7.6750
24.9000,9.0750
23.3000,9.0750
23.3000,7.6750
Z" /> 
<path style="fill:#D864FF; fill-opacity:0.4000; stroke:none;fill-rule:evenodd;"
d="M 16.9000,12.1750
16.9000,13.5750
15.3000,13.5750
15.3000,12.1750
Z" /> 
<path style="fill:#D864FF; fill-opacity:0.4000; stroke:none;fill-rule:evenodd;"
d="M 24.9000,12.1750
24.9000,13.5750
23.3000,13.5750
23.3000,12.1750
Z" /> 
<path style="fill:#D864FF; fill-opacity:0.4000; stroke:none;fill-rule:evenodd;"
d="M 13.0200,96.5000
13.0390,96.4043
13.0932,96.3232
13.1743,96.2690
13.2700,96.2500
14.0700,96.2500
14.1657,96.2690
14.2468,96.3232
14.3010,96.4043
14.3200,96.5000
14.3200,97.7500
14.3010,97.8457
14.2468,97.9268
14.1657,97.9810
14.0700,98.0000
13.2700,98.0000
13.1743,97.9810
13.0932,97.9268
13.0390,97.8457
13.0200,97.7500
Z" /> 
<path style="fill:#D864FF; fill-opacity:0.4000; stroke:none;fill-rule:evenodd;"
d="M 16.1200,96.5000
16.1390,96.4043
16.1932,96.3232
16.2743,96.2690
16.3700,96.2500
17.1700,96.2500
17.2657,96.2690
17.3468,96.3232
17.4010,96.4043
17.4200,96.5000
17.4200,97.7500
17.4010,97.8457
17.3468,97.9268
17.2657,97.9810
17.1700,98.0000
16.3700,98.0000
16.2743,97.9810
16.1932,97.9268
16.1390,97.8457
16.1200,97.7500
Z" /> 
<path style="fill:#D864FF; fill-opacity:0.4000; stroke:none;fill-rule:evenodd;"
d="M 10.7600,70.7350
10.7600,72.1350
9.1600,72.1350
9.1600,70.7350
Z" /> 
<path style="fill:#D864FF; fill-opacity:0.4000; stroke:none;fill-rule:evenodd;"
d="M 18.7600,70.7350
18.7600,72.1350
17.1600,72.1350
17.1600,70.7350
Z" /> 
<path style="fill:#D864FF; fill-opacity:0.4000; stroke:none;fill-rule:evenodd;"
d="M 10.7600,75.2350
10.7600,76.6350
9.1600,76.6350
9.1600,75.2350
Z" /> 
<path style="fill:#D864FF; fill-opacity:0.4000; stroke:none;fill-rule:evenodd;"
d="M 18.7600,75.2350
18.7600,76.6350
17.1600,76.6350
17.1600,75.2350
Z" /> 
<path style="fill:#D864FF; fill-opacity:0.4000; stroke:none;fill-rule:evenodd;"
d="M 34.6750,96.9750
32.9750,96.9750
32.9750,95.2750
34.6750,95.2750
Z" /> 
</g>
<g style="fill:#D864FF; fill-opacity:0.4000; stroke:none;">
<circle cx="36.3650" cy="96.1250" r="0.8500" /> 
<path style="fill:#D864FF; fill-opacity:0.4000; stroke:none;fill-rule:evenodd;"
d="M 51.4000,70.7350
51.4000,72.1350
49.8000,72.1350
49.8000,70.7350
Z" /> 
<path style="fill:#D864FF; fill-opacity:0.4000; stroke:none;fill-rule:evenodd;"
d="M 59.4000,70.7350
59.4000,72.1350
57.8000,72.1350
57.8000,70.7350
Z" /> 
<path style="fill:#D864FF; fill-opacity:0.4000; stroke:none;fill-rule:evenodd;"
d="M 51.4000,75.2350
51.4000,76.6350
49.8000,76.6350
49.8000,75.2350
Z" /> 
<path style="fill:#D864FF; fill-opacity:0.4000; stroke:none;fill-rule:evenodd;"
d="M 59.4000,75.2350
59.4000,76.6350
57.8000,76.6350
57.8000,75.2350
Z" /> 
<circle cx="64.6000" cy="114.1250" r="1.1000" /> 
</g>
<g style="fill:#ECECEC; fill-opacity:1.0000; stroke:none;">
<circle cx="6.6000" cy="16.6250" r="1.0000" /> 
</g>
<g style="fill:#ECECEC; fill-opacity:1.0000; stroke:none;">
<circle cx="34.1000" cy="63.6250" r="1.0000" /> 
</g>
<g style="fill:#ECECEC; fill-opacity:1.0000; stroke:none;">
<circle cx="49.6000" cy="64.1250" r="1.0000" /> 
<path style="fill:none; 
stroke:#D0D2CD; stroke-width:0.0500; stroke-opacity:1; 
stroke-linecap:round; stroke-linejoin:round;fill:none"
d="M 0.0600,0.0250
69.0600,0.0250
69.0600,120.0250
0.0600,120.0250
Z" /> 
</g> 
</svg>
