<?xml version="1.0" standalone="no"?>
 <!DOCTYPE svg PUBLIC "-//W3C//DTD SVG 1.1//EN" 
 "http://www.w3.org/Graphics/SVG/1.1/DTD/svg11.dtd"> 
<svg
  xmlns:svg="http://www.w3.org/2000/svg"
  xmlns="http://www.w3.org/2000/svg"
  xmlns:xlink="http://www.w3.org/1999/xlink"
  version="1.1"
  width="69.0626mm" height="120.0404mm" viewBox="0.0000 0.0000 69.0626 120.0404">
<title>SVG Image created as LoRaKid-B_Mask.svg date 2024/05/31 13:23:24 </title>
  <desc>Image generated by PCBNEW </desc>
<g style="fill:#000000; fill-opacity:1.0000;stroke:#000000; stroke-opacity:1.0000;
stroke-linecap:round; stroke-linejoin:round;"
 transform="translate(0 0) scale(1 1)">
<path style="fill:#02FFEE; fill-opacity:0.4000; stroke:none;fill-rule:evenodd;"
d="M 18.7800,84.1950
18.7800,82.3950
19.8800,82.3950
19.8800,84.1950
Z" /> 
<path style="fill:#02FFEE; fill-opacity:0.4000; stroke:none;fill-rule:evenodd;"
d="M 20.0500,80.6000
20.0709,80.4948
20.1305,80.4055
20.2198,80.3459
20.3250,80.3250
20.8750,80.3250
20.9802,80.3459
21.0695,80.4055
21.1291,80.4948
21.1500,80.6000
21.1500,81.8500
21.1291,81.9552
21.0695,82.0445
20.9802,82.1041
20.8750,82.1250
20.3250,82.1250
20.2198,82.1041
20.1305,82.0445
20.0709,81.9552
20.0500,81.8500
Z" /> 
<path style="fill:#02FFEE; fill-opacity:0.4000; stroke:none;fill-rule:evenodd;"
d="M 21.3200,82.6700
21.3409,82.5648
21.4005,82.4755
21.4898,82.4159
21.5950,82.3950
22.1450,82.3950
22.2502,82.4159
22.3395,82.4755
22.3991,82.5648
22.4200,82.6700
22.4200,83.9200
22.3991,84.0252
22.3395,84.1145
22.2502,84.1741
22.1450,84.1950
21.5950,84.1950
21.4898,84.1741
21.4005,84.1145
21.3409,84.0252
21.3200,83.9200
Z" /> 
<path style="fill:#02FFEE; fill-opacity:0.4000; stroke:none;fill-rule:evenodd;"
d="M 31.8700,107.9750
30.1700,107.9750
30.1700,106.2750
31.8700,106.2750
Z" /> 
</g>
<g style="fill:#02FFEE; fill-opacity:0.4000; stroke:none;">
<circle cx="33.5600" cy="107.1250" r="0.8500" /> 
<circle cx="36.1000" cy="107.1250" r="0.8500" /> 
<circle cx="38.6400" cy="107.1250" r="0.8500" /> 
<circle cx="4.1000" cy="114.1250" r="1.1000" /> 
<path style="fill:#02FFEE; fill-opacity:0.4000; stroke:none;fill-rule:evenodd;"
d="M 47.5000,93.5000
47.5190,93.4043
47.5732,93.3232
47.6543,93.2690
47.7500,93.2500
48.4500,93.2500
48.5457,93.2690
48.6268,93.3232
48.6810,93.4043
48.7000,93.5000
48.7000,94.7500
48.6810,94.8457
48.6268,94.9268
48.5457,94.9810
48.4500,95.0000
47.7500,95.0000
47.6543,94.9810
47.5732,94.9268
47.5190,94.8457
47.5000,94.7500
Z" /> 
</g>
<g style="fill:none; 
stroke:#02FFEE; stroke-width:1.2000; stroke-opacity:1; 
stroke-linecap:round; stroke-linejoin:round;">
<path d="M50.1000 93.8500
L50.1000 94.4000
" />
</g>
<g style="fill:#02FFEE; fill-opacity:0.4000; stroke:none;">
<circle cx="4.1000" cy="4.1250" r="1.1000" /> 
<path style="fill:#02FFEE; fill-opacity:0.4000; stroke:none;fill-rule:evenodd;"
d="M 30.8000,11.6250
30.8000,9.6250
32.8000,9.6250
32.8000,11.6250
Z" /> 
</g>
<g style="fill:#02FFEE; fill-opacity:0.4000; stroke:none;">
<circle cx="39.4000" cy="10.6250" r="1.0000" /> 
</g>
<g style="fill:none; 
stroke:#02FFEE; stroke-width:2.0000; stroke-opacity:1; 
stroke-linecap:round; stroke-linejoin:round;">
<path d="M50.1000 45.2450
L50.1000 46.2450
" />
<path d="M47.5600 45.2450
L47.5600 46.2450
" />
<path d="M45.0200 45.2450
L45.0200 46.2450
" />
<path d="M42.4800 45.2450
L42.4800 46.2450
" />
<path d="M39.9400 45.2450
L39.9400 46.2450
" />
<path d="M37.4000 45.2450
L37.4000 46.2450
" />
<path d="M34.8600 45.2450
L34.8600 46.2450
" />
<path d="M32.3200 45.2450
L32.3200 46.2450
" />
<path d="M29.7800 45.2450
L29.7800 46.2450
" />
<path d="M27.2400 45.2450
L27.2400 46.2450
" />
<path d="M24.7000 45.2450
L24.7000 46.2450
" />
<path d="M22.1600 45.2450
L22.1600 46.2450
" />
<path d="M19.6200 45.2450
L19.6200 46.2450
" />
<path d="M17.0800 45.2450
L17.0800 46.2450
" />
<path d="M14.5400 45.2450
L14.5400 46.2450
" />
<path d="M12.0000 45.2450
L12.0000 46.2450
" />
<path d="M9.4600 45.2450
L9.4600 46.2450
" />
<path d="M6.9200 45.2450
L6.9200 46.2450
" />
<path d="M50.1000 22.3850
L50.1000 23.3850
" />
<path d="M47.5600 22.3850
L47.5600 23.3850
" />
<path d="M45.0200 22.3850
L45.0200 23.3850
" />
<path d="M42.4800 22.3850
L42.4800 23.3850
" />
<path d="M39.9400 22.3850
L39.9400 23.3850
" />
<path d="M37.4000 22.3850
L37.4000 23.3850
" />
<path d="M34.8600 22.3850
L34.8600 23.3850
" />
<path d="M32.3200 22.3850
L32.3200 23.3850
" />
<path d="M29.7800 22.3850
L29.7800 23.3850
" />
<path d="M27.2400 22.3850
L27.2400 23.3850
" />
<path d="M24.7000 22.3850
L24.7000 23.3850
" />
<path d="M22.1600 22.3850
L22.1600 23.3850
" />
<path d="M19.6200 22.3850
L19.6200 23.3850
" />
<path d="M17.0800 22.3850
L17.0800 23.3850
" />
<path d="M14.5400 22.3850
L14.5400 23.3850
" />
<path d="M12.0000 22.3850
L12.0000 23.3850
" />
<path d="M9.4600 22.3850
L9.4600 23.3850
" />
<path style="fill:#02FFEE; fill-opacity:0.4000; stroke:none;fill-rule:evenodd;"
d="M 5.9200,24.3850
5.9200,21.3850
7.9200,21.3850
7.9200,24.3850
Z" /> 
</g>
<g style="fill:#02FFEE; fill-opacity:0.4000; stroke:none;">
<circle cx="64.6000" cy="4.1250" r="1.1000" /> 
<path style="fill:#02FFEE; fill-opacity:0.4000; stroke:none;fill-rule:evenodd;"
d="M 34.6750,96.9750
32.9750,96.9750
32.9750,95.2750
34.6750,95.2750
Z" /> 
</g>
<g style="fill:#02FFEE; fill-opacity:0.4000; stroke:none;">
<circle cx="36.3650" cy="96.1250" r="0.8500" /> 
<circle cx="64.6000" cy="114.1250" r="1.1000" /> 
</g>
<g style="fill:#ECECEC; fill-opacity:1.0000; stroke:none;">
<circle cx="6.6000" cy="16.6250" r="1.0000" /> 
</g>
<g style="fill:#ECECEC; fill-opacity:1.0000; stroke:none;">
<circle cx="34.1000" cy="63.6250" r="1.0000" /> 
</g>
<g style="fill:#ECECEC; fill-opacity:1.0000; stroke:none;">
<circle cx="49.6000" cy="64.1250" r="1.0000" /> 
<path style="fill:none; 
stroke:#D0D2CD; stroke-width:0.0500; stroke-opacity:1; 
stroke-linecap:round; stroke-linejoin:round;fill:none"
d="M 0.0600,0.0250
69.0600,0.0250
69.0600,120.0250
0.0600,120.0250
Z" /> 
</g> 
</svg>
